<svg width="862" height="1975" viewBox="0 0 862 1975" fill="none" xmlns="http://www.w3.org/2000/svg">
<g clip-path="url(#clip0_622_4517)">
<path fill-rule="evenodd" clip-rule="evenodd" d="M819.606 555.322L819.606 279.642L741.964 202.017L76.673 202.017L76.673 161.343L758.809 161.342L860.28 262.792L860.28 572.17L70.5732 1361.88L41.812 1333.12L819.606 555.322Z" fill="#DFF2FD"/>
<path fill-rule="evenodd" clip-rule="evenodd" d="M0 627.408H747V668.408H0V627.408Z" fill="#DFF2FD"/>
<path fill-rule="evenodd" clip-rule="evenodd" d="M820.963 1096.57V497.586H861.637V1113.41L745.326 1229.73H567.715L446.758 1350.68V1975.41H406.084V1333.83L550.867 1189.05H728.479L820.963 1096.57Z" fill="#DFF2FD"/>
<mask id="path-4-outside-1_622_4517" maskUnits="userSpaceOnUse" x="345.267" y="41.0107" width="92" height="112" fill="black">
<rect fill="white" x="345.267" y="41.0107" width="92" height="112"/>
<path fill-rule="evenodd" clip-rule="evenodd" d="M394.819 43.0107L388.26 43.0107L388.26 77.4447L366.94 55.6468C366.614 55.3091 366.226 55.0411 365.798 54.8581C365.37 54.6752 364.911 54.5809 364.447 54.5809C363.983 54.5809 363.524 54.6752 363.096 54.8581C362.668 55.0411 362.28 55.3091 361.954 55.6468C361.299 56.3267 360.932 57.2431 360.932 58.1978C360.932 59.1525 361.299 60.0689 361.954 60.7489L388.26 87.6445L388.26 117.381L353.382 82.6128C352.708 81.9508 351.799 81.5797 350.853 81.5797C349.906 81.5797 348.998 81.9508 348.324 82.6128C347.989 82.9422 347.723 83.3345 347.542 83.767C347.361 84.1995 347.267 84.6636 347.267 85.1323C347.267 85.601 347.361 86.0651 347.542 86.4976C347.723 86.9301 347.989 87.3224 348.324 87.6518L363.236 102.517L363.207 102.517C362.221 102.5 361.267 102.846 360.546 103.481L350.02 113.457C349.489 113.96 349.127 114.601 348.98 115.298C348.834 115.995 348.909 116.718 349.197 117.375C349.484 118.032 349.971 118.593 350.596 118.989C351.222 119.384 351.956 119.595 352.708 119.596C353.716 119.587 354.68 119.209 355.397 118.541L365.924 108.565C366.557 107.923 366.918 107.086 366.943 106.213L388.26 127.462L388.26 151L394.819 151L394.819 127.387L416.241 105.801C416.179 106.06 416.145 106.329 416.14 106.6C416.124 107.532 416.457 108.434 417.067 109.116L426.629 119.092C427.281 119.76 428.156 120.138 429.071 120.147C429.994 120.144 430.879 119.766 431.536 119.092C432.178 118.414 432.538 117.501 432.538 116.55C432.538 115.598 432.178 114.685 431.536 114.008L421.952 104.032C421.297 103.397 420.43 103.051 419.535 103.067C419.311 103.071 419.091 103.098 418.875 103.146L434.316 87.5854C434.942 86.9084 435.283 86.013 435.267 85.0878C435.251 84.1627 434.879 83.2799 434.229 82.6256C433.58 81.9714 432.704 81.5966 431.786 81.5803C430.868 81.564 429.98 81.9074 429.308 82.5382L394.819 117.293L394.819 87.3525C394.834 87.3462 394.848 87.3398 394.863 87.3333C395.299 87.1369 395.692 86.852 396.021 86.4955L423.374 58.099C424.008 57.3919 424.354 56.4567 424.337 55.4905C424.321 54.5242 423.944 53.6022 423.286 52.9188C422.627 52.2355 421.739 51.8441 420.809 51.827C419.878 51.81 418.977 52.1686 418.296 52.8275L394.819 77.2425L394.819 43.0107Z"/>
</mask>
<path fill-rule="evenodd" clip-rule="evenodd" d="M394.819 43.0107L388.26 43.0107L388.26 77.4447L366.94 55.6468C366.614 55.3091 366.226 55.0411 365.798 54.8581C365.37 54.6752 364.911 54.5809 364.447 54.5809C363.983 54.5809 363.524 54.6752 363.096 54.8581C362.668 55.0411 362.28 55.3091 361.954 55.6468C361.299 56.3267 360.932 57.2431 360.932 58.1978C360.932 59.1525 361.299 60.0689 361.954 60.7489L388.26 87.6445L388.26 117.381L353.382 82.6128C352.708 81.9508 351.799 81.5797 350.853 81.5797C349.906 81.5797 348.998 81.9508 348.324 82.6128C347.989 82.9422 347.723 83.3345 347.542 83.767C347.361 84.1995 347.267 84.6636 347.267 85.1323C347.267 85.601 347.361 86.0651 347.542 86.4976C347.723 86.9301 347.989 87.3224 348.324 87.6518L363.236 102.517L363.207 102.517C362.221 102.5 361.267 102.846 360.546 103.481L350.02 113.457C349.489 113.96 349.127 114.601 348.98 115.298C348.834 115.995 348.909 116.718 349.197 117.375C349.484 118.032 349.971 118.593 350.596 118.989C351.222 119.384 351.956 119.595 352.708 119.596C353.716 119.587 354.68 119.209 355.397 118.541L365.924 108.565C366.557 107.923 366.918 107.086 366.943 106.213L388.26 127.462L388.26 151L394.819 151L394.819 127.387L416.241 105.801C416.179 106.06 416.145 106.329 416.14 106.6C416.124 107.532 416.457 108.434 417.067 109.116L426.629 119.092C427.281 119.76 428.156 120.138 429.071 120.147C429.994 120.144 430.879 119.766 431.536 119.092C432.178 118.414 432.538 117.501 432.538 116.55C432.538 115.598 432.178 114.685 431.536 114.008L421.952 104.032C421.297 103.397 420.43 103.051 419.535 103.067C419.311 103.071 419.091 103.098 418.875 103.146L434.316 87.5854C434.942 86.9084 435.283 86.013 435.267 85.0878C435.251 84.1627 434.879 83.2799 434.229 82.6256C433.58 81.9714 432.704 81.5966 431.786 81.5803C430.868 81.564 429.98 81.9074 429.308 82.5382L394.819 117.293L394.819 87.3525C394.834 87.3462 394.848 87.3398 394.863 87.3333C395.299 87.1369 395.692 86.852 396.021 86.4955L423.374 58.099C424.008 57.3919 424.354 56.4567 424.337 55.4905C424.321 54.5242 423.944 53.6022 423.286 52.9188C422.627 52.2355 421.739 51.8441 420.809 51.827C419.878 51.81 418.977 52.1686 418.296 52.8275L394.819 77.2425L394.819 43.0107Z" fill="#DFF2FD"/>
<path d="M388.26 43.0107V41.6549H386.904V43.0107H388.26ZM394.819 43.0107L396.175 43.0107V41.6549L394.819 41.6549V43.0107ZM388.26 77.4447L387.291 78.3928L389.616 80.7699V77.4447H388.26ZM366.94 55.6468L365.965 56.5885L365.971 56.5948L366.94 55.6468ZM365.798 54.8581L366.331 53.6114L366.331 53.6114L365.798 54.8581ZM363.096 54.8581L362.563 53.6114L362.563 53.6114L363.096 54.8581ZM361.954 55.6468L360.979 54.7051L360.978 54.7062L361.954 55.6468ZM361.954 60.7489L360.978 61.6895L360.985 61.6969L361.954 60.7489ZM388.26 87.6445H389.616V87.0917L389.23 86.6965L388.26 87.6445ZM388.26 117.381L387.303 118.341L389.616 120.647V117.381H388.26ZM353.382 82.6128L354.339 81.6525L354.332 81.6454L353.382 82.6128ZM348.324 82.6128L347.374 81.6454L347.373 81.6464L348.324 82.6128ZM347.542 83.767L348.792 84.2913L348.792 84.2913L347.542 83.767ZM347.542 86.4976L348.792 85.9733L348.792 85.9733L347.542 86.4976ZM348.324 87.6518L349.281 86.6916L349.275 86.6855L348.324 87.6518ZM363.236 102.517L363.209 103.873L366.585 103.941L364.193 101.557L363.236 102.517ZM363.207 102.517L363.235 101.161L363.23 101.161L363.207 102.517ZM360.546 103.481L359.65 102.464L359.631 102.48L359.614 102.497L360.546 103.481ZM350.02 113.457L350.952 114.442L350.953 114.441L350.02 113.457ZM348.98 115.298L350.307 115.577L350.307 115.577L348.98 115.298ZM350.596 118.989L349.872 120.135L349.872 120.135L350.596 118.989ZM352.708 119.596L352.707 120.952L352.72 120.952L352.708 119.596ZM355.397 118.541L356.321 119.533L356.33 119.525L355.397 118.541ZM365.924 108.565L366.856 109.549L366.873 109.533L366.889 109.517L365.924 108.565ZM366.943 106.213L367.901 105.252L365.68 103.039L365.588 106.173L366.943 106.213ZM388.26 127.462H389.616V126.899L389.217 126.502L388.26 127.462ZM388.26 151H386.904V152.356H388.26V151ZM394.819 151V152.356H396.175V151H394.819ZM394.819 127.387L393.857 126.432L393.464 126.829V127.387H394.819ZM416.241 105.801L417.56 106.114L418.674 101.424L415.278 104.846L416.241 105.801ZM416.14 106.6L417.496 106.623L417.496 106.623L416.14 106.6ZM417.067 109.116L416.057 110.02L416.072 110.037L416.088 110.054L417.067 109.116ZM426.629 119.092L425.65 120.03L425.658 120.038L426.629 119.092ZM429.071 120.147L429.059 121.502L429.067 121.503L429.075 121.503L429.071 120.147ZM431.536 119.092L432.507 120.038L432.514 120.031L432.521 120.024L431.536 119.092ZM431.536 114.008L432.521 113.076L432.514 113.068L431.536 114.008ZM421.952 104.032L422.929 103.093L422.913 103.076L422.896 103.059L421.952 104.032ZM419.535 103.067L419.51 101.712L419.51 101.712L419.535 103.067ZM418.875 103.146L417.913 102.191L414.658 105.471L419.169 104.469L418.875 103.146ZM434.316 87.5854L435.279 88.5404L435.296 88.5234L435.312 88.5058L434.316 87.5854ZM435.267 85.0878L436.623 85.0641L436.623 85.0641L435.267 85.0878ZM431.786 81.5803L431.81 80.2247L431.81 80.2247L431.786 81.5803ZM429.308 82.5382L428.38 81.5498L428.362 81.5662L428.345 81.5832L429.308 82.5382ZM394.819 117.293H393.464V120.584L395.782 118.248L394.819 117.293ZM394.819 87.3525L394.279 86.1089L393.464 86.4632V87.3525H394.819ZM394.863 87.3333L394.306 86.0971L394.306 86.0971L394.863 87.3333ZM396.021 86.4955L395.044 85.5549L395.034 85.5657L395.024 85.5768L396.021 86.4955ZM423.374 58.099L424.35 59.0395L424.367 59.0224L424.383 59.0046L423.374 58.099ZM424.337 55.4905L425.693 55.4674L425.693 55.4674L424.337 55.4905ZM423.286 52.9188L424.262 51.9782L424.262 51.9782L423.286 52.9188ZM420.809 51.827L420.784 53.1826L420.784 53.1826L420.809 51.827ZM418.296 52.8275L417.353 51.853L417.336 51.8701L417.319 51.8877L418.296 52.8275ZM394.819 77.2425H393.464V80.6086L395.797 78.1822L394.819 77.2425ZM388.26 44.3666L394.819 44.3666V41.6549L388.26 41.6549V44.3666ZM389.616 77.4447L389.616 43.0107H386.904L386.904 77.4447H389.616ZM365.971 56.5948L387.291 78.3928L389.23 76.4967L367.909 54.6987L365.971 56.5948ZM365.265 56.1048C365.525 56.216 365.763 56.3798 365.965 56.5884L367.915 54.7051C367.465 54.2384 366.927 53.8661 366.331 53.6114L365.265 56.1048ZM364.447 55.9367C364.727 55.9367 365.005 55.9936 365.265 56.1048L366.331 53.6114C365.735 53.3567 365.094 53.2251 364.447 53.2251V55.9367ZM363.629 56.1048C363.889 55.9935 364.167 55.9367 364.447 55.9367V53.2251C363.799 53.2251 363.159 53.3568 362.563 53.6114L363.629 56.1048ZM362.929 56.5884C363.131 56.3798 363.369 56.216 363.629 56.1048L362.563 53.6114C361.967 53.8661 361.429 54.2384 360.979 54.7051L362.929 56.5884ZM362.288 58.1978C362.288 57.5897 362.522 57.0117 362.931 56.5874L360.978 54.7062C360.076 55.6418 359.576 56.8965 359.576 58.1978L362.288 58.1978ZM362.931 59.8083C362.522 59.384 362.288 58.8059 362.288 58.1978L359.576 58.1978C359.576 59.4992 360.076 60.7539 360.978 61.6895L362.931 59.8083ZM389.23 86.6965L362.923 59.8008L360.985 61.6969L387.291 88.5925L389.23 86.6965ZM389.616 117.381L389.616 87.6445H386.904L386.904 117.381H389.616ZM352.425 83.573L387.303 118.341L389.217 116.421L354.339 81.6525L352.425 83.573ZM350.853 82.9355C351.445 82.9355 352.012 83.1677 352.432 83.5801L354.332 81.6454C353.404 80.7339 352.154 80.2239 350.853 80.2239V82.9355ZM349.274 83.5801C349.694 83.1677 350.261 82.9355 350.853 82.9355V80.2239C349.552 80.2239 348.302 80.7339 347.374 81.6454L349.274 83.5801ZM348.792 84.2913C348.904 84.0246 349.068 83.7825 349.275 83.5791L347.373 81.6464C346.91 82.1018 346.543 82.6444 346.292 83.2426L348.792 84.2913ZM348.623 85.1323C348.623 84.8435 348.681 84.5576 348.792 84.2913L346.292 83.2426C346.041 83.8413 345.912 84.4837 345.912 85.1323H348.623ZM348.792 85.9733C348.681 85.7069 348.623 85.4211 348.623 85.1323H345.912C345.912 85.7809 346.041 86.4233 346.292 87.0219L348.792 85.9733ZM349.275 86.6855C349.068 86.4821 348.904 86.24 348.792 85.9733L346.292 87.0219C346.543 87.6202 346.91 88.1627 347.373 88.6181L349.275 86.6855ZM364.193 101.557L349.281 86.6916L347.367 88.612L362.279 103.477L364.193 101.557ZM363.18 103.872L363.209 103.873L363.264 101.162L363.235 101.161L363.18 103.872ZM361.442 104.499C361.903 104.093 362.527 103.861 363.184 103.872L363.23 101.161C361.916 101.139 360.632 101.599 359.65 102.464L361.442 104.499ZM350.953 114.441L361.479 104.466L359.614 102.497L349.087 112.473L350.953 114.441ZM350.307 115.577C350.395 115.157 350.615 114.76 350.952 114.442L349.088 112.472C348.362 113.16 347.858 114.044 347.653 115.019L350.307 115.577ZM350.439 116.831C350.263 116.431 350.219 115.996 350.307 115.577L347.653 115.019C347.448 115.995 347.554 117.005 347.955 117.919L350.439 116.831ZM351.321 117.843C350.917 117.587 350.614 117.232 350.439 116.831L347.955 117.919C348.354 118.832 349.026 119.6 349.872 120.135L351.321 117.843ZM352.71 118.24C352.209 118.24 351.726 118.099 351.321 117.843L349.872 120.135C350.717 120.669 351.704 120.951 352.707 120.952L352.71 118.24ZM354.473 117.549C354.011 117.979 353.375 118.234 352.697 118.24L352.72 120.952C354.056 120.94 355.348 120.439 356.321 119.533L354.473 117.549ZM364.991 107.581L354.465 117.557L356.33 119.525L366.856 109.549L364.991 107.581ZM365.588 106.173C365.573 106.695 365.357 107.209 364.958 107.613L366.889 109.517C367.756 108.638 368.263 107.478 368.299 106.252L365.588 106.173ZM389.217 126.502L367.901 105.252L365.986 107.173L387.303 128.422L389.217 126.502ZM389.616 151L389.616 127.462H386.904L386.904 151H389.616ZM394.819 149.644L388.26 149.644V152.356L394.819 152.356V149.644ZM393.464 127.387L393.464 151H396.175L396.175 127.387H393.464ZM415.278 104.846L393.857 126.432L395.782 128.342L417.203 106.756L415.278 104.846ZM417.496 106.623C417.499 106.45 417.521 106.279 417.56 106.114L414.922 105.487C414.837 105.842 414.791 106.207 414.785 106.577L417.496 106.623ZM418.077 108.212C417.699 107.789 417.486 107.221 417.496 106.623L414.785 106.577C414.763 107.844 415.214 109.079 416.057 110.02L418.077 108.212ZM427.608 118.153L418.046 108.178L416.088 110.054L425.65 120.03L427.608 118.153ZM429.084 118.791C428.538 118.786 428.005 118.561 427.599 118.145L425.658 120.038C426.556 120.959 427.775 121.49 429.059 121.502L429.084 118.791ZM430.566 118.145C430.157 118.564 429.618 118.79 429.068 118.791L429.075 121.503C430.37 121.499 431.601 120.967 432.507 120.038L430.566 118.145ZM431.182 116.55C431.182 117.162 430.95 117.739 430.552 118.159L432.521 120.024C433.406 119.089 433.893 117.84 433.893 116.55H431.182ZM430.552 114.94C430.95 115.36 431.182 115.938 431.182 116.55H433.893C433.893 115.259 433.406 114.01 432.521 113.076L430.552 114.94ZM420.974 104.972L430.559 114.947L432.514 113.068L422.929 103.093L420.974 104.972ZM419.56 104.423C420.086 104.413 420.606 104.616 421.008 105.006L422.896 103.059C421.987 102.178 420.774 101.689 419.51 101.712L419.56 104.423ZM419.169 104.469C419.297 104.441 419.428 104.425 419.56 104.423L419.51 101.712C419.195 101.718 418.884 101.755 418.581 101.822L419.169 104.469ZM433.354 86.6303L417.913 102.191L419.837 104.101L435.279 88.5404L433.354 86.6303ZM433.911 85.1116C433.921 85.6888 433.709 86.2455 433.321 86.6649L435.312 88.5058C436.176 87.5713 436.645 86.3373 436.623 85.0641L433.911 85.1116ZM433.267 83.5807C433.669 83.9859 433.901 84.5347 433.911 85.1116L436.623 85.0641C436.6 83.7907 436.088 82.574 435.192 81.6706L433.267 83.5807ZM431.762 82.9359C432.325 82.9459 432.865 83.1759 433.267 83.5807L435.192 81.6706C434.295 80.7668 433.083 80.2473 431.81 80.2247L431.762 82.9359ZM430.236 83.5265C430.651 83.1365 431.198 82.9259 431.762 82.9359L431.81 80.2247C430.537 80.2021 429.308 80.6783 428.38 81.5498L430.236 83.5265ZM395.782 118.248L430.27 83.4932L428.345 81.5832L393.857 116.338L395.782 118.248ZM393.464 87.3525L393.464 117.293H396.175L396.175 87.3525H393.464ZM394.306 86.0971C394.297 86.1011 394.288 86.105 394.279 86.1089L395.36 88.5961C395.38 88.5874 395.4 88.5785 395.42 88.5694L394.306 86.0971ZM395.024 85.5768C394.817 85.801 394.573 85.9769 394.306 86.0971L395.42 88.5694C396.025 88.2968 396.568 87.903 397.018 87.4141L395.024 85.5768ZM422.397 57.1584L395.044 85.5549L396.997 87.436L424.35 59.0395L422.397 57.1584ZM422.982 55.5135C422.992 56.1441 422.766 56.7458 422.365 57.1933L424.383 59.0046C425.25 58.038 425.715 56.7694 425.693 55.4674L422.982 55.5135ZM422.309 53.8594C422.725 54.2908 422.971 54.8829 422.982 55.5135L425.693 55.4674C425.671 54.1655 425.163 52.9136 424.262 51.9782L422.309 53.8594ZM420.784 53.1826C421.347 53.1929 421.895 53.4296 422.309 53.8594L424.262 51.9782C423.36 51.0413 422.132 50.4952 420.833 50.4714L420.784 53.1826ZM419.239 53.8019C419.666 53.3887 420.22 53.1723 420.784 53.1826L420.833 50.4714C419.535 50.4477 418.288 50.9486 417.353 51.853L419.239 53.8019ZM395.797 78.1822L419.273 53.7672L417.319 51.8877L393.842 76.3028L395.797 78.1822ZM393.464 43.0107L393.464 77.2425H396.175L396.175 43.0107L393.464 43.0107Z" fill="#DFF2FD" mask="url(#path-4-outside-1_622_4517)"/>
<path d="M390.453 42.0472C401.633 42.0472 410.697 32.6346 410.697 21.0236C410.697 9.41258 401.633 0 390.453 0C379.273 0 370.21 9.41258 370.21 21.0236C370.21 32.6346 379.273 42.0472 390.453 42.0472Z" fill="#3AB3FE"/>
<mask id="path-7-outside-2_622_4517" maskUnits="userSpaceOnUse" x="715.357" y="516.219" width="78" height="94" fill="black">
<rect fill="white" x="715.357" y="516.219" width="78" height="94"/>
<path fill-rule="evenodd" clip-rule="evenodd" d="M757.344 518.219H751.828V546.977L733.9 528.771C733.626 528.489 733.299 528.265 732.939 528.113C732.579 527.96 732.193 527.881 731.803 527.881C731.413 527.881 731.027 527.96 730.667 528.113C730.307 528.265 729.981 528.489 729.707 528.771C729.156 529.339 728.847 530.105 728.847 530.902C728.847 531.699 729.156 532.465 729.707 533.032L751.828 555.495V580.331L722.499 551.293C721.932 550.74 721.168 550.43 720.372 550.43C719.576 550.43 718.812 550.74 718.245 551.293C717.964 551.568 717.74 551.896 717.588 552.257C717.435 552.618 717.357 553.006 717.357 553.397C717.357 553.789 717.435 554.176 717.588 554.538C717.74 554.899 717.964 555.226 718.245 555.502L730.784 567.915L730.761 567.915C729.932 567.901 729.129 568.19 728.523 568.721L719.671 577.052C719.224 577.472 718.92 578.007 718.797 578.59C718.674 579.172 718.737 579.776 718.979 580.324C719.221 580.873 719.631 581.342 720.156 581.672C720.682 582.002 721.3 582.179 721.932 582.179C722.779 582.172 723.59 581.856 724.193 581.298L733.045 572.967C733.577 572.431 733.881 571.732 733.902 571.003L751.828 588.75V608.408H757.344V588.687L775.357 570.659C775.305 570.876 775.276 571.1 775.273 571.328C775.259 572.106 775.539 572.859 776.052 573.429L784.093 581.76C784.641 582.318 785.377 582.634 786.146 582.641C786.922 582.639 787.666 582.323 788.219 581.76C788.759 581.194 789.061 580.432 789.061 579.637C789.061 578.843 788.759 578.08 788.219 577.514L780.159 569.183C779.609 568.652 778.88 568.363 778.127 568.377C777.939 568.38 777.753 568.403 777.571 568.443L790.557 555.446C791.084 554.881 791.37 554.133 791.356 553.36C791.343 552.587 791.03 551.85 790.484 551.304C789.938 550.757 789.201 550.444 788.429 550.431C787.657 550.417 786.91 550.704 786.345 551.231L757.344 580.257V555.252C757.356 555.247 757.368 555.241 757.38 555.236C757.747 555.072 758.078 554.834 758.354 554.536L781.355 530.82C781.889 530.23 782.18 529.449 782.166 528.642C782.152 527.835 781.835 527.065 781.281 526.494C780.728 525.923 779.981 525.596 779.198 525.582C778.416 525.568 777.658 525.867 777.085 526.418L757.344 546.809V518.219Z"/>
</mask>
<path fill-rule="evenodd" clip-rule="evenodd" d="M757.344 518.219H751.828V546.977L733.9 528.771C733.626 528.489 733.299 528.265 732.939 528.113C732.579 527.96 732.193 527.881 731.803 527.881C731.413 527.881 731.027 527.96 730.667 528.113C730.307 528.265 729.981 528.489 729.707 528.771C729.156 529.339 728.847 530.105 728.847 530.902C728.847 531.699 729.156 532.465 729.707 533.032L751.828 555.495V580.331L722.499 551.293C721.932 550.74 721.168 550.43 720.372 550.43C719.576 550.43 718.812 550.74 718.245 551.293C717.964 551.568 717.74 551.896 717.588 552.257C717.435 552.618 717.357 553.006 717.357 553.397C717.357 553.789 717.435 554.176 717.588 554.538C717.74 554.899 717.964 555.226 718.245 555.502L730.784 567.915L730.761 567.915C729.932 567.901 729.129 568.19 728.523 568.721L719.671 577.052C719.224 577.472 718.92 578.007 718.797 578.59C718.674 579.172 718.737 579.776 718.979 580.324C719.221 580.873 719.631 581.342 720.156 581.672C720.682 582.002 721.3 582.179 721.932 582.179C722.779 582.172 723.59 581.856 724.193 581.298L733.045 572.967C733.577 572.431 733.881 571.732 733.902 571.003L751.828 588.75V608.408H757.344V588.687L775.357 570.659C775.305 570.876 775.276 571.1 775.273 571.328C775.259 572.106 775.539 572.859 776.052 573.429L784.093 581.76C784.641 582.318 785.377 582.634 786.146 582.641C786.922 582.639 787.666 582.323 788.219 581.76C788.759 581.194 789.061 580.432 789.061 579.637C789.061 578.843 788.759 578.08 788.219 577.514L780.159 569.183C779.609 568.652 778.88 568.363 778.127 568.377C777.939 568.38 777.753 568.403 777.571 568.443L790.557 555.446C791.084 554.881 791.37 554.133 791.356 553.36C791.343 552.587 791.03 551.85 790.484 551.304C789.938 550.757 789.201 550.444 788.429 550.431C787.657 550.417 786.91 550.704 786.345 551.231L757.344 580.257V555.252C757.356 555.247 757.368 555.241 757.38 555.236C757.747 555.072 758.078 554.834 758.354 554.536L781.355 530.82C781.889 530.23 782.18 529.449 782.166 528.642C782.152 527.835 781.835 527.065 781.281 526.494C780.728 525.923 779.981 525.596 779.198 525.582C778.416 525.568 777.658 525.867 777.085 526.418L757.344 546.809V518.219Z" fill="#DFF2FD"/>
<path d="M751.828 518.219V516.863H750.472V518.219H751.828ZM757.344 518.219H758.7V516.863H757.344V518.219ZM751.828 546.977L750.862 547.928L753.184 550.286V546.977H751.828ZM733.9 528.771L732.927 529.716L732.934 529.723L733.9 528.771ZM732.939 528.113L733.469 526.865L733.469 526.865L732.939 528.113ZM730.667 528.113L730.137 526.865L730.137 526.865L730.667 528.113ZM729.707 528.771L728.735 527.826L728.734 527.827L729.707 528.771ZM729.707 533.032L728.734 533.976L728.741 533.984L729.707 533.032ZM751.828 555.495H753.184V554.94L752.794 554.544L751.828 555.495ZM751.828 580.331L750.874 581.294L753.184 583.581V580.331H751.828ZM722.499 551.293L723.453 550.33L723.445 550.322L722.499 551.293ZM718.245 551.293L717.299 550.322L717.298 550.323L718.245 551.293ZM717.588 552.257L716.339 551.73L717.588 552.257ZM717.588 554.538L716.339 555.065L717.588 554.538ZM718.245 555.502L719.199 554.538L719.193 554.532L718.245 555.502ZM730.784 567.915L730.757 569.271L734.149 569.339L731.738 566.952L730.784 567.915ZM730.761 567.915L730.788 566.559L730.783 566.559L730.761 567.915ZM728.523 568.721L727.63 567.7L727.612 567.717L727.594 567.734L728.523 568.721ZM719.671 577.052L720.6 578.04L720.601 578.039L719.671 577.052ZM718.797 578.59L720.124 578.87L720.124 578.87L718.797 578.59ZM718.979 580.324L717.739 580.871L717.739 580.871L718.979 580.324ZM720.156 581.672L720.877 580.524L720.877 580.524L720.156 581.672ZM721.932 582.179L721.931 583.535L721.944 583.535L721.932 582.179ZM724.193 581.298L725.114 582.293L725.122 582.285L724.193 581.298ZM733.045 572.967L733.974 573.954L733.991 573.938L734.007 573.922L733.045 572.967ZM733.902 571.003L734.856 570.039L732.64 567.845L732.547 570.962L733.902 571.003ZM751.828 588.75H753.184V588.184L752.782 587.787L751.828 588.75ZM751.828 608.408H750.472V609.764H751.828V608.408ZM757.344 608.408V609.764H758.7V608.408H757.344ZM757.344 588.687L756.385 587.729L755.988 588.126V588.687H757.344ZM775.357 570.659L776.676 570.975L777.795 566.301L774.398 569.7L775.357 570.659ZM775.273 571.328L776.628 571.351L776.628 571.351L775.273 571.328ZM776.052 573.429L775.045 574.336L775.061 574.354L775.077 574.37L776.052 573.429ZM784.093 581.76L783.117 582.702L783.125 582.71L784.093 581.76ZM786.146 582.641L786.134 583.997L786.142 583.997L786.15 583.997L786.146 582.641ZM788.219 581.76L789.187 582.71L789.194 582.703L789.201 582.696L788.219 581.76ZM788.219 577.514L789.201 576.578L789.194 576.571L788.219 577.514ZM780.159 569.183L781.134 568.24L781.117 568.223L781.1 568.206L780.159 569.183ZM778.127 568.377L778.102 567.021L778.102 567.021L778.127 568.377ZM777.571 568.443L776.612 567.484L773.332 570.767L777.864 569.767L777.571 568.443ZM790.557 555.446L791.516 556.404L791.533 556.387L791.549 556.37L790.557 555.446ZM791.356 553.36L790.001 553.384L790.001 553.384L791.356 553.36ZM790.484 551.304L791.443 550.346L791.443 550.346L790.484 551.304ZM786.345 551.231L785.421 550.239L785.403 550.256L785.386 550.272L786.345 551.231ZM757.344 580.257H755.988V583.532L758.303 581.215L757.344 580.257ZM757.344 555.252L756.807 554.007L755.988 554.36V555.252H757.344ZM757.38 555.236L757.934 556.474L757.934 556.474L757.38 555.236ZM758.354 554.536L757.381 553.592L757.371 553.603L757.36 553.614L758.354 554.536ZM781.355 530.82L782.329 531.764L782.345 531.747L782.361 531.729L781.355 530.82ZM782.166 528.642L780.81 528.665L780.81 528.665L782.166 528.642ZM781.281 526.494L780.308 527.438L780.308 527.438L781.281 526.494ZM777.085 526.418L776.146 525.44L776.128 525.457L776.111 525.475L777.085 526.418ZM757.344 546.809H755.988V550.158L758.318 547.752L757.344 546.809ZM751.828 519.575H757.344V516.863H751.828V519.575ZM753.184 546.977V518.219H750.472V546.977H753.184ZM732.934 529.723L750.862 547.928L752.794 546.025L734.866 527.82L732.934 529.723ZM732.409 529.361C732.602 529.442 732.778 529.563 732.927 529.716L734.872 527.826C734.473 527.416 733.996 527.088 733.469 526.865L732.409 529.361ZM731.803 529.237C732.011 529.237 732.217 529.279 732.409 529.361L733.469 526.865C732.942 526.641 732.376 526.525 731.803 526.525V529.237ZM731.197 529.361C731.39 529.279 731.596 529.237 731.803 529.237V526.525C731.231 526.525 730.664 526.641 730.137 526.865L731.197 529.361ZM730.679 529.716C730.828 529.563 731.004 529.442 731.197 529.361L730.137 526.865C729.61 527.088 729.134 527.416 728.735 527.826L730.679 529.716ZM730.203 530.902C730.203 530.454 730.377 530.028 730.68 529.715L728.734 527.827C727.936 528.65 727.491 529.755 727.491 530.902H730.203ZM730.68 532.089C730.377 531.776 730.203 531.35 730.203 530.902H727.491C727.491 532.049 727.936 533.153 728.734 533.976L730.68 532.089ZM752.794 554.544L730.673 532.081L728.741 533.984L750.862 556.446L752.794 554.544ZM753.184 580.331V555.495H750.472V580.331H753.184ZM721.545 552.257L750.874 581.294L752.782 579.367L723.453 550.33L721.545 552.257ZM720.372 551.786C720.816 551.786 721.24 551.959 721.552 552.264L723.445 550.322C722.624 549.521 721.52 549.074 720.372 549.074V551.786ZM719.192 552.264C719.504 551.959 719.928 551.786 720.372 551.786V549.074C719.224 549.074 718.12 549.521 717.299 550.322L719.192 552.264ZM718.837 552.784C718.919 552.59 719.04 552.412 719.193 552.263L717.298 550.323C716.888 550.724 716.562 551.202 716.339 551.73L718.837 552.784ZM718.713 553.397C718.713 553.187 718.755 552.979 718.837 552.784L716.339 551.73C716.116 552.258 716.001 552.825 716.001 553.397H718.713ZM718.837 554.01C718.755 553.816 718.713 553.608 718.713 553.397H716.001C716.001 553.97 716.116 554.537 716.339 555.065L718.837 554.01ZM719.193 554.532C719.04 554.382 718.919 554.205 718.837 554.01L716.339 555.065C716.562 555.593 716.888 556.07 717.298 556.471L719.193 554.532ZM731.738 566.952L719.199 554.538L717.291 556.465L729.83 568.879L731.738 566.952ZM730.733 569.27L730.757 569.271L730.811 566.56L730.788 566.559L730.733 569.27ZM729.416 569.741C729.761 569.439 730.235 569.262 730.738 569.271L730.783 566.559C729.629 566.54 728.498 566.942 727.63 567.7L729.416 569.741ZM720.601 578.039L729.452 569.708L727.594 567.734L718.742 576.065L720.601 578.039ZM720.124 578.87C720.188 578.567 720.348 578.277 720.6 578.04L718.743 576.064C718.101 576.668 717.653 577.447 717.471 578.309L720.124 578.87ZM720.22 579.777C720.092 579.487 720.06 579.173 720.124 578.87L717.471 578.309C717.288 579.172 717.383 580.065 717.739 580.871L720.22 579.777ZM720.877 580.524C720.572 580.332 720.348 580.069 720.22 579.777L717.739 580.871C718.094 581.677 718.689 582.351 719.435 582.82L720.877 580.524ZM721.933 580.823C721.551 580.823 721.183 580.716 720.877 580.524L719.435 582.82C720.181 583.288 721.049 583.534 721.931 583.535L721.933 580.823ZM723.273 580.303C722.925 580.624 722.442 580.819 721.921 580.823L721.944 583.535C723.116 583.525 724.255 583.088 725.114 582.293L723.273 580.303ZM732.116 571.979L723.264 580.311L725.122 582.285L733.974 573.954L732.116 571.979ZM732.547 570.962C732.536 571.337 732.38 571.712 732.083 572.012L734.007 573.922C734.774 573.149 735.225 572.127 735.258 571.043L732.547 570.962ZM752.782 587.787L734.856 570.039L732.949 571.966L750.874 589.713L752.782 587.787ZM753.184 608.408V588.75H750.472V608.408H753.184ZM757.344 607.053H751.828V609.764H757.344V607.053ZM755.988 588.687V608.408H758.7V588.687H755.988ZM774.398 569.7L756.385 587.729L758.303 589.646L776.316 571.617L774.398 569.7ZM776.628 571.351C776.63 571.223 776.647 571.096 776.676 570.975L774.039 570.343C773.964 570.656 773.923 570.978 773.917 571.305L776.628 571.351ZM777.059 572.521C776.78 572.211 776.621 571.792 776.628 571.351L773.917 571.305C773.898 572.42 774.298 573.508 775.045 574.336L777.059 572.521ZM785.068 580.818L777.028 572.487L775.077 574.37L783.117 582.702L785.068 580.818ZM786.159 581.285C785.756 581.282 785.361 581.116 785.06 580.81L783.125 582.71C783.92 583.52 784.998 583.986 786.134 583.997L786.159 581.285ZM787.252 580.81C786.948 581.119 786.549 581.284 786.143 581.285L786.15 583.997C787.295 583.994 788.385 583.527 789.187 582.71L787.252 580.81ZM787.705 579.637C787.705 580.09 787.533 580.515 787.238 580.824L789.201 582.696C789.985 581.873 790.417 580.774 790.417 579.637H787.705ZM787.238 578.45C787.533 578.759 787.705 579.185 787.705 579.637H790.417C790.417 578.501 789.985 577.401 789.201 576.579L787.238 578.45ZM779.185 570.126L787.245 578.457L789.194 576.571L781.134 568.24L779.185 570.126ZM778.152 569.733C778.539 569.726 778.922 569.873 779.219 570.159L781.1 568.206C780.295 567.431 779.221 567.001 778.102 567.021L778.152 569.733ZM777.864 569.767C777.958 569.746 778.054 569.734 778.152 569.733L778.102 567.021C777.824 567.026 777.548 567.06 777.279 567.119L777.864 569.767ZM789.598 554.488L776.612 567.484L778.53 569.401L791.516 556.404L789.598 554.488ZM790.001 553.384C790.008 553.806 789.852 554.214 789.565 554.522L791.549 556.37C792.315 555.547 792.732 554.46 792.712 553.336L790.001 553.384ZM789.525 552.262C789.823 552.56 789.993 552.963 790.001 553.384L792.712 553.336C792.692 552.212 792.237 551.14 791.443 550.346L789.525 552.262ZM788.405 551.786C788.826 551.794 789.227 551.964 789.525 552.262L791.443 550.346C790.649 549.551 789.577 549.095 788.453 549.075L788.405 551.786ZM787.27 552.222C787.578 551.935 787.985 551.779 788.405 551.786L788.453 549.075C787.33 549.055 786.243 549.473 785.421 550.239L787.27 552.222ZM758.303 581.215L787.305 552.189L785.386 550.272L756.385 579.299L758.303 581.215ZM755.988 555.252V580.257H758.7V555.252H755.988ZM756.827 553.998C756.82 554.001 756.813 554.004 756.807 554.007L757.881 556.497C757.899 556.489 757.916 556.482 757.934 556.474L756.827 553.998ZM757.36 553.614C757.206 553.78 757.025 553.91 756.827 553.998L757.934 556.474C758.469 556.234 758.95 555.888 759.348 555.458L757.36 553.614ZM780.382 529.876L757.381 553.592L759.328 555.48L782.329 531.764L780.382 529.876ZM780.81 528.665C780.818 529.134 780.649 529.58 780.349 529.911L782.361 531.729C783.129 530.88 783.541 529.764 783.521 528.619L780.81 528.665ZM780.308 527.438C780.618 527.757 780.802 528.196 780.81 528.665L783.521 528.619C783.502 527.473 783.052 526.372 782.255 525.55L780.308 527.438ZM779.174 526.938C779.592 526.945 780 527.12 780.308 527.438L782.255 525.55C781.456 524.727 780.37 524.247 779.223 524.227L779.174 526.938ZM778.025 527.395C778.343 527.09 778.756 526.93 779.174 526.938L779.223 524.227C778.076 524.206 776.973 524.645 776.146 525.44L778.025 527.395ZM758.318 547.752L778.06 527.361L776.111 525.475L756.37 545.865L758.318 547.752ZM755.988 518.219V546.809H758.7V518.219H755.988Z" fill="#DFF2FD" mask="url(#path-7-outside-2_622_4517)"/>
<mask id="path-9-outside-3_622_4517" maskUnits="userSpaceOnUse" x="715.357" y="451.895" width="78" height="94" fill="black">
<rect fill="white" x="715.357" y="451.895" width="78" height="94"/>
<path fill-rule="evenodd" clip-rule="evenodd" d="M757.344 453.895H751.828V482.653L733.9 464.448C733.626 464.166 733.299 463.942 732.939 463.789C732.579 463.637 732.193 463.558 731.803 463.558C731.413 463.558 731.027 463.637 730.667 463.789C730.307 463.942 729.981 464.166 729.707 464.448C729.156 465.016 728.847 465.781 728.847 466.579C728.847 467.376 729.156 468.141 729.707 468.709L751.828 491.172V516.006L722.499 486.969C721.932 486.416 721.168 486.106 720.372 486.106C719.576 486.106 718.812 486.416 718.245 486.969C717.964 487.244 717.74 487.572 717.588 487.933C717.435 488.294 717.357 488.682 717.357 489.073C717.357 489.465 717.435 489.852 717.588 490.213C717.74 490.575 717.964 490.902 718.245 491.177L730.786 503.593L730.761 503.593C729.932 503.579 729.129 503.868 728.523 504.398L719.671 512.73C719.224 513.15 718.92 513.685 718.797 514.267C718.674 514.85 718.737 515.453 718.979 516.002C719.221 516.551 719.631 517.02 720.156 517.35C720.682 517.68 721.3 517.856 721.932 517.857C722.779 517.85 723.59 517.534 724.193 516.976L733.045 508.644C733.577 508.108 733.881 507.408 733.903 506.679L751.828 524.426V544.084H757.344V524.363L775.357 506.334C775.305 506.552 775.277 506.776 775.273 507.003C775.259 507.781 775.539 508.535 776.052 509.104L784.093 517.436C784.641 517.994 785.377 518.31 786.146 518.317C786.922 518.315 787.667 517.998 788.219 517.436C788.759 516.87 789.061 516.107 789.061 515.313C789.061 514.518 788.759 513.756 788.219 513.19L780.16 504.858C779.609 504.328 778.88 504.039 778.127 504.053C777.939 504.056 777.753 504.078 777.572 504.118L790.557 491.122C791.084 490.556 791.37 489.809 791.356 489.036C791.343 488.263 791.03 487.526 790.484 486.98C789.938 486.433 789.201 486.12 788.429 486.107C787.657 486.093 786.91 486.38 786.345 486.907L757.344 515.933V490.929C757.356 490.923 757.368 490.918 757.38 490.913C757.747 490.748 758.078 490.511 758.354 490.213L781.355 466.497C781.889 465.906 782.179 465.125 782.166 464.318C782.152 463.511 781.835 462.741 781.281 462.171C780.728 461.6 779.981 461.273 779.198 461.259C778.416 461.244 777.658 461.544 777.085 462.094L757.344 482.485V453.895Z"/>
</mask>
<path fill-rule="evenodd" clip-rule="evenodd" d="M757.344 453.895H751.828V482.653L733.9 464.448C733.626 464.166 733.299 463.942 732.939 463.789C732.579 463.637 732.193 463.558 731.803 463.558C731.413 463.558 731.027 463.637 730.667 463.789C730.307 463.942 729.981 464.166 729.707 464.448C729.156 465.016 728.847 465.781 728.847 466.579C728.847 467.376 729.156 468.141 729.707 468.709L751.828 491.172V516.006L722.499 486.969C721.932 486.416 721.168 486.106 720.372 486.106C719.576 486.106 718.812 486.416 718.245 486.969C717.964 487.244 717.74 487.572 717.588 487.933C717.435 488.294 717.357 488.682 717.357 489.073C717.357 489.465 717.435 489.852 717.588 490.213C717.74 490.575 717.964 490.902 718.245 491.177L730.786 503.593L730.761 503.593C729.932 503.579 729.129 503.868 728.523 504.398L719.671 512.73C719.224 513.15 718.92 513.685 718.797 514.267C718.674 514.85 718.737 515.453 718.979 516.002C719.221 516.551 719.631 517.02 720.156 517.35C720.682 517.68 721.3 517.856 721.932 517.857C722.779 517.85 723.59 517.534 724.193 516.976L733.045 508.644C733.577 508.108 733.881 507.408 733.903 506.679L751.828 524.426V544.084H757.344V524.363L775.357 506.334C775.305 506.552 775.277 506.776 775.273 507.003C775.259 507.781 775.539 508.535 776.052 509.104L784.093 517.436C784.641 517.994 785.377 518.31 786.146 518.317C786.922 518.315 787.667 517.998 788.219 517.436C788.759 516.87 789.061 516.107 789.061 515.313C789.061 514.518 788.759 513.756 788.219 513.19L780.16 504.858C779.609 504.328 778.88 504.039 778.127 504.053C777.939 504.056 777.753 504.078 777.572 504.118L790.557 491.122C791.084 490.556 791.37 489.809 791.356 489.036C791.343 488.263 791.03 487.526 790.484 486.98C789.938 486.433 789.201 486.12 788.429 486.107C787.657 486.093 786.91 486.38 786.345 486.907L757.344 515.933V490.929C757.356 490.923 757.368 490.918 757.38 490.913C757.747 490.748 758.078 490.511 758.354 490.213L781.355 466.497C781.889 465.906 782.179 465.125 782.166 464.318C782.152 463.511 781.835 462.741 781.281 462.171C780.728 461.6 779.981 461.273 779.198 461.259C778.416 461.244 777.658 461.544 777.085 462.094L757.344 482.485V453.895Z" fill="#DFF2FD"/>
<path d="M751.828 453.895V452.539H750.472V453.895H751.828ZM757.344 453.895H758.7V452.539H757.344V453.895ZM751.828 482.653L750.862 483.605L753.184 485.962V482.653H751.828ZM733.9 464.448L732.927 465.393L732.934 465.399L733.9 464.448ZM732.939 463.789L733.469 462.542L733.469 462.542L732.939 463.789ZM730.667 463.789L730.137 462.542L730.137 462.542L730.667 463.789ZM729.707 464.448L728.735 463.503L728.734 463.504L729.707 464.448ZM729.707 468.709L728.734 469.653L728.741 469.661L729.707 468.709ZM751.828 491.172H753.184V490.616L752.794 490.221L751.828 491.172ZM751.828 516.006L750.874 516.97L753.184 519.257V516.006H751.828ZM722.499 486.969L723.453 486.005L723.445 485.998L722.499 486.969ZM718.245 486.969L717.299 485.998L717.298 485.999L718.245 486.969ZM717.588 487.933L716.339 487.405L717.588 487.933ZM717.588 490.213L716.339 490.741L717.588 490.213ZM718.245 491.177L719.199 490.214L719.193 490.208L718.245 491.177ZM730.786 503.593L730.758 504.949L734.152 505.017L731.74 502.63L730.786 503.593ZM730.761 503.593L730.788 502.237L730.783 502.237L730.761 503.593ZM728.523 504.398L727.63 503.378L727.612 503.394L727.594 503.411L728.523 504.398ZM719.671 512.73L720.6 513.718L720.601 513.717L719.671 512.73ZM718.797 514.267L720.124 514.548L720.124 514.548L718.797 514.267ZM718.979 516.002L717.739 516.549L717.739 516.549L718.979 516.002ZM720.156 517.35L720.877 516.202L720.877 516.202L720.156 517.35ZM721.932 517.857L721.931 519.213L721.944 519.213L721.932 517.857ZM724.193 516.976L725.114 517.971L725.122 517.963L724.193 516.976ZM733.045 508.644L733.974 509.632L733.991 509.616L734.007 509.599L733.045 508.644ZM733.903 506.679L734.856 505.715L732.638 503.519L732.547 506.639L733.903 506.679ZM751.828 524.426H753.184V523.86L752.782 523.462L751.828 524.426ZM751.828 544.084H750.472V545.44H751.828V544.084ZM757.344 544.084V545.44H758.7V544.084H757.344ZM757.344 524.363L756.385 523.405L755.988 523.802V524.363H757.344ZM775.357 506.334L776.676 506.65L777.795 501.977L774.398 505.376L775.357 506.334ZM775.273 507.003L776.628 507.026L776.628 507.026L775.273 507.003ZM776.052 509.104L775.045 510.012L775.061 510.029L775.077 510.046L776.052 509.104ZM784.093 517.436L783.117 518.377L783.125 518.386L784.093 517.436ZM786.146 518.317L786.134 519.673L786.142 519.673L786.15 519.673L786.146 518.317ZM788.219 517.436L789.187 518.386L789.194 518.378L789.201 518.371L788.219 517.436ZM788.219 513.19L789.201 512.254L789.194 512.247L788.219 513.19ZM780.16 504.858L781.134 503.916L781.117 503.898L781.1 503.882L780.16 504.858ZM778.127 504.053L778.152 505.408L778.152 505.408L778.127 504.053ZM777.572 504.118L776.613 503.16L773.333 506.442L777.864 505.442L777.572 504.118ZM790.557 491.122L791.516 492.08L791.533 492.063L791.549 492.046L790.557 491.122ZM791.356 489.036L790.001 489.06L790.001 489.06L791.356 489.036ZM790.484 486.98L791.443 486.021L791.443 486.021L790.484 486.98ZM786.345 486.907L785.421 485.915L785.403 485.931L785.386 485.948L786.345 486.907ZM757.344 515.933H755.988V519.208L758.303 516.891L757.344 515.933ZM757.344 490.929L756.807 489.684L755.988 490.037V490.929H757.344ZM757.38 490.913L757.934 492.15L757.934 492.15L757.38 490.913ZM758.354 490.213L757.381 489.269L757.37 489.28L757.36 489.291L758.354 490.213ZM781.355 466.497L782.329 467.441L782.345 467.424L782.361 467.406L781.355 466.497ZM782.166 464.318L780.81 464.341L780.81 464.341L782.166 464.318ZM781.281 462.171L780.308 463.114L780.308 463.114L781.281 462.171ZM777.085 462.094L776.146 461.117L776.128 461.134L776.111 461.151L777.085 462.094ZM757.344 482.485H755.988V485.835L758.318 483.428L757.344 482.485ZM751.828 455.25H757.344V452.539H751.828V455.25ZM753.184 482.653V453.895H750.472V482.653H753.184ZM732.934 465.399L750.862 483.605L752.794 481.702L734.866 463.497L732.934 465.399ZM732.409 465.037C732.602 465.119 732.778 465.24 732.927 465.393L734.872 463.503C734.473 463.093 733.996 462.765 733.469 462.542L732.409 465.037ZM731.803 464.914C732.011 464.914 732.217 464.956 732.409 465.037L733.469 462.542C732.942 462.318 732.376 462.202 731.803 462.202V464.914ZM731.197 465.037C731.39 464.956 731.596 464.914 731.803 464.914V462.202C731.231 462.202 730.664 462.318 730.137 462.542L731.197 465.037ZM730.679 465.393C730.828 465.24 731.004 465.119 731.197 465.037L730.137 462.542C729.61 462.765 729.134 463.093 728.735 463.503L730.679 465.393ZM730.203 466.579C730.203 466.131 730.377 465.705 730.68 465.392L728.734 463.504C727.936 464.327 727.491 465.432 727.491 466.579H730.203ZM730.68 467.765C730.377 467.453 730.203 467.027 730.203 466.579H727.491C727.491 467.726 727.936 468.83 728.734 469.653L730.68 467.765ZM752.794 490.221L730.673 467.758L728.741 469.661L750.862 492.123L752.794 490.221ZM753.184 516.006V491.172H750.472V516.006H753.184ZM721.545 487.932L750.874 516.97L752.782 515.043L723.453 486.005L721.545 487.932ZM720.372 487.462C720.816 487.462 721.24 487.635 721.552 487.939L723.445 485.998C722.624 485.197 721.52 484.75 720.372 484.75V487.462ZM719.192 487.939C719.504 487.635 719.928 487.462 720.372 487.462V484.75C719.224 484.75 718.12 485.197 717.299 485.998L719.192 487.939ZM718.837 488.46C718.919 488.265 719.04 488.088 719.193 487.938L717.298 485.999C716.888 486.4 716.562 486.878 716.339 487.405L718.837 488.46ZM718.713 489.073C718.713 488.863 718.755 488.655 718.837 488.46L716.339 487.405C716.116 487.933 716.001 488.5 716.001 489.073H718.713ZM718.837 489.686C718.755 489.492 718.713 489.283 718.713 489.073H716.001C716.001 489.646 716.116 490.213 716.339 490.741L718.837 489.686ZM719.193 490.208C719.04 490.058 718.919 489.881 718.837 489.686L716.339 490.741C716.562 491.268 716.888 491.746 717.298 492.147L719.193 490.208ZM731.74 502.63L719.199 490.214L717.291 492.141L729.832 504.557L731.74 502.63ZM730.733 504.948L730.758 504.949L730.813 502.238L730.788 502.237L730.733 504.948ZM729.416 505.419C729.761 505.116 730.235 504.94 730.738 504.948L730.783 502.237C729.629 502.218 728.498 502.619 727.63 503.378L729.416 505.419ZM720.601 513.717L729.452 505.386L727.594 503.411L718.742 511.743L720.601 513.717ZM720.124 514.548C720.188 514.245 720.348 513.954 720.6 513.718L718.743 511.742C718.101 512.346 717.653 513.125 717.471 513.987L720.124 514.548ZM720.22 515.455C720.092 515.164 720.06 514.85 720.124 514.548L717.471 513.987C717.288 514.849 717.383 515.742 717.739 516.549L720.22 515.455ZM720.877 516.202C720.572 516.01 720.348 515.747 720.22 515.455L717.739 516.549C718.094 517.354 718.689 518.029 719.435 518.498L720.877 516.202ZM721.933 516.501C721.551 516.501 721.183 516.394 720.877 516.202L719.435 518.498C720.181 518.966 721.049 519.212 721.931 519.213L721.933 516.501ZM723.273 515.98C722.925 516.302 722.442 516.497 721.921 516.501L721.944 519.213C723.116 519.203 724.255 518.766 725.114 517.971L723.273 515.98ZM732.116 507.657L723.264 515.988L725.122 517.963L733.974 509.632L732.116 507.657ZM732.547 506.639C732.536 507.014 732.38 507.389 732.083 507.689L734.007 509.599C734.774 508.826 735.226 507.803 735.258 506.718L732.547 506.639ZM752.782 523.462L734.856 505.715L732.949 507.642L750.874 525.389L752.782 523.462ZM753.184 544.084V524.426H750.472V544.084H753.184ZM757.344 542.728H751.828V545.44H757.344V542.728ZM755.988 524.363V544.084H758.7V524.363H755.988ZM774.398 505.376L756.385 523.405L758.303 525.322L776.317 507.293L774.398 505.376ZM776.628 507.026C776.631 506.898 776.647 506.772 776.676 506.65L774.039 506.019C773.964 506.331 773.923 506.654 773.917 506.98L776.628 507.026ZM777.059 508.196C776.78 507.886 776.621 507.467 776.628 507.026L773.917 506.98C773.898 508.096 774.298 509.183 775.045 510.012L777.059 508.196ZM785.068 516.494L777.028 508.163L775.077 510.046L783.117 518.377L785.068 516.494ZM786.159 516.961C785.756 516.957 785.361 516.792 785.06 516.486L783.125 518.386C783.92 519.195 784.999 519.662 786.134 519.673L786.159 516.961ZM787.252 516.486C786.949 516.795 786.55 516.96 786.143 516.961L786.15 519.673C787.295 519.67 788.385 519.202 789.187 518.386L787.252 516.486ZM787.706 515.313C787.706 515.765 787.533 516.191 787.238 516.5L789.201 518.371C789.985 517.549 790.417 516.449 790.417 515.313H787.706ZM787.238 514.125C787.533 514.434 787.706 514.86 787.706 515.313H790.417C790.417 514.176 789.985 513.077 789.201 512.254L787.238 514.125ZM779.185 505.801L787.245 514.132L789.194 512.247L781.134 503.916L779.185 505.801ZM778.152 505.408C778.539 505.401 778.922 505.549 779.219 505.835L781.1 503.882C780.295 503.106 779.221 502.677 778.103 502.697L778.152 505.408ZM777.864 505.442C777.958 505.421 778.055 505.41 778.152 505.408L778.103 502.697C777.824 502.702 777.548 502.735 777.279 502.794L777.864 505.442ZM789.598 490.163L776.613 503.16L778.531 505.077L791.516 492.08L789.598 490.163ZM790.001 489.06C790.008 489.482 789.852 489.89 789.565 490.198L791.549 492.046C792.315 491.223 792.732 490.136 792.712 489.012L790.001 489.06ZM789.525 487.938C789.823 488.236 789.993 488.638 790.001 489.06L792.712 489.012C792.692 487.888 792.237 486.816 791.443 486.021L789.525 487.938ZM788.405 487.462C788.826 487.47 789.227 487.64 789.525 487.938L791.443 486.021C790.649 485.226 789.577 484.771 788.453 484.751L788.405 487.462ZM787.27 487.898C787.578 487.611 787.985 487.455 788.405 487.462L788.453 484.751C787.33 484.731 786.243 485.149 785.421 485.915L787.27 487.898ZM758.303 516.891L787.305 487.865L785.386 485.948L756.385 514.974L758.303 516.891ZM755.988 490.929V515.933H758.7V490.929H755.988ZM756.827 489.675C756.82 489.678 756.813 489.681 756.807 489.684L757.881 492.173C757.899 492.166 757.916 492.158 757.934 492.15L756.827 489.675ZM757.36 489.291C757.206 489.456 757.025 489.586 756.827 489.675L757.934 492.15C758.469 491.911 758.95 491.565 759.348 491.135L757.36 489.291ZM780.382 465.553L757.381 489.269L759.327 491.157L782.329 467.441L780.382 465.553ZM780.81 464.341C780.818 464.81 780.649 465.256 780.349 465.588L782.361 467.406C783.129 466.556 783.541 465.441 783.521 464.295L780.81 464.341ZM780.308 463.114C780.618 463.434 780.802 463.873 780.81 464.341L783.521 464.295C783.502 463.15 783.052 462.049 782.255 461.227L780.308 463.114ZM779.174 462.614C779.592 462.622 780 462.796 780.308 463.114L782.255 461.227C781.456 460.403 780.37 459.924 779.223 459.903L779.174 462.614ZM778.025 463.072C778.343 462.766 778.755 462.607 779.174 462.614L779.223 459.903C778.076 459.882 776.973 460.322 776.146 461.117L778.025 463.072ZM758.318 483.428L778.06 463.037L776.111 461.151L756.37 481.542L758.318 483.428ZM755.988 453.895V482.485H758.7V453.895H755.988Z" fill="#DFF2FD" mask="url(#path-9-outside-3_622_4517)"/>
<path d="M755.374 453.895C772.61 453.895 786.583 439.907 786.583 422.652C786.583 405.396 772.61 391.408 755.374 391.408C738.138 391.408 724.166 405.396 724.166 422.652C724.166 439.907 738.138 453.895 755.374 453.895Z" fill="#3AB3FE"/>
<path d="M758.508 425.248H748.022V423.03H758.508C759.476 423.03 760.276 422.862 760.908 422.526C761.54 422.183 762.011 421.719 762.32 421.134C762.629 420.543 762.784 419.871 762.784 419.118C762.784 418.365 762.629 417.696 762.32 417.111C762.011 416.52 761.54 416.056 760.908 415.72C760.276 415.377 759.476 415.206 758.508 415.206H753.79V433.637H751.289V412.987H758.508C760.041 412.987 761.305 413.266 762.3 413.824C763.295 414.382 764.034 415.125 764.518 416.053C765.002 416.98 765.244 418.002 765.244 419.118C765.244 420.234 765.002 421.255 764.518 422.183C764.034 423.111 763.295 423.854 762.3 424.411C761.305 424.969 760.041 425.248 758.508 425.248ZM758.347 427.184V429.403H748.022V427.184H758.347Z" fill="white"/>
<path d="M590.659 785.05L659.697 716.015C663.484 712.638 668.322 710.673 673.391 710.452C676.314 710.397 679.219 710.917 681.94 711.985C684.662 713.052 687.146 714.645 689.251 716.673C692.006 720.752 693.326 725.632 693.003 730.544C692.681 735.456 690.733 740.121 687.468 743.805L618.451 812.84C616.625 814.643 614.461 816.066 612.082 817.028C609.704 817.991 607.158 818.473 604.593 818.447C602.027 818.422 599.492 817.889 597.133 816.879C594.775 815.869 592.639 814.403 590.85 812.564C589.029 810.771 587.58 808.636 586.586 806.282C585.591 803.929 585.069 801.402 585.052 798.847C585.034 796.291 585.52 793.758 586.482 791.39C587.444 789.023 588.863 786.868 590.659 785.05Z" fill="url(#paint0_linear_622_4517)"/>
<path d="M503.887 802.675L572.925 733.64C576.712 730.263 581.55 728.298 586.619 728.077C589.542 728.022 592.447 728.542 595.168 729.61C597.889 730.677 600.374 732.27 602.479 734.298C605.234 738.377 606.554 743.257 606.231 748.169C605.908 753.081 603.961 757.746 600.696 761.43L531.679 830.465C529.853 832.268 527.688 833.691 525.31 834.653C522.932 835.616 520.386 836.098 517.821 836.072C515.255 836.047 512.72 835.514 510.361 834.504C508.003 833.494 505.867 832.028 504.078 830.189C502.257 828.396 500.808 826.261 499.813 823.907C498.818 821.554 498.297 819.027 498.28 816.472C498.262 813.916 498.748 811.383 499.71 809.015C500.672 806.648 502.091 804.493 503.887 802.675Z" fill="url(#paint1_linear_622_4517)"/>
<path d="M582.524 866.399L651.562 797.364C655.349 793.988 660.187 792.023 665.256 791.802C668.179 791.746 671.084 792.267 673.805 793.334C676.527 794.402 679.011 795.995 681.116 798.022C683.871 802.102 685.191 806.982 684.868 811.894C684.546 816.806 682.598 821.471 679.333 825.155L610.316 894.19C608.49 895.992 606.326 897.416 603.947 898.378C601.569 899.34 599.023 899.823 596.458 899.797C593.892 899.771 591.357 899.238 588.998 898.229C586.64 897.219 584.504 895.752 582.715 893.914C580.894 892.12 579.445 889.986 578.451 887.632C577.456 885.278 576.934 882.751 576.917 880.196C576.899 877.641 577.385 875.107 578.347 872.74C579.309 870.372 580.728 868.218 582.524 866.399Z" fill="url(#paint2_linear_622_4517)"/>
</g>
<defs>
<linearGradient id="paint0_linear_622_4517" x1="602.408" y1="795.305" x2="680.866" y2="722.373" gradientUnits="userSpaceOnUse">
<stop stop-color="#B3E1FD" stop-opacity="0"/>
<stop offset="1" stop-color="#3AB3FE"/>
</linearGradient>
<linearGradient id="paint1_linear_622_4517" x1="515.636" y1="812.93" x2="594.094" y2="739.998" gradientUnits="userSpaceOnUse">
<stop stop-color="#B3E1FD" stop-opacity="0"/>
<stop offset="1" stop-color="#3AB3FE"/>
</linearGradient>
<linearGradient id="paint2_linear_622_4517" x1="594.273" y1="876.655" x2="672.731" y2="803.723" gradientUnits="userSpaceOnUse">
<stop stop-color="#B3E1FD" stop-opacity="0"/>
<stop offset="1" stop-color="#3AB3FE"/>
</linearGradient>
<clipPath id="clip0_622_4517">
<rect width="862" height="1975" fill="white"/>
</clipPath>
</defs>
</svg>
