<svg width="75" height="75" viewBox="0 0 75 75" fill="none" xmlns="http://www.w3.org/2000/svg">
<path fill-rule="evenodd" clip-rule="evenodd" d="M0.164454 0.120396C0.0738949 0.214913 0 2.34825 0 4.86118V9.42982H2.63829C5.56887 9.42982 6.23896 9.61075 7.53903 10.7522C9.33619 12.3305 9.3033 12.1294 9.44561 22.3684C9.58112 32.1151 9.59954 32.2855 10.8391 35.3546C12.4817 39.4217 16.2308 43.2829 20.2733 45.071C22.9232 46.243 24.4235 46.5283 28.7247 46.6785L32.7813 46.8202L32.8385 56.1952L32.8955 65.5702H28.1789H23.4622V70.2851V75H37.4956H51.5291V70.2851V65.5702H46.8123H42.0957L42.1528 56.1952L42.21 46.8202L46.2665 46.6827C52.9916 46.4548 56.7076 44.9289 60.5556 40.8156C64.8812 36.1912 65.5625 33.6386 65.5625 22.0544C65.5625 13.2151 65.6105 12.8526 67.0003 11.2292C68.2672 9.7489 69.211 9.42982 72.324 9.42982H75L74.9408 4.76974L74.8816 0.109649L71.5925 0.122587C69.1077 0.132456 67.9817 0.231141 66.9878 0.526097C62.3412 1.90504 58.6778 5.5511 56.9896 10.4765L56.2585 12.6096L56.1415 21.6009L56.0242 30.5921L55.324 32.0704C54.1735 34.4993 52.1663 36.2066 49.576 36.9596C48.4702 37.2811 47.7012 37.3314 44.3479 37.3011L42.1003 37.2807V18.6404V0H37.4956H32.8909V18.6404V37.2807L31.8493 37.2939C26.7414 37.3586 25.4214 37.1838 23.4606 36.1833C22.0441 35.4607 20.459 33.7419 19.6672 32.0704L18.9671 30.5921L18.8458 21.4912C18.7294 12.7662 18.7035 12.327 18.2211 10.8553C16.572 5.82544 12.7983 1.97873 8.11309 0.552192C6.8128 0.156359 0.460034 -0.188815 0.164454 0.120396Z" fill="#3AB3FE"/>
</svg>
