<svg width="73" height="73" viewBox="0 0 73 73" fill="none" xmlns="http://www.w3.org/2000/svg">
<path fill-rule="evenodd" clip-rule="evenodd" d="M33.3341 0.105031C26.8135 0.572616 19.4783 3.43016 14.1749 7.5689C6.33341 13.6884 1.51415 22.129 0.140595 32.1489C-0.0238803 33.3488 -0.0516778 38.5413 0.0978924 40.1145C1.27858 52.5302 8.83094 63.4812 20.1003 69.1182C26.2379 72.1882 32.1704 73.3599 39.2763 72.9055C50.6457 72.1786 61.6762 65.4599 67.6113 55.6467C71.6492 48.9706 73.3831 41.9286 72.9296 34.0473C72.3778 24.4565 67.7096 15.1513 60.2536 8.77996C52.7919 2.40372 43.4156 -0.617898 33.3341 0.105031ZM29.9507 5.51647C29.7925 5.71091 29.1479 6.48983 28.5182 7.2473C25.7565 10.5693 23.5557 13.7974 21.7537 17.1692C21.4303 17.7744 21.0949 18.3588 21.0084 18.4679L20.851 18.6662L20.5612 18.4363C19.7416 17.786 16.1453 13.9768 15.7257 13.3145C15.2753 12.6035 15.3251 12.4862 16.4638 11.5769C20.1678 8.61923 24.9297 6.33662 29.736 5.21489C30.228 5.1001 30.2567 5.1403 29.9507 5.51647ZM44.2309 5.50001C48.6843 6.64802 52.8772 8.71341 56.3782 11.4838C57.5641 12.4222 57.6137 12.5336 57.1484 13.2131C56.3965 14.3114 54.4039 16.5557 53.3546 17.4861C52.6164 18.1407 52.0119 18.6373 51.9531 18.6373C51.9285 18.6373 51.7372 18.2968 51.5281 17.8806C49.6117 14.0658 46.7874 9.93653 43.4916 6.13093C42.8794 5.42393 42.7112 5.16196 42.8709 5.16338C42.9016 5.1636 43.5136 5.31517 44.2309 5.50001ZM39.7255 8.82068C42.8271 12.3716 45.4538 16.1622 47.3432 19.8139C47.731 20.5634 48.0349 21.1899 48.0186 21.2062C47.8975 21.3273 45.7994 22.1593 44.6408 22.5458C42.8478 23.1439 39.9707 23.7694 38.9956 23.7731L38.7907 23.7739L38.7923 15.7526C38.7939 8.14063 38.8006 7.7393 38.9227 7.89012C38.9936 7.9776 39.3548 8.39635 39.7255 8.82068ZM34.1605 17.215L34.1702 23.7953L33.6583 23.7478C31.4526 23.543 28.3796 22.7212 25.916 21.6771C24.7848 21.1977 24.8043 21.3269 25.6225 19.7319C27.5084 16.0555 30.0195 12.4748 33.4994 8.4993L34.0584 7.86079L34.1046 9.24762C34.1299 10.0104 34.1551 13.5957 34.1605 17.215ZM61.5571 16.6831C64.9197 21.0245 67.0037 25.6415 67.967 30.8834C68.1421 31.8363 68.3743 33.6217 68.376 34.0287L68.3768 34.1962H62.2397H56.1026L56.0532 33.3208C55.9236 31.0316 55.05 26.8143 54.1482 24.1255L53.7802 23.0284L54.39 22.565C56.3595 21.0679 58.6078 18.7903 60.7339 16.1381C60.9389 15.8825 60.9352 15.8801 61.5571 16.6831ZM12.8633 17.0553C14.3514 18.8857 15.9216 20.456 17.9611 22.1537C18.33 22.4608 18.7282 22.8147 18.846 22.9402L19.0601 23.1685L18.6462 24.5321C17.7074 27.6238 17.2586 29.778 16.9597 32.6246C16.8771 33.4117 16.79 34.0874 16.7661 34.126C16.7395 34.169 14.3723 34.1962 10.6534 34.1962H4.58403L4.5853 34.0287C4.6075 31.1472 6.1082 25.7063 7.82233 22.2921C9.03052 19.8855 11.5819 16.1062 11.9981 16.1062C12.0496 16.1062 12.4389 16.5333 12.8633 17.0553ZM24.4084 26.0077C26.9403 27.0895 29.5215 27.7846 32.4198 28.1653C33.0751 28.2514 33.7159 28.3378 33.844 28.3573C34.1629 28.4058 34.1684 28.4598 34.1693 31.572L34.1702 34.1962H27.7528H21.3354L21.3795 33.9542C21.4037 33.8211 21.4579 33.394 21.4998 33.0051C21.8206 30.0323 22.9005 25.5606 23.2977 25.5606C23.3331 25.5606 23.8329 25.7618 24.4084 26.0077ZM49.8986 25.8871C50.4426 27.1155 51.4584 32.1475 51.4594 33.6192L51.4598 34.1962H45.1252H38.7907V31.2928C38.7907 29.696 38.8076 28.3895 38.8285 28.3895C38.9799 28.3895 41.221 28.0515 42.256 27.8726C44.1721 27.5414 47.0256 26.6678 48.8142 25.8652C49.6692 25.4814 49.7195 25.4824 49.8986 25.8871ZM16.9121 39.6441C17.0383 41.6372 17.7766 45.1909 18.7059 48.2778C19.2153 49.9702 19.2151 49.9636 18.7623 50.2575C17.5939 51.0159 14.3822 54.1162 12.9397 55.8781C12.4788 56.4411 12.0554 56.9017 11.9989 56.9017C11.4453 56.9017 8.37791 52.1036 7.17226 49.3517C5.79907 46.2174 4.58403 41.3331 4.58403 38.9476C4.58403 38.8171 4.82824 38.8117 10.7217 38.8117H16.8593L16.9121 39.6441ZM34.1549 41.6717C34.1428 43.2447 34.1087 44.5558 34.0791 44.5854C34.0495 44.6149 33.5632 44.6979 32.9985 44.77C29.7669 45.1822 27.2136 45.844 24.4979 46.9735C23.1382 47.539 23.2534 47.529 23.1132 47.0936C22.3491 44.7198 21.6136 41.2453 21.5217 39.5748L21.4796 38.8117H27.8282H34.1768L34.1549 41.6717ZM51.4598 39.2302C51.4598 40.7078 50.0703 46.9069 49.6378 47.3592C49.5608 47.4398 49.3727 47.3852 48.5813 47.0523C45.925 45.9352 43.0157 45.152 40.2439 44.8078C39.711 44.7416 39.1661 44.6704 39.0329 44.6496L38.7907 44.6116V41.7117V38.8117H45.1252H51.4598V39.2302ZM68.376 38.9792C68.3744 39.316 68.1543 41.2143 68.0393 41.8834C67.3944 45.6344 65.7868 49.9063 63.8442 53.0306C62.8416 54.643 61.0942 57.0506 60.9264 57.0506C60.8875 57.0506 60.5242 56.6402 60.1189 56.1386C58.6612 54.3346 56.5556 52.2031 54.9877 50.9441C54.0861 50.2202 53.8446 49.9708 53.8446 49.7636C53.8446 49.6621 54.0266 48.9737 54.2492 48.234C55.187 45.1168 55.6383 42.9353 56.0061 39.7423C56.0532 39.3328 56.1049 38.956 56.121 38.9048C56.144 38.8313 57.438 38.8117 62.2635 38.8117H68.3768L68.376 38.9792ZM34.1702 57.3251V65.4162L33.9382 65.1975C32.8532 64.1751 29.6892 59.9553 27.9495 57.2105C26.8801 55.5234 25.0782 52.1711 25.0782 51.869C25.0782 51.5786 27.8753 50.4668 29.8206 49.9839C31.3189 49.6119 33.1977 49.2646 33.8162 49.2451L34.1702 49.2339V57.3251ZM40.7655 49.499C42.1322 49.7343 43.3991 50.0474 44.7017 50.4719C45.8848 50.8576 47.8044 51.6687 47.8568 51.8052C48.0341 52.2669 44.9446 57.4188 42.3481 60.9914C41.1055 62.7011 40.3199 63.6801 38.8529 65.3474C38.8187 65.3863 38.7907 61.7724 38.7907 57.3164V49.2147L39.2564 49.2671C39.5126 49.2959 40.1917 49.4002 40.7655 49.499ZM21.2529 54.7243C21.3828 54.9187 21.6471 55.3961 21.8401 55.785C23.3621 58.8523 26.1938 63.071 29.1019 66.6037C29.6016 67.2107 29.9905 67.7272 29.9661 67.7517C29.8716 67.8461 28.2511 67.4392 26.7923 66.9548C22.9737 65.6869 20.2367 64.2577 16.9812 61.8316C15.2423 60.5357 15.2071 60.4734 15.758 59.6631C16.5341 58.5214 20.5914 54.3701 20.9305 54.3707C20.9779 54.3708 21.123 54.5299 21.2529 54.7243ZM52.1763 54.5352C53.7141 55.7124 55.2246 57.2895 57.0052 59.5772L57.6681 60.4289L57.3027 60.7527C55.0732 62.7284 51.2521 65.055 48.4043 66.1708C46.7111 66.8341 44.1016 67.6291 43.2447 67.7427L42.8767 67.7914L43.6642 66.8476C46.4854 63.4665 49.2726 59.3269 51.1264 55.7649C51.5256 54.9981 51.8767 54.3706 51.9067 54.3706C51.9368 54.3706 52.0581 54.4447 52.1763 54.5352Z" fill="#3AB3FE"/>
</svg>
