<svg width="243" height="155" viewBox="0 0 243 155" fill="none" xmlns="http://www.w3.org/2000/svg">
<path d="M2.88473 11.0508C2.87866 10.5931 2.92456 10.1363 3.02154 9.69013C3.12037 9.25849 3.29985 8.85193 3.54943 8.4943C3.85532 8.10097 4.23464 7.77817 4.6638 7.54593C4.91106 7.36445 5.17268 7.20577 5.44579 7.07171C5.75859 6.87928 6.07136 6.67314 6.38416 6.45322C6.67689 6.21317 6.93392 5.92823 7.14664 5.60791C7.36244 5.2823 7.47221 4.8916 7.45945 4.49457C7.47081 4.12003 7.36805 3.75148 7.16621 3.44307C6.97381 3.154 6.71013 2.92591 6.40373 2.78337C6.09137 2.63093 5.75082 2.55344 5.40665 2.55655C5.01827 2.554 4.63541 2.65321 4.29234 2.84522C3.9764 3.02682 3.69207 3.26387 3.45164 3.5462C3.22664 3.80382 3.02992 4.08739 2.86516 4.39151L0.910156 3.01013C1.15623 2.40561 1.52295 1.86416 1.98539 1.42263C2.44062 0.988472 2.97195 0.652277 3.54943 0.432984C4.17554 0.192055 4.838 0.0733254 5.50444 0.082528C6.04908 0.0792842 6.59058 0.169763 7.10756 0.350498C7.63319 0.510816 8.12443 0.776864 8.55425 1.13396C8.98994 1.51034 9.34338 1.98156 9.5904 2.51534C9.86865 3.16196 10.0024 3.86731 9.98137 4.57705C9.98392 5.00862 9.93134 5.43856 9.82499 5.85531C9.71921 6.21199 9.56792 6.55183 9.37532 6.86553C9.17012 7.16106 8.92664 7.42479 8.65197 7.64899C8.35052 7.8991 8.03736 8.13305 7.71361 8.34996L6.57967 9.05094C6.22651 9.26186 5.90936 9.53367 5.6413 9.85504C5.37175 10.203 5.2326 10.6432 5.25028 11.0921L2.88473 11.0508ZM2.88473 16.3494V13.2156H5.28936V16.3494H2.88473Z" fill="#3AB3FE"/>
<path d="M48.8652 11.0506C48.8689 10.5935 48.9147 10.1378 49.0021 9.68996C49.1009 9.25832 49.2803 8.85176 49.5299 8.49413C49.8358 8.1008 50.2151 7.778 50.6443 7.54576C50.8915 7.36428 51.1531 7.2056 51.4263 7.07154L52.3647 6.45305C52.6574 6.213 52.9144 5.92806 53.1271 5.60774C53.3429 5.28212 53.4527 4.89143 53.4399 4.4944C53.4513 4.11985 53.3485 3.75131 53.1467 3.4429C52.9556 3.16058 52.7001 2.93371 52.4038 2.7832C52.0839 2.63283 51.7374 2.55551 51.3872 2.55638C50.9988 2.55383 50.6159 2.65304 50.2728 2.84505C49.9569 3.02665 49.6726 3.2637 49.4322 3.54602C49.2072 3.80365 49.0104 4.08722 48.8456 4.39133L46.8906 3.00996C47.1437 2.40966 47.5095 1.86965 47.9659 1.42246C48.4212 0.988301 48.9524 0.652106 49.5299 0.432813C50.1565 0.19364 50.8186 0.0749652 51.4849 0.0823564C52.0295 0.0791126 52.571 0.169591 53.088 0.350327C53.6137 0.510644 54.1049 0.776693 54.5347 1.13379C54.9704 1.51017 55.3239 1.98139 55.5709 2.51517C55.8491 3.16179 55.9829 3.86714 55.9619 4.57688C55.9644 5.00844 55.9118 5.43839 55.8055 5.85514C55.6997 6.21181 55.5484 6.55165 55.3558 6.86536C55.1506 7.16089 54.9072 7.42462 54.6325 7.64882C54.331 7.89893 54.0178 8.13288 53.6941 8.34979L52.5602 9.05077C52.207 9.26169 51.8898 9.5335 51.6218 9.85487C51.3576 10.2048 51.2253 10.6454 51.2503 11.0919L48.8652 11.0506ZM48.8652 16.3493V13.2155H51.2699V16.3493H48.8652Z" fill="#3AB3FE"/>
<path d="M97.916 11.0504C97.9099 10.5927 97.9558 10.1359 98.0528 9.68972C98.1516 9.25808 98.3311 8.85152 98.5807 8.49389C98.8788 8.10066 99.2518 7.77762 99.6755 7.54552C99.9254 7.36852 100.187 7.21005 100.457 7.0713C100.784 6.8895 101.098 6.6828 101.396 6.45281C101.699 6.21883 101.964 5.93314 102.178 5.6075C102.381 5.27566 102.49 4.8892 102.491 4.49416C102.502 4.11961 102.399 3.75107 102.197 3.44266C102.005 3.15359 101.741 2.9255 101.435 2.78296C101.121 2.63483 100.782 2.55755 100.438 2.55614C100.043 2.55103 99.6532 2.65029 99.304 2.84481C98.9881 3.02641 98.7038 3.26346 98.4634 3.54578C98.2506 3.80894 98.0608 4.09187 97.8964 4.3911L95.9414 3.00972C96.1873 2.41037 96.5465 1.87022 96.9971 1.42222C97.4562 0.983066 97.9949 0.646414 98.5807 0.432574C99.1753 0.2012 99.8041 0.0825783 100.438 0.0821178C100.989 0.0788294 101.537 0.169281 102.061 0.350088C102.585 0.514587 103.075 0.780247 103.507 1.13355C103.94 1.51301 104.293 1.98351 104.543 2.51493C104.822 3.16155 104.955 3.8669 104.934 4.57664C104.94 5.00983 104.88 5.4412 104.758 5.8549C104.661 6.21493 104.509 6.55604 104.309 6.86512C104.109 7.16546 103.865 7.43 103.585 7.64858C103.291 7.89865 102.984 8.13261 102.667 8.34956L101.533 9.05053C101.17 9.256 100.846 9.52837 100.575 9.85463C100.311 10.2046 100.178 10.6451 100.203 11.0917L97.916 11.0504ZM97.916 16.349V13.2152H100.301V16.349H97.916Z" fill="#3AB3FE"/>
<path d="M145.131 11.0509C145.125 10.5931 145.171 10.1364 145.268 9.69018C145.367 9.25854 145.546 8.85198 145.796 8.49435C146.094 8.10112 146.467 7.77808 146.89 7.54597C147.147 7.36935 147.415 7.21092 147.692 7.07176L148.63 6.45327C148.923 6.21321 149.18 5.92828 149.393 5.60796C149.596 5.27612 149.705 4.88966 149.706 4.49461C149.717 4.12007 149.614 3.75153 149.412 3.44312C149.21 3.11127 148.917 2.85237 148.572 2.70093C148.259 2.55101 147.919 2.47371 147.575 2.47417C147.186 2.47162 146.803 2.57077 146.46 2.76278C146.141 2.93879 145.856 3.17657 145.62 3.46375C145.395 3.72138 145.198 4.00495 145.033 4.30906L143.078 2.92769C143.324 2.32834 143.683 1.78819 144.134 1.34019C144.596 0.905448 145.134 0.569345 145.717 0.350543C146.313 0.12123 146.941 0.00267316 147.575 8.64789e-05C148.126 -0.00320192 148.674 0.0873124 149.197 0.26812C149.721 0.432619 150.212 0.698279 150.644 1.05158C151.08 1.42796 151.433 1.89912 151.68 2.4329C151.958 3.07952 152.092 3.78487 152.071 4.49461C152.074 4.92617 152.021 5.35612 151.915 5.77287C151.803 6.13064 151.645 6.47059 151.446 6.78315C151.253 7.08304 151.015 7.34763 150.742 7.56655C150.44 7.81666 150.127 8.05067 149.803 8.26759L148.669 8.96856C148.313 9.17421 147.995 9.44665 147.731 9.7726C147.462 10.1206 147.322 10.5607 147.34 11.0096L145.131 11.0509ZM145.131 16.3495V13.2157H147.536V16.3495H145.131Z" fill="#3AB3FE"/>
<path d="M2.88473 55.9142C2.87976 55.4565 2.92565 54.9998 3.02154 54.5534C3.12037 54.1218 3.29985 53.7153 3.54943 53.3576C3.85532 52.9643 4.23464 52.6415 4.6638 52.4092C4.91106 52.2277 5.17268 52.0691 5.44579 51.9351C5.75859 51.7564 6.07136 51.5502 6.38416 51.3165C6.67689 51.0764 6.93392 50.7916 7.14664 50.4713C7.36244 50.1456 7.47221 49.7549 7.45945 49.3579C7.47081 48.9834 7.36805 48.6148 7.16621 48.3064C6.9697 48.0214 6.70717 47.7942 6.40373 47.6467C6.09137 47.4942 5.75082 47.4168 5.40665 47.4199C5.01827 47.4173 4.63541 47.5165 4.29234 47.7085C3.9764 47.8901 3.69207 48.1272 3.45164 48.4095C3.22664 48.6672 3.02992 48.9507 2.86516 49.2548L0.910156 47.8735C1.15623 47.269 1.52295 46.7275 1.98539 46.286C2.44062 45.8518 2.97195 45.5156 3.54943 45.2963C4.17554 45.0554 4.838 44.9366 5.50444 44.9458C6.04908 44.9426 6.59058 45.0331 7.10756 45.2138C7.63815 45.3713 8.13115 45.6454 8.55425 46.0179C8.99624 46.3793 9.35122 46.8455 9.5904 47.3787C9.86865 48.0253 10.0024 48.7307 9.98137 49.4404C9.98392 49.872 9.93134 50.3019 9.82499 50.7187C9.71921 51.0753 9.56792 51.4152 9.37532 51.7289C9.16539 52.0263 8.92257 52.2963 8.65197 52.533C8.35872 52.7598 8.04596 53.0072 7.71361 53.2339L6.57967 53.9143C6.22651 54.1252 5.90936 54.397 5.6413 54.7184C5.37175 55.0663 5.2326 55.5064 5.25028 55.9554L2.88473 55.9142ZM2.88473 61.2128V58.0789H5.28936V61.2128H2.88473Z" fill="#3AB3FE"/>
<path d="M48.8652 55.914C48.87 55.4569 48.9158 55.0012 49.0021 54.5532C49.0971 54.1265 49.277 53.7259 49.5299 53.378C49.829 52.9723 50.2096 52.6414 50.6443 52.409C50.8915 52.2276 51.1531 52.0689 51.4263 51.9349C51.7391 51.7562 52.0519 51.55 52.3647 51.3163C52.6574 51.0763 52.9144 50.7914 53.1271 50.4711C53.3429 50.1455 53.4527 49.7548 53.4399 49.3577C53.4513 48.9832 53.3485 48.6147 53.1467 48.3062C52.9516 48.0279 52.697 47.8019 52.4038 47.6465C52.0824 47.5032 51.736 47.433 51.3872 47.4404C51.0005 47.4315 50.6176 47.5235 50.2728 47.7083C49.9569 47.8899 49.6726 48.127 49.4322 48.4094C49.2072 48.667 49.0104 48.9505 48.8456 49.2546L46.8906 47.8939C47.1385 47.2845 47.5048 46.7367 47.9659 46.2858C48.4212 45.8516 48.9524 45.5154 49.5299 45.2962C50.1565 45.057 50.8186 44.9382 51.4849 44.9456C52.0295 44.9424 52.571 45.0329 53.088 45.2137C53.6186 45.3712 54.1116 45.6452 54.5347 46.0178C54.9767 46.3792 55.3317 46.8454 55.5709 47.3785C55.8491 48.0251 55.9829 48.7305 55.9619 49.4402C55.9644 49.8718 55.9118 50.3017 55.8055 50.7185C55.7036 51.0768 55.5521 51.4172 55.3558 51.7287C55.1459 52.0261 54.9031 52.2961 54.6325 52.5328C54.3393 52.7596 54.0264 53.007 53.6941 53.2338C53.3617 53.4606 52.9512 53.7079 52.5602 53.9141C52.207 54.125 51.8898 54.3968 51.6218 54.7182C51.3576 55.0682 51.2253 55.5087 51.2503 55.9552L48.8652 55.914ZM48.8652 61.2126V58.0788H51.2699V61.2126H48.8652Z" fill="#3AB3FE"/>
<path d="M97.916 55.9137C97.911 55.4561 97.9569 54.9994 98.0528 54.553C98.1478 54.1263 98.3277 53.7257 98.5807 53.3778C98.8723 52.9725 99.2464 52.6414 99.6755 52.4088C99.9254 52.2318 100.187 52.0734 100.457 51.9346C100.784 51.7528 101.098 51.5461 101.396 51.3161C101.699 51.0821 101.964 50.7965 102.178 50.4708C102.381 50.139 102.49 49.7525 102.491 49.3575C102.502 48.983 102.399 48.6144 102.197 48.306C102.001 48.021 101.738 47.7938 101.435 47.6462C101.12 47.5046 100.78 47.4344 100.438 47.4401C100.045 47.4286 99.655 47.5207 99.304 47.7081C98.9881 47.8897 98.7038 48.1268 98.4634 48.4091C98.2506 48.6723 98.0608 48.9551 97.8964 49.2544L95.9414 47.8937C96.182 47.2852 96.5417 46.7372 96.9971 46.2856C97.4562 45.8464 97.9949 45.5098 98.5807 45.2959C99.1753 45.0645 99.8041 44.9459 100.438 44.9454C100.989 44.9421 101.537 45.0326 102.061 45.2134C102.589 45.377 103.081 45.6504 103.507 46.0175C103.944 46.3847 104.298 46.8494 104.543 47.3783C104.822 48.0249 104.955 48.7302 104.934 49.44C104.94 49.8732 104.88 50.3045 104.758 50.7182C104.665 51.0798 104.513 51.4215 104.309 51.7285C104.104 52.0308 103.861 52.3014 103.585 52.5326C103.292 52.7593 102.999 53.0067 102.667 53.2335L101.533 53.9139C101.17 54.1193 100.846 54.3917 100.575 54.718C100.311 55.0679 100.178 55.5084 100.203 55.955L97.916 55.9137ZM97.916 61.2124V58.0785H100.301V61.2124H97.916Z" fill="#3AB3FE"/>
<path d="M145.131 55.9137C145.126 55.4561 145.172 54.9994 145.268 54.553C145.363 54.1263 145.543 53.7257 145.796 53.3778C146.087 52.9725 146.461 52.6414 146.89 52.4088C147.147 52.2322 147.415 52.0738 147.692 51.9346C148.005 51.756 148.317 51.5498 148.63 51.3161C148.923 51.076 149.18 50.7912 149.393 50.4708C149.596 50.139 149.705 49.7525 149.706 49.3575C149.717 48.983 149.614 48.6144 149.412 48.306C149.216 48.021 148.953 47.7938 148.65 47.6462C148.335 47.5028 147.995 47.4325 147.653 47.4401C147.266 47.4312 146.883 47.5232 146.538 47.7081C146.219 47.8841 145.934 48.1219 145.698 48.4091C145.473 48.6668 145.276 48.9503 145.111 49.2544L143.156 47.8937C143.397 47.2852 143.757 46.7372 144.212 46.2856C144.674 45.8508 145.212 45.5147 145.796 45.2959C146.391 45.0666 147.019 44.948 147.653 44.9454C148.204 44.9421 148.752 45.0326 149.275 45.2134C149.804 45.377 150.296 45.6504 150.722 46.0175C151.164 46.3789 151.519 46.8451 151.758 47.3783C152.037 48.0249 152.17 48.7302 152.149 49.44C152.152 49.8715 152.099 50.3015 151.993 50.7182C151.884 51.0775 151.726 51.4179 151.524 51.7285C151.327 52.0304 151.09 52.3012 150.82 52.5326C150.527 52.7593 150.214 53.0067 149.881 53.2335C149.549 53.4603 149.139 53.7077 148.748 53.9139C148.391 54.1195 148.073 54.392 147.809 54.718C147.54 55.0659 147.401 55.506 147.418 55.955L145.131 55.9137ZM145.131 61.2124V58.0785H147.535V61.2124H145.131Z" fill="#3AB3FE"/>
<path d="M2.88473 103.499C2.8777 103.041 2.92362 102.584 3.02154 102.138C3.12037 101.707 3.29985 101.3 3.54943 100.943C3.8606 100.549 4.23851 100.221 4.6638 99.9736L5.44579 99.4995C5.77556 99.3234 6.08959 99.1164 6.38416 98.8809C6.68091 98.6537 6.93879 98.3748 7.14664 98.0562C7.35752 97.7281 7.4668 97.3392 7.45945 96.9429C7.47365 96.568 7.37063 96.1986 7.16621 95.8915C6.97381 95.6024 6.71013 95.3742 6.40373 95.2317C6.09137 95.0792 5.75082 95.0018 5.40665 95.0049C5.01827 95.0023 4.63541 95.1015 4.29234 95.2935C3.97215 95.4683 3.68671 95.7062 3.45164 95.9945C3.22706 96.245 3.03031 96.5217 2.86517 96.8192L0.910156 95.4585C1.15117 94.8509 1.51863 94.3084 1.98539 93.871C2.43955 93.4303 2.97082 93.0871 3.54943 92.8607C4.17667 92.6264 4.83917 92.5146 5.50444 92.5308C6.04736 92.5308 6.58742 92.6141 7.10756 92.7782C7.63103 92.9541 8.12081 93.2263 8.55425 93.5823C8.98994 93.9587 9.34338 94.4299 9.5904 94.9637C9.87136 95.6094 10.0052 96.3154 9.98137 97.0254C9.98379 97.4637 9.93123 97.9005 9.82499 98.3243C9.72299 98.676 9.57139 99.0096 9.37532 99.3138C9.17591 99.6204 8.93178 99.8918 8.65197 100.118C8.35052 100.368 8.03736 100.602 7.71361 100.819L6.57967 101.52C6.22651 101.731 5.90936 102.003 5.6413 102.324C5.37175 102.672 5.2326 103.112 5.25028 103.561L2.88473 103.499ZM2.88473 108.798V105.643H5.28936V108.798H2.88473Z" fill="#3AB3FE"/>
<path d="M48.8652 103.499C48.8679 103.042 48.9137 102.586 49.0021 102.138C49.1009 101.706 49.2803 101.3 49.5299 100.942C49.8411 100.549 50.219 100.22 50.6443 99.9732L51.4263 99.4991C51.756 99.323 52.0701 99.116 52.3647 98.8805C52.6614 98.6533 52.9193 98.3745 53.1271 98.0559C53.338 97.7278 53.4473 97.3388 53.4399 96.9425C53.4541 96.5676 53.3511 96.1982 53.1467 95.8911C52.9556 95.6088 52.7001 95.3818 52.4038 95.2313C52.0839 95.0809 51.7374 95.0036 51.3872 95.0045C50.9988 95.0019 50.6159 95.1012 50.2728 95.2932C49.9526 95.4679 49.6672 95.7059 49.4322 95.9941C49.2076 96.2446 49.0108 96.5213 48.8456 96.8188L46.8906 95.4581C47.1388 94.8548 47.5053 94.3138 47.9659 93.8706C48.4201 93.4299 48.9513 93.0868 49.5299 92.8603C50.1577 92.6282 50.8198 92.5165 51.4849 92.5305C52.0278 92.5304 52.5679 92.6138 53.088 92.7779C53.6115 92.9537 54.1013 93.2259 54.5347 93.5819C54.9704 93.9583 55.3239 94.4295 55.5709 94.9633C55.8518 95.609 55.9858 96.315 55.9619 97.025C55.9643 97.4633 55.9117 97.9001 55.8055 98.3239C55.7035 98.6757 55.5519 99.0092 55.3558 99.3135C55.1564 99.62 54.9123 99.8914 54.6325 100.118C54.331 100.368 54.0178 100.602 53.6941 100.819L52.5602 101.52C52.207 101.73 51.8898 102.002 51.6218 102.324C51.3576 102.674 51.2253 103.114 51.2503 103.561L48.8652 103.499ZM48.8652 108.797V105.643H51.2699V108.797H48.8652Z" fill="#3AB3FE"/>
<path d="M97.916 103.498C97.9089 103.04 97.9549 102.583 98.0528 102.137C98.1516 101.706 98.3311 101.299 98.5807 100.941C98.883 100.547 99.2548 100.218 99.6755 99.9723L100.457 99.4981C100.792 99.3316 101.107 99.1239 101.396 98.8796C101.703 98.6587 101.968 98.379 102.178 98.0549C102.381 97.7231 102.49 97.3366 102.491 96.9416C102.505 96.5667 102.402 96.1973 102.197 95.8901C102.005 95.6011 101.741 95.3729 101.435 95.2304C101.121 95.0823 100.782 95.005 100.438 95.0036C100.043 94.9984 99.6532 95.0977 99.304 95.2922C98.9838 95.467 98.6984 95.7049 98.4634 95.9932C98.2509 96.2492 98.0611 96.5253 97.8964 96.8179L95.9414 95.4571C96.1823 94.8548 96.5422 94.3137 96.9971 93.8696C97.4555 93.4245 97.994 93.0809 98.5807 92.8594C99.1765 92.6351 99.8053 92.5234 100.438 92.5295C100.987 92.5292 101.534 92.6126 102.061 92.7769C102.582 92.9574 103.071 93.2292 103.507 93.581C103.94 93.9604 104.293 94.4309 104.543 94.9623C104.824 95.608 104.958 96.3141 104.934 97.0241C104.942 97.4642 104.882 97.9027 104.758 98.323C104.665 98.678 104.512 99.0129 104.309 99.3125C104.115 99.6238 103.87 99.8961 103.585 100.117C103.291 100.367 102.984 100.601 102.667 100.818L101.533 101.519C101.17 101.724 100.846 101.996 100.575 102.323C100.311 102.673 100.178 103.113 100.203 103.56L97.916 103.498ZM97.916 108.796V105.642H100.301V108.796H97.916Z" fill="#3AB3FE"/>
<path d="M145.131 103.498C145.124 103.04 145.17 102.583 145.268 102.137C145.366 101.705 145.546 101.299 145.796 100.941C146.098 100.547 146.47 100.218 146.89 99.9722L147.692 99.498C148.022 99.322 148.336 99.1149 148.63 98.8795C148.927 98.6523 149.185 98.3734 149.393 98.0548C149.596 97.723 149.705 97.3365 149.706 96.9415C149.72 96.5665 149.617 96.1971 149.412 95.89C149.22 95.601 148.956 95.3728 148.65 95.2303C148.337 95.0804 147.997 95.003 147.653 95.0034C147.264 95.0009 146.882 95.1001 146.538 95.2921C146.215 95.4612 145.928 95.7 145.698 95.9931C145.473 96.2436 145.276 96.5203 145.111 96.8178L143.156 95.457C143.397 94.8547 143.757 94.3135 144.212 93.8695C144.673 93.4287 145.211 93.0857 145.796 92.8593C146.392 92.6366 147.02 92.525 147.653 92.5294C148.202 92.5291 148.749 92.6124 149.275 92.7768C149.797 92.9573 150.286 93.2291 150.722 93.5809C151.158 93.9572 151.511 94.4285 151.758 94.9622C152.039 95.6079 152.173 96.314 152.149 97.024C152.152 97.4623 152.099 97.8991 151.993 98.3228C151.884 98.6756 151.726 99.0091 151.524 99.3124C151.337 99.623 151.099 99.8954 150.82 100.117C150.518 100.367 150.205 100.601 149.881 100.818L148.748 101.518C148.391 101.724 148.073 101.997 147.809 102.323C147.54 102.671 147.401 103.111 147.418 103.56L145.131 103.498ZM145.131 108.796V105.642H147.535V108.796H145.131Z" fill="#3AB3FE"/>
<path d="M2.88473 149.701C2.87976 149.244 2.92565 148.787 3.02154 148.341C3.1242 147.917 3.30346 147.518 3.54943 147.165C3.8606 146.772 4.23851 146.444 4.6638 146.196L5.44579 145.722C5.77556 145.546 6.08959 145.339 6.38416 145.104C6.67643 144.871 6.93354 144.593 7.14664 144.279C7.35752 143.951 7.4668 143.562 7.45945 143.166C7.47665 142.79 7.37334 142.42 7.16621 142.114C6.97381 141.825 6.71013 141.597 6.40373 141.454C6.09137 141.302 5.75082 141.224 5.40665 141.228C5.01827 141.225 4.63541 141.324 4.29234 141.516C3.97726 141.691 3.69287 141.921 3.45164 142.197C3.23111 142.458 3.03474 142.741 2.86517 143.042L0.910156 141.681C1.15117 141.074 1.51863 140.531 1.98539 140.094C2.43955 139.653 2.97082 139.31 3.54943 139.083C4.17667 138.849 4.83917 138.737 5.50444 138.754C6.04736 138.753 6.58742 138.837 7.10756 139.001C7.63103 139.177 8.12081 139.449 8.55425 139.805C8.98994 140.181 9.34338 140.653 9.5904 141.186C9.87136 141.832 10.0052 142.538 9.98137 143.248C9.98379 143.686 9.93123 144.123 9.82499 144.547C9.72299 144.899 9.57139 145.232 9.37532 145.537C9.17591 145.843 8.93178 146.115 8.65197 146.341C8.35052 146.591 8.03736 146.825 7.71361 147.042L6.57967 147.743C6.22651 147.954 5.90936 148.225 5.6413 148.547C5.37468 148.888 5.23561 149.321 5.25028 149.763L2.88473 149.701ZM2.88473 155V151.866H5.28936V155H2.88473Z" fill="#3AB3FE"/>
<path d="M48.8652 149.701C48.87 149.244 48.9158 148.788 49.0021 148.34C49.1047 147.916 49.2839 147.517 49.5299 147.165C49.8411 146.772 50.219 146.443 50.6443 146.196L51.4263 145.722C51.756 145.546 52.0701 145.339 52.3647 145.103C52.657 144.871 52.914 144.593 53.1271 144.279C53.338 143.95 53.4473 143.562 53.4399 143.165C53.4571 142.79 53.3538 142.419 53.1467 142.114C52.9556 141.831 52.7001 141.604 52.4038 141.454C52.0839 141.304 51.7374 141.226 51.3872 141.227C50.9988 141.225 50.6159 141.324 50.2728 141.516C49.9577 141.69 49.6734 141.92 49.4322 142.196C49.2116 142.458 49.0152 142.741 48.8456 143.042L46.8906 141.681C47.1388 141.078 47.5053 140.537 47.9659 140.093C48.4201 139.653 48.9513 139.309 49.5299 139.083C50.1577 138.851 50.8198 138.739 51.4849 138.753C52.0278 138.753 52.5679 138.836 53.088 139.001C53.6115 139.176 54.1013 139.449 54.5347 139.805C54.9704 140.181 55.3239 140.652 55.5709 141.186C55.8518 141.832 55.9858 142.538 55.9619 143.248C55.9643 143.686 55.9117 144.123 55.8055 144.547C55.7035 144.898 55.5519 145.232 55.3558 145.536C55.1564 145.843 54.9123 146.114 54.6325 146.34C54.331 146.59 54.0178 146.824 53.6941 147.041L52.5602 147.742C52.207 147.953 51.8898 148.225 51.6218 148.546C51.3605 148.89 51.2283 149.323 51.2503 149.763L48.8652 149.701ZM48.8652 154.999V151.866H51.2699V154.999H48.8652Z" fill="#3AB3FE"/>
<path d="M97.916 149.702C97.911 149.244 97.9569 148.788 98.0528 148.341C98.1555 147.917 98.3347 147.518 98.5807 147.166C98.883 146.772 99.2548 146.443 99.6755 146.197L100.457 145.723C100.792 145.556 101.107 145.349 101.396 145.104C101.699 144.878 101.963 144.599 102.178 144.28C102.381 143.948 102.49 143.561 102.491 143.166C102.508 142.791 102.405 142.42 102.197 142.115C102.005 141.826 101.741 141.598 101.435 141.455C101.121 141.307 100.782 141.23 100.438 141.228C100.043 141.223 99.6532 141.322 99.304 141.517C98.9889 141.691 98.7046 141.921 98.4634 142.197C98.255 142.464 98.0656 142.747 97.8964 143.043L95.9414 141.682C96.1823 141.08 96.5422 140.538 96.9971 140.094C97.4555 139.649 97.994 139.306 98.5807 139.084C99.1765 138.86 99.8053 138.748 100.438 138.754C100.987 138.754 101.534 138.837 102.061 139.002C102.582 139.182 103.071 139.454 103.507 139.806C103.94 140.185 104.293 140.656 104.543 141.187C104.824 141.833 104.958 142.539 104.934 143.249C104.942 143.689 104.882 144.127 104.758 144.548C104.665 144.903 104.512 145.238 104.309 145.537C104.115 145.848 103.87 146.121 103.585 146.341C103.291 146.591 102.984 146.825 102.667 147.042L101.533 147.743C101.17 147.949 100.846 148.221 100.575 148.547C100.314 148.891 100.181 149.324 100.203 149.764L97.916 149.702ZM97.916 155V151.867H100.301V155H97.916Z" fill="#3AB3FE"/>
<path d="M145.131 149.702C145.126 149.244 145.172 148.787 145.268 148.341C145.37 147.917 145.55 147.518 145.796 147.166C146.098 146.772 146.47 146.443 146.89 146.197L147.692 145.723C148.022 145.547 148.336 145.34 148.63 145.104C148.923 144.872 149.18 144.593 149.393 144.279C149.596 143.948 149.705 143.561 149.706 143.166C149.723 142.791 149.619 142.42 149.412 142.115C149.22 141.826 148.956 141.597 148.65 141.455C148.337 141.305 147.997 141.228 147.653 141.228C147.264 141.226 146.882 141.325 146.538 141.517C146.22 141.686 145.935 141.917 145.698 142.197C145.477 142.459 145.281 142.742 145.111 143.042L143.156 141.682C143.397 141.079 143.757 140.538 144.212 140.094C144.673 139.653 145.211 139.31 145.796 139.084C146.392 138.861 147.02 138.75 147.653 138.754C148.202 138.754 148.749 138.837 149.275 139.001C149.797 139.182 150.286 139.454 150.722 139.806C151.158 140.182 151.511 140.653 151.758 141.187C152.039 141.833 152.173 142.539 152.149 143.249C152.152 143.687 152.099 144.124 151.993 144.547C151.884 144.9 151.726 145.234 151.524 145.537C151.337 145.848 151.099 146.12 150.82 146.341C150.518 146.591 150.205 146.825 149.881 147.042L148.748 147.743C148.391 147.949 148.073 148.221 147.809 148.547C147.543 148.889 147.404 149.321 147.418 149.764L145.131 149.702ZM145.131 155V151.867H147.535V155H145.131Z" fill="#3AB3FE"/>
<path d="M193.088 11.0504C193.082 10.5927 193.128 10.1359 193.225 9.68972C193.324 9.25808 193.503 8.85152 193.753 8.49389C194.051 8.10066 194.424 7.77762 194.847 7.54552C195.097 7.36852 195.359 7.21005 195.629 7.0713C195.956 6.8895 196.27 6.6828 196.568 6.45281C196.871 6.21883 197.135 5.93314 197.35 5.6075C197.553 5.27566 197.662 4.8892 197.663 4.49416C197.674 4.11961 197.571 3.75107 197.369 3.44266C197.177 3.15359 196.913 2.9255 196.607 2.78296C196.293 2.63483 195.954 2.55755 195.61 2.55614C195.215 2.55103 194.825 2.65029 194.476 2.84481C194.16 3.02641 193.876 3.26346 193.635 3.54578C193.422 3.80894 193.233 4.09187 193.068 4.3911L191.113 3.00972C191.359 2.41037 191.718 1.87022 192.169 1.42222C192.628 0.983066 193.167 0.646414 193.753 0.432574C194.347 0.2012 194.976 0.0825783 195.61 0.0821178C196.161 0.0788294 196.709 0.169281 197.232 0.350088C197.757 0.514587 198.247 0.780247 198.679 1.13355C199.115 1.50993 199.468 1.98115 199.715 2.51493C199.994 3.16155 200.127 3.8669 200.106 4.57664C200.112 5.00983 200.052 5.4412 199.93 5.8549C199.833 6.21493 199.681 6.55604 199.481 6.86512C199.281 7.16546 199.037 7.43 198.757 7.64858C198.466 7.90344 198.159 8.13761 197.839 8.34956L196.705 9.05053C196.342 9.256 196.018 9.52837 195.747 9.85463C195.482 10.2046 195.35 10.6451 195.375 11.0917L193.088 11.0504ZM193.088 16.349V13.2152H195.493V16.349H193.088Z" fill="#3AB3FE"/>
<path d="M193.088 55.9137C193.083 55.4561 193.129 54.9994 193.225 54.553C193.32 54.1263 193.5 53.7257 193.753 53.3778C194.044 52.9725 194.418 52.6414 194.847 52.4088C195.097 52.2318 195.359 52.0734 195.629 51.9346C195.956 51.7528 196.27 51.5461 196.568 51.3161C196.871 51.0821 197.135 50.7965 197.35 50.4708C197.553 50.139 197.662 49.7525 197.663 49.3575C197.674 48.983 197.571 48.6144 197.369 48.306C197.173 48.021 196.91 47.7938 196.607 47.6462C196.292 47.5046 195.952 47.4344 195.61 47.4401C195.217 47.4286 194.827 47.5207 194.476 47.7081C194.16 47.8897 193.876 48.1268 193.635 48.4091C193.422 48.6723 193.233 48.9551 193.068 49.2544L191.113 47.8937C191.354 47.2852 191.714 46.7372 192.169 46.2856C192.628 45.8464 193.167 45.5098 193.753 45.2959C194.347 45.0645 194.976 44.9459 195.61 44.9454C196.161 44.9421 196.709 45.0326 197.232 45.2134C197.761 45.377 198.253 45.6504 198.679 46.0175C199.121 46.3789 199.476 46.8451 199.715 47.3783C199.994 48.0249 200.127 48.7302 200.106 49.44C200.112 49.8732 200.052 50.3045 199.93 50.7182C199.837 51.0798 199.685 51.4215 199.481 51.7285C199.276 52.0308 199.033 52.3014 198.757 52.5326C198.484 52.7593 198.171 53.0067 197.839 53.2335L196.705 53.9139C196.342 54.1193 196.018 54.3917 195.747 54.718C195.482 55.0679 195.35 55.5084 195.375 55.955L193.088 55.9137ZM193.088 61.2124V58.0785H195.493V61.2124H193.088Z" fill="#3AB3FE"/>
<path d="M193.088 103.498C193.081 103.04 193.127 102.583 193.225 102.137C193.324 101.706 193.503 101.299 193.753 100.941C194.055 100.547 194.427 100.218 194.847 99.9723L195.629 99.4981C195.964 99.3316 196.279 99.1239 196.568 98.8796C196.875 98.6587 197.14 98.379 197.35 98.0549C197.553 97.7231 197.662 97.3366 197.663 96.9416C197.677 96.5667 197.574 96.1973 197.369 95.8901C197.177 95.6011 196.913 95.3729 196.607 95.2304C196.293 95.0823 195.954 95.005 195.61 95.0036C195.215 94.9984 194.825 95.0977 194.476 95.2922C194.156 95.467 193.87 95.7049 193.635 95.9932C193.423 96.2492 193.233 96.5253 193.068 96.8179L191.113 95.4571C191.354 94.8548 191.714 94.3137 192.169 93.8696C192.627 93.4245 193.166 93.0809 193.753 92.8594C194.348 92.6351 194.977 92.5234 195.61 92.5295C196.159 92.5292 196.706 92.6126 197.232 92.7769C197.754 92.9574 198.243 93.2292 198.679 93.581C199.115 93.9573 199.468 94.4286 199.715 94.9623C199.996 95.608 200.13 96.3141 200.106 97.0241C200.114 97.4642 200.054 97.9027 199.93 98.323C199.836 98.678 199.684 99.0129 199.481 99.3125C199.287 99.6238 199.042 99.8961 198.757 100.117C198.466 100.372 198.159 100.606 197.839 100.818L196.705 101.519C196.342 101.724 196.018 101.996 195.747 102.323C195.482 102.673 195.35 103.113 195.375 103.56L193.088 103.498ZM193.088 108.796V105.642H195.493V108.796H193.088Z" fill="#3AB3FE"/>
<path d="M193.088 149.702C193.083 149.244 193.129 148.788 193.225 148.341C193.327 147.917 193.507 147.518 193.753 147.166C194.055 146.772 194.427 146.443 194.847 146.197L195.629 145.723C195.964 145.556 196.279 145.349 196.568 145.104C196.871 144.878 197.135 144.599 197.35 144.28C197.553 143.948 197.662 143.561 197.663 143.166C197.68 142.791 197.576 142.42 197.369 142.115C197.177 141.826 196.913 141.598 196.607 141.455C196.293 141.307 195.954 141.23 195.61 141.228C195.215 141.223 194.825 141.322 194.476 141.517C194.161 141.691 193.876 141.921 193.635 142.197C193.427 142.464 193.237 142.747 193.068 143.043L191.113 141.682C191.354 141.08 191.714 140.538 192.169 140.094C192.627 139.649 193.166 139.306 193.753 139.084C194.348 138.86 194.977 138.748 195.61 138.754C196.159 138.754 196.706 138.837 197.232 139.002C197.754 139.182 198.243 139.454 198.679 139.806C199.115 140.182 199.468 140.653 199.715 141.187C199.996 141.833 200.13 142.539 200.106 143.249C200.114 143.689 200.054 144.127 199.93 144.548C199.836 144.903 199.684 145.238 199.481 145.537C199.287 145.848 199.042 146.121 198.757 146.341C198.466 146.596 198.159 146.83 197.839 147.042L196.705 147.743C196.342 147.949 196.018 148.221 195.747 148.547C195.485 148.891 195.353 149.324 195.375 149.764L193.088 149.702ZM193.088 155V151.867H195.493V155H193.088Z" fill="#3AB3FE"/>
<path d="M235.92 11.0504C235.914 10.5927 235.96 10.1359 236.057 9.68972C236.156 9.25808 236.335 8.85152 236.585 8.49389C236.883 8.10066 237.256 7.77762 237.679 7.54552C237.936 7.3689 238.204 7.21046 238.481 7.0713L239.419 6.45281C239.712 6.21276 239.969 5.92782 240.182 5.6075C240.385 5.27566 240.494 4.8892 240.495 4.49416C240.506 4.11961 240.403 3.75107 240.201 3.44266C240.009 3.15359 239.745 2.9255 239.439 2.78296C239.125 2.63483 238.786 2.55755 238.442 2.55614C238.053 2.55094 237.67 2.65031 237.327 2.84481C237.008 3.02082 236.723 3.2586 236.487 3.54578C236.262 3.80341 236.065 4.08698 235.9 4.3911L233.945 3.00972C234.191 2.41037 234.55 1.87022 235.001 1.42222C235.46 0.983066 235.999 0.646414 236.585 0.432574C237.179 0.2012 237.808 0.0825783 238.442 0.0821178C238.993 0.0788294 239.541 0.169281 240.064 0.350088C240.589 0.514587 241.079 0.780247 241.511 1.13355C241.947 1.50993 242.3 1.98115 242.547 2.51493C242.826 3.16155 242.959 3.8669 242.938 4.57664C242.941 5.0082 242.888 5.43815 242.782 5.8549C242.67 6.21267 242.512 6.55256 242.313 6.86512C242.113 7.16546 241.869 7.43 241.589 7.64858C241.298 7.90344 240.991 8.13761 240.671 8.34956L239.537 9.05053C239.178 9.26146 238.854 9.53312 238.579 9.85463C238.324 10.2097 238.193 10.6466 238.207 11.0917L235.92 11.0504ZM235.92 16.349V13.2152H238.305V16.349H235.92Z" fill="#3AB3FE"/>
<path d="M235.92 55.9137C235.915 55.4561 235.961 54.9994 236.057 54.553C236.152 54.1263 236.332 53.7257 236.585 53.3778C236.876 52.9725 237.25 52.6414 237.679 52.4088C237.936 52.2322 238.204 52.0738 238.481 51.9346C238.794 51.756 239.107 51.5498 239.419 51.3161C239.712 51.076 239.969 50.7912 240.182 50.4708C240.385 50.139 240.494 49.7525 240.495 49.3575C240.506 48.983 240.403 48.6144 240.201 48.306C240.005 48.021 239.742 47.7938 239.439 47.6462C239.124 47.5046 238.784 47.4344 238.442 47.4401C238.055 47.4286 237.671 47.5207 237.327 47.7081C237.008 47.8841 236.723 48.1219 236.487 48.4091C236.262 48.6668 236.065 48.9503 235.9 49.2544L233.945 47.8937C234.186 47.2852 234.546 46.7372 235.001 46.2856C235.46 45.8464 235.999 45.5098 236.585 45.2959C237.179 45.0645 237.808 44.9459 238.442 44.9454C238.993 44.9421 239.541 45.0326 240.064 45.2134C240.593 45.377 241.085 45.6504 241.511 46.0175C241.953 46.3789 242.308 46.8451 242.547 47.3783C242.826 48.0249 242.959 48.7302 242.938 49.44C242.941 49.8715 242.888 50.3015 242.782 50.7182C242.673 51.0775 242.515 51.4179 242.313 51.7285C242.108 52.0308 241.865 52.3014 241.589 52.5326C241.316 52.7593 241.003 53.0067 240.671 53.2335C240.338 53.4603 239.928 53.7077 239.537 53.9139C239.178 54.1248 238.854 54.3965 238.579 54.718C238.324 55.0731 238.193 55.5098 238.207 55.955L235.92 55.9137ZM235.92 61.2124V58.0785H238.305V61.2124H235.92Z" fill="#3AB3FE"/>
<path d="M235.92 103.498C235.913 103.04 235.959 102.583 236.057 102.137C236.156 101.706 236.335 101.299 236.585 100.941C236.887 100.547 237.259 100.218 237.679 99.9723L238.481 99.4981C238.811 99.3221 239.125 99.115 239.419 98.8796C239.716 98.6524 239.974 98.3735 240.182 98.0549C240.385 97.7231 240.494 97.3366 240.495 96.9416C240.509 96.5667 240.406 96.1973 240.201 95.8901C240.009 95.6011 239.745 95.3729 239.439 95.2304C239.125 95.0823 238.786 95.005 238.442 95.0036C238.053 94.9984 237.67 95.0977 237.327 95.2922C237.004 95.4613 236.717 95.7001 236.487 95.9932C236.262 96.2437 236.065 96.5204 235.9 96.8179L233.945 95.4571C234.186 94.8548 234.546 94.3137 235.001 93.8696C235.459 93.4245 235.998 93.0809 236.585 92.8594C237.18 92.6351 237.809 92.5234 238.442 92.5295C238.991 92.5292 239.538 92.6126 240.064 92.7769C240.586 92.9574 241.075 93.2292 241.511 93.581C241.947 93.9573 242.3 94.4286 242.547 94.9623C242.828 95.608 242.962 96.3141 242.938 97.0241C242.941 97.4624 242.888 97.8992 242.782 98.323C242.673 98.6757 242.515 99.0092 242.313 99.3125C242.119 99.6238 241.874 99.8961 241.589 100.117C241.298 100.372 240.991 100.606 240.671 100.818L239.537 101.519C239.178 101.73 238.854 102.001 238.579 102.323C238.324 102.678 238.193 103.115 238.207 103.56L235.92 103.498ZM235.92 108.796V105.642H238.305V108.796H235.92Z" fill="#3AB3FE"/>
<path d="M235.92 149.701C235.915 149.243 235.961 148.787 236.057 148.34C236.159 147.916 236.339 147.517 236.585 147.165C236.887 146.771 237.259 146.442 237.679 146.196L238.481 145.722C238.811 145.546 239.125 145.339 239.419 145.103C239.712 144.871 239.969 144.593 240.182 144.279C240.385 143.947 240.494 143.56 240.495 143.165C240.512 142.79 240.408 142.42 240.201 142.114C240.009 141.825 239.745 141.597 239.439 141.454C239.125 141.306 238.786 141.229 238.442 141.227C238.053 141.222 237.67 141.321 237.327 141.516C237.009 141.685 236.724 141.916 236.487 142.196C236.266 142.458 236.07 142.741 235.9 143.042L233.945 141.681C234.186 141.079 234.546 140.537 235.001 140.093C235.459 139.648 235.998 139.305 236.585 139.083C237.2 138.859 237.849 138.754 238.5 138.774C239.05 138.774 239.596 138.857 240.123 139.021C240.645 139.202 241.134 139.474 241.57 139.825C242.006 140.202 242.359 140.673 242.606 141.207C242.887 141.852 243.021 142.558 242.997 143.268C242.999 143.707 242.947 144.144 242.841 144.567C242.732 144.92 242.574 145.254 242.371 145.557C242.177 145.868 241.933 146.14 241.648 146.361C241.357 146.616 241.05 146.85 240.729 147.062L239.595 147.763C239.236 147.974 238.913 148.246 238.637 148.567C238.385 148.916 238.254 149.345 238.266 149.783L235.92 149.701ZM235.92 155V151.866H238.305V155H235.92Z" fill="#3AB3FE"/>
</svg>
