<svg width="156" height="160" viewBox="0 0 156 160" fill="none" xmlns="http://www.w3.org/2000/svg">
<path d="M0 11.0863V0H2.06158V11.0863H0ZM0 16.6877V13.8092H2.06158V16.6877H0Z" fill="#3AB3FE"/>
<path d="M49.6719 11.0863V0H51.714V11.0863H49.6719ZM49.6719 16.6877V13.8092H51.714V16.6877H49.6719Z" fill="#3AB3FE"/>
<path d="M102.887 11.0863V0H104.832V11.0863H102.887ZM102.887 16.6877V13.8092H104.832V16.6877H102.887Z" fill="#3AB3FE"/>
<path d="M153.938 11.0863V0H155.999V11.0863H153.938ZM153.938 16.6877V13.8092H155.999V16.6877H153.938Z" fill="#3AB3FE"/>
<path d="M0 57.1429V46.0566H2.06158V57.1429H0ZM0 62.7444V59.8464H2.06158V62.7833L0 62.7444Z" fill="#3AB3FE"/>
<path d="M49.6719 57.1429V46.0566H51.714V57.1429H49.6719ZM49.6719 62.7444V59.8464H51.714V62.7833L49.6719 62.7444Z" fill="#3AB3FE"/>
<path d="M102.887 57.1429V46.0566H104.832V57.1429H102.887ZM102.887 62.7444V59.8464H104.832V62.7833L102.887 62.7444Z" fill="#3AB3FE"/>
<path d="M153.938 57.1429V46.0566H155.999V57.1429H153.938ZM153.938 62.7444V59.8464H155.999V62.7833L153.938 62.7444Z" fill="#3AB3FE"/>
<path d="M0 105.961V94.875H2.06158V105.961H0ZM0 111.563V108.665H2.06158V111.563H0Z" fill="#3AB3FE"/>
<path d="M49.6719 105.961V94.875H51.714V105.961H49.6719ZM49.6719 111.563V108.665H51.714V111.563H49.6719Z" fill="#3AB3FE"/>
<path d="M102.887 105.961V94.875H104.832V105.961H102.887ZM102.887 111.563V108.665H104.832V111.563H102.887Z" fill="#3AB3FE"/>
<path d="M153.938 105.961V94.875H155.999V105.961H153.938ZM153.938 111.563V108.665H155.999V111.563H153.938Z" fill="#3AB3FE"/>
<path d="M0 153.399V142.312H2.06158V153.399H0ZM0 159V156.141H2.06158V159.039L0 159Z" fill="#3AB3FE"/>
<path d="M49.6719 153.399V142.312H51.714V153.399H49.6719ZM49.6719 159V156.141H51.714V159.039L49.6719 159Z" fill="#3AB3FE"/>
<path d="M102.887 153.399V142.312H104.832V153.399H102.887ZM102.887 159V156.141H104.832V159.039L102.887 159Z" fill="#3AB3FE"/>
<path d="M153.938 153.399V142.312H155.999V153.399H153.938ZM153.938 159V156.141H155.999V159.039L153.938 159Z" fill="#3AB3FE"/>
</svg>
