<svg width="576" height="782" viewBox="0 0 576 782" fill="none" xmlns="http://www.w3.org/2000/svg">
<path fill-rule="evenodd" clip-rule="evenodd" d="M279.141 56.1298V68.823V107.009L259.937 87.4392V63.298C259.937 61.5095 259.237 59.7942 257.99 58.5295C256.744 57.2649 255.053 56.5544 253.291 56.5544C251.528 56.5544 249.838 57.2649 248.591 58.5295C247.345 59.7942 246.645 61.5095 246.645 63.298V73.8938L223.127 49.9281C223.09 49.8878 223.053 49.848 223.015 49.8086V19.3253C223.015 17.4478 222.315 15.6473 221.068 14.3197C219.822 12.992 218.131 12.2461 216.369 12.2461C214.606 12.2461 212.916 12.992 211.669 14.3197C210.423 15.6473 209.723 17.4478 209.723 19.3253V55.3822C209.723 57.2597 210.423 59.0604 211.669 60.388C212.813 61.606 214.33 62.3343 215.934 62.4462L277.699 125.387C278.133 125.828 278.618 126.204 279.141 126.509V194.499L248.634 225.014C247.359 226.308 246.645 228.051 246.645 229.868C246.645 229.955 246.646 230.042 246.65 230.129C246.646 230.218 246.645 230.307 246.645 230.396V260.103C246.512 260.192 246.382 260.286 246.255 260.385C246.105 260.375 245.955 260.37 245.805 260.37H223.015V195.41V169.238V165.163L255.154 133.01C256.358 131.717 257.014 130.006 256.983 128.239C256.952 126.472 256.236 124.786 254.987 123.536C253.738 122.286 252.053 121.57 250.286 121.539C248.52 121.508 246.81 122.164 245.517 123.369L223.015 145.851V90.0868C223.015 88.2443 222.315 86.4772 221.068 85.1744C219.822 83.8715 218.131 83.1396 216.369 83.1396C214.606 83.1396 212.916 83.8715 211.669 85.1744C210.423 86.4772 209.723 88.2443 209.723 90.0868V161.978V162.403V169.238V195.411V195.42V250.571L189.048 229.9V90.0891L189.048 90.0518L189.048 90.0237C189.048 90.0014 189.047 89.9791 189.047 89.9568L189.046 89.9014C189.045 89.8741 189.044 89.8468 189.043 89.8195C189.047 89.7238 189.049 89.6278 189.049 89.5317C189.049 87.7071 188.331 85.9558 187.05 84.6563L150.621 48.2288C149.322 46.9358 147.562 46.2119 145.729 46.2162C143.896 46.2205 142.14 46.9527 140.847 48.2519C139.554 49.551 138.83 51.3106 138.834 53.1435C138.838 54.9765 139.571 56.7326 140.87 58.0257L175.756 92.8666V216.61L156.553 197.41C156.554 197.359 156.555 197.309 156.555 197.258V127.05C156.555 126.947 156.552 126.844 156.547 126.741C156.55 126.664 156.551 126.586 156.551 126.509C156.551 124.698 155.817 122.961 154.509 121.671L116.922 85.1595C115.601 83.8704 113.808 83.1438 111.935 83.1395C110.063 83.1352 108.265 83.8536 106.938 85.1366C105.611 86.4197 104.864 88.1623 104.859 89.9811C104.855 91.7999 105.594 93.5459 106.915 94.835L141.785 128.708V182.645L81.0491 121.918C79.7378 120.696 78.0033 120.031 76.2112 120.063C74.4191 120.094 72.7094 120.82 71.442 122.087C70.1746 123.354 69.4487 125.064 69.4171 126.856C69.3855 128.648 70.0507 130.382 71.2725 131.693L163.01 223.446H117.642C116.819 223.446 116.011 223.589 115.253 223.861L45.9254 154.624C45.2768 153.968 44.5044 153.448 43.6529 153.092C42.8014 152.737 41.888 152.554 40.9652 152.554C40.0423 152.554 39.1284 152.737 38.2768 153.092C37.4253 153.448 36.653 153.968 36.0044 154.624C34.7012 155.944 33.9707 157.724 33.9707 159.578C33.9707 161.432 34.7012 163.211 36.0044 164.532L106.2 234.635C106.85 235.289 107.623 235.807 108.474 236.16C109.326 236.513 110.239 236.694 111.161 236.692V236.739C112.281 236.727 113.379 236.45 114.365 235.934C115.362 236.457 116.487 236.739 117.642 236.739H176.207C176.538 237.629 177.044 238.446 177.702 239.135C178.467 239.934 179.399 240.519 180.412 240.851L211.188 271.632C212.492 272.917 214.246 273.645 216.077 273.661C216.101 273.661 216.125 273.661 216.149 273.661L216.183 273.66L216.212 273.661L216.253 273.662C216.292 273.663 216.33 273.663 216.369 273.663L216.424 273.663L216.452 273.662L216.471 273.662H245.805C246.087 273.662 246.367 273.645 246.645 273.611V299.928V300.681V328.308H219.603L188.368 297.068C188.029 296.316 187.57 295.624 187.004 295.025C186.343 294.324 185.562 293.779 184.712 293.411L150.6 259.294C149.274 258.058 147.519 257.385 145.707 257.417C143.894 257.449 142.165 258.183 140.883 259.465C139.601 260.747 138.867 262.477 138.835 264.29C138.803 266.103 139.476 267.857 140.712 269.183L164.386 292.862H87.1403V268.963C87.1403 267.075 86.3623 265.265 84.9774 263.931C83.845 262.839 82.3826 262.139 80.8162 261.92C80.8004 261.903 80.7844 261.886 80.7684 261.87C80.7438 261.844 80.7189 261.819 80.6939 261.794L14.6364 194.483C14.0031 193.834 13.2508 193.319 12.4222 192.967C11.5937 192.615 10.7048 192.433 9.8071 192.431C8.90939 192.429 8.02048 192.607 7.1903 192.955C6.36012 193.303 5.60518 193.814 4.96891 194.459C4.33264 195.105 3.82718 195.871 3.48169 196.716C3.1362 197.56 2.95733 198.465 2.95522 199.38C2.9531 200.295 3.12788 201.201 3.46947 202.047C3.81106 202.893 4.31286 203.662 4.94614 204.31L26.6102 226.401H6.89686C5.0677 226.401 3.31398 227.101 2.02056 228.347C0.727152 229.594 0 231.284 0 233.047C0 234.81 0.727152 236.5 2.02056 237.746C3.31398 238.993 5.0677 239.693 6.89686 239.693H39.6459L70.9581 271.621C71.3839 272.053 71.8595 272.423 72.3711 272.724V292.862H42.2569L11.5977 262.22C10.2903 261.002 8.56111 260.34 6.77449 260.371C4.98788 260.403 3.28333 261.126 2.0198 262.389C0.756273 263.652 0.0325973 265.355 0.00107446 267.141C-0.0304483 268.927 0.632703 270.655 1.85087 271.961L32.5167 302.656C33.2557 303.383 34.1387 303.931 35.0981 304.272C35.3611 304.7 35.6673 305.102 36.0136 305.468C37.3217 306.853 39.0958 307.631 40.9457 307.631H179.153L210.43 338.912C210.77 339.648 211.229 340.326 211.792 340.914C213.116 342.299 214.912 343.077 216.785 343.077H246.645V363.753H185.11L148.12 331.794C147.842 331.318 147.511 330.874 147.132 330.471C145.828 329.086 144.06 328.308 142.215 328.308H141.491C141.461 328.308 141.431 328.308 141.401 328.308H6.95316C5.10906 328.308 3.34103 329.086 2.03706 330.471C0.733088 331.856 0 333.734 0 335.693C0 337.651 0.733088 339.53 2.03706 340.915C3.34103 342.299 5.10906 343.077 6.95316 343.077H139.748L163.678 363.753H111.815C109.971 363.753 108.201 364.531 106.897 365.916C105.592 367.301 104.859 369.18 104.859 371.138C104.859 373.097 105.592 374.975 106.897 376.36C108.201 377.745 109.971 378.523 111.815 378.523H167.398L143.792 402.113C142.831 403.087 142.179 404.322 141.916 405.664C141.652 407.006 141.79 408.396 142.312 409.66C142.834 410.924 143.717 412.007 144.85 412.773C145.983 413.539 147.317 413.956 148.685 413.969C150.518 413.953 152.273 413.225 153.579 411.94L186.974 378.523H246.695V772.976C246.695 775.307 247.411 777.543 248.684 779.192C249.957 780.84 251.684 781.766 253.485 781.766C255.286 781.766 257.013 780.84 258.286 779.192C259.56 777.543 260.275 775.307 260.275 772.976V376.379C260.275 375.44 260.159 374.516 259.937 373.64V338.646H291.49C291.557 338.646 291.625 338.645 291.692 338.643C291.78 338.646 291.868 338.647 291.957 338.647C292.863 338.653 293.762 338.478 294.6 338.13C295.437 337.783 296.196 337.27 296.831 336.623L325.819 307.63C325.855 307.631 325.891 307.631 325.927 307.631H511.484C513.318 307.631 515.076 306.853 516.373 305.468C517.669 304.083 518.398 302.205 518.398 300.246C518.398 298.288 517.669 296.41 516.373 295.025C515.076 293.64 513.318 292.862 511.484 292.862H477.978L498.65 272.185H567.576C569.418 272.185 571.185 271.407 572.488 270.022C573.79 268.637 574.522 266.759 574.522 264.8C574.522 262.842 573.79 260.963 572.488 259.578C571.185 258.194 569.418 257.416 567.576 257.416H497.284C497.187 257.416 497.09 257.418 496.993 257.422L496.947 257.42L496.889 257.418C496.865 257.418 496.84 257.417 496.816 257.417C495.019 257.385 493.28 258.051 491.966 259.275L458.387 292.862H410.201L433.806 269.246C435.048 267.912 435.724 266.149 435.692 264.326C435.659 262.504 434.922 260.765 433.633 259.476C432.345 258.187 430.607 257.449 428.786 257.417C426.964 257.384 425.201 258.061 423.868 259.304L391.945 291.194C391.455 291.692 391.046 292.255 390.725 292.862H340.585L362.949 270.494C363.273 270.146 363.557 269.769 363.8 269.369L394.194 237.986C395.115 237.745 395.982 237.322 396.74 236.739H569.031C570.879 236.739 572.652 236.038 573.958 234.792C575.265 233.546 575.999 231.855 575.999 230.092C575.999 228.33 575.265 226.639 573.958 225.393C572.652 224.146 570.879 223.446 569.031 223.446H410.104L432.235 201.293H569.091C570.923 201.293 572.681 200.593 573.976 199.347C575.272 198.1 576 196.41 576 194.647C576 192.884 575.272 191.194 573.976 189.948C572.681 188.701 570.923 188.001 569.091 188.001H517.512L572.686 131.777C573.893 130.456 574.551 128.71 574.52 126.905C574.488 125.1 573.771 123.378 572.518 122.102C571.266 120.826 569.576 120.095 567.805 120.063C566.034 120.031 564.32 120.701 563.024 121.931L498.262 187.926C498.238 187.951 498.213 187.976 498.189 188.001H429.309C429.206 188.001 429.103 188.003 429 188.008C428.929 188.005 428.857 188.002 428.786 188.002C428.755 188.001 428.725 188.001 428.694 188.001C426.847 188.001 425.073 188.728 423.757 190.025L392.941 220.871C392.75 220.61 392.542 220.362 392.317 220.129L363.107 189.916C361.799 188.656 360.069 187.969 358.282 188.002C356.494 188.035 354.789 188.784 353.525 190.091C352.261 191.399 351.537 193.163 351.505 195.012C351.473 196.861 352.137 198.65 353.356 200.003L382.565 230.215L382.585 230.236L353.501 260.266C353.207 260.565 352.942 260.891 352.708 261.239L288.603 325.354H259.937V300.681V299.928V272.185H288.437C288.793 272.185 289.146 272.159 289.494 272.108C289.815 272.156 290.14 272.181 290.468 272.184C291.426 272.2 292.377 272.014 293.259 271.641C294.142 271.267 294.937 270.713 295.593 270.013L327.405 238.186C328.039 237.528 328.537 236.752 328.87 235.901C329.204 235.05 329.367 234.142 329.35 233.229C329.349 233.178 329.347 233.128 329.345 233.077C329.349 233.004 329.351 232.931 329.353 232.857V167.323H456.844C456.896 167.323 456.948 167.323 457 167.322C457.042 167.321 457.083 167.319 457.125 167.317C457.22 167.321 457.316 167.323 457.411 167.323C459.268 167.319 461.049 166.587 462.371 165.284L529.64 97.9339C530.291 97.2915 530.807 96.5265 531.159 95.6831C531.512 94.8397 531.693 93.9347 531.693 93.0206C531.693 92.1065 531.512 91.2015 531.159 90.3581C530.807 89.5147 530.291 88.7496 529.64 88.1073C528.33 86.8164 526.565 86.0928 524.726 86.0928C522.887 86.0928 521.122 86.8164 519.812 88.1073L455.398 152.554H340.491L362.449 130.387C362.502 130.39 362.555 130.393 362.609 130.395C362.706 130.399 362.804 130.401 362.902 130.401H425.772C427.62 130.401 429.391 129.701 430.697 128.455C432.003 127.208 432.737 125.518 432.737 123.755C432.737 121.992 432.003 120.302 430.697 119.055C429.391 117.809 427.62 117.109 425.772 117.109H375.602L396.084 96.4318H459.786C460.397 96.4318 461 96.3541 461.581 96.2045C462.145 96.3521 462.73 96.4296 463.323 96.4317C465.162 96.4251 466.926 95.6931 468.229 94.3947L502.896 59.7186C503.578 59.0828 504.125 58.3161 504.504 57.4642C504.884 56.6124 505.088 55.6929 505.104 54.7604C505.121 53.828 504.949 52.9017 504.6 52.037C504.251 51.1723 503.731 50.3868 503.072 49.7274C502.413 49.068 501.627 48.5481 500.763 48.1988C499.899 47.8496 498.973 47.678 498.04 47.6944C497.108 47.7109 496.188 47.9151 495.337 48.2946C494.485 48.6742 493.719 49.2214 493.084 49.9037L459.857 83.1398C459.833 83.1396 459.809 83.1395 459.786 83.1395H409.251L467.655 24.1802C468.94 22.8646 469.66 21.0916 469.66 19.2443C469.66 17.397 468.94 15.6238 467.655 14.3082C467.016 13.6549 466.255 13.1364 465.415 12.7824C464.576 12.4284 463.676 12.2461 462.766 12.2461C461.857 12.2461 460.956 12.4284 460.116 12.7824C459.277 13.1364 458.516 13.6549 457.876 14.3082L400.245 72.4686V20.578C400.245 18.7601 399.467 17.0167 398.082 15.7313C396.698 14.4459 394.82 13.7238 392.862 13.7238C390.904 13.7238 389.025 14.4459 387.641 15.7313C386.256 17.0167 385.478 18.7601 385.478 20.578V87.3706L320.493 152.952C319.566 153.296 318.715 153.854 318.007 154.597C316.761 155.905 316.061 157.679 316.061 159.529V159.939V160.338V229.858L287.038 258.893H259.937V233.126L288.925 204.13C289.401 203.659 289.805 203.121 290.124 202.535C290.244 202.426 290.36 202.312 290.473 202.194C291.717 200.891 292.421 199.128 292.433 197.286V129.858L292.443 129.848L360.468 61.8429C361.268 61.5025 362.004 61.0279 362.638 60.4343C364.022 59.136 364.8 57.3751 364.8 55.539V20.6467C364.8 18.8106 364.022 17.0496 362.638 15.7513C361.253 14.453 359.374 13.7236 357.416 13.7236C355.457 13.7236 353.579 14.453 352.194 15.7513C350.809 17.0496 350.031 18.8106 350.031 20.6467V52.6359L292.433 110.217V68.9154V56.1298V7.36321C292.433 5.52484 291.733 3.76173 290.486 2.46181C289.24 1.16189 287.549 0.431641 285.787 0.431641C284.024 0.431641 282.334 1.16189 281.087 2.46181C279.841 3.76173 279.141 5.52484 279.141 7.36321V56.1298Z" fill="#DFF2FD"/>
</svg>
