<svg width="163" height="198" viewBox="0 0 163 198" fill="none" xmlns="http://www.w3.org/2000/svg">
<path fill-rule="evenodd" clip-rule="evenodd" d="M88 1H76V63.4998L36.9922 23.9345C36.3959 23.3217 35.6858 22.8351 34.9028 22.5031C34.1199 22.171 33.2796 22 32.431 22C31.5825 22 30.7427 22.171 29.9598 22.5031C29.1769 22.8351 28.4667 23.3217 27.8704 23.9345C26.6721 25.1686 26 26.8318 26 28.5646C26 30.2975 26.6721 31.9607 27.8704 33.1948L76 82.0123V135.982L12.1868 72.8749C10.9536 71.6735 9.29128 71 7.55969 71C5.8281 71 4.1658 71.6735 2.93258 72.8749C2.32022 73.4728 1.83429 74.1848 1.50246 74.9698C1.17063 75.7548 1 76.5971 1 77.4479C1 78.2986 1.17063 79.1409 1.50246 79.9259C1.83429 80.7109 2.32022 81.4229 2.93258 82.0208L30.2159 109.002L30.1616 109.001C28.3583 108.971 26.6129 109.599 25.2934 110.752L6.03566 128.858C5.06341 129.771 4.40153 130.934 4.13345 132.199C3.86538 133.465 4.00308 134.777 4.52942 135.969C5.05576 137.161 5.94686 138.18 7.09043 138.898C8.234 139.615 9.5785 139.999 10.9543 140C12.7968 139.984 14.561 139.298 15.8735 138.085L35.1318 119.979C36.2897 118.814 36.9508 117.294 36.9974 115.709L76 154.279V197H88V154.14L127.183 114.968C127.071 115.438 127.009 115.922 127.001 116.413C126.972 118.105 127.58 119.742 128.697 120.979L146.19 139.085C147.382 140.298 148.985 140.984 150.658 141C152.346 140.996 153.966 140.308 155.168 139.085C156.342 137.855 157 136.198 157 134.471C157 132.745 156.342 131.088 155.168 129.858L137.633 111.752C136.434 110.599 134.85 109.971 133.212 110.001C132.805 110.008 132.403 110.056 132.01 110.142L160.26 81.9002C161.405 80.6715 162.029 79.0464 161.999 77.3672C161.969 75.688 161.288 74.0859 160.101 72.8983C158.913 71.7108 157.31 71.0306 155.631 71.001C153.951 70.9714 152.326 71.5947 151.097 72.7396L88 135.819V81.4777C88.0251 81.4669 88.0502 81.4559 88.0752 81.4447C88.8728 81.0882 89.593 80.5712 90.194 79.924L140.236 28.3846C141.397 27.1013 142.029 25.404 141.999 23.6502C141.969 21.8964 141.279 20.223 140.075 18.9827C138.871 17.7424 137.246 17.032 135.543 17.0011C133.84 16.9701 132.192 17.6211 130.946 18.8169L88 63.1257V1Z" fill="#DFF2FD"/>
<path fill-rule="evenodd" clip-rule="evenodd" d="M75 0H89V60.6571L130.241 18.1079L130.254 18.0954C131.688 16.7194 133.59 15.9654 135.561 16.0012C137.533 16.037 139.407 16.8595 140.792 18.2861C142.177 19.7117 142.965 21.6293 142.999 23.633C143.033 25.6368 142.311 27.5811 140.977 29.0555L140.966 29.0685L90.9188 80.613C90.361 81.2119 89.7131 81.7147 89 82.1022V133.405L150.402 72.0199L150.415 72.0079C151.834 70.6864 153.71 69.967 155.648 70.0012C157.587 70.0354 159.437 70.8204 160.808 72.1911C162.179 73.5617 162.965 75.4111 162.999 77.3495C163.033 79.2879 162.313 81.1637 160.991 82.582L160.979 82.5949L134.474 109.093C135.91 109.328 137.254 110 138.326 111.032L138.339 111.044L155.887 129.162L155.892 129.167C157.246 130.586 158 132.492 158 134.471C158 136.451 157.246 138.357 155.892 139.775L155.886 139.781L155.881 139.786C154.495 141.196 152.621 141.995 150.661 142L150.649 142C148.706 141.982 146.852 141.184 145.477 139.786L145.471 139.78L127.966 121.662L127.955 121.649C126.912 120.494 126.257 119.042 126.062 117.503L89 154.555V198H75V154.697L37.6442 117.755C37.2887 118.841 36.6749 119.845 35.8412 120.684L35.8292 120.696L16.5522 138.819C15.0508 140.207 13.0453 140.982 10.9628 141L10.9535 141C9.39369 140.999 7.86471 140.564 6.55899 139.745C5.25261 138.925 4.22459 137.755 3.6146 136.373C3.00414 134.99 2.84327 133.465 3.15516 131.992C3.46693 130.52 4.23483 129.177 5.35111 128.129L24.6216 110.011L24.6353 109.999C25.6067 109.15 26.7746 108.553 28.0274 108.244L2.23399 82.7363C2.23319 82.7355 2.23239 82.7348 2.2316 82.734C1.52556 82.044 0.964685 81.222 0.581374 80.3152C0.197488 79.4071 0 78.4324 0 77.4479C0 76.4633 0.197488 75.4886 0.581374 74.5805C0.965117 73.6727 1.52682 72.8498 2.23399 72.1594L2.23478 72.1586C3.65595 70.7741 5.56912 70 7.55969 70C9.55026 70 11.4634 70.7741 12.8846 72.1586L12.89 72.1639L75 133.587V82.4224L27.1529 33.8914C25.7721 32.4692 25 30.5556 25 28.5646C25 26.5737 25.7721 24.66 27.1529 23.2379L27.1537 23.2371C27.8423 22.5295 28.6632 21.9668 29.5693 21.5825C30.4754 21.1982 31.448 21 32.431 21C33.414 21 34.3871 21.1981 35.2933 21.5825C36.1985 21.9664 37.0186 22.5283 37.7068 23.2349C37.7075 23.2356 37.7082 23.2363 37.7089 23.2371L75 61.0611V0ZM76 63.4998L36.9922 23.9345C36.3959 23.3217 35.6858 22.8351 34.9028 22.5031C34.1199 22.171 33.2796 22 32.431 22C31.5825 22 30.7427 22.171 29.9598 22.5031C29.1769 22.8351 28.4667 23.3217 27.8704 23.9345C26.6721 25.1686 26 26.8318 26 28.5646C26 30.2975 26.6721 31.9607 27.8704 33.1948L76 82.0123V135.982L12.1868 72.8749C10.9536 71.6735 9.29128 71 7.55969 71C5.8281 71 4.1658 71.6735 2.93258 72.8749C2.32022 73.4728 1.83429 74.1848 1.50246 74.9698C1.17063 75.7548 1 76.5971 1 77.4479C1 78.2986 1.17063 79.1409 1.50246 79.9259C1.83429 80.7109 2.32022 81.4229 2.93258 82.0208L30.1625 108.949L30.2159 109.002L30.1616 109.001C29.7305 108.994 29.3027 109.024 28.8832 109.091C27.5481 109.301 26.2974 109.875 25.2934 110.752L6.03566 128.858C5.06341 129.771 4.40153 130.934 4.13345 132.199C3.86538 133.465 4.00308 134.777 4.52942 135.969C5.05576 137.161 5.94686 138.18 7.09043 138.898C8.234 139.615 9.5785 139.999 10.9543 140C12.7968 139.984 14.561 139.298 15.8735 138.085L35.1318 119.979C35.9823 119.123 36.5648 118.076 36.8326 116.952C36.9293 116.546 36.985 116.129 36.9974 115.709L76 154.279V197H88V154.14L127.183 114.968C127.071 115.438 127.009 115.922 127.001 116.413C127 116.464 127 116.514 127 116.565C127.009 118.202 127.613 119.779 128.697 120.979L146.19 139.085C147.382 140.298 148.985 140.984 150.658 141C152.346 140.996 153.966 140.308 155.168 139.085C156.342 137.855 157 136.198 157 134.471C157 132.745 156.342 131.088 155.168 129.858L137.633 111.752C136.52 110.682 135.074 110.064 133.562 110.005C133.446 110 133.329 109.999 133.212 110.001C132.805 110.008 132.403 110.056 132.01 110.142L160.26 81.9002C161.405 80.6715 162.029 79.0464 161.999 77.3672C161.969 75.688 161.288 74.0859 160.101 72.8983C158.913 71.7108 157.31 71.0306 155.631 71.001C153.951 70.9714 152.326 71.5947 151.097 72.7396L88 135.819V81.4777C88.0251 81.4669 88.0502 81.4559 88.0752 81.4447C88.8728 81.0882 89.593 80.5712 90.194 79.924L140.236 28.3846C141.397 27.1013 142.029 25.404 141.999 23.6502C141.969 21.8964 141.279 20.223 140.075 18.9827C138.871 17.7424 137.246 17.032 135.543 17.0011C133.84 16.9701 132.192 17.6211 130.946 18.8169L88 63.1257V1H76V63.4998Z" fill="#DFF2FD"/>
</svg>
