<svg width="1920" height="1444" viewBox="0 0 1920 1444" fill="none" xmlns="http://www.w3.org/2000/svg">
<path fill-rule="evenodd" clip-rule="evenodd" d="M1562.11 20.8934C1567.96 26.7513 1567.96 36.2487 1562.11 42.1066L1272.71 331.5H852.792L667.292 481H-26C-34.2843 481 -41 474.284 -41 466C-41 457.716 -34.2843 451 -26 451H656.708L842.208 301.5H1260.29L1540.89 20.8934C1546.75 15.0355 1556.25 15.0355 1562.11 20.8934Z" fill="#DFF2FD"/>
<path fill-rule="evenodd" clip-rule="evenodd" d="M1216.4 436L1086.6 306.386L1065.4 327.615L1203.99 466H1973V436H1216.4Z" fill="#DFF2FD"/>
<path fill-rule="evenodd" clip-rule="evenodd" d="M675.204 446.386L1178.18 949.364H1920V979.386H1165.75L788.232 601.719L654 467.63L675.204 446.386Z" fill="#DFF2FD"/>
<path fill-rule="evenodd" clip-rule="evenodd" d="M970 770.245L862.11 879H0V848.955H849.764L948.924 749L970 770.245Z" fill="#DFF2FD"/>
<path fill-rule="evenodd" clip-rule="evenodd" d="M1187.11 977.098L969.205 1195H-1324V1165H956.778L1165.89 955.885L1187.11 977.098Z" fill="#DFF2FD"/>
<path fill-rule="evenodd" clip-rule="evenodd" d="M965 1182V1444H945V1182H965Z" fill="#DFF2FD"/>
<path d="M1498.67 53.779L1556.2 4.01273C1559.36 1.57854 1563.39 0.162059 1567.62 0.00291354C1570.05 -0.0372473 1572.47 0.338128 1574.74 1.10755C1577.01 1.87698 1579.08 3.02538 1580.83 4.48717C1583.13 7.428 1584.23 10.9458 1583.96 14.4868C1583.69 18.0278 1582.07 21.3908 1579.35 24.0464L1521.83 73.8127C1520.31 75.112 1518.51 76.1381 1516.53 76.8319C1514.54 77.5256 1512.42 77.8732 1510.28 77.8547C1508.15 77.8362 1506.03 77.452 1504.07 76.7241C1502.1 75.9962 1500.32 74.9391 1498.83 73.6137C1497.32 72.3208 1496.11 70.782 1495.28 69.0852C1494.45 67.3884 1494.02 65.567 1494 63.7249C1493.99 61.8828 1494.39 60.0563 1495.19 58.3497C1495.99 56.6431 1497.18 55.09 1498.67 53.779Z" fill="url(#paint0_linear_303_4643)"/>
<path d="M1442.15 52.994L1493.29 8.7573C1496.1 6.59358 1499.68 5.33448 1503.44 5.19302C1505.6 5.15732 1507.75 5.49099 1509.77 6.17492C1511.79 6.85886 1513.63 7.87966 1515.19 9.17902C1517.23 11.7931 1518.2 14.92 1517.96 18.0676C1517.73 21.2151 1516.28 24.2045 1513.86 26.565L1462.74 70.8017C1461.39 71.9567 1459.78 72.8688 1458.02 73.4854C1456.26 74.1021 1454.38 74.4111 1452.48 74.3946C1450.57 74.3782 1448.7 74.0366 1446.95 73.3896C1445.2 72.7426 1443.62 71.803 1442.3 70.6248C1440.95 69.4756 1439.87 68.1078 1439.14 66.5995C1438.4 65.0913 1438.01 63.4722 1438 61.8348C1437.99 60.1974 1438.35 58.5738 1439.06 57.0568C1439.77 55.5399 1440.82 54.1593 1442.15 52.994Z" fill="url(#paint1_linear_303_4643)"/>
<path d="M1482.62 127.577L1539.51 78.3636C1542.63 75.9565 1546.62 74.5558 1550.8 74.3984C1553.21 74.3587 1555.6 74.7299 1557.84 75.4908C1560.09 76.2516 1562.13 77.3873 1563.87 78.8328C1566.14 81.741 1567.23 85.2197 1566.96 88.7213C1566.69 92.223 1565.09 95.5486 1562.4 98.1747L1505.52 147.388C1504.02 148.673 1502.24 149.688 1500.28 150.374C1498.32 151.06 1496.22 151.403 1494.1 151.385C1491.99 151.367 1489.9 150.987 1487.96 150.267C1486.01 149.547 1484.25 148.502 1482.78 147.191C1481.28 145.913 1480.08 144.391 1479.26 142.713C1478.44 141.035 1478.02 139.234 1478 137.412C1477.99 135.591 1478.39 133.785 1479.18 132.097C1479.97 130.409 1481.14 128.873 1482.62 127.577Z" fill="url(#paint2_linear_303_4643)"/>
<mask id="path-10-outside-1_303_4643" maskUnits="userSpaceOnUse" x="356" y="371.616" width="67" height="82" fill="black">
<rect fill="white" x="356" y="371.616" width="67" height="82"/>
<path fill-rule="evenodd" clip-rule="evenodd" d="M392.124 372.616H387.279V397.929L371.531 381.905C371.29 381.656 371.003 381.459 370.687 381.325C370.371 381.19 370.032 381.121 369.689 381.121C369.347 381.121 369.008 381.19 368.691 381.325C368.375 381.459 368.089 381.656 367.848 381.905C367.364 382.404 367.093 383.078 367.093 383.78C367.093 384.482 367.364 385.155 367.848 385.655L387.279 405.426V427.285L361.517 401.727C361.019 401.241 360.347 400.968 359.648 400.968C358.949 400.968 358.278 401.241 357.78 401.727C357.533 401.969 357.337 402.258 357.203 402.576C357.069 402.894 357 403.235 357 403.579C357 403.924 357.069 404.265 357.203 404.583C357.337 404.901 357.533 405.189 357.78 405.431L368.795 416.359L368.774 416.359C368.046 416.347 367.341 416.601 366.808 417.068L359.033 424.401C358.641 424.771 358.374 425.242 358.265 425.755C358.157 426.267 358.213 426.798 358.425 427.281C358.638 427.764 358.997 428.177 359.459 428.468C359.921 428.758 360.464 428.913 361.019 428.914C361.763 428.908 362.475 428.63 363.005 428.138L370.78 420.805C371.248 420.333 371.515 419.718 371.534 419.076L387.279 434.696V452H392.124V434.641L407.946 418.772C407.901 418.964 407.875 419.161 407.872 419.361C407.86 420.046 408.106 420.709 408.557 421.21L415.619 428.544C416.101 429.035 416.748 429.313 417.423 429.319C418.105 429.318 418.759 429.039 419.244 428.544C419.718 428.046 419.984 427.374 419.984 426.675C419.984 425.976 419.718 425.305 419.244 424.806L412.165 417.473C411.681 417.006 411.041 416.752 410.379 416.764C410.214 416.767 410.051 416.787 409.891 416.822L421.297 405.383C421.76 404.885 422.012 404.227 422 403.547C421.988 402.867 421.713 402.218 421.233 401.737C420.754 401.256 420.107 400.98 419.428 400.968C418.75 400.956 418.094 401.209 417.598 401.672L392.124 427.221V405.212C392.134 405.207 392.145 405.203 392.156 405.198C392.478 405.054 392.768 404.844 393.011 404.582L413.215 383.708C413.684 383.188 413.939 382.5 413.927 381.79C413.914 381.08 413.636 380.402 413.15 379.9C412.664 379.397 412.008 379.11 411.32 379.097C410.633 379.085 409.967 379.348 409.464 379.833L392.124 397.78V372.616Z"/>
</mask>
<path fill-rule="evenodd" clip-rule="evenodd" d="M392.124 372.616H387.279V397.929L371.531 381.905C371.29 381.656 371.003 381.459 370.687 381.325C370.371 381.19 370.032 381.121 369.689 381.121C369.347 381.121 369.008 381.19 368.691 381.325C368.375 381.459 368.089 381.656 367.848 381.905C367.364 382.404 367.093 383.078 367.093 383.78C367.093 384.482 367.364 385.155 367.848 385.655L387.279 405.426V427.285L361.517 401.727C361.019 401.241 360.347 400.968 359.648 400.968C358.949 400.968 358.278 401.241 357.78 401.727C357.533 401.969 357.337 402.258 357.203 402.576C357.069 402.894 357 403.235 357 403.579C357 403.924 357.069 404.265 357.203 404.583C357.337 404.901 357.533 405.189 357.78 405.431L368.795 416.359L368.774 416.359C368.046 416.347 367.341 416.601 366.808 417.068L359.033 424.401C358.641 424.771 358.374 425.242 358.265 425.755C358.157 426.267 358.213 426.798 358.425 427.281C358.638 427.764 358.997 428.177 359.459 428.468C359.921 428.758 360.464 428.913 361.019 428.914C361.763 428.908 362.475 428.63 363.005 428.138L370.78 420.805C371.248 420.333 371.515 419.718 371.534 419.076L387.279 434.696V452H392.124V434.641L407.946 418.772C407.901 418.964 407.875 419.161 407.872 419.361C407.86 420.046 408.106 420.709 408.557 421.21L415.619 428.544C416.101 429.035 416.748 429.313 417.423 429.319C418.105 429.318 418.759 429.039 419.244 428.544C419.718 428.046 419.984 427.374 419.984 426.675C419.984 425.976 419.718 425.305 419.244 424.806L412.165 417.473C411.681 417.006 411.041 416.752 410.379 416.764C410.214 416.767 410.051 416.787 409.891 416.822L421.297 405.383C421.76 404.885 422.012 404.227 422 403.547C421.988 402.867 421.713 402.218 421.233 401.737C420.754 401.256 420.107 400.98 419.428 400.968C418.75 400.956 418.094 401.209 417.598 401.672L392.124 427.221V405.212C392.134 405.207 392.145 405.203 392.156 405.198C392.478 405.054 392.768 404.844 393.011 404.582L413.215 383.708C413.684 383.188 413.939 382.5 413.927 381.79C413.914 381.08 413.636 380.402 413.15 379.9C412.664 379.397 412.008 379.11 411.32 379.097C410.633 379.085 409.967 379.348 409.464 379.833L392.124 397.78V372.616Z" fill="#DFF2FD"/>
<path d="M387.279 372.616V371.616H386.279V372.616H387.279ZM392.124 372.616H393.124V371.616H392.124V372.616ZM387.279 397.929L386.566 398.629L388.279 400.373V397.929H387.279ZM371.531 381.905L370.813 382.601L370.818 382.606L371.531 381.905ZM370.687 381.325L370.296 382.245H370.296L370.687 381.325ZM367.848 381.905L367.13 381.208L367.129 381.209L367.848 381.905ZM367.848 385.655L367.129 386.351L367.135 386.356L367.848 385.655ZM387.279 405.426H388.279V405.017L387.992 404.725L387.279 405.426ZM387.279 427.285L386.574 427.995L388.279 429.686V427.285H387.279ZM361.517 401.727L362.221 401.017L362.215 401.012L361.517 401.727ZM357.78 401.727L357.081 401.012L357.081 401.013L357.78 401.727ZM357.203 402.576L358.124 402.964L357.203 402.576ZM357.203 404.583L358.124 404.195L357.203 404.583ZM357.78 405.431L358.485 404.721L358.48 404.717L357.78 405.431ZM368.795 416.359L368.775 417.359L371.274 417.41L369.5 415.649L368.795 416.359ZM368.774 416.359L368.794 415.359L368.79 415.359L368.774 416.359ZM366.808 417.068L366.149 416.316L366.135 416.328L366.122 416.341L366.808 417.068ZM359.033 424.401L359.719 425.129L359.719 425.129L359.033 424.401ZM358.265 425.755L357.287 425.548H357.287L358.265 425.755ZM358.425 427.281L359.34 426.879H359.34L358.425 427.281ZM359.459 428.468L359.992 427.621L359.992 427.621L359.459 428.468ZM361.019 428.914L361.018 429.914L361.028 429.914L361.019 428.914ZM363.005 428.138L363.685 428.872L363.691 428.866L363.005 428.138ZM370.78 420.805L371.467 421.533L371.479 421.521L371.491 421.509L370.78 420.805ZM371.534 419.076L372.238 418.366L370.602 416.743L370.534 419.046L371.534 419.076ZM387.279 434.696H388.279V434.28L387.983 433.986L387.279 434.696ZM387.279 452H386.279V453H387.279V452ZM392.124 452V453H393.124V452H392.124ZM392.124 434.641L391.415 433.935L391.124 434.228V434.641H392.124ZM407.946 418.772L408.919 419.005L409.744 415.553L407.238 418.066L407.946 418.772ZM407.872 419.361L406.872 419.344V419.344L407.872 419.361ZM408.557 421.21L407.813 421.879L407.825 421.892L407.836 421.904L408.557 421.21ZM415.619 428.544L414.899 429.237L414.905 429.244L415.619 428.544ZM417.423 429.319L417.414 430.319L417.426 430.319L417.423 429.319ZM419.244 428.544L419.958 429.244L419.963 429.238L419.969 429.233L419.244 428.544ZM419.244 424.806L419.969 424.117L419.964 424.112L419.244 424.806ZM412.165 417.473L412.884 416.779L412.872 416.766L412.859 416.754L412.165 417.473ZM410.379 416.764L410.398 417.764H410.398L410.379 416.764ZM409.891 416.822L409.183 416.116L406.769 418.537L410.107 417.798L409.891 416.822ZM421.297 405.383L422.006 406.089L422.018 406.076L422.03 406.063L421.297 405.383ZM422 403.547L421 403.564V403.564L422 403.547ZM421.233 401.737L421.941 401.031L421.941 401.031L421.233 401.737ZM419.428 400.968L419.446 399.968H419.446L419.428 400.968ZM417.598 401.672L416.915 400.942L416.902 400.954L416.89 400.966L417.598 401.672ZM392.124 427.221H391.124V429.64L392.832 427.927L392.124 427.221ZM392.124 405.212L391.727 404.294L391.124 404.555V405.212H392.124ZM392.156 405.198L392.565 406.11L392.565 406.11L392.156 405.198ZM393.011 404.582L392.293 403.887L392.285 403.895L392.277 403.903L393.011 404.582ZM413.215 383.708L413.933 384.403L413.946 384.39L413.957 384.377L413.215 383.708ZM413.927 381.79L412.927 381.807V381.807L413.927 381.79ZM413.15 379.9L413.868 379.204V379.204L413.15 379.9ZM409.464 379.833L408.771 379.112L408.758 379.125L408.745 379.138L409.464 379.833ZM392.124 397.78H391.124V400.254L392.843 398.475L392.124 397.78ZM387.279 373.616H392.124V371.616H387.279V373.616ZM388.279 397.929V372.616H386.279V397.929H388.279ZM370.818 382.606L386.566 398.629L387.992 397.228L372.244 381.204L370.818 382.606ZM370.296 382.245C370.488 382.327 370.664 382.448 370.813 382.601L372.249 381.208C371.916 380.865 371.518 380.592 371.079 380.405L370.296 382.245ZM369.689 382.121C369.897 382.121 370.103 382.163 370.296 382.245L371.079 380.405C370.639 380.218 370.167 380.121 369.689 380.121V382.121ZM369.083 382.245C369.276 382.163 369.482 382.121 369.689 382.121V380.121C369.212 380.121 368.739 380.218 368.3 380.405L369.083 382.245ZM368.566 382.601C368.714 382.448 368.89 382.327 369.083 382.245L368.3 380.405C367.86 380.592 367.463 380.865 367.13 381.208L368.566 382.601ZM368.093 383.78C368.093 383.335 368.265 382.912 368.566 382.6L367.129 381.209C366.463 381.897 366.093 382.821 366.093 383.78H368.093ZM368.566 384.96C368.265 384.648 368.093 384.225 368.093 383.78H366.093C366.093 384.739 366.463 385.663 367.129 386.351L368.566 384.96ZM387.992 404.725L368.561 384.954L367.135 386.356L386.566 406.127L387.992 404.725ZM388.279 427.285V405.426H386.279V427.285H388.279ZM360.812 402.437L386.574 427.995L387.983 426.576L362.221 401.017L360.812 402.437ZM359.648 401.968C360.088 401.968 360.507 402.139 360.818 402.442L362.215 401.012C361.53 400.342 360.607 399.968 359.648 399.968V401.968ZM358.479 402.442C358.789 402.139 359.209 401.968 359.648 401.968V399.968C358.689 399.968 357.767 400.342 357.081 401.012L358.479 402.442ZM358.124 402.964C358.207 402.769 358.327 402.591 358.48 402.442L357.081 401.013C356.739 401.348 356.467 401.747 356.281 402.187L358.124 402.964ZM358 403.579C358 403.368 358.042 403.159 358.124 402.964L356.281 402.187C356.096 402.628 356 403.101 356 403.579H358ZM358.124 404.195C358.042 404 358 403.79 358 403.579H356C356 404.057 356.096 404.53 356.281 404.971L358.124 404.195ZM358.48 404.717C358.327 404.568 358.207 404.39 358.124 404.195L356.281 404.971C356.467 405.412 356.739 405.811 357.081 406.146L358.48 404.717ZM369.5 415.649L358.485 404.721L357.076 406.141L368.091 417.069L369.5 415.649ZM368.754 417.359L368.775 417.359L368.816 415.359L368.794 415.359L368.754 417.359ZM367.468 417.82C367.808 417.522 368.27 417.351 368.757 417.359L368.79 415.359C367.822 415.343 366.874 415.681 366.149 416.316L367.468 417.82ZM359.719 425.129L367.494 417.796L366.122 416.341L358.347 423.674L359.719 425.129ZM359.244 425.961C359.309 425.654 359.47 425.363 359.719 425.129L358.348 423.673C357.811 424.179 357.439 424.83 357.287 425.548L359.244 425.961ZM359.34 426.879C359.212 426.586 359.179 426.268 359.244 425.961L357.287 425.548C357.135 426.267 357.214 427.011 357.51 427.684L359.34 426.879ZM359.992 427.621C359.693 427.433 359.47 427.172 359.34 426.879L357.51 427.684C357.806 428.356 358.302 428.921 358.926 429.314L359.992 427.621ZM361.02 427.914C360.649 427.914 360.291 427.81 359.992 427.621L358.926 429.314C359.55 429.707 360.278 429.913 361.018 429.914L361.02 427.914ZM362.325 427.405C361.984 427.721 361.514 427.91 361.011 427.914L361.028 429.914C362.012 429.906 362.966 429.538 363.685 428.872L362.325 427.405ZM370.094 420.078L362.319 427.411L363.691 428.866L371.467 421.533L370.094 420.078ZM370.534 419.046C370.523 419.428 370.364 419.804 370.07 420.102L371.491 421.509C372.131 420.862 372.507 420.008 372.533 419.105L370.534 419.046ZM387.983 433.986L372.238 418.366L370.829 419.786L386.574 435.406L387.983 433.986ZM388.279 452V434.696H386.279V452H388.279ZM392.124 451H387.279V453H392.124V451ZM391.124 434.641V452H393.124V434.641H391.124ZM407.238 418.066L391.415 433.935L392.832 435.347L408.655 419.478L407.238 418.066ZM408.872 419.378C408.874 419.251 408.89 419.126 408.919 419.005L406.974 418.54C406.911 418.801 406.877 419.071 406.872 419.344L408.872 419.378ZM409.3 420.542C409.021 420.232 408.864 419.815 408.872 419.378L406.872 419.344C406.856 420.277 407.19 421.187 407.813 421.879L409.3 420.542ZM416.339 427.85L409.277 420.517L407.836 421.904L414.899 429.237L416.339 427.85ZM417.433 428.319C417.028 428.316 416.633 428.149 416.333 427.844L414.905 429.244C415.569 429.921 416.468 430.31 417.414 430.319L417.433 428.319ZM418.53 427.844C418.228 428.152 417.829 428.318 417.421 428.319L417.426 430.319C418.381 430.317 419.289 429.926 419.958 429.244L418.53 427.844ZM418.984 426.675C418.984 427.123 418.813 427.546 418.52 427.854L419.969 429.233C420.623 428.545 420.984 427.626 420.984 426.675H418.984ZM418.52 425.496C418.813 425.804 418.984 426.227 418.984 426.675H420.984C420.984 425.724 420.623 424.805 419.969 424.117L418.52 425.496ZM411.445 418.168L418.525 425.501L419.964 424.112L412.884 416.779L411.445 418.168ZM410.398 417.764C410.789 417.757 411.173 417.907 411.47 418.193L412.859 416.754C412.188 416.106 411.293 415.747 410.361 415.764L410.398 417.764ZM410.107 417.798C410.202 417.777 410.299 417.766 410.398 417.764L410.361 415.764C410.129 415.768 409.899 415.796 409.675 415.846L410.107 417.798ZM420.589 404.676L409.183 416.116L410.599 417.528L422.006 406.089L420.589 404.676ZM421 403.564C421.007 403.986 420.851 404.394 420.565 404.702L422.03 406.063C422.669 405.376 423.016 404.467 422.999 403.529L421 403.564ZM420.525 402.443C420.822 402.74 420.992 403.142 421 403.564L422.999 403.529C422.983 402.591 422.604 401.695 421.941 401.031L420.525 402.443ZM419.411 401.968C419.829 401.975 420.228 402.145 420.525 402.443L421.941 401.031C421.279 400.366 420.384 399.985 419.446 399.968L419.411 401.968ZM418.281 402.403C418.588 402.116 418.993 401.961 419.411 401.968L419.446 399.968C418.508 399.952 417.601 400.301 416.915 400.942L418.281 402.403ZM392.832 427.927L418.306 402.378L416.89 400.966L391.415 426.515L392.832 427.927ZM391.124 405.212V427.221H393.124V405.212H391.124ZM391.747 404.285C391.74 404.288 391.733 404.291 391.727 404.294L392.52 406.13C392.535 406.124 392.55 406.117 392.565 406.11L391.747 404.285ZM392.277 403.903C392.125 404.067 391.944 404.197 391.747 404.285L392.565 406.11C393.011 405.91 393.412 405.621 393.745 405.261L392.277 403.903ZM412.496 383.012L392.293 403.887L393.73 405.278L413.933 384.403L412.496 383.012ZM412.927 381.807C412.935 382.268 412.769 382.709 412.472 383.038L413.957 384.377C414.599 383.666 414.943 382.732 414.926 381.773L412.927 381.807ZM412.431 380.595C412.738 380.912 412.919 381.346 412.927 381.807L414.926 381.773C414.91 380.814 414.534 379.892 413.868 379.204L412.431 380.595ZM411.302 380.097C411.72 380.105 412.126 380.279 412.431 380.595L413.868 379.204C413.202 378.515 412.295 378.115 411.338 378.097L411.302 380.097ZM410.158 380.553C410.473 380.249 410.884 380.089 411.302 380.097L411.338 378.097C410.381 378.08 409.461 378.447 408.771 379.112L410.158 380.553ZM392.843 398.475L410.183 380.527L408.745 379.138L391.404 397.085L392.843 398.475ZM391.124 372.616V397.78H393.124V372.616H391.124Z" fill="#DFF2FD" mask="url(#path-10-outside-1_303_4643)"/>
<path d="M389.953 371.909C398.211 371.909 404.905 364.99 404.905 356.455C404.905 347.919 398.211 341 389.953 341C381.694 341 375 347.919 375 356.455C375 364.99 381.694 371.909 389.953 371.909Z" fill="#3AB3FE"/>
<mask id="path-13-outside-2_303_4643" maskUnits="userSpaceOnUse" x="928" y="225.616" width="67" height="82" fill="black">
<rect fill="white" x="928" y="225.616" width="67" height="82"/>
<path fill-rule="evenodd" clip-rule="evenodd" d="M964.124 226.616H959.279V251.928L943.531 235.905C943.29 235.656 943.003 235.459 942.687 235.325C942.371 235.19 942.032 235.121 941.689 235.121C941.347 235.121 941.008 235.19 940.692 235.325C940.376 235.459 940.089 235.656 939.848 235.905C939.364 236.404 939.093 237.078 939.093 237.78C939.093 238.482 939.364 239.155 939.848 239.655L959.279 259.426V281.285L933.517 255.727C933.019 255.241 932.347 254.968 931.648 254.968C930.949 254.968 930.278 255.241 929.78 255.727C929.533 255.969 929.337 256.258 929.203 256.576C929.069 256.894 929 257.235 929 257.579C929 257.924 929.069 258.265 929.203 258.583C929.337 258.901 929.533 259.189 929.78 259.431L940.795 270.359L940.773 270.359C940.045 270.347 939.341 270.601 938.808 271.068L931.033 278.401C930.64 278.771 930.373 279.242 930.265 279.755C930.157 280.267 930.212 280.798 930.425 281.281C930.637 281.764 930.997 282.177 931.459 282.468C931.92 282.758 932.463 282.913 933.019 282.914C933.763 282.908 934.475 282.63 935.005 282.138L942.78 274.805C943.248 274.333 943.514 273.718 943.533 273.075L959.279 288.696V306H964.124V288.641L979.946 272.772C979.901 272.964 979.875 273.161 979.872 273.361C979.86 274.046 980.106 274.709 980.557 275.21L987.619 282.544C988.101 283.035 988.748 283.313 989.423 283.319C990.105 283.318 990.758 283.039 991.244 282.544C991.718 282.046 991.984 281.374 991.984 280.675C991.984 279.976 991.718 279.305 991.244 278.806L984.164 271.473C983.681 271.006 983.041 270.752 982.379 270.764C982.214 270.767 982.051 270.787 981.891 270.822L993.297 259.383C993.76 258.885 994.012 258.227 994 257.547C993.988 256.867 993.713 256.218 993.233 255.737C992.754 255.256 992.107 254.98 991.428 254.968C990.75 254.956 990.094 255.209 989.598 255.672L964.124 281.221V259.212C964.134 259.207 964.145 259.203 964.156 259.198C964.478 259.054 964.768 258.844 965.011 258.582L985.215 237.708C985.684 237.188 985.939 236.5 985.927 235.79C985.914 235.08 985.636 234.402 985.15 233.9C984.664 233.397 984.008 233.11 983.32 233.097C982.633 233.085 981.967 233.348 981.464 233.833L964.124 251.78V226.616Z"/>
</mask>
<path fill-rule="evenodd" clip-rule="evenodd" d="M964.124 226.616H959.279V251.928L943.531 235.905C943.29 235.656 943.003 235.459 942.687 235.325C942.371 235.19 942.032 235.121 941.689 235.121C941.347 235.121 941.008 235.19 940.692 235.325C940.376 235.459 940.089 235.656 939.848 235.905C939.364 236.404 939.093 237.078 939.093 237.78C939.093 238.482 939.364 239.155 939.848 239.655L959.279 259.426V281.285L933.517 255.727C933.019 255.241 932.347 254.968 931.648 254.968C930.949 254.968 930.278 255.241 929.78 255.727C929.533 255.969 929.337 256.258 929.203 256.576C929.069 256.894 929 257.235 929 257.579C929 257.924 929.069 258.265 929.203 258.583C929.337 258.901 929.533 259.189 929.78 259.431L940.795 270.359L940.773 270.359C940.045 270.347 939.341 270.601 938.808 271.068L931.033 278.401C930.64 278.771 930.373 279.242 930.265 279.755C930.157 280.267 930.212 280.798 930.425 281.281C930.637 281.764 930.997 282.177 931.459 282.468C931.92 282.758 932.463 282.913 933.019 282.914C933.763 282.908 934.475 282.63 935.005 282.138L942.78 274.805C943.248 274.333 943.514 273.718 943.533 273.075L959.279 288.696V306H964.124V288.641L979.946 272.772C979.901 272.964 979.875 273.161 979.872 273.361C979.86 274.046 980.106 274.709 980.557 275.21L987.619 282.544C988.101 283.035 988.748 283.313 989.423 283.319C990.105 283.318 990.758 283.039 991.244 282.544C991.718 282.046 991.984 281.374 991.984 280.675C991.984 279.976 991.718 279.305 991.244 278.806L984.164 271.473C983.681 271.006 983.041 270.752 982.379 270.764C982.214 270.767 982.051 270.787 981.891 270.822L993.297 259.383C993.76 258.885 994.012 258.227 994 257.547C993.988 256.867 993.713 256.218 993.233 255.737C992.754 255.256 992.107 254.98 991.428 254.968C990.75 254.956 990.094 255.209 989.598 255.672L964.124 281.221V259.212C964.134 259.207 964.145 259.203 964.156 259.198C964.478 259.054 964.768 258.844 965.011 258.582L985.215 237.708C985.684 237.188 985.939 236.5 985.927 235.79C985.914 235.08 985.636 234.402 985.15 233.9C984.664 233.397 984.008 233.11 983.32 233.097C982.633 233.085 981.967 233.348 981.464 233.833L964.124 251.78V226.616Z" fill="#DFF2FD"/>
<path d="M959.279 226.616V225.616H958.279V226.616H959.279ZM964.124 226.616H965.124V225.616H964.124V226.616ZM959.279 251.928L958.566 252.629L960.279 254.373V251.928H959.279ZM943.531 235.905L942.813 236.601L942.818 236.606L943.531 235.905ZM942.687 235.325L942.296 236.245H942.296L942.687 235.325ZM939.848 235.905L939.13 235.208L939.13 235.209L939.848 235.905ZM939.848 239.655L939.129 240.351L939.135 240.356L939.848 239.655ZM959.279 259.426H960.279V259.017L959.992 258.725L959.279 259.426ZM959.279 281.285L958.574 281.995L960.279 283.686V281.285H959.279ZM933.517 255.727L934.221 255.017L934.215 255.012L933.517 255.727ZM929.78 255.727L929.081 255.012L929.081 255.013L929.78 255.727ZM929.203 256.576L930.124 256.964L929.203 256.576ZM929.203 258.583L930.124 258.195L929.203 258.583ZM929.78 259.431L930.485 258.721L930.48 258.717L929.78 259.431ZM940.795 270.359L940.775 271.359L943.274 271.41L941.5 269.649L940.795 270.359ZM940.773 270.359L940.794 269.359L940.79 269.359L940.773 270.359ZM938.808 271.068L938.149 270.316L938.135 270.328L938.122 270.341L938.808 271.068ZM931.033 278.401L931.719 279.129L931.719 279.129L931.033 278.401ZM930.265 279.755L929.286 279.548H929.286L930.265 279.755ZM930.425 281.281L931.34 280.879H931.34L930.425 281.281ZM931.459 282.468L931.991 281.621L931.991 281.621L931.459 282.468ZM933.019 282.914L933.018 283.914L933.027 283.914L933.019 282.914ZM935.005 282.138L935.685 282.872L935.691 282.866L935.005 282.138ZM942.78 274.805L943.466 275.533L943.479 275.521L943.491 275.509L942.78 274.805ZM943.533 273.075L944.237 272.365L942.601 270.742L942.534 273.046L943.533 273.075ZM959.279 288.696H960.279V288.28L959.983 287.986L959.279 288.696ZM959.279 306H958.279V307H959.279V306ZM964.124 306V307H965.124V306H964.124ZM964.124 288.641L963.415 287.935L963.124 288.228V288.641H964.124ZM979.946 272.772L980.919 273.005L981.744 269.553L979.238 272.066L979.946 272.772ZM979.872 273.361L978.872 273.344V273.344L979.872 273.361ZM980.557 275.21L979.813 275.879L979.825 275.892L979.836 275.904L980.557 275.21ZM987.619 282.544L986.899 283.237L986.905 283.244L987.619 282.544ZM989.423 283.319L989.414 284.319L989.426 284.319L989.423 283.319ZM991.244 282.544L991.958 283.244L991.963 283.238L991.968 283.233L991.244 282.544ZM991.244 278.806L991.969 278.117L991.963 278.112L991.244 278.806ZM984.164 271.473L984.884 270.779L984.872 270.766L984.859 270.754L984.164 271.473ZM982.379 270.764L982.361 269.764L982.379 270.764ZM981.891 270.822L981.183 270.116L978.769 272.537L982.107 271.798L981.891 270.822ZM993.297 259.383L994.006 260.089L994.018 260.076L994.03 260.063L993.297 259.383ZM994 257.547L993 257.564V257.564L994 257.547ZM993.233 255.737L993.941 255.031L993.941 255.031L993.233 255.737ZM991.428 254.968L991.446 253.968H991.446L991.428 254.968ZM989.598 255.672L988.915 254.942L988.902 254.954L988.89 254.966L989.598 255.672ZM964.124 281.221H963.124V283.64L964.832 281.927L964.124 281.221ZM964.124 259.212L963.727 258.294L963.124 258.555V259.212H964.124ZM964.156 259.198L964.565 260.11L964.565 260.11L964.156 259.198ZM965.011 258.582L964.293 257.887L964.285 257.895L964.277 257.903L965.011 258.582ZM985.215 237.708L985.933 238.403L985.946 238.39L985.957 238.377L985.215 237.708ZM985.927 235.79L984.927 235.807V235.807L985.927 235.79ZM985.15 233.9L985.868 233.204V233.204L985.15 233.9ZM981.464 233.833L980.771 233.112L980.758 233.125L980.745 233.138L981.464 233.833ZM964.124 251.78H963.124V254.254L964.843 252.475L964.124 251.78ZM959.279 227.616H964.124V225.616H959.279V227.616ZM960.279 251.928V226.616H958.279V251.928H960.279ZM942.818 236.606L958.566 252.629L959.992 251.227L944.244 235.204L942.818 236.606ZM942.296 236.245C942.488 236.327 942.664 236.448 942.813 236.601L944.249 235.208C943.916 234.865 943.518 234.592 943.079 234.405L942.296 236.245ZM941.689 236.121C941.897 236.121 942.103 236.163 942.296 236.245L943.079 234.405C942.639 234.218 942.167 234.121 941.689 234.121V236.121ZM941.083 236.245C941.276 236.163 941.482 236.121 941.689 236.121V234.121C941.212 234.121 940.74 234.218 940.3 234.405L941.083 236.245ZM940.566 236.601C940.714 236.448 940.89 236.327 941.083 236.245L940.3 234.405C939.861 234.592 939.463 234.865 939.13 235.208L940.566 236.601ZM940.093 237.78C940.093 237.335 940.265 236.912 940.567 236.6L939.13 235.209C938.464 235.897 938.093 236.821 938.093 237.78H940.093ZM940.567 238.96C940.265 238.648 940.093 238.225 940.093 237.78H938.093C938.093 238.739 938.464 239.663 939.13 240.351L940.567 238.96ZM959.992 258.725L940.561 238.954L939.135 240.356L958.566 260.127L959.992 258.725ZM960.279 281.285V259.426H958.279V281.285H960.279ZM932.812 256.437L958.574 281.995L959.983 280.576L934.221 255.017L932.812 256.437ZM931.648 255.968C932.088 255.968 932.507 256.139 932.818 256.442L934.215 255.012C933.53 254.342 932.607 253.968 931.648 253.968V255.968ZM930.479 256.442C930.789 256.139 931.209 255.968 931.648 255.968V253.968C930.689 253.968 929.767 254.342 929.081 255.012L930.479 256.442ZM930.124 256.964C930.207 256.769 930.327 256.591 930.48 256.442L929.081 255.013C928.739 255.348 928.467 255.747 928.281 256.187L930.124 256.964ZM930 257.579C930 257.368 930.042 257.159 930.124 256.964L928.281 256.187C928.096 256.628 928 257.101 928 257.579H930ZM930.124 258.195C930.042 258 930 257.79 930 257.579H928C928 258.057 928.096 258.53 928.281 258.971L930.124 258.195ZM930.48 258.717C930.327 258.568 930.207 258.39 930.124 258.195L928.281 258.971C928.467 259.412 928.739 259.811 929.081 260.146L930.48 258.717ZM941.5 269.649L930.485 258.721L929.076 260.141L940.091 271.069L941.5 269.649ZM940.753 271.359L940.775 271.359L940.816 269.359L940.794 269.359L940.753 271.359ZM939.467 271.82C939.808 271.522 940.269 271.351 940.757 271.359L940.79 269.359C939.821 269.343 938.874 269.681 938.149 270.316L939.467 271.82ZM931.719 279.129L939.494 271.796L938.122 270.341L930.347 277.674L931.719 279.129ZM931.243 279.961C931.308 279.654 931.47 279.363 931.719 279.129L930.347 277.673C929.811 278.179 929.438 278.83 929.286 279.548L931.243 279.961ZM931.34 280.879C931.211 280.586 931.179 280.268 931.243 279.961L929.286 279.548C929.135 280.267 929.213 281.011 929.509 281.684L931.34 280.879ZM931.991 281.621C931.693 281.433 931.469 281.172 931.34 280.879L929.509 281.684C929.805 282.356 930.301 282.921 930.926 283.314L931.991 281.621ZM933.02 281.914C932.649 281.914 932.291 281.81 931.991 281.621L930.926 283.314C931.55 283.707 932.278 283.913 933.018 283.914L933.02 281.914ZM934.325 281.405C933.984 281.721 933.513 281.91 933.01 281.914L933.027 283.914C934.012 283.906 934.966 283.538 935.685 282.872L934.325 281.405ZM942.094 274.078L934.319 281.411L935.691 282.866L943.466 275.533L942.094 274.078ZM942.534 273.046C942.522 273.427 942.364 273.804 942.069 274.102L943.491 275.509C944.131 274.862 944.506 274.008 944.533 273.105L942.534 273.046ZM959.983 287.986L944.237 272.365L942.829 273.785L958.574 289.406L959.983 287.986ZM960.279 306V288.696H958.279V306H960.279ZM964.124 305H959.279V307H964.124V305ZM963.124 288.641V306H965.124V288.641H963.124ZM979.238 272.066L963.415 287.935L964.832 289.347L980.654 273.479L979.238 272.066ZM980.872 273.378C980.874 273.251 980.89 273.126 980.919 273.005L978.974 272.54C978.911 272.802 978.877 273.071 978.872 273.344L980.872 273.378ZM981.3 274.542C981.021 274.232 980.864 273.815 980.872 273.378L978.872 273.344C978.856 274.277 979.19 275.187 979.813 275.879L981.3 274.542ZM988.339 281.85L981.277 274.517L979.836 275.904L986.899 283.237L988.339 281.85ZM989.433 282.319C989.028 282.316 988.633 282.149 988.333 281.844L986.905 283.244C987.568 283.921 988.468 284.31 989.414 284.319L989.433 282.319ZM990.53 281.844C990.228 282.152 989.829 282.318 989.421 282.319L989.426 284.319C990.38 284.317 991.289 283.926 991.958 283.244L990.53 281.844ZM990.984 280.675C990.984 281.123 990.813 281.546 990.52 281.854L991.968 283.233C992.623 282.545 992.984 281.626 992.984 280.675H990.984ZM990.52 279.496C990.813 279.804 990.984 280.227 990.984 280.675H992.984C992.984 279.724 992.623 278.805 991.968 278.117L990.52 279.496ZM983.445 272.168L990.525 279.501L991.963 278.112L984.884 270.779L983.445 272.168ZM982.398 271.764C982.789 271.757 983.173 271.907 983.47 272.193L984.859 270.754C984.188 270.106 983.293 269.747 982.361 269.764L982.398 271.764ZM982.107 271.798C982.202 271.777 982.299 271.766 982.398 271.764L982.361 269.764C982.129 269.768 981.899 269.796 981.675 269.846L982.107 271.798ZM992.589 258.676L981.183 270.116L982.599 271.528L994.006 260.089L992.589 258.676ZM993 257.564C993.007 257.986 992.851 258.394 992.565 258.702L994.03 260.063C994.669 259.376 995.016 258.467 994.999 257.529L993 257.564ZM992.525 256.443C992.822 256.74 992.992 257.142 993 257.564L994.999 257.529C994.983 256.591 994.604 255.695 993.941 255.031L992.525 256.443ZM991.411 255.968C991.829 255.975 992.228 256.145 992.525 256.443L993.941 255.031C993.279 254.366 992.384 253.985 991.446 253.968L991.411 255.968ZM990.281 256.403C990.588 256.116 990.993 255.961 991.411 255.968L991.446 253.968C990.508 253.952 989.601 254.301 988.915 254.942L990.281 256.403ZM964.832 281.927L990.306 256.378L988.89 254.966L963.415 280.515L964.832 281.927ZM963.124 259.212V281.221H965.124V259.212H963.124ZM963.747 258.285C963.74 258.288 963.733 258.291 963.727 258.294L964.52 260.13C964.535 260.124 964.55 260.117 964.565 260.11L963.747 258.285ZM964.277 257.903C964.125 258.067 963.944 258.197 963.747 258.285L964.565 260.11C965.011 259.91 965.412 259.621 965.745 259.261L964.277 257.903ZM984.496 237.012L964.293 257.887L965.73 259.278L985.933 238.403L984.496 237.012ZM984.927 235.807C984.935 236.268 984.769 236.709 984.472 237.038L985.957 238.377C986.599 237.666 986.943 236.732 986.926 235.773L984.927 235.807ZM984.431 234.595C984.738 234.912 984.919 235.346 984.927 235.807L986.926 235.773C986.91 234.814 986.534 233.892 985.868 233.204L984.431 234.595ZM983.302 234.097C983.72 234.105 984.126 234.279 984.431 234.595L985.868 233.204C985.202 232.515 984.295 232.115 983.338 232.097L983.302 234.097ZM982.158 234.553C982.473 234.249 982.884 234.089 983.302 234.097L983.338 232.097C982.381 232.08 981.461 232.447 980.771 233.112L982.158 234.553ZM964.843 252.475L982.183 234.527L980.745 233.138L963.404 251.085L964.843 252.475ZM963.124 226.616V251.78H965.124V226.616H963.124Z" fill="#DFF2FD" mask="url(#path-13-outside-2_303_4643)"/>
<mask id="path-15-outside-3_303_4643" maskUnits="userSpaceOnUse" x="928" y="169" width="67" height="82" fill="black">
<rect fill="white" x="928" y="169" width="67" height="82"/>
<path fill-rule="evenodd" clip-rule="evenodd" d="M964.124 170H959.279V195.313L943.531 179.289C943.29 179.041 943.003 178.844 942.687 178.71C942.371 178.575 942.032 178.506 941.689 178.506C941.347 178.506 941.008 178.575 940.692 178.71C940.376 178.844 940.089 179.041 939.848 179.289C939.364 179.789 939.093 180.463 939.093 181.165C939.093 181.866 939.364 182.54 939.848 183.04L959.279 202.811V224.669L933.517 199.111C933.019 198.624 932.347 198.352 931.648 198.352C930.949 198.352 930.278 198.624 929.78 199.111C929.533 199.353 929.337 199.641 929.203 199.959C929.069 200.277 929 200.618 929 200.963C929 201.308 929.069 201.649 929.203 201.967C929.337 202.285 929.533 202.573 929.78 202.815L940.795 213.743L940.773 213.743C940.045 213.731 939.341 213.985 938.808 214.452L931.033 221.785C930.64 222.155 930.373 222.626 930.265 223.138C930.157 223.651 930.212 224.182 930.425 224.665C930.637 225.148 930.997 225.561 931.459 225.851C931.92 226.142 932.463 226.297 933.019 226.298C933.763 226.291 934.475 226.013 935.005 225.522L942.78 218.189C943.248 217.717 943.514 217.101 943.533 216.459L959.279 232.08V249.384H964.124V232.025L979.946 216.157C979.901 216.347 979.875 216.544 979.872 216.744C979.86 217.429 980.106 218.092 980.557 218.593L987.619 225.926C988.101 226.418 988.748 226.696 989.423 226.702C990.105 226.7 990.758 226.422 991.244 225.926C991.718 225.428 991.984 224.757 991.984 224.058C991.984 223.359 991.718 222.687 991.244 222.189L984.164 214.856C983.681 214.389 983.041 214.135 982.379 214.147C982.214 214.15 982.051 214.169 981.892 214.205L993.297 202.766C993.76 202.269 994.012 201.61 994 200.93C993.988 200.25 993.713 199.601 993.233 199.12C992.754 198.639 992.107 198.364 991.428 198.352C990.75 198.34 990.094 198.592 989.598 199.056L964.124 224.604V202.596C964.134 202.591 964.145 202.587 964.156 202.582C964.478 202.437 964.768 202.228 965.011 201.966L985.215 181.091C985.684 180.572 985.939 179.884 985.927 179.174C985.914 178.464 985.636 177.786 985.15 177.283C984.664 176.781 984.008 176.493 983.32 176.481C982.633 176.468 981.967 176.732 981.464 177.216L964.124 195.164V170Z"/>
</mask>
<path fill-rule="evenodd" clip-rule="evenodd" d="M964.124 170H959.279V195.313L943.531 179.289C943.29 179.041 943.003 178.844 942.687 178.71C942.371 178.575 942.032 178.506 941.689 178.506C941.347 178.506 941.008 178.575 940.692 178.71C940.376 178.844 940.089 179.041 939.848 179.289C939.364 179.789 939.093 180.463 939.093 181.165C939.093 181.866 939.364 182.54 939.848 183.04L959.279 202.811V224.669L933.517 199.111C933.019 198.624 932.347 198.352 931.648 198.352C930.949 198.352 930.278 198.624 929.78 199.111C929.533 199.353 929.337 199.641 929.203 199.959C929.069 200.277 929 200.618 929 200.963C929 201.308 929.069 201.649 929.203 201.967C929.337 202.285 929.533 202.573 929.78 202.815L940.795 213.743L940.773 213.743C940.045 213.731 939.341 213.985 938.808 214.452L931.033 221.785C930.64 222.155 930.373 222.626 930.265 223.138C930.157 223.651 930.212 224.182 930.425 224.665C930.637 225.148 930.997 225.561 931.459 225.851C931.92 226.142 932.463 226.297 933.019 226.298C933.763 226.291 934.475 226.013 935.005 225.522L942.78 218.189C943.248 217.717 943.514 217.101 943.533 216.459L959.279 232.08V249.384H964.124V232.025L979.946 216.157C979.901 216.347 979.875 216.544 979.872 216.744C979.86 217.429 980.106 218.092 980.557 218.593L987.619 225.926C988.101 226.418 988.748 226.696 989.423 226.702C990.105 226.7 990.758 226.422 991.244 225.926C991.718 225.428 991.984 224.757 991.984 224.058C991.984 223.359 991.718 222.687 991.244 222.189L984.164 214.856C983.681 214.389 983.041 214.135 982.379 214.147C982.214 214.15 982.051 214.169 981.892 214.205L993.297 202.766C993.76 202.269 994.012 201.61 994 200.93C993.988 200.25 993.713 199.601 993.233 199.12C992.754 198.639 992.107 198.364 991.428 198.352C990.75 198.34 990.094 198.592 989.598 199.056L964.124 224.604V202.596C964.134 202.591 964.145 202.587 964.156 202.582C964.478 202.437 964.768 202.228 965.011 201.966L985.215 181.091C985.684 180.572 985.939 179.884 985.927 179.174C985.914 178.464 985.636 177.786 985.15 177.283C984.664 176.781 984.008 176.493 983.32 176.481C982.633 176.468 981.967 176.732 981.464 177.216L964.124 195.164V170Z" fill="#DFF2FD"/>
<path d="M959.279 170V169H958.279V170H959.279ZM964.124 170H965.124V169H964.124V170ZM959.279 195.313L958.566 196.014L960.279 197.757V195.313H959.279ZM943.531 179.289L942.813 179.986L942.818 179.99L943.531 179.289ZM942.687 178.71L942.296 179.63H942.296L942.687 178.71ZM939.848 179.289L939.13 178.593L939.13 178.594L939.848 179.289ZM939.848 183.04L939.129 183.735L939.135 183.741L939.848 183.04ZM959.279 202.811H960.279V202.402L959.992 202.11L959.279 202.811ZM959.279 224.669L958.574 225.379L960.279 227.07V224.669H959.279ZM933.517 199.111L934.221 198.401L934.215 198.396L933.517 199.111ZM929.78 199.111L929.081 198.396L929.081 198.397L929.78 199.111ZM929.203 199.959L930.124 200.348L929.203 199.959ZM929.203 201.967L930.124 201.578L929.203 201.967ZM929.78 202.815L930.485 202.105L930.48 202.101L929.78 202.815ZM940.795 213.743L940.775 214.743L943.274 214.793L941.5 213.033L940.795 213.743ZM940.773 213.743L940.794 212.743L940.79 212.743L940.773 213.743ZM938.808 214.452L938.149 213.7L938.135 213.712L938.122 213.724L938.808 214.452ZM931.033 221.785L931.719 222.513L931.719 222.512L931.033 221.785ZM930.265 223.138L929.286 222.932H929.286L930.265 223.138ZM930.425 224.665L931.34 224.262H931.34L930.425 224.665ZM931.459 225.851L931.991 225.005L931.991 225.005L931.459 225.851ZM933.019 226.298L933.018 227.298L933.027 227.298L933.019 226.298ZM935.005 225.522L935.685 226.256L935.691 226.25L935.005 225.522ZM942.78 218.189L943.466 218.916L943.479 218.905L943.491 218.893L942.78 218.189ZM943.533 216.459L944.237 215.749L942.601 214.126L942.534 216.43L943.533 216.459ZM959.279 232.08H960.279V231.663L959.983 231.37L959.279 232.08ZM959.279 249.384H958.279V250.384H959.279V249.384ZM964.124 249.384V250.384H965.124V249.384H964.124ZM964.124 232.025L963.415 231.319L963.124 231.612V232.025H964.124ZM979.946 216.157L980.919 216.389L981.741 212.94L979.238 215.45L979.946 216.157ZM979.872 216.744L978.872 216.727V216.727L979.872 216.744ZM980.557 218.593L979.813 219.262L979.825 219.275L979.836 219.287L980.557 218.593ZM987.619 225.926L986.899 226.62L986.905 226.626L987.619 225.926ZM989.423 226.702L989.414 227.702L989.426 227.702L989.423 226.702ZM991.244 225.926L991.958 226.626L991.963 226.621L991.968 226.616L991.244 225.926ZM991.244 222.189L991.969 221.5L991.963 221.495L991.244 222.189ZM984.164 214.856L984.884 214.162L984.872 214.149L984.859 214.137L984.164 214.856ZM982.379 214.147L982.361 213.147L982.379 214.147ZM981.892 214.205L981.184 213.498L978.773 215.917L982.108 215.181L981.892 214.205ZM993.297 202.766L994.006 203.472L994.018 203.46L994.03 203.447L993.297 202.766ZM994 200.93L993 200.948V200.948L994 200.93ZM993.233 199.12L993.941 198.414L993.941 198.414L993.233 199.12ZM991.428 198.352L991.446 197.352H991.446L991.428 198.352ZM989.598 199.056L988.915 198.325L988.902 198.338L988.89 198.35L989.598 199.056ZM964.124 224.604H963.124V227.024L964.832 225.311L964.124 224.604ZM964.124 202.596L963.727 201.678L963.124 201.939V202.596H964.124ZM964.156 202.582L964.565 203.494L964.565 203.494L964.156 202.582ZM965.011 201.966L964.293 201.27L964.285 201.278L964.277 201.286L965.011 201.966ZM985.215 181.091L985.933 181.787L985.946 181.774L985.957 181.761L985.215 181.091ZM985.927 179.174L984.927 179.191V179.191L985.927 179.174ZM985.15 177.283L985.868 176.588V176.588L985.15 177.283ZM981.464 177.216L980.771 176.496L980.758 176.508L980.745 176.521L981.464 177.216ZM964.124 195.164H963.124V197.638L964.843 195.859L964.124 195.164ZM959.279 171H964.124V169H959.279V171ZM960.279 195.313V170H958.279V195.313H960.279ZM942.818 179.99L958.566 196.014L959.992 194.612L944.244 178.588L942.818 179.99ZM942.296 179.63C942.488 179.712 942.664 179.832 942.813 179.986L944.249 178.593C943.916 178.25 943.518 177.976 943.079 177.789L942.296 179.63ZM941.689 179.506C941.897 179.506 942.103 179.548 942.296 179.63L943.079 177.789C942.639 177.602 942.167 177.506 941.689 177.506V179.506ZM941.083 179.63C941.276 179.548 941.482 179.506 941.689 179.506V177.506C941.212 177.506 940.74 177.602 940.3 177.789L941.083 179.63ZM940.566 179.986C940.714 179.832 940.89 179.712 941.083 179.63L940.3 177.789C939.861 177.976 939.463 178.25 939.13 178.593L940.566 179.986ZM940.093 181.165C940.093 180.72 940.265 180.296 940.567 179.985L939.13 178.594C938.464 179.282 938.093 180.206 938.093 181.165H940.093ZM940.567 182.344C940.265 182.033 940.093 181.609 940.093 181.165H938.093C938.093 182.124 938.464 183.047 939.13 183.735L940.567 182.344ZM959.992 202.11L940.561 182.339L939.135 183.741L958.566 203.512L959.992 202.11ZM960.279 224.669V202.811H958.279V224.669H960.279ZM932.812 199.821L958.574 225.379L959.983 223.959L934.221 198.401L932.812 199.821ZM931.648 199.352C932.088 199.352 932.507 199.523 932.818 199.826L934.215 198.396C933.53 197.726 932.607 197.352 931.648 197.352V199.352ZM930.479 199.826C930.789 199.523 931.209 199.352 931.648 199.352V197.352C930.689 197.352 929.767 197.726 929.081 198.396L930.479 199.826ZM930.124 200.348C930.207 200.152 930.327 199.975 930.48 199.825L929.081 198.397C928.739 198.731 928.467 199.131 928.281 199.571L930.124 200.348ZM930 200.963C930 200.752 930.042 200.543 930.124 200.348L928.281 199.571C928.096 200.012 928 200.485 928 200.963H930ZM930.124 201.578C930.042 201.383 930 201.174 930 200.963H928C928 201.441 928.096 201.914 928.281 202.355L930.124 201.578ZM930.48 202.101C930.327 201.951 930.207 201.774 930.124 201.578L928.281 202.355C928.467 202.796 928.739 203.195 929.081 203.53L930.48 202.101ZM941.5 213.033L930.485 202.105L929.076 203.525L940.091 214.453L941.5 213.033ZM940.753 214.742L940.775 214.743L940.816 212.743L940.794 212.743L940.753 214.742ZM939.467 215.204C939.808 214.905 940.269 214.734 940.757 214.742L940.79 212.743C939.821 212.727 938.874 213.064 938.149 213.7L939.467 215.204ZM931.719 222.512L939.494 215.179L938.122 213.724L930.347 221.058L931.719 222.512ZM931.243 223.345C931.308 223.038 931.47 222.747 931.719 222.513L930.347 221.057C929.811 221.562 929.438 222.213 929.286 222.932L931.243 223.345ZM931.34 224.262C931.211 223.97 931.179 223.651 931.243 223.345L929.286 222.932C929.135 223.651 929.213 224.395 929.509 225.068L931.34 224.262ZM931.991 225.005C931.693 224.817 931.469 224.556 931.34 224.262L929.509 225.068C929.805 225.74 930.301 226.305 930.926 226.698L931.991 225.005ZM933.02 225.298C932.649 225.297 932.291 225.193 931.991 225.005L930.926 226.698C931.55 227.09 932.278 227.297 933.018 227.298L933.02 225.298ZM934.325 224.789C933.984 225.105 933.513 225.294 933.01 225.298L933.027 227.298C934.012 227.289 934.966 226.922 935.685 226.256L934.325 224.789ZM942.094 217.461L934.319 224.795L935.691 226.25L943.466 218.916L942.094 217.461ZM942.534 216.43C942.522 216.811 942.364 217.188 942.069 217.485L943.491 218.893C944.131 218.246 944.506 217.392 944.533 216.488L942.534 216.43ZM959.983 231.37L944.237 215.749L942.829 217.169L958.574 232.79L959.983 231.37ZM960.279 249.384V232.08H958.279V249.384H960.279ZM964.124 248.384H959.279V250.384H964.124V248.384ZM963.124 232.025V249.384H965.124V232.025H963.124ZM979.238 215.45L963.415 231.319L964.832 232.731L980.654 216.863L979.238 215.45ZM980.872 216.761C980.874 216.634 980.89 216.509 980.919 216.389L978.973 215.925C978.911 216.186 978.877 216.455 978.872 216.727L980.872 216.761ZM981.3 217.924C981.021 217.615 980.864 217.198 980.872 216.761L978.872 216.727C978.856 217.66 979.19 218.569 979.813 219.262L981.3 217.924ZM988.339 225.233L981.277 217.9L979.836 219.287L986.899 226.62L988.339 225.233ZM989.433 225.702C989.028 225.698 988.633 225.532 988.333 225.226L986.905 226.626C987.568 227.303 988.468 227.693 989.414 227.702L989.433 225.702ZM990.53 225.226C990.228 225.534 989.829 225.701 989.421 225.702L989.426 227.702C990.38 227.7 991.289 227.309 991.958 226.626L990.53 225.226ZM990.984 224.058C990.984 224.505 990.813 224.928 990.52 225.237L991.968 226.616C992.623 225.928 992.984 225.009 992.984 224.058H990.984ZM990.52 222.879C990.813 223.187 990.984 223.61 990.984 224.058H992.984C992.984 223.107 992.623 222.187 991.968 221.5L990.52 222.879ZM983.445 215.551L990.525 222.884L991.963 221.495L984.884 214.162L983.445 215.551ZM982.398 215.147C982.789 215.14 983.173 215.289 983.47 215.576L984.859 214.137C984.188 213.489 983.293 213.13 982.361 213.147L982.398 215.147ZM982.108 215.181C982.203 215.16 982.3 215.149 982.398 215.147L982.361 213.147C982.129 213.151 981.9 213.179 981.677 213.228L982.108 215.181ZM992.589 202.06L981.184 213.498L982.601 214.911L994.006 203.472L992.589 202.06ZM993 200.948C993.007 201.37 992.851 201.778 992.565 202.086L994.03 203.447C994.669 202.76 995.016 201.851 994.999 200.913L993 200.948ZM992.525 199.826C992.822 200.124 992.992 200.526 993 200.948L994.999 200.913C994.983 199.974 994.604 199.079 993.941 198.414L992.525 199.826ZM991.411 199.352C991.829 199.359 992.228 199.529 992.525 199.827L993.941 198.414C993.279 197.75 992.384 197.369 991.446 197.352L991.411 199.352ZM990.281 199.787C990.588 199.5 990.993 199.344 991.411 199.352L991.446 197.352C990.508 197.336 989.601 197.685 988.915 198.325L990.281 199.787ZM964.832 225.311L990.306 199.762L988.89 198.35L963.415 223.898L964.832 225.311ZM963.124 202.596V224.604H965.124V202.596H963.124ZM963.747 201.669C963.74 201.672 963.733 201.675 963.727 201.678L964.52 203.514C964.535 203.507 964.55 203.501 964.565 203.494L963.747 201.669ZM964.277 201.286C964.125 201.451 963.944 201.581 963.747 201.669L964.565 203.494C965.011 203.294 965.412 203.005 965.745 202.645L964.277 201.286ZM984.496 180.396L964.293 201.27L965.73 202.661L985.933 181.787L984.496 180.396ZM984.927 179.191C984.935 179.652 984.769 180.093 984.472 180.422L985.957 181.761C986.599 181.05 986.943 180.116 986.926 179.157L984.927 179.191ZM984.431 177.979C984.738 178.296 984.919 178.73 984.927 179.191L986.926 179.157C986.91 178.197 986.534 177.276 985.868 176.588L984.431 177.979ZM983.302 177.481C983.72 177.488 984.126 177.663 984.431 177.979L985.868 176.588C985.202 175.899 984.295 175.499 983.338 175.481L983.302 177.481ZM982.158 177.937C982.473 177.633 982.884 177.473 983.302 177.481L983.338 175.481C982.381 175.464 981.461 175.831 980.771 176.496L982.158 177.937ZM964.843 195.859L982.183 177.911L980.745 176.521L963.404 194.469L964.843 195.859ZM963.124 170V195.164H965.124V170H963.124Z" fill="#DFF2FD" mask="url(#path-15-outside-3_303_4643)"/>
<path d="M962.394 170C977.534 170 989.807 157.688 989.807 142.5C989.807 127.312 977.534 115 962.394 115C947.254 115 934.981 127.312 934.981 142.5C934.981 157.688 947.254 170 962.394 170Z" fill="#3AB3FE"/>
<path d="M965.118 144.795H955.915V142.842H965.118C965.968 142.842 966.67 142.694 967.224 142.398C967.779 142.097 968.192 141.688 968.463 141.173C968.735 140.652 968.871 140.061 968.871 139.398C968.871 138.735 968.735 138.146 968.463 137.631C968.192 137.11 967.779 136.702 967.224 136.406C966.67 136.104 965.968 135.953 965.118 135.953H960.977V152.182H958.782V134H965.118C966.463 134 967.573 134.246 968.446 134.737C969.319 135.228 969.968 135.882 970.393 136.699C970.817 137.516 971.03 138.415 971.03 139.398C971.03 140.38 970.817 141.28 970.393 142.097C969.968 142.913 969.319 143.567 968.446 144.059C967.573 144.55 966.463 144.795 965.118 144.795ZM964.977 146.5V148.453H955.915V146.5H964.977Z" fill="white"/>
<defs>
<linearGradient id="paint0_linear_303_4643" x1="1508.46" y1="61.1721" x2="1565.03" y2="0.390272" gradientUnits="userSpaceOnUse">
<stop stop-color="#B3E1FD" stop-opacity="0"/>
<stop offset="1" stop-color="#3AB3FE"/>
</linearGradient>
<linearGradient id="paint1_linear_303_4643" x1="1450.86" y1="59.5656" x2="1501.14" y2="5.53734" gradientUnits="userSpaceOnUse">
<stop stop-color="#B3E1FD" stop-opacity="0"/>
<stop offset="1" stop-color="#3AB3FE"/>
</linearGradient>
<linearGradient id="paint2_linear_303_4643" x1="1492.3" y1="134.888" x2="1548.24" y2="74.7814" gradientUnits="userSpaceOnUse">
<stop stop-color="#B3E1FD" stop-opacity="0"/>
<stop offset="1" stop-color="#3AB3FE"/>
</linearGradient>
</defs>
</svg>
