<svg width="50" height="59" viewBox="0 0 50 59" fill="none" xmlns="http://www.w3.org/2000/svg">
<path d="M30.4908 34.5884H0.945312V28.3384H30.4908C33.218 28.3384 35.4718 27.8649 37.2521 26.918C39.0324 25.9521 40.3582 24.6452 41.2294 22.9975C42.1006 21.3308 42.5362 19.4369 42.5362 17.3157C42.5362 15.1945 42.1006 13.31 41.2294 11.6623C40.3582 9.99562 39.0324 8.6888 37.2521 7.74183C35.4718 6.77592 33.218 6.29297 30.4908 6.29297H17.1953V58.2248H10.1499V0.0429688H30.4908C34.8089 0.0429688 38.3696 0.828955 41.1726 2.40092C43.9756 3.97289 46.059 6.0657 47.4226 8.67933C48.7862 11.293 49.468 14.1718 49.468 17.3157C49.468 20.4596 48.7862 23.3384 47.4226 25.9521C46.059 28.5657 43.9756 30.6585 41.1726 32.2305C38.3696 33.8024 34.8089 34.5884 30.4908 34.5884ZM30.0362 40.043V46.293H0.945312V40.043H30.0362Z" fill="white"/>
</svg>
