<svg width="97" height="97" viewBox="0 0 97 97" fill="none" xmlns="http://www.w3.org/2000/svg">
<path fill-rule="evenodd" clip-rule="evenodd" d="M0.212694 0.155712C0.0955707 0.277954 0 3.03706 0 6.28713V12.1959H3.41219C7.2024 12.1959 8.06906 12.4299 9.75048 13.9062C12.0748 15.9474 12.0323 15.6873 12.2163 28.9298C12.3916 41.5356 12.4154 41.7559 14.0186 45.7253C16.1429 50.9854 20.9918 55.9792 26.2201 58.2919C29.6473 59.8076 31.5877 60.1766 37.1506 60.3709L42.3971 60.5541L42.4711 72.6791L42.5448 84.8041H36.4448H30.3444V90.902V97H48.4943H66.6443V90.902V84.8041H60.5439H54.4438L54.5176 72.6791L54.5916 60.5541L59.838 60.3763C68.5358 60.0816 73.3419 58.1081 78.3186 52.7881C83.9131 46.8073 84.7942 43.5059 84.7942 28.5237C84.7942 17.0916 84.8563 16.6227 86.6537 14.5231C88.2923 12.6086 89.5129 12.1959 93.539 12.1959H97L96.9234 6.16886L96.8469 0.141813L92.593 0.158546C89.3793 0.171309 87.9231 0.298942 86.6375 0.680419C80.6279 2.46386 75.8899 7.17942 73.7066 13.5497L72.7611 16.3085L72.6096 27.9371L72.4579 39.5658L71.5524 41.4777C70.0644 44.6191 67.4684 46.8272 64.1183 47.8011C62.6881 48.2169 61.6936 48.2819 57.3566 48.2428L54.4498 48.2164V24.1082V0H48.4943H42.5389V24.1082V48.2164L41.1918 48.2334C34.5855 48.3171 32.8783 48.091 30.3424 46.7971C28.5104 45.8626 26.4603 43.6395 25.4363 41.4777L24.5308 39.5658L24.3739 27.7953C24.2233 16.511 24.1899 15.9429 23.566 14.0395C21.4331 7.53423 16.5524 2.55915 10.4929 0.714169C8.81122 0.202225 0.594977 -0.244201 0.212694 0.155712Z" fill="#3AB3FE"/>
</svg>
