<svg width="149" height="157" viewBox="0 0 149 157" fill="none" xmlns="http://www.w3.org/2000/svg">
<g clip-path="url(#clip0_144_17412)">
<path d="M6.69004 147.602L12.2951 156.926L10.053 156.926L6.07346 150.399L2.03784 156.926L-0.0546875 156.926L5.55033 147.602L6.69004 147.602Z" fill="#3AB3FE"/>
<path d="M6.69004 99.9923L12.2951 109.316L10.053 109.316L6.07346 102.771L2.03784 109.316L-0.0546875 109.316L5.55033 99.9923L6.69004 99.9923Z" fill="#3AB3FE"/>
<path d="M6.69004 49.0079L12.2951 58.332L10.053 58.332L6.07346 51.7865L2.03784 58.332L-0.0546875 58.332L5.55033 49.0079L6.69004 49.0079Z" fill="#3AB3FE"/>
<path d="M6.69004 7.12308e-05L12.2951 9.32422L10.053 9.32422L6.07346 2.79732L2.03784 9.32422L-0.0546875 9.32422L5.55033 7.12806e-05L6.69004 7.12308e-05Z" fill="#3AB3FE"/>
<path d="M50.93 147.602L56.535 156.926L54.3304 156.926L50.3694 150.399L46.3339 156.926L44.2227 156.926L49.8277 147.602L50.93 147.602Z" fill="#3AB3FE"/>
<path d="M50.93 99.9923L56.535 109.316L54.3304 109.316L50.3694 102.771L46.3339 109.316L44.2227 109.316L49.8277 99.9923L50.93 99.9923Z" fill="#3AB3FE"/>
<path d="M50.93 49.0079L56.535 58.332L54.3304 58.332L50.3694 51.7865L46.3339 58.332L44.2227 58.332L49.8277 49.0079L50.93 49.0079Z" fill="#3AB3FE"/>
<path d="M50.93 7.12324e-05L56.535 9.32422L54.3304 9.32422L50.3694 2.79732L46.3339 9.32422L44.2227 9.32422L49.8277 7.12806e-05L50.93 7.12324e-05Z" fill="#3AB3FE"/>
<path d="M97.8636 147.602L103.469 156.926L101.283 156.926L97.3031 150.399L93.2675 156.926L91.1562 156.926L96.7613 147.602L97.8636 147.602Z" fill="#3AB3FE"/>
<path d="M97.8636 99.9923L103.469 109.316L101.283 109.316L97.3031 102.771L93.2675 109.316L91.1562 109.316L96.7613 99.9923L97.8636 99.9923Z" fill="#3AB3FE"/>
<path d="M97.8636 49.0079L103.469 58.332L101.283 58.332L97.3031 51.7865L93.2675 58.332L91.1562 58.332L96.7613 49.0079L97.8636 49.0079Z" fill="#3AB3FE"/>
<path d="M97.8636 7.12324e-05L103.469 9.32422L101.283 9.32422L97.3031 2.79732L93.2675 9.32422L91.1562 9.32422L96.7613 7.12806e-05L97.8636 7.12324e-05Z" fill="#3AB3FE"/>
<path d="M143.395 147.602L149 156.926L146.795 156.926L142.834 150.399L138.799 156.926L136.688 156.926L142.293 147.602L143.395 147.602Z" fill="#3AB3FE"/>
<path d="M143.395 99.9923L149 109.316L146.795 109.316L142.834 102.771L138.799 109.316L136.688 109.316L142.293 99.9923L143.395 99.9923Z" fill="#3AB3FE"/>
<path d="M143.395 49.0079L149 58.332L146.795 58.332L142.834 51.7865L138.799 58.332L136.688 58.332L142.293 49.0079L143.395 49.0079Z" fill="#3AB3FE"/>
<path d="M143.395 7.12324e-05L149 9.32422L146.795 9.32422L142.834 2.79732L138.799 9.32422L136.688 9.32422L142.293 7.12806e-05L143.395 7.12324e-05Z" fill="#3AB3FE"/>
</g>
<defs>
<clipPath id="clip0_144_17412">
<rect width="157" height="149" fill="white" transform="translate(0 157) rotate(-90)"/>
</clipPath>
</defs>
</svg>
