<svg width="160" height="152" viewBox="0 0 160 152" fill="none" xmlns="http://www.w3.org/2000/svg">
<g clip-path="url(#clip0_144_17106)">
<path d="M0 10.1599V8.29916H6.29244V10.1599H0ZM0 13.1556V11.5926H7.46878V13.1556H0ZM1.8672 15.8536V0.000462624H7.46878C8.17068 -0.00934318 8.86594 0.136846 9.50402 0.428414C10.077 0.721881 10.59 1.11946 11.0164 1.60066C11.4254 2.08136 11.7475 2.62906 11.9687 3.21945C12.1756 3.81828 12.2829 4.44681 12.2861 5.08015C12.287 5.93433 12.1023 6.77858 11.7446 7.55487C11.3996 8.30459 10.8577 8.94748 10.1762 9.41556C9.4136 9.91794 8.51309 10.1715 7.59944 10.1412H3.97708V15.8349L1.8672 15.8536ZM3.88374 8.4108H7.39408C7.98173 8.44335 8.56429 8.28678 9.05585 7.96423C9.46392 7.66233 9.76482 7.23869 9.9148 6.75479C10.0753 6.21731 10.1571 5.65954 10.1575 5.09877C10.1592 4.52726 10.058 3.96006 9.85879 3.42413C9.67149 2.94417 9.33859 2.5344 8.9065 2.25191C8.40524 1.95334 7.82834 1.80476 7.24467 1.82393H3.88374V8.4108Z" fill="#3AB3FE"/>
<path d="M47.6719 10.1592V8.29855H53.9829V10.1592H47.6719ZM47.6719 13.155V11.592H55.1407V13.155H47.6719ZM49.5391 15.853V-0.000155325H55.0473C55.7217 -0.0193109 56.3917 0.114823 57.0064 0.392079C57.6211 0.669335 58.1643 1.08243 58.5949 1.60004C59.0038 2.08074 59.3261 2.62844 59.5472 3.21883C59.763 3.81537 59.8706 4.44544 59.8647 5.07953C59.872 5.9324 59.6936 6.77671 59.3418 7.55425C58.9833 8.30091 58.4364 8.94205 57.7547 9.41494C56.999 9.91701 56.1045 10.1708 55.1967 10.1406H51.5556V15.8343L49.5391 15.853ZM51.5556 8.41018H55.0846C55.6664 8.44269 56.243 8.28596 56.7277 7.96361C57.1358 7.66171 57.4367 7.23807 57.5867 6.75417C57.756 6.21866 57.8379 5.65954 57.8294 5.09815C57.8403 4.52588 57.7388 3.95698 57.5307 3.42351C57.3434 2.94355 57.0105 2.53379 56.5784 2.2513C56.0779 1.95074 55.5004 1.802 54.9165 1.82332H51.5556V8.41018Z" fill="#3AB3FE"/>
<path d="M98.7188 10.1592V8.29855H105.03V10.1592H98.7188ZM98.7188 13.155V11.592H106.188V13.155H98.7188ZM100.586 15.853V-0.000155325H106.057C106.731 -0.0193109 107.401 0.114823 108.016 0.392079C108.631 0.669335 109.174 1.08243 109.604 1.60004C110.013 2.08074 110.336 2.62844 110.557 3.21883C110.773 3.81537 110.88 4.44544 110.874 5.07953C110.881 5.9324 110.703 6.77671 110.351 7.55425C109.993 8.30091 109.446 8.94205 108.764 9.41494C108.009 9.91701 107.114 10.1708 106.206 10.1406H102.565V15.8343L100.586 15.853ZM102.602 8.41018H106.132C106.713 8.44269 107.29 8.28596 107.775 7.96361C108.183 7.66171 108.484 7.23807 108.634 6.75417C108.803 6.21866 108.885 5.65954 108.876 5.09815C108.887 4.52588 108.786 3.95698 108.578 3.42351C108.39 2.94355 108.057 2.53379 107.625 2.2513C107.125 1.95074 106.547 1.802 105.963 1.82332H102.602V8.41018Z" fill="#3AB3FE"/>
<path d="M147.789 10.1599V8.29916H154.082V10.1599H147.789ZM147.789 13.1556V11.5926H155.258V13.1556H147.789ZM149.656 15.8536V0.000462624H155.164C155.866 -0.00934318 156.562 0.136846 157.2 0.428414C157.773 0.721881 158.286 1.11946 158.712 1.60066C159.121 2.08136 159.443 2.62906 159.664 3.21945C159.871 3.81828 159.979 4.44681 159.982 5.08015C159.983 5.93433 159.798 6.77858 159.44 7.55487C159.094 8.30947 158.545 8.95359 157.853 9.41556C157.099 9.91994 156.203 10.1739 155.295 10.1412H151.673V15.8349L149.656 15.8536ZM151.673 8.4108H155.183C155.771 8.44335 156.353 8.28678 156.845 7.96423C157.253 7.66233 157.554 7.23869 157.704 6.75479C157.864 6.21731 157.946 5.65954 157.947 5.09877C157.948 4.52726 157.847 3.96006 157.648 3.42413C157.46 2.93889 157.119 2.52753 156.677 2.25191C156.184 1.95082 155.612 1.8019 155.034 1.82393H151.673V8.4108Z" fill="#3AB3FE"/>
<path d="M0 54.2012V52.3405H6.29244V54.2012H0ZM0 57.1969V55.5595H7.46878V57.1225L0 57.1969ZM1.8672 59.8949V44.0418H7.46878C8.17306 44.0285 8.87048 44.1816 9.50402 44.4884C10.0802 44.7688 10.5944 45.161 11.0164 45.642C11.4295 46.1267 11.752 46.6813 11.9687 47.2794C12.1797 47.8772 12.2871 48.5064 12.2861 49.1401C12.2849 49.9881 12.1002 50.8258 11.7446 51.5962C11.3996 52.3459 10.8577 52.9888 10.1762 53.4569C9.4136 53.9593 8.51309 54.2129 7.59944 54.1826H3.97708V59.8763L1.8672 59.8949ZM3.88374 52.4522H7.39408C7.98173 52.4847 8.56429 52.3281 9.05585 52.0056C9.4678 51.7075 9.76972 51.2824 9.9148 50.7961C10.0753 50.265 10.1571 49.7134 10.1575 49.1587C10.1606 48.581 10.0594 48.0075 9.85879 47.4655C9.69314 46.9795 9.3799 46.5568 8.96252 46.256C8.46126 45.9575 7.88435 45.8089 7.30068 45.8281H3.93976L3.88374 52.4522Z" fill="#3AB3FE"/>
<path d="M47.6719 54.2032V52.3425H53.9829V54.2032H47.6719ZM47.6719 57.1989V55.5615H55.1407V57.1244L47.6719 57.1989ZM49.5391 59.8969V44.0438H55.0473C55.7515 44.0305 56.449 44.1835 57.0825 44.4903C57.6647 44.7609 58.1808 45.1546 58.5949 45.644C59.008 46.1287 59.3305 46.6833 59.5472 47.2814C59.7662 47.8771 59.8738 48.5077 59.8647 49.1421C59.8699 49.9887 59.6915 50.8265 59.3418 51.5982C58.9833 52.3448 58.4364 52.986 57.7547 53.4589C56.999 53.9609 56.1045 54.2147 55.1967 54.1845H51.5556V59.8783L49.5391 59.8969ZM51.5556 52.4541H55.0846C55.6664 52.4866 56.243 52.3299 56.7277 52.0075C57.1397 51.7094 57.4416 51.2844 57.5867 50.7981C57.7562 50.269 57.8382 49.716 57.8294 49.1607C57.8418 48.5822 57.7403 48.007 57.5307 47.4674C57.3434 46.9875 57.0105 46.5777 56.5784 46.2952C56.0779 45.9947 55.5004 45.8459 54.9165 45.8672H51.5556V52.4541Z" fill="#3AB3FE"/>
<path d="M98.7188 54.2012V52.3405H105.03V54.2012H98.7188ZM98.7188 57.1969V55.5595H106.188V57.1225L98.7188 57.1969ZM100.586 59.8949V44.0418H106.057C106.761 44.0285 107.459 44.1816 108.092 44.4884C108.674 44.759 109.19 45.1526 109.604 45.642C110.018 46.1267 110.34 46.6813 110.557 47.2794C110.776 47.8751 110.883 48.5058 110.874 49.1401C110.879 49.9868 110.701 50.8246 110.351 51.5962C109.993 52.3429 109.446 52.984 108.764 53.4569C108.009 53.959 107.114 54.2127 106.206 54.1826H102.565V59.8763L100.586 59.8949ZM102.602 52.4522H106.132C106.713 52.4847 107.29 52.3279 107.775 52.0056C108.187 51.7075 108.488 51.2824 108.634 50.7961C108.803 50.2671 108.885 49.714 108.876 49.1587C108.889 48.5803 108.787 48.005 108.578 47.4655C108.39 46.9855 108.057 46.5758 107.625 46.2933C107.125 45.9927 106.547 45.844 105.963 45.8653H102.602V52.4522Z" fill="#3AB3FE"/>
<path d="M147.789 54.2032V52.3425H154.082V54.2032H147.789ZM147.789 57.1989V55.5615H155.258V57.1244L147.789 57.1989ZM149.656 59.8969V44.0438H155.164C155.869 44.0305 156.566 44.1835 157.2 44.4903C157.776 44.7708 158.29 45.1629 158.712 45.644C159.125 46.1287 159.448 46.6833 159.664 47.2814C159.875 47.8792 159.983 48.5084 159.982 49.1421C159.981 49.9901 159.796 50.8278 159.44 51.5982C159.094 52.3528 158.545 52.9969 157.853 53.4589C157.099 53.9632 156.203 54.2172 155.295 54.1845H151.673V59.8783L149.656 59.8969ZM151.673 52.4541H155.183C155.771 52.4867 156.353 52.3301 156.845 52.0075C157.257 51.7094 157.559 51.2844 157.704 50.7981C157.864 50.267 157.946 49.7153 157.947 49.1607C157.95 48.583 157.848 48.0094 157.648 47.4674C157.46 46.9822 157.119 46.5708 156.677 46.2952C156.184 45.9941 155.612 45.8452 155.034 45.8672H151.673V52.4541Z" fill="#3AB3FE"/>
<path d="M0 100.924V99.0628H6.29244V100.924H0ZM0 103.919V102.356H7.46878V103.938L0 103.919ZM1.8672 106.617V90.7641H7.46878C8.17068 90.7543 8.86594 90.9005 9.50402 91.1921C10.077 91.4856 10.59 91.8831 11.0164 92.3643C11.4254 92.845 11.7475 93.3927 11.9687 93.9831C12.1756 94.5819 12.2829 95.2105 12.2861 95.8438C12.287 96.698 12.1023 97.5423 11.7446 98.3185C11.3996 99.0683 10.8577 99.7112 10.1762 100.179C9.4136 100.682 8.51309 100.935 7.59944 100.905H3.97708V106.599L1.8672 106.617ZM3.88374 99.1745H7.39408C7.98173 99.207 8.56429 99.0505 9.05585 98.7279C9.46392 98.426 9.76482 98.0024 9.9148 97.5185C10.0753 96.981 10.1571 96.4232 10.1575 95.8624C10.1608 95.2908 10.0596 94.7233 9.85879 94.1878C9.67149 93.7078 9.33859 93.2981 8.9065 93.0156C8.40874 92.7088 7.82929 92.5595 7.24467 92.5876H3.88374V99.1745Z" fill="#3AB3FE"/>
<path d="M47.6719 100.923V99.0622H53.9829V100.923H47.6719ZM47.6719 103.919V102.356H55.1407V103.937L47.6719 103.919ZM49.5391 106.617V90.7635H55.0473C55.7217 90.7444 56.3917 90.8785 57.0064 91.1558C57.6211 91.433 58.1643 91.8461 58.5949 92.3637C59.0038 92.8444 59.3261 93.3921 59.5472 93.9825C59.763 94.579 59.8706 95.2091 59.8647 95.8432C59.8892 96.7058 59.7234 97.5633 59.3792 98.3551C59.0206 99.1018 58.4738 99.7429 57.792 100.216C57.0363 100.718 56.1418 100.972 55.234 100.942H51.5929V106.635L49.5391 106.617ZM51.5556 99.1739H55.0846C55.6664 99.2064 56.243 99.0496 56.7277 98.7273C57.1358 98.4254 57.4367 98.0017 57.5867 97.5178C57.756 96.9823 57.8379 96.4232 57.8294 95.8618C57.8418 95.2894 57.7402 94.7203 57.5307 94.1872C57.3434 93.7072 57.0105 93.2975 56.5784 93.015C56.0816 92.7059 55.5014 92.5565 54.9165 92.587H51.5556V99.1739Z" fill="#3AB3FE"/>
<path d="M98.7188 100.925V99.0642H105.03V100.925H98.7188ZM98.7188 103.921V102.358H106.188V103.939L98.7188 103.921ZM100.586 106.619V90.7655H106.057C106.731 90.7463 107.401 90.8804 108.016 91.1577C108.631 91.435 109.174 91.8481 109.604 92.3657C110.013 92.8464 110.336 93.3941 110.557 93.9845C110.773 94.581 110.88 95.2111 110.874 95.8452C110.881 96.698 110.703 97.5423 110.351 98.3199C109.993 99.0665 109.446 99.7077 108.764 100.181C108.009 100.683 107.114 100.936 106.206 100.906H102.565V106.6L100.586 106.619ZM102.602 99.1758H106.132C106.713 99.2083 107.29 99.0516 107.775 98.7292C108.183 98.4273 108.484 98.0037 108.634 97.5198C108.803 96.9843 108.885 96.4252 108.876 95.8638C108.889 95.2914 108.787 94.7222 108.578 94.1891C108.39 93.7092 108.057 93.2994 107.625 93.0169C107.128 92.7079 106.548 92.5585 105.963 92.5889H102.602V99.1758Z" fill="#3AB3FE"/>
<path d="M147.789 100.924V99.0628H154.082V100.924H147.789ZM147.789 103.919V102.356H155.258V103.938L147.789 103.919ZM149.656 106.617V90.7641H155.164C155.866 90.7543 156.562 90.9005 157.2 91.1921C157.773 91.4856 158.286 91.8831 158.712 92.3643C159.121 92.845 159.443 93.3927 159.664 93.9831C159.871 94.5819 159.979 95.2105 159.982 95.8438C159.983 96.698 159.798 97.5423 159.44 98.3185C159.094 99.0731 158.545 99.7173 157.853 100.179C157.099 100.684 156.203 100.938 155.295 100.905H151.673V106.599L149.656 106.617ZM151.673 99.1745H155.183C155.771 99.207 156.353 99.0505 156.845 98.7279C157.253 98.426 157.554 98.0024 157.704 97.5185C157.864 96.981 157.946 96.4232 157.947 95.8624C157.95 95.2908 157.849 94.7233 157.648 94.1878C157.46 93.7026 157.119 93.2912 156.677 93.0156C156.187 92.7069 155.613 92.5574 155.034 92.5876H151.673V99.1745Z" fill="#3AB3FE"/>
<path d="M0 146.306V144.445H6.29244V146.306H0ZM0 149.283V147.72H7.46878V149.283H0ZM1.8672 151.999V136.146H7.46878C8.17155 136.127 8.8689 136.274 9.50402 136.574C10.0764 136.861 10.5895 137.252 11.0164 137.728C11.4295 138.213 11.752 138.767 11.9687 139.365C12.1797 139.963 12.2871 140.592 12.2861 141.226C12.2847 142.08 12.1 142.924 11.7446 143.701C11.3996 144.45 10.8577 145.093 10.1762 145.561C9.4136 146.064 8.51309 146.317 7.59944 146.287H3.97708V151.981L1.8672 151.999ZM3.88374 144.557H7.39408C7.98173 144.589 8.56429 144.433 9.05585 144.11C9.46392 143.808 9.76482 143.384 9.9148 142.901C10.0753 142.363 10.1571 141.805 10.1575 141.244C10.1606 140.667 10.0594 140.093 9.85879 139.551C9.66147 139.077 9.33074 138.67 8.9065 138.379C8.40328 138.087 7.8265 137.945 7.24467 137.97H3.88374V144.557Z" fill="#3AB3FE"/>
<path d="M47.6719 146.306V144.445H53.9829V146.306H47.6719ZM47.6719 149.283V147.72H55.1407V149.283H47.6719ZM49.5391 151.999V136.146H55.0473C55.75 136.127 56.4474 136.274 57.0825 136.574C57.6608 136.851 58.1757 137.244 58.5949 137.728C59.008 138.213 59.3305 138.767 59.5472 139.365C59.7662 139.961 59.8738 140.592 59.8647 141.226C59.8696 142.079 59.6914 142.922 59.3418 143.701C58.9833 144.447 58.4364 145.088 57.7547 145.561C56.999 146.063 56.1045 146.317 55.1967 146.287H51.5556V151.981L49.5391 151.999ZM51.5556 144.557H55.0846C55.6664 144.589 56.243 144.432 56.7277 144.11C57.1358 143.808 57.4367 143.384 57.5867 142.901C57.756 142.365 57.8379 141.806 57.8294 141.244C57.8418 140.666 57.7403 140.091 57.5307 139.551C57.3333 139.077 57.0026 138.67 56.5784 138.379C56.076 138.085 55.4986 137.943 54.9165 137.97H51.5556V144.557Z" fill="#3AB3FE"/>
<path d="M98.7188 146.306V144.445H105.03V146.306H98.7188ZM98.7188 149.283V147.72H106.188V149.283H98.7188ZM100.586 151.999V136.146H106.057C106.76 136.127 107.457 136.274 108.092 136.574C108.67 136.851 109.185 137.244 109.604 137.728C110.018 138.213 110.34 138.767 110.557 139.365C110.776 139.961 110.883 140.592 110.874 141.226C110.879 142.079 110.701 142.922 110.351 143.701C109.993 144.447 109.446 145.088 108.764 145.561C108.009 146.063 107.114 146.317 106.206 146.287H102.565V151.981L100.586 151.999ZM102.602 144.557H106.132C106.713 144.589 107.29 144.432 107.775 144.11C108.183 143.808 108.484 143.384 108.634 142.901C108.803 142.365 108.885 141.806 108.876 141.244C108.889 140.666 108.787 140.091 108.578 139.551C108.38 139.077 108.049 138.67 107.625 138.379C107.123 138.085 106.546 137.943 105.963 137.97H102.602V144.557Z" fill="#3AB3FE"/>
<path d="M147.789 146.306V144.445H154.082V146.306H147.789ZM147.789 149.283V147.72H155.258V149.283H147.789ZM149.656 151.999V136.146H155.164C155.867 136.127 156.565 136.274 157.2 136.574C157.772 136.861 158.285 137.252 158.712 137.728C159.121 138.216 159.443 138.769 159.664 139.365C159.875 139.963 159.983 140.592 159.982 141.226C159.98 142.08 159.796 142.924 159.44 143.701C159.094 144.455 158.545 145.099 157.853 145.561C157.099 146.066 156.203 146.32 155.295 146.287H151.673V151.981L149.656 151.999ZM151.673 144.557H155.183C155.771 144.589 156.353 144.433 156.845 144.11C157.253 143.808 157.554 143.384 157.704 142.901C157.864 142.363 157.946 141.805 157.947 141.244C157.95 140.667 157.848 140.093 157.648 139.551C157.449 139.072 157.111 138.664 156.677 138.379C156.182 138.084 155.61 137.942 155.034 137.97H151.673V144.557Z" fill="#3AB3FE"/>
</g>
<defs>
<clipPath id="clip0_144_17106">
<rect width="160" height="152" fill="white"/>
</clipPath>
</defs>
</svg>
