<svg width="172" height="161" viewBox="0 0 172 161" fill="none" xmlns="http://www.w3.org/2000/svg">
<g clip-path="url(#clip0_144_17369)">
<path d="M12.3842 5.70039V7.39831H7.14086V13.0985H5.28551V7.39831H-0.0585938V5.70039H5.22502V0.0810547H7.08036V5.78126L12.3842 5.70039Z" fill="#3AB3FE"/>
<path d="M63.8868 5.70039V7.39831H58.6233V13.0985H56.768V7.39831H51.4844V5.70039H56.768V0.0810547H58.6233V5.78126L63.8868 5.70039Z" fill="#3AB3FE"/>
<path d="M118.923 5.70039V7.39831H113.679V13.0985H111.824V7.39831H106.621V5.70039H111.905V0.0810547H113.76V5.78126L118.923 5.70039Z" fill="#3AB3FE"/>
<path d="M171.999 5.70039V7.39831H166.756V13.0985H164.901V7.39831H159.617V5.70039H164.901V0.0810547H166.756V5.78126L171.999 5.70039Z" fill="#3AB3FE"/>
<path d="M12.3842 53.5654V55.2633H7.14086V60.9635H5.28551V55.2633H-0.0585938V53.5654H5.22502V47.8652H7.08036V53.5654H12.3842Z" fill="#3AB3FE"/>
<path d="M63.8868 53.5654V55.2633H58.6233V60.9635H56.768V55.2633H51.4844V53.5654H56.768V47.8652H58.6233V53.5654H63.8868Z" fill="#3AB3FE"/>
<path d="M118.923 53.5654V55.2633H113.679V60.9635H111.824V55.2633H106.621V53.5654H111.905V47.8652H113.76V53.5654H118.923Z" fill="#3AB3FE"/>
<path d="M171.999 53.5654V55.2633H166.756V60.9635H164.901V55.2633H159.617V53.5654H164.901V47.8652H166.756V53.5654H171.999Z" fill="#3AB3FE"/>
<path d="M12.3842 104.302V106H7.14086V111.7H5.28551V106H-0.0585938V104.302H5.22502V98.6016H7.08036V104.302H12.3842Z" fill="#3AB3FE"/>
<path d="M63.8868 104.302V106H58.6233V111.7H56.768V106H51.4844V104.302H56.768V98.6016H58.6233V104.302H63.8868Z" fill="#3AB3FE"/>
<path d="M118.923 104.302V106H113.679V111.7H111.824V106H106.621V104.302H111.905V98.6016H113.76V104.302H118.923Z" fill="#3AB3FE"/>
<path d="M171.999 104.302V106H166.756V111.7H164.901V106H159.617V104.302H164.901V98.6016H166.756V104.302H171.999Z" fill="#3AB3FE"/>
<path d="M12.3842 153.703V155.401H7.14086V161.101H5.28551V155.401H-0.0585938V153.703H5.22502V148.003H7.08036V153.703H12.3842Z" fill="#3AB3FE"/>
<path d="M63.8868 153.703V155.401H58.6233V161.101H56.768V155.401H51.4844V153.703H56.768V148.003H58.6233V153.703H63.8868Z" fill="#3AB3FE"/>
<path d="M118.923 153.703V155.401H113.679V161.101H111.824V155.401H106.621V153.703H111.905V148.003H113.76V153.703H118.923Z" fill="#3AB3FE"/>
<path d="M171.999 153.703V155.401H166.756V161.101H164.901V155.401H159.617V153.703H164.901V148.003H166.756V153.703H171.999Z" fill="#3AB3FE"/>
</g>
<defs>
<clipPath id="clip0_144_17369">
<rect width="172" height="161" fill="white"/>
</clipPath>
</defs>
</svg>
