<svg width="765" height="622" viewBox="0 0 765 622" fill="none" xmlns="http://www.w3.org/2000/svg">
<path d="M156.5 242.5L156.5 299.5L156.5 340.5C156.5 368.114 178.886 390.5 206.5 390.5H382M382 390.5V600.5M382 390.5V273.5M382 390.5H500.5H658C685.614 390.5 708 368.114 708 340.5V273.5V223" stroke="#DFF2FD" stroke-width="38"/>
<rect x="341" y="439" width="97" height="183" fill="url(#paint0_linear_104_12)"/>
<path d="M139.201 295.658V225.71H0V193.427L151.343 6.76311H177.362V192.599H215.523V225.71H177.362V295.658H139.201ZM39.462 192.599H143.104V63.052L39.462 192.599Z" fill="#DFF2FD"/>
<path d="M385.292 298C363.609 298 343.951 293.861 326.316 285.583C308.681 277.306 293.358 266.131 280.349 252.058C267.629 237.71 257.799 221.706 250.861 204.047C243.922 186.112 240.453 167.763 240.453 149C240.453 129.409 244.067 110.784 251.294 93.125C258.811 75.1898 269.074 59.3241 282.083 45.5278C295.382 31.4556 310.849 20.4185 328.484 12.4167C346.119 4.13889 365.344 0 386.159 0C407.842 0 427.5 4.27685 445.135 12.8306C462.771 21.3843 477.948 32.8352 490.669 47.1833C503.389 61.5315 513.218 77.5352 520.157 95.1944C527.095 112.854 530.564 130.927 530.564 149.414C530.564 169.005 526.951 187.768 519.723 205.703C512.496 223.362 502.233 239.228 488.934 253.3C475.925 267.096 460.602 277.995 442.967 285.997C425.332 293.999 406.107 298 385.292 298ZM279.915 149C279.915 163.9 282.373 178.386 287.287 192.458C292.491 206.255 299.719 218.533 308.97 229.294C318.221 240.056 329.351 248.609 342.361 254.956C355.37 261.302 369.825 264.475 385.726 264.475C402.204 264.475 416.948 261.164 429.958 254.542C442.967 247.919 453.953 239.09 462.915 228.053C472.166 217.016 479.105 204.599 483.73 190.803C488.645 177.006 491.102 163.072 491.102 149C491.102 134.1 488.5 119.752 483.297 105.956C478.382 92.1593 471.154 79.8806 461.614 69.1194C452.363 58.0824 441.233 49.5287 428.223 43.4583C415.503 37.112 401.337 33.9389 385.726 33.9389C369.247 33.9389 354.503 37.25 341.493 43.8722C328.484 50.2185 317.354 58.9102 308.102 69.9472C299.14 80.9843 292.202 93.4009 287.287 107.197C282.373 120.718 279.915 134.652 279.915 149Z" fill="#DFF2FD"/>
<path d="M688.678 295.658V225.71H549.477V193.427L700.82 6.76311H726.839V192.599H765V225.71H726.839V295.658H688.678ZM588.939 192.599H692.581V63.052L588.939 192.599Z" fill="#DFF2FD"/>
<line x1="489" y1="270" x2="489" y2="352" stroke="#01A0E2" stroke-width="10"/>
<line x1="472" y1="350.5" x2="505" y2="350.5" stroke="#01A0E2" stroke-width="5"/>
<circle cx="489" cy="226" r="44" fill="white"/>
<path fill-rule="evenodd" clip-rule="evenodd" d="M486.187 182.089C481.377 182.395 476.63 183.494 472.097 185.35C470.756 185.899 467.717 187.427 466.462 188.182C460.813 191.583 455.999 196.16 452.399 201.551C448.289 207.707 445.983 214.138 445.157 221.751C444.948 223.681 444.948 228.332 445.157 230.26C445.436 232.824 445.825 234.977 446.425 237.266C449.943 250.702 459.932 261.9 472.915 266.963C486.432 272.234 501.58 270.576 513.565 262.513C518.631 259.105 523.099 254.504 526.286 249.413C529.992 243.493 532.086 237.353 532.847 230.174C533.028 228.475 533.055 223.931 532.894 222.266C531.975 212.728 528.48 204.441 522.344 197.253C521.41 196.158 518.992 193.743 517.824 192.737C515.038 190.339 511.883 188.229 508.717 186.645C501.786 183.179 493.951 181.594 486.187 182.089ZM509.796 193.192C509.771 193.251 509.248 194.383 508.632 195.706C508.016 197.03 507.5 198.155 507.485 198.206C507.469 198.257 507.902 198.599 508.446 198.966C515.373 203.64 520.458 211.681 521.904 220.247C522.279 222.468 522.34 223.267 522.338 225.92C522.335 229.257 522.074 231.411 521.305 234.429C520.858 236.181 520.706 236.626 520.568 236.591C520.143 236.484 510.024 233.111 509.967 233.057C509.929 233.021 509.996 232.493 510.117 231.883C510.789 228.508 510.944 225.151 510.552 222.481C509.966 218.491 508.34 215.062 505.357 211.522C504.537 210.549 502.54 208.498 502.476 208.562C502.45 208.588 501.885 209.749 501.221 211.14C500.558 212.532 499.986 213.661 499.95 213.648C499.82 213.602 490.373 198.469 490.411 198.369C490.433 198.312 490.851 198.058 491.34 197.805C497.027 194.863 501.798 193.61 509.091 193.143C509.328 193.128 509.593 193.109 509.681 193.1C509.779 193.091 509.824 193.126 509.796 193.192ZM482.666 193.536C482.761 193.913 484.882 204.132 484.899 204.292C484.913 204.426 484.733 204.516 483.841 204.818C476.233 207.397 471.543 211.572 468.973 218.055C468.386 219.537 467.324 223.027 467.429 223.132C467.445 223.148 468.617 223.064 470.035 222.946C471.453 222.828 472.735 222.743 472.885 222.757L473.158 222.782L468.971 230.705C466.668 235.063 464.76 238.653 464.729 238.683C464.592 238.818 461.693 236.883 459.964 235.504C456.639 232.849 454.132 230.075 451.29 225.905L450.372 224.558L450.61 224.512C450.74 224.486 452.009 224.362 453.428 224.236C454.848 224.111 456.022 223.996 456.038 223.982C456.053 223.969 456.1 223.453 456.141 222.836C456.646 215.219 460.357 207.489 466.167 201.948C470.329 197.979 475.376 195.201 481.26 193.641C482.562 193.295 482.605 193.292 482.666 193.536ZM473.677 240.716C475.22 242.157 477.651 243.928 479.435 244.909C481.556 246.076 483.845 246.883 486.164 247.281C487.271 247.471 490.416 247.547 491.684 247.415C493.418 247.234 496.747 246.575 497.671 246.23C497.856 246.161 497.786 246.04 496.257 243.777C495.372 242.467 494.665 241.381 494.686 241.364C494.707 241.346 496.524 241.286 498.724 241.231C500.925 241.176 504.984 241.07 507.744 240.997C510.505 240.923 512.774 240.875 512.788 240.891C512.801 240.906 512.778 241.576 512.736 242.38C512.465 247.628 511.262 252.256 508.792 257.551C508.171 258.882 507.416 260.335 507.371 260.285C507.357 260.271 506.641 259.234 505.778 257.981C504.915 256.728 504.195 255.687 504.177 255.667C504.159 255.647 503.612 255.886 502.961 256.197C499.976 257.627 496.61 258.535 492.788 258.941C491.506 259.077 487.776 259.078 486.508 258.943C479.518 258.198 473.422 255.611 468.054 251.111C467.189 250.387 464.814 248.093 464.56 247.738L464.396 247.509L467.338 244.945C468.956 243.534 470.863 241.868 471.576 241.243C472.289 240.618 472.905 240.106 472.945 240.104C472.986 240.103 473.315 240.379 473.677 240.716Z" fill="#3AB3FE"/>
<defs>
<linearGradient id="paint0_linear_104_12" x1="389.5" y1="439" x2="389.5" y2="622" gradientUnits="userSpaceOnUse">
<stop stop-color="white" stop-opacity="0"/>
<stop offset="1" stop-color="white"/>
</linearGradient>
</defs>
</svg>
