<svg width="100" height="100" viewBox="0 0 100 100" fill="none" xmlns="http://www.w3.org/2000/svg">
<g clip-path="url(#clip0_232_8546)">
<path d="M50.0063 100.013C77.6241 100.013 100.013 77.6241 100.013 50.0063C100.013 22.3886 77.6241 0 50.0063 0C22.3886 0 0 22.3886 0 50.0063C0 77.6241 22.3886 100.013 50.0063 100.013Z" fill="url(#paint0_linear_232_8546)"/>
<path d="M49.163 62.748C54.1546 62.748 58.2011 58.7015 58.2011 53.7099C58.2011 48.7183 54.1546 44.6719 49.163 44.6719C44.1715 44.6719 40.125 48.7183 40.125 53.7099C40.125 58.7015 44.1715 62.748 49.163 62.748Z" fill="url(#paint1_linear_232_8546)"/>
<path d="M27.6842 54.3674C26.3556 54.3616 25.0519 54.0069 23.9036 53.3389C22.7552 52.6708 21.8025 51.7129 21.1407 50.5609C20.479 49.4089 20.1314 48.1033 20.1328 46.7748C20.1343 45.4462 20.4847 44.1414 21.149 42.9908C24.2956 37.5443 28.8923 33.0782 34.4272 30.0898C39.9621 27.1015 46.2178 25.7081 52.4977 26.065C69.9924 27.1142 78.7903 41.3854 79.7383 43.016C80.6118 44.745 80.7905 46.7427 80.2381 48.5992C79.6856 50.4558 78.4437 52.0306 76.7671 53.0007C75.0904 53.9708 73.1061 54.2626 71.2212 53.8163C69.3363 53.37 67.6935 52.2193 66.6299 50.6004C66.4277 50.2338 61.3588 41.752 51.575 41.1453C48.0924 40.9912 44.634 41.7932 41.5747 43.4644C38.5153 45.1355 35.9717 47.6121 34.2194 50.6257C33.5502 51.7645 32.5952 52.7087 31.449 53.3649C30.3027 54.0212 29.005 54.3668 27.6842 54.3674Z" fill="#6DCDFC"/>
</g>
<defs>
<linearGradient id="paint0_linear_232_8546" x1="0" y1="50.0063" x2="100" y2="50.0063" gradientUnits="userSpaceOnUse">
<stop offset="0.26" stop-color="#3AB3FE"/>
<stop offset="1" stop-color="#3AB3FE"/>
</linearGradient>
<linearGradient id="paint1_linear_232_8546" x1="40.125" y1="53.7099" x2="58.2137" y2="53.7099" gradientUnits="userSpaceOnUse">
<stop offset="0.26" stop-color="white"/>
<stop offset="1" stop-color="#8CD0FD"/>
</linearGradient>
<clipPath id="clip0_232_8546">
<rect width="100" height="100" fill="white"/>
</clipPath>
</defs>
</svg>
