<svg width="100" height="100" viewBox="0 0 100 100" fill="none" xmlns="http://www.w3.org/2000/svg">
<path d="M50 100C77.6142 100 100 77.6142 100 50C100 22.3858 77.6142 0 50 0C22.3858 0 0 22.3858 0 50C0 77.6142 22.3858 100 50 100Z" fill="url(#paint0_linear_232_8557)"/>
<path d="M68.2595 58.7462C66.2508 58.7478 64.3235 57.9524 62.9006 56.5344L41.1994 34.8206C39.8598 33.383 39.1306 31.4816 39.1652 29.517C39.1999 27.5524 39.9958 25.6779 41.3852 24.2885C42.7746 22.8991 44.6491 22.1032 46.6137 22.0686C48.5783 22.0339 50.4797 22.7632 51.9173 24.1027L73.6185 45.8039C74.6777 46.8644 75.3989 48.2151 75.691 49.6852C75.983 51.1554 75.8328 52.6791 75.2594 54.064C74.686 55.4489 73.715 56.6327 72.4692 57.4661C71.2233 58.2994 69.7584 58.7449 68.2595 58.7462Z" fill="url(#paint1_linear_232_8557)"/>
<path d="M46.9275 80.3467C45.4207 80.353 43.9463 79.9103 42.6923 79.075C41.4382 78.2398 40.4614 77.0499 39.8864 75.6572C39.3114 74.2645 39.1643 72.7321 39.4639 71.2555C39.7635 69.7788 40.4962 68.4249 41.5685 67.3664L63.2697 45.6652C64.7073 44.3257 66.6087 43.5964 68.5733 43.6311C70.5379 43.6657 72.4124 44.4617 73.8018 45.8511C75.1912 47.2405 75.9871 49.1149 76.0218 51.0796C76.0564 53.0442 75.3272 54.9455 73.9876 56.3831L52.2864 78.097C51.585 78.8059 50.7506 79.3695 49.831 79.7556C48.9115 80.1416 47.9248 80.3425 46.9275 80.3467Z" fill="url(#paint2_linear_232_8557)"/>
<path d="M39.5373 59.2013C37.5268 59.1995 35.5992 58.3995 34.1784 56.9769L12.4645 35.2756C11.0416 33.8527 10.2422 31.9227 10.2422 29.9104C10.2422 27.898 11.0416 25.9681 12.4645 24.5451C13.8875 23.1222 15.8174 22.3228 17.8298 22.3228C19.8422 22.3228 21.7721 23.1222 23.1951 24.5451L44.8963 46.259C45.9555 47.3195 46.6767 48.6701 46.9687 50.1403C47.2608 51.6105 47.1106 53.1342 46.5372 54.5191C45.9638 55.9039 44.9928 57.0878 43.747 57.9212C42.5011 58.7546 41.0362 59.2 39.5373 59.2013Z" fill="#6DCDFC"/>
<path d="M18.2114 80.8016C16.7089 80.8052 15.2391 80.3625 13.9886 79.5295C12.7381 78.6964 11.7632 77.5107 11.1877 76.1227C10.6122 74.7347 10.462 73.207 10.7561 71.7335C11.0503 70.26 11.7755 68.9072 12.8398 67.8465L34.5537 46.1454C35.9806 44.7431 37.9038 43.9615 39.9043 43.9708C41.9049 43.9801 43.8207 44.7796 45.2345 46.195C46.6483 47.6105 47.4455 49.5273 47.4525 51.5278C47.4594 53.5284 46.6755 55.4506 45.2716 56.8759L23.5704 78.5771C22.1496 79.9996 20.222 80.7998 18.2114 80.8016Z" fill="#6DCDFC"/>
<path fill-rule="evenodd" clip-rule="evenodd" d="M4.3362 70.3975L16.8722 57.8615C17.5854 57.159 18.1524 56.3223 18.5406 55.3995C18.9287 54.4768 19.1303 53.4864 19.1338 52.4853C19.1373 51.4843 18.9426 50.4924 18.5608 49.567C18.1791 48.6416 17.6178 47.801 16.9096 47.0935C16.2874 46.4721 15.5625 45.9642 14.7679 45.5919L2.76335 33.5664C0.972935 38.7134 0 44.243 0 49.9999C0 50.7671 0.0172786 51.5303 0.0514677 52.289L0.527126 52.7647L0.100252 53.1921C0.484334 59.2882 1.96083 65.0878 4.3362 70.3975Z" fill="#6DCDFC"/>
<defs>
<linearGradient id="paint0_linear_232_8557" x1="0.012639" y1="50" x2="100" y2="50" gradientUnits="userSpaceOnUse">
<stop offset="0.26" stop-color="#3AB3FE"/>
<stop offset="1" stop-color="#3AB3FE"/>
</linearGradient>
<linearGradient id="paint1_linear_232_8557" x1="38.9623" y1="40.3185" x2="75.8303" y2="40.3185" gradientUnits="userSpaceOnUse">
<stop stop-color="#8CD0FD"/>
<stop offset="0.78" stop-color="white"/>
</linearGradient>
<linearGradient id="paint2_linear_232_8557" x1="39.344" y1="61.919" x2="76.2121" y2="61.919" gradientUnits="userSpaceOnUse">
<stop stop-color="#8CD0FD"/>
<stop offset="0.78" stop-color="white"/>
</linearGradient>
</defs>
</svg>
