<svg width="100" height="100" viewBox="0 0 100 100" fill="none" xmlns="http://www.w3.org/2000/svg">
<g clip-path="url(#clip0_232_8550)">
<path d="M50.0063 100.013C77.6241 100.013 100.013 77.6241 100.013 50.0063C100.013 22.3886 77.6241 0 50.0063 0C22.3886 0 0 22.3886 0 50.0063C0 77.6241 22.3886 100.013 50.0063 100.013Z" fill="url(#paint0_linear_232_8550)"/>
<path d="M45.9961 76.5516C43.9853 76.5498 42.0574 75.7496 40.6364 74.3268L27.1868 60.8772C25.9079 59.4281 25.2305 57.5453 25.293 55.6135C25.3556 53.6817 26.1532 51.8466 27.5232 50.4832C28.8931 49.1197 30.7319 48.3307 32.6639 48.2773C34.596 48.2239 36.4756 48.9102 37.9187 50.1959L51.3683 63.6455C52.4285 64.707 53.15 66.0589 53.4417 67.5304C53.7333 69.002 53.5821 70.5269 53.007 71.9125C52.432 73.298 51.4589 74.482 50.211 75.3145C48.963 76.147 47.4962 76.5907 45.9961 76.5895V76.5516Z" fill="#6DCDFC"/>
<path d="M47.4362 77.0823C45.9293 77.0886 44.4547 76.6458 43.2005 75.8105C41.9463 74.9752 40.9693 73.7852 40.3943 72.3923C39.8192 70.9994 39.6721 69.4668 39.9718 67.99C40.2714 66.5131 41.0042 65.159 42.0766 64.1004L68.4323 37.7447C69.8594 36.3423 71.7828 35.5606 73.7836 35.5699C75.7844 35.5792 77.7005 36.3788 79.1145 37.7944C80.5285 39.21 81.3257 41.127 81.3327 43.1279C81.3396 45.1287 80.5557 47.0512 79.1516 48.4766L52.7958 74.8323C52.0943 75.5413 51.2599 76.1051 50.3402 76.4911C49.4205 76.8772 48.4337 77.0781 47.4362 77.0823Z" fill="url(#paint1_linear_232_8550)"/>
<path d="M49.749 46.1381C54.7406 46.1381 58.787 42.0916 58.787 37.1001C58.787 32.1085 54.7406 28.062 49.749 28.062C44.7574 28.062 40.7109 32.1085 40.7109 37.1001C40.7109 42.0916 44.7574 46.1381 49.749 46.1381Z" fill="#6DCDFC"/>
</g>
<defs>
<linearGradient id="paint0_linear_232_8550" x1="0" y1="50.0063" x2="100" y2="50.0063" gradientUnits="userSpaceOnUse">
<stop offset="0.26" stop-color="#3AB3FE"/>
<stop offset="1" stop-color="#3AB3FE"/>
</linearGradient>
<linearGradient id="paint1_linear_232_8550" x1="39.8519" y1="56.3138" x2="81.3763" y2="56.3138" gradientUnits="userSpaceOnUse">
<stop offset="0.26" stop-color="white"/>
<stop offset="1" stop-color="#8CD0FD"/>
</linearGradient>
<clipPath id="clip0_232_8550">
<rect width="100" height="100" fill="white"/>
</clipPath>
</defs>
</svg>
