<svg width="100" height="100" viewBox="0 0 100 100" fill="none" xmlns="http://www.w3.org/2000/svg">
<path fill-rule="evenodd" clip-rule="evenodd" d="M37.797 2.33954C37.2507 2.57526 36.0663 3.14254 35.1649 3.60034L33.5262 4.43245L30.8381 4.25457C27.2222 4.01521 27.1625 4.03958 24.7628 6.74252L22.925 8.81269L20.3929 9.68336C17.0005 10.8498 16.8439 11.0071 15.7025 14.3952L14.8414 16.9508L12.7543 18.824C11.4259 20.0164 10.57 20.9318 10.3997 21.3423C10.1823 21.8665 10.1552 22.5178 10.2558 24.8192L10.3795 27.6509L9.18966 30.1972C8.43201 31.8189 8 32.9747 8 33.3801C8 33.7855 8.43201 34.9414 9.18966 36.5631L10.3795 39.1094L10.2558 41.9411C10.1552 44.2424 10.1823 44.8938 10.3997 45.4179C10.57 45.8283 11.4256 46.7435 12.7523 47.9345L14.8374 49.8058L15.6687 52.2609C16.126 53.6112 16.6662 54.9507 16.8692 55.2377C17.3278 55.8863 17.9821 56.2155 20.7496 57.1904L22.9369 57.9608L24.7785 60.0354C26.331 61.784 26.7607 62.1601 27.5129 62.4291L28.4055 62.7483V77.1679V91.5874L28.9925 92.2277C29.3945 92.6662 29.7981 92.903 30.2733 92.979C30.8977 93.079 31.3824 92.883 35.1045 91.0243L39.2419 88.9583L43.3792 91.0243C47.0894 92.877 47.5872 93.0787 48.2014 92.9783C48.6194 92.9101 49.1012 92.6502 49.4371 92.3119L49.988 91.7573L50.0783 83.1556L50.1686 74.5539L55.1136 80.6851C57.8335 84.0574 60.2551 86.9065 60.4951 87.0167C61.1032 87.2958 61.9212 87.2665 62.5411 86.9436C63.1051 86.6499 63.2557 86.3631 65.617 81.0809C66.3584 79.4223 67.062 78.0895 67.222 78.0405C67.3786 77.9929 69.3577 77.5411 71.62 77.0369C73.8821 76.5326 75.8841 76.0249 76.0689 75.9087C76.6045 75.5719 76.9887 74.7618 76.9887 73.9689C76.9887 73.1125 77.6676 74.017 68.5076 62.6721C64.9982 58.3255 62.1181 54.6833 62.1076 54.5784C62.0971 54.4733 62.4363 53.3643 62.8613 52.1139L63.6339 49.8404L65.7235 47.9556C67.0542 46.7553 67.911 45.8352 68.0824 45.4219C68.3019 44.8929 68.3288 44.2492 68.228 41.9411L68.1043 39.1094L69.2941 36.5631C70.0518 34.9414 70.4838 33.7855 70.4838 33.3801C70.4838 32.9747 70.0518 31.8189 69.2941 30.1972L68.1043 27.6509L68.228 24.8192C68.3288 22.5111 68.3019 21.8674 68.0824 21.3383C67.911 20.9251 67.0542 20.0049 65.7235 18.8047L63.6337 16.9199L62.7771 14.3797C61.6398 11.0078 61.4814 10.849 58.088 9.67827L55.5498 8.80251L53.7164 6.73743C51.3232 4.04176 51.2587 4.01539 47.6592 4.25366L44.9846 4.43063L42.6008 3.25113C39.7926 1.86173 39.1761 1.74479 37.797 2.33954ZM41.6768 7.65229L44.1649 8.8427L46.1734 8.73685C47.278 8.67865 48.4666 8.59535 48.8146 8.55169C49.4232 8.47549 49.517 8.55078 51.2842 10.5322L53.1212 12.592L55.6495 13.4674L58.178 14.3428L58.9363 16.5408C59.3535 17.7496 59.8041 18.9548 59.938 19.2189C60.0716 19.4829 61.0438 20.4651 62.0984 21.4014L64.0159 23.1038L63.9054 24.6498C63.6231 28.5965 63.5889 28.3738 64.8824 31.0042L66.051 33.3801L64.8824 35.756C63.5889 38.3864 63.6231 38.1638 63.9054 42.1104L64.0159 43.6564L62.0984 45.3588C61.0438 46.2952 60.0716 47.2773 59.938 47.5414C59.8041 47.8055 59.3535 49.0107 58.9363 50.2194L58.178 52.4175L55.6495 53.2929L53.1212 54.1683L51.2842 56.2281C49.517 58.2095 49.4232 58.2848 48.8146 58.2086C48.4666 58.1649 47.278 58.0816 46.1734 58.0234L44.1649 57.9176L41.7028 59.0956L39.241 60.2736L36.8051 59.094L34.3691 57.9143L32.3355 58.0218C31.217 58.0809 30.0172 58.1649 29.6692 58.2086C29.0605 58.2848 28.9668 58.2097 27.1985 56.2268L25.3605 54.1657L22.8284 53.2779L20.2964 52.3902L19.5428 50.2058C19.1281 49.0045 18.6796 47.8055 18.5458 47.5414C18.4122 47.2773 17.44 46.2952 16.3854 45.3588L14.4679 43.6564L14.5784 42.1104C14.8607 38.1638 14.8948 38.3864 13.6013 35.756L12.4328 33.3801L13.6013 31.0042C14.8948 28.3738 14.8607 28.5965 14.5784 24.6498L14.4679 23.1038L16.3854 21.4014C17.44 20.4651 18.4122 19.4829 18.5458 19.2189C18.6796 18.9548 19.1281 17.7558 19.5428 16.5545L20.2964 14.3701L22.8284 13.4823L25.3605 12.5946L27.199 10.53C28.885 8.637 29.0826 8.47239 29.5794 8.54624C29.8774 8.59062 31.0965 8.67173 32.2885 8.7263L34.4558 8.82579L36.8037 7.65938C38.095 7.01771 39.1601 6.48589 39.1704 6.47734C39.1805 6.46879 40.3086 6.99752 41.6768 7.65229ZM36.2619 12.4836C34.4836 12.7415 32.0355 13.5116 30.2421 14.3772C22.0368 18.3373 17.2454 27.2351 18.4851 36.2113C20.0893 47.825 30.85 55.9558 42.3129 54.2155C46.7116 53.5479 50.4307 51.7014 53.6538 48.5854C55.5117 46.789 56.6952 45.2282 57.749 43.1843C62.0261 34.8883 60.5148 24.9728 53.9758 18.4302C49.3671 13.8192 42.634 11.5587 36.2619 12.4836ZM42.0017 16.9181C49.0458 18.155 54.3603 23.5071 55.5886 30.6008C57.151 39.6238 51.0599 48.2515 42.0043 49.8418C35.564 50.9728 29.0107 48.0765 25.3682 42.4893C21.9325 37.2195 21.7489 30.464 24.8932 25.0136C28.3833 18.9637 35.2225 15.7275 42.0017 16.9181ZM39.1516 21.9087C38.9529 21.9993 37.3049 23.5769 35.4891 25.4146C32.7372 28.2002 32.1706 28.8638 32.0837 29.4031C31.8672 30.7463 33.0922 32.0233 34.4379 31.8572C35.0195 31.7856 35.3744 31.5384 36.4698 30.4427L37.797 29.115V33.4114V37.708L36.2653 37.772C34.8136 37.833 34.7027 37.8673 34.1432 38.4308C33.6351 38.9426 33.5528 39.1512 33.5528 39.9279C33.5528 40.7045 33.635 40.9131 34.1432 41.4249L34.7336 42.0195H39.9643H45.195L45.7854 41.4249C46.2937 40.9131 46.3759 40.7045 46.3759 39.9279C46.3759 39.1512 46.2935 38.9426 45.7854 38.4308C45.2263 37.8677 45.1143 37.8328 43.6691 37.7724L42.1433 37.7084L42.0922 30.364L42.0413 23.0196L41.4827 22.4571C40.884 21.8543 39.8202 21.604 39.1516 21.9087ZM64.624 64.7776C68.062 69.0416 70.8078 72.5916 70.726 72.6665C70.6442 72.7414 69.2361 73.0997 67.5971 73.4628C65.8949 73.84 64.4235 74.2671 64.1656 74.4591C63.879 74.6725 63.2149 75.8849 62.3476 77.7777C61.5959 79.4181 60.932 80.7602 60.8724 80.7602C60.8126 80.7602 58.3595 77.781 55.421 74.1399L50.0783 67.5196V65.1341V62.7483L50.9708 62.4291C51.7236 62.1599 52.1531 61.7836 53.7137 60.0259C55.4922 58.0225 55.6133 57.9247 56.8397 57.4976C57.5411 57.2533 58.1733 57.0469 58.2442 57.0391C58.315 57.0312 61.186 60.5135 64.624 64.7776ZM35.9256 63.527C39.2141 65.1395 39.2957 65.1392 42.6479 63.4875C44.128 62.7583 45.2857 62.2927 45.4553 62.3582C45.7156 62.4588 45.7437 63.6768 45.7437 74.8434C45.7437 81.6489 45.7065 87.217 45.6612 87.217C45.6159 87.217 44.2664 86.5622 42.6622 85.7619C41.0582 84.9617 39.5191 84.3069 39.2419 84.3069C38.9647 84.3069 37.4255 84.9617 35.8216 85.7619C34.2174 86.5622 32.8679 87.217 32.8226 87.217C32.69 87.217 32.7278 62.5543 32.8605 62.4206C33.0948 62.1845 33.4482 62.3122 35.9256 63.527Z" fill="black"/>
</svg>
