<svg width="100" height="100" viewBox="0 0 100 100" fill="none" xmlns="http://www.w3.org/2000/svg">
<path fill-rule="evenodd" clip-rule="evenodd" d="M20.8124 15.1364C5.62187 20.6541 1.11212 22.3543 0.75217 22.6992C0.172374 23.2547 -0.111619 24.1636 0.0406314 24.9758C0.276717 26.2342 0.555132 26.3764 8.53775 29.315L15.8782 32.0171L15.8796 40.1587C15.8804 44.6366 15.9293 48.5416 15.9883 48.8366C16.1393 49.5918 17.9346 51.4411 19.5583 52.5144C24.9657 56.0887 32.4128 57.716 42.2888 57.4819C49.4802 57.3112 54.7033 56.2698 59.2969 54.0905C61.8118 52.8975 64.216 51.1804 65.2266 49.8559L65.674 49.2694L65.756 40.7429L65.838 32.2164L68.7091 31.1756C70.2882 30.6032 71.6355 30.1338 71.7033 30.1325C71.771 30.1313 71.8263 34.7226 71.8263 40.3352V50.5402L68.3141 54.0758C63.3448 59.078 63.3453 58.6042 68.3046 63.5988L71.8073 67.1265L71.8578 70.2732C71.9044 73.1722 71.9356 73.4563 72.2537 73.8825C73.3055 75.292 75.269 75.292 76.3208 73.8825C76.6393 73.456 76.6699 73.1741 76.7146 70.2732L76.763 67.1265L80.1028 63.7632C81.9396 61.9134 83.5606 60.1636 83.7048 59.8749C84.0383 59.2068 84.0383 58.4758 83.7048 57.8077C83.5606 57.519 81.9359 55.7681 80.0943 53.9168L76.7459 50.5509L76.7881 39.4047L76.8302 28.2582L79.0475 27.4307C81.8509 26.3842 81.9616 26.3172 82.3544 25.4295C82.7837 24.4586 82.6417 23.5605 81.939 22.8068C81.4701 22.3038 79.656 21.6145 61.704 15.1182C45.3706 9.20731 41.8488 7.98504 41.1962 8.00014C40.5974 8.01408 35.7058 9.72657 20.8124 15.1364ZM57.0607 18.6726C65.5879 21.7555 72.6165 24.3214 72.6798 24.3744C72.7433 24.4276 65.5926 27.0665 56.7897 30.2388L40.7841 36.0066L25.2095 30.2393C14.3702 26.2255 9.72393 24.4341 9.92786 24.3473C11.1685 23.8189 40.9734 13.0902 41.2287 13.08C41.4091 13.0729 48.5336 15.5895 57.0607 18.6726ZM30.5074 37.4663C38.0705 40.2807 40.2353 41.0253 40.8185 41.0121C41.3384 41.0003 44.3869 39.9712 51.1274 37.5315C56.3913 35.6266 60.7288 34.0679 60.7661 34.0679C60.8035 34.0679 60.8341 37.0525 60.8341 40.7004V47.333L60.2537 47.8114C57.4107 50.1548 51.7648 51.9041 45.2682 52.454C42.4457 52.6931 36.6121 52.569 34.092 52.2166C28.6069 51.4495 24.0346 49.9038 21.6316 48.0043L20.8029 47.3492V40.6266C20.8029 36.9291 20.8326 33.9038 20.8687 33.9038C20.9049 33.9038 25.2424 35.5069 30.5074 37.4663ZM76.175 57.0376L77.9749 58.8433L76.1312 60.687L74.2873 62.5309L72.4434 60.687L70.5996 58.8433L72.3996 57.0376C73.3897 56.0445 74.239 55.2319 74.2873 55.2319C74.3355 55.2319 75.1849 56.0445 76.175 57.0376Z" fill="black"/>
</svg>
