<svg width="100" height="100" viewBox="0 0 100 100" fill="none" xmlns="http://www.w3.org/2000/svg">
<path fill-rule="evenodd" clip-rule="evenodd" d="M23.4232 8.10222C20.9708 8.58884 18.8948 10.708 18.4206 13.2091C18.3247 13.7141 18.275 23.23 18.275 41.0467V68.1172H16.9861C15.3979 68.1172 14.7189 68.4029 14.2846 69.2541C14.0445 69.7249 13.9981 70.0912 14.0001 71.4977C14.0015 72.4223 14.0969 73.6278 14.2121 74.1768C14.8859 77.3859 17.5609 80.0609 20.7701 80.7348C22.2697 81.0496 70.1709 81.0496 71.6705 80.7348C74.8796 80.0609 77.5547 77.3859 78.2285 74.1768C78.408 73.3217 78.4384 69.7302 78.4405 49.1187L78.443 25.0586H81.8705C85.0244 25.0586 85.343 25.0356 85.8607 24.7716C86.2324 24.582 86.526 24.2835 86.7253 23.8929C87.0135 23.3281 87.0239 23.1528 86.9586 20.0096C86.8873 16.5855 86.8184 16.1224 86.1392 14.5078C85.113 12.0682 82.8947 9.8508 80.439 8.81012C78.4502 7.96734 80.6884 8.02894 51.1392 8.00242C36.2049 7.98887 23.7684 8.03364 23.4232 8.10222ZM74.1313 42.8452L74.0943 73.4639L73.7879 74.1267C73.3953 74.976 72.4659 75.9042 71.6204 76.2912C70.6997 76.7128 69.0769 76.7128 68.1561 76.2912C67.3063 75.9021 66.3774 74.9718 65.9953 74.1267C65.7568 73.5993 65.6794 73.0706 65.6162 71.5391C65.5248 69.3168 65.356 68.8542 64.473 68.4038C63.9181 68.1206 63.6636 68.1172 43.2319 68.1172H22.5523V41.0216C22.5523 14.1581 22.5547 13.9214 22.8391 13.3641C23.0143 13.0206 23.3331 12.6927 23.6589 12.5206C24.1837 12.2435 24.5829 12.2391 49.1801 12.2329L74.1682 12.2266L74.1313 42.8452ZM79.4657 13.1067C80.9358 13.8903 82.194 15.608 82.5599 17.3307C82.6482 17.7463 82.7203 18.6926 82.7203 19.4338V20.7813H80.5816H78.443V16.7178C78.443 14.4829 78.4822 12.6543 78.5299 12.6543C78.5778 12.6543 78.9989 12.8579 79.4657 13.1067ZM54.7371 16.7199C50.7912 17.4682 47.3367 20.1006 45.572 23.7041C44.5985 25.6919 44.3259 26.8954 44.3125 29.2647C44.2993 31.5714 44.5765 32.8757 45.494 34.8252C46.0194 35.9414 47.394 37.9056 48.1308 38.5927L48.5015 38.9384V46.2725C48.5015 53.4785 48.5068 53.6161 48.8035 54.144C49.1383 54.7397 49.9767 55.2852 50.5572 55.2852C51.1803 55.2852 51.7612 54.9696 54.4684 53.1607L57.0562 51.4317L59.644 53.1607C62.3513 54.9696 62.9322 55.2852 63.5552 55.2852C64.1358 55.2852 64.9742 54.7397 65.3089 54.144C65.6056 53.6161 65.6109 53.4785 65.6109 46.2725V38.9384L65.9816 38.5927C66.7185 37.9056 68.0931 35.9414 68.6185 34.8252C69.536 32.8757 69.8131 31.5714 69.8 29.2647C69.7866 26.8959 69.5141 25.6926 68.5408 23.7041C66.9372 20.428 63.7819 17.8439 60.2642 16.9255C58.7546 16.5314 56.2269 16.4375 54.7371 16.7199ZM27.9362 21.0753C27.3343 21.3931 26.8297 22.2343 26.8297 22.9199C26.8297 23.6274 27.334 24.4488 27.9666 24.7716C28.497 25.0421 28.8001 25.0586 33.2457 25.0586C37.6913 25.0586 37.9944 25.0421 38.5248 24.7716C39.1574 24.4488 39.6617 23.6274 39.6617 22.9199C39.6617 22.2125 39.1574 21.3911 38.5248 21.0683C37.9934 20.7972 37.6983 20.7815 33.2157 20.7875C28.772 20.7935 28.4352 20.8118 27.9362 21.0753ZM58.8385 20.9957C62.6859 21.8035 65.6059 25.4021 65.6059 29.3359C65.6059 33.9492 61.6695 37.8856 57.0562 37.8856C53.1224 37.8856 49.5238 34.9656 48.716 31.1182C48.1067 28.216 48.9371 25.4527 51.055 23.3347C53.1741 21.2156 55.9346 20.386 58.8385 20.9957ZM27.9362 33.9073C27.3343 34.2251 26.8297 35.0663 26.8297 35.752C26.8297 36.4594 27.334 37.2808 27.9666 37.6036C28.497 37.8741 28.8001 37.8906 33.2457 37.8906C37.6913 37.8906 37.9944 37.8741 38.5248 37.6036C39.1574 37.2808 39.6617 36.4594 39.6617 35.752C39.6617 35.0445 39.1574 34.2231 38.5248 33.9003C37.9934 33.6293 37.6983 33.6136 33.2157 33.6196C28.772 33.6255 28.4352 33.6438 27.9362 33.9073ZM54.2047 41.8493C55.9682 42.2909 59.5301 42.1208 61.0841 41.521C61.3179 41.4306 61.3336 41.6668 61.3336 45.2873V49.1499L59.6302 48.0245C57.8522 46.8497 57.3458 46.6442 56.6209 46.8035C56.3814 46.8561 55.419 47.4054 54.4823 48.0245L52.7789 49.1499V45.2873C52.7789 41.6668 52.7946 41.4306 53.0284 41.521C53.1656 41.5738 53.695 41.7217 54.2047 41.8493ZM27.9362 47.0245C27.3343 47.3423 26.8297 48.1835 26.8297 48.8691C26.8297 49.5766 27.334 50.398 27.9666 50.7208C28.5078 50.997 28.795 51.0078 35.5269 51.0078C42.2589 51.0078 42.5461 50.997 43.0873 50.7208C43.7199 50.398 44.2242 49.5766 44.2242 48.8691C44.2242 48.1617 43.7199 47.3403 43.0873 47.0175C42.5453 46.741 42.2656 46.7308 35.497 46.7367C28.7818 46.7427 28.4457 46.7556 27.9362 47.0245ZM27.9362 59.8565C27.3343 60.1743 26.8297 61.0155 26.8297 61.7012C26.8297 62.4086 27.334 63.23 27.9666 63.5528C28.5225 63.8364 28.7665 63.8398 48.359 63.8398C67.9515 63.8398 68.1954 63.8364 68.7514 63.5528C69.384 63.23 69.8883 62.4086 69.8883 61.7012C69.8883 60.9937 69.384 60.1723 68.7514 59.8495C68.1953 59.5658 67.9579 59.5626 48.329 59.5688C28.8377 59.575 28.4595 59.5803 27.9362 59.8565ZM61.3336 72.8707C61.3336 73.5283 61.8242 75.3864 62.1842 76.0919L62.4819 76.6757L41.9824 76.6381L21.483 76.6006L20.8201 76.2942C19.5371 75.701 18.5599 74.4037 18.3344 72.9945L18.2385 72.3945H39.786H61.3336V72.8707Z" fill="black"/>
</svg>
