<svg width="126" height="175" viewBox="0 0 126 175" fill="none" xmlns="http://www.w3.org/2000/svg">
<path fill-rule="evenodd" clip-rule="evenodd" d="M56.9509 0.309312C44.856 2.08403 36.1678 6.05011 28.468 13.3111C23.2315 18.2493 21.1067 22.1542 19.3896 29.9955C17.8394 37.0757 17.6903 43.7402 18.921 50.9767C20.1574 58.248 22.178 63.123 26.9116 70.254C29.0195 73.4296 30.186 74.8207 32.9567 77.4613L36.3894 80.7331L36.3864 83.4988C36.379 90.8443 34.4155 101.432 31.7854 108.311C30.4118 111.904 26.0314 120.455 18.045 135.135C10.16 149.629 6.12555 157.678 3.6135 163.926C1.90882 168.167 0 173.815 0 174.619C0 174.929 10.271 175 54.8799 175C85.0639 175 109.76 174.921 109.76 174.824C109.76 174.727 108.797 173.431 107.621 171.945C106.445 170.458 104.163 167.049 102.551 164.369C98.4378 157.535 98.2422 157.271 94.2257 153.148C90.4235 149.246 88.77 147.045 87.0484 143.598C86.1559 141.811 85.9713 141.097 85.8538 138.982C85.7775 137.605 85.8695 135.014 86.0586 133.223C86.2476 131.433 86.5251 127.377 86.6754 124.209C86.9896 117.582 87.4026 115.738 88.9259 114.159C91.6072 111.382 96.3207 109.531 101.772 109.116C106.893 108.726 112.315 107.779 113.896 106.999C115.738 106.089 116.617 104.316 116.801 101.142C116.919 99.1219 116.82 98.4298 116.11 96.2972C115.332 93.9614 115.307 93.7319 115.698 92.5499C115.927 91.8574 116.629 90.7763 117.259 90.1477L118.405 89.0046L117.515 87.2821L116.625 85.5597L117.442 85.3804C119.528 84.9233 119.947 83.4652 119.023 79.8685C118.48 77.7521 118.695 76.9625 119.815 76.9625C120.726 76.9625 124.496 74.8999 125.276 73.9744C126.77 72.2021 125.954 69.7296 122.803 66.4855C120.602 64.2197 117.368 59.5095 115.981 56.5483C115.144 54.7626 115.077 54.3259 114.65 47.8761C113.809 35.1646 112.746 29.733 109.893 23.5684C107.539 18.4835 102.92 12.9839 98.6531 10.1848C93.3119 6.68116 84.2364 3.127 76.6248 1.55811C69.6354 0.117667 61.693 -0.386399 56.9509 0.309312Z" fill="url(#paint0_linear_232_7351)" fill-opacity="0.2"/>
<path fill-rule="evenodd" clip-rule="evenodd" d="M60.4591 10.2563C50.38 11.7268 43.1398 15.013 36.7234 21.0292C32.3596 25.1208 30.5889 28.3564 29.158 34.8534C27.8662 40.7199 27.7419 46.2419 28.7675 52.2378C29.7978 58.2626 31.4817 62.3019 35.4263 68.2105C37.1829 70.8417 38.155 71.9943 40.4639 74.1822L43.3245 76.8932L43.322 79.1848C43.3159 85.271 41.6796 94.0439 39.4878 99.7438C38.3431 102.72 34.6929 109.806 28.0375 121.969C21.4667 133.978 18.1046 140.647 16.0112 145.825C14.5907 149.338 13 154.018 13 154.684C13 154.941 21.5591 155 58.7333 155C83.8866 155 104.467 154.934 104.467 154.854C104.467 154.773 103.665 153.7 102.684 152.468C101.704 151.237 99.8028 148.412 98.4589 146.192C95.0315 140.529 94.8685 140.31 91.5215 136.894C88.3529 133.661 86.975 131.838 85.5404 128.981C84.7966 127.5 84.6427 126.909 84.5449 125.156C84.4812 124.016 84.5579 121.869 84.7155 120.385C84.873 118.901 85.1043 115.541 85.2295 112.916C85.4913 107.425 85.8355 105.897 87.1049 104.589C89.3393 102.288 93.2672 100.754 97.81 100.411C102.078 100.088 106.596 99.3029 107.913 98.6562C109.448 97.9021 110.181 96.4336 110.334 93.8036C110.432 92.1296 110.35 91.5561 109.758 89.7891C109.11 87.8537 109.089 87.6636 109.415 86.6842C109.606 86.1104 110.191 85.2147 110.716 84.6938L111.67 83.7467L110.929 82.3195L110.187 80.8923L110.868 80.7438C112.607 80.365 112.955 79.1569 112.186 76.1768C111.733 74.4232 111.912 73.7689 112.846 73.7689C113.605 73.7689 116.747 72.0599 117.397 71.2931C118.642 69.8246 117.961 67.776 115.336 65.088C113.502 63.2106 110.807 59.3079 109.651 56.8543C108.953 55.3748 108.897 55.0129 108.542 49.6688C107.841 39.1364 106.955 34.6359 104.577 29.5281C102.616 25.3149 98.767 20.7581 95.2109 18.4388C90.7599 15.5358 83.197 12.5909 76.854 11.291C71.0295 10.0975 64.4109 9.67984 60.4591 10.2563Z" fill="url(#paint1_linear_232_7351)" fill-opacity="0.2"/>
<path fill-rule="evenodd" clip-rule="evenodd" d="M63.5153 22.2033C55.548 23.3695 49.8248 25.9758 44.7528 30.7473C41.3033 33.9924 39.9036 36.5585 38.7725 41.7113C37.7513 46.3641 37.6531 50.7436 38.4638 55.499C39.2783 60.2772 40.6093 63.4808 43.7275 68.1669C45.116 70.2537 45.8845 71.1679 47.7095 72.9031L49.9708 75.0532L49.9688 76.8707C49.964 81.6977 48.6705 88.6555 46.938 93.1761C46.0331 95.5369 43.1477 101.156 37.8868 110.803C32.6927 120.328 30.0351 125.617 28.3803 129.723C27.2574 132.509 26 136.221 26 136.75C26 136.953 32.7658 137 62.1511 137C82.0342 137 98.3021 136.948 98.3021 136.884C98.3021 136.82 97.6682 135.969 96.8933 134.992C96.1185 134.015 94.6155 131.775 93.5532 130.014C90.8439 125.523 90.7151 125.349 88.0693 122.64C85.5647 120.076 84.4755 118.63 83.3414 116.364C82.7535 115.19 82.6319 114.721 82.5545 113.331C82.5042 112.426 82.5648 110.723 82.6894 109.547C82.8139 108.37 82.9967 105.705 83.0957 103.623C83.3027 99.2683 83.5747 98.0563 84.5782 97.0191C86.3444 95.1936 89.4493 93.9775 93.0403 93.7049C96.4137 93.4487 99.9854 92.8264 101.026 92.3136C102.24 91.7155 102.819 90.5508 102.941 88.465C103.018 87.1373 102.953 86.6824 102.485 85.281C101.973 83.7461 101.956 83.5953 102.214 82.8185C102.365 82.3634 102.827 81.653 103.242 81.2399L103.997 80.4887L103.41 79.3568L102.824 78.2249L103.363 78.1071C104.737 77.8068 105.012 76.8485 104.404 74.485C104.046 73.0943 104.188 72.5754 104.926 72.5754C105.526 72.5754 108.009 71.2199 108.523 70.6118C109.507 69.4471 108.97 67.8223 106.894 65.6905C105.444 64.2015 103.314 61.1062 102.4 59.1603C101.849 57.9869 101.805 57.6999 101.524 53.4614C100.97 45.1082 100.269 41.5388 98.3896 37.4878C96.8391 34.1463 93.7968 30.5323 90.9858 28.6929C87.4674 26.3905 81.4891 24.0549 76.4751 23.0239C71.8709 22.0773 66.6391 21.7461 63.5153 22.2033Z" fill="url(#paint2_linear_232_7351)" fill-opacity="0.2"/>
<path fill-rule="evenodd" clip-rule="evenodd" d="M65.9274 33.1573C59.784 34.0599 55.3709 36.0769 51.46 39.7696C48.8001 42.2811 47.7209 44.267 46.8487 48.2548C46.0613 51.8557 45.9855 55.245 46.6107 58.9253C47.2387 62.6233 48.265 65.1026 50.6694 68.7292C51.7401 70.3442 52.3326 71.0517 53.7399 72.3946L55.4835 74.0586L55.482 75.4651C55.4782 79.2008 54.4809 84.5856 53.145 88.0841C52.4472 89.9112 50.2223 94.26 46.1657 101.726C42.1607 109.097 40.1114 113.19 38.8354 116.368C37.9696 118.525 37 121.397 37 121.806C37 121.964 42.217 122 64.8755 122C80.2071 122 92.751 121.96 92.751 121.91C92.751 121.861 92.2622 121.202 91.6647 120.446C91.0672 119.69 89.9083 117.956 89.0892 116.594C87.0001 113.118 86.9008 112.983 84.8607 110.887C82.9294 108.902 82.0895 107.783 81.2151 106.03C80.7617 105.121 80.6679 104.758 80.6083 103.682C80.5695 102.982 80.6163 101.664 80.7123 100.754C80.8083 99.8429 80.9493 97.7801 81.0256 96.1694C81.1852 92.799 81.395 91.8609 82.1687 91.0582C83.5306 89.6455 85.9248 88.7044 88.6937 88.4934C91.2949 88.2951 94.049 87.8135 94.8517 87.4166C95.7875 86.9537 96.2341 86.0524 96.3277 84.4381C96.3872 83.4106 96.337 83.0586 95.9763 81.974C95.5814 80.7861 95.5685 80.6694 95.7672 80.0682C95.8835 79.7161 96.2404 79.1663 96.5603 78.8465L97.142 78.2652L96.69 77.3892L96.238 76.5132L96.6532 76.4221C97.7127 76.1896 97.9252 75.448 97.4561 73.6188C97.1802 72.5425 97.2894 72.1409 97.8585 72.1409C98.3213 72.1409 100.236 71.0919 100.632 70.6213C101.391 69.7199 100.977 68.4625 99.376 66.8126C98.2582 65.6603 96.6156 63.2648 95.9108 61.7588C95.4857 60.8507 95.4517 60.6286 95.2351 57.3484C94.808 50.8837 94.2679 48.1213 92.8185 44.9862C91.623 42.4002 89.2771 39.6032 87.1095 38.1797C84.3965 36.3978 79.7868 34.5903 75.9205 33.7924C72.3704 33.0598 68.3361 32.8035 65.9274 33.1573Z" fill="url(#paint3_linear_232_7351)" fill-opacity="0.2"/>
<path fill-rule="evenodd" clip-rule="evenodd" d="M67.5996 42.122C62.8 42.8217 59.3523 44.3855 56.2968 47.2484C54.2189 49.1954 53.3757 50.7351 52.6943 53.8268C52.0791 56.6184 52.0199 59.2461 52.5083 62.0994C52.999 64.9663 53.8008 66.8885 55.6792 69.7002C56.5157 70.9523 56.9786 71.5007 58.078 72.5419L59.4402 73.8319L59.4391 74.9224C59.4361 77.8186 58.6569 81.9933 57.6133 84.7057C57.0682 86.1222 55.3299 89.4937 52.1607 95.2819C49.0318 100.997 47.4308 104.17 46.4339 106.634C45.7575 108.306 45 110.533 45 110.85C45 110.972 49.0758 111 66.7778 111C78.7555 111 88.5555 110.969 88.5555 110.93C88.5555 110.892 88.1736 110.381 87.7068 109.795C87.24 109.209 86.3347 107.865 85.6947 106.809C84.0626 104.114 83.985 104.01 82.3912 102.384C80.8823 100.845 80.2262 99.9779 79.543 98.6186C79.1888 97.914 79.1156 97.6327 79.069 96.7984C79.0387 96.2558 79.0752 95.2341 79.1502 94.5281C79.2252 93.822 79.3354 92.2227 79.395 90.974C79.5197 88.361 79.6836 87.6338 80.2881 87.0114C81.3521 85.9162 83.2225 85.1865 85.3857 85.0229C87.4179 84.8692 89.5695 84.4959 90.1966 84.1881C90.9277 83.8293 91.2766 83.1305 91.3498 81.879C91.3962 81.0824 91.357 80.8095 91.0753 79.9686C90.7667 79.0476 90.7566 78.9572 90.9118 78.4911C91.0027 78.2181 91.2815 77.7918 91.5315 77.5439L91.9859 77.0932L91.6328 76.4141L91.2797 75.735L91.604 75.6643C92.4318 75.4841 92.5978 74.9091 92.2313 73.491C92.0158 72.6566 92.1011 72.3452 92.5457 72.3452C92.9073 72.3452 94.4032 71.532 94.7128 71.1671C95.3057 70.4683 94.9817 69.4934 93.7312 68.2143C92.858 67.3209 91.5747 65.4637 91.0241 64.2962C90.692 63.5921 90.6654 63.4199 90.4961 60.8769C90.1625 55.8649 89.7405 53.7233 88.6082 51.2927C87.6742 49.2878 85.8414 47.1194 84.1481 46.0157C82.0285 44.6343 78.4272 43.2329 75.4067 42.6143C72.6331 42.0464 69.4814 41.8476 67.5996 42.122Z" fill="url(#paint4_linear_232_7351)" fill-opacity="0.2"/>
<path fill-rule="evenodd" clip-rule="evenodd" d="M71.3677 49.0937C68.104 49.6312 65.7596 50.8323 63.6819 53.0314C62.2688 54.5269 61.6955 55.7096 61.2321 58.0843C60.8138 60.2286 60.7736 62.247 61.1057 64.4387C61.4393 66.6408 61.9845 68.1172 63.2619 70.2769C63.8307 71.2387 64.1454 71.66 64.8931 72.4597L65.8194 73.4506L65.8186 74.2882C65.8166 76.5128 65.2867 79.7195 64.577 81.8029C64.2064 82.8909 63.0244 85.4807 60.8693 89.9267C58.7416 94.3162 57.6529 96.7538 56.9751 98.6463C56.5151 99.9305 56 101.641 56 101.885C56 101.978 58.7715 102 70.8089 102C78.9538 102 85.6177 101.976 85.6177 101.947C85.6177 101.917 85.3581 101.525 85.0406 101.075C84.7232 100.624 84.1076 99.592 83.6724 98.7805C82.5626 96.7105 82.5098 96.6306 81.426 95.382C80.4 94.2001 79.9538 93.5338 79.4893 92.4896C79.2484 91.9484 79.1986 91.7323 79.1669 91.0916C79.1463 90.6747 79.1711 89.8899 79.2222 89.3476C79.2732 88.8053 79.348 87.5769 79.3886 86.6177C79.4734 84.6106 79.5848 84.052 79.9959 83.574C80.7194 82.7327 81.9913 82.1723 83.4623 82.0466C84.8442 81.9286 86.3073 81.6417 86.7337 81.4054C87.2308 81.1297 87.4681 80.593 87.5178 79.6317C87.5494 79.0198 87.5228 78.8102 87.3312 78.1643C87.1214 77.4569 87.1145 77.3874 87.2201 77.0294C87.2818 76.8197 87.4715 76.4923 87.6414 76.3019L87.9504 75.9557L87.7103 75.434L87.4702 74.9124L87.6907 74.8581C88.2536 74.7196 88.3665 74.278 88.1173 73.1887C87.9707 72.5478 88.0288 72.3086 88.3311 72.3086C88.577 72.3086 89.5942 71.684 89.8047 71.4037C90.2079 70.8669 89.9875 70.1181 89.1372 69.1356C88.5434 68.4494 87.6708 67.0229 87.2964 66.126C87.0705 65.5853 87.0525 65.453 86.9374 63.4996C86.7105 59.6498 86.4236 58.0048 85.6536 56.1379C85.0184 54.5978 83.7722 52.9323 82.6207 52.0845C81.1794 51.0234 78.7305 49.947 76.6765 49.4719C74.7905 49.0356 72.6473 48.883 71.3677 49.0937Z" fill="url(#paint5_linear_232_7351)" fill-opacity="0.2"/>
<defs>
<linearGradient id="paint0_linear_232_7351" x1="98.5" y1="28" x2="44.5" y2="168" gradientUnits="userSpaceOnUse">
<stop offset="0.173354" stop-color="#0099FF"/>
<stop offset="1" stop-color="#FAFDFF" stop-opacity="0"/>
</linearGradient>
<linearGradient id="paint1_linear_232_7351" x1="95.0833" y1="33.2" x2="50.5304" y2="149.371" gradientUnits="userSpaceOnUse">
<stop offset="0.173354" stop-color="#0099FF"/>
<stop offset="1" stop-color="#FAFDFF" stop-opacity="0"/>
</linearGradient>
<linearGradient id="paint2_linear_232_7351" x1="90.8849" y1="40.4" x2="55.4626" y2="132.457" gradientUnits="userSpaceOnUse">
<stop offset="0.173354" stop-color="#0099FF"/>
<stop offset="1" stop-color="#FAFDFF" stop-opacity="0"/>
</linearGradient>
<linearGradient id="paint3_linear_232_7351" x1="87.0318" y1="47.24" x2="59.5435" y2="118.417" gradientUnits="userSpaceOnUse">
<stop offset="0.173354" stop-color="#0099FF"/>
<stop offset="1" stop-color="#FAFDFF" stop-opacity="0"/>
</linearGradient>
<linearGradient id="paint4_linear_232_7351" x1="84.0873" y1="53.04" x2="62.8971" y2="108.331" gradientUnits="userSpaceOnUse">
<stop offset="0.173354" stop-color="#0099FF"/>
<stop offset="1" stop-color="#FAFDFF" stop-opacity="0"/>
</linearGradient>
<linearGradient id="paint5_linear_232_7351" x1="82.5794" y1="57.48" x2="64.8213" y2="98.5005" gradientUnits="userSpaceOnUse">
<stop offset="0.173354" stop-color="#0099FF"/>
<stop offset="1" stop-color="#FAFDFF" stop-opacity="0"/>
</linearGradient>
</defs>
</svg>
