<svg width="126" height="175" viewBox="0 0 126 175" fill="none" xmlns="http://www.w3.org/2000/svg">
<path fill-rule="evenodd" clip-rule="evenodd" d="M56.9509 0.309312C44.856 2.08403 36.1678 6.05011 28.468 13.3111C23.2315 18.2493 21.1067 22.1542 19.3896 29.9955C17.8394 37.0757 17.6903 43.7402 18.921 50.9767C20.1574 58.248 22.178 63.123 26.9116 70.254C29.0195 73.4296 30.186 74.8207 32.9567 77.4613L36.3894 80.7331L36.3864 83.4988C36.379 90.8443 34.4155 101.432 31.7854 108.311C30.4118 111.904 26.0314 120.455 18.045 135.135C10.16 149.629 6.12555 157.678 3.6135 163.926C1.90882 168.167 0 173.815 0 174.619C0 174.929 10.271 175 54.8799 175C85.0639 175 109.76 174.921 109.76 174.824C109.76 174.727 108.797 173.431 107.621 171.945C106.445 170.458 104.163 167.049 102.551 164.369C98.4378 157.535 98.2422 157.271 94.2257 153.148C90.4235 149.246 88.77 147.045 87.0484 143.598C86.1559 141.811 85.9713 141.097 85.8538 138.982C85.7775 137.605 85.8695 135.014 86.0586 133.223C86.2476 131.433 86.5251 127.377 86.6754 124.209C86.9896 117.582 87.4026 115.738 88.9259 114.159C91.6072 111.382 96.3207 109.531 101.772 109.116C106.893 108.726 112.315 107.779 113.896 106.999C115.738 106.089 116.617 104.316 116.801 101.142C116.919 99.1219 116.82 98.4298 116.11 96.2972C115.332 93.9614 115.307 93.7319 115.698 92.5499C115.927 91.8574 116.629 90.7763 117.259 90.1477L118.405 89.0046L117.515 87.2821L116.625 85.5597L117.442 85.3804C119.528 84.9233 119.947 83.4652 119.023 79.8685C118.48 77.7521 118.695 76.9625 119.815 76.9625C120.726 76.9625 124.496 74.8999 125.276 73.9744C126.77 72.2021 125.954 69.7296 122.803 66.4855C120.602 64.2197 117.368 59.5095 115.981 56.5483C115.144 54.7626 115.077 54.3259 114.65 47.8761C113.809 35.1646 112.746 29.733 109.893 23.5684C107.539 18.4835 102.92 12.9839 98.6531 10.1848C93.3119 6.68116 84.2364 3.127 76.6248 1.55811C69.6354 0.117667 61.693 -0.386399 56.9509 0.309312Z" fill="url(#paint0_linear_232_7358)" fill-opacity="0.2"/>
<defs>
<linearGradient id="paint0_linear_232_7358" x1="98.5" y1="28" x2="44.5" y2="168" gradientUnits="userSpaceOnUse">
<stop offset="0.173354" stop-color="#0099FF"/>
<stop offset="1" stop-color="#FAFDFF" stop-opacity="0"/>
</linearGradient>
</defs>
</svg>
