<svg width="126" height="175" viewBox="0 0 126 175" fill="none" xmlns="http://www.w3.org/2000/svg">
<path fill-rule="evenodd" clip-rule="evenodd" d="M56.9509 0.309312C44.856 2.08403 36.1678 6.05011 28.468 13.3111C23.2315 18.2493 21.1067 22.1542 19.3896 29.9955C17.8394 37.0757 17.6903 43.7402 18.921 50.9767C20.1574 58.248 22.178 63.123 26.9116 70.254C29.0195 73.4296 30.186 74.8207 32.9567 77.4613L36.3894 80.7331L36.3864 83.4988C36.379 90.8443 34.4155 101.432 31.7854 108.311C30.4118 111.904 26.0314 120.455 18.045 135.135C10.16 149.629 6.12555 157.678 3.6135 163.926C1.90882 168.167 0 173.815 0 174.619C0 174.929 10.271 175 54.8799 175C85.0639 175 109.76 174.921 109.76 174.824C109.76 174.727 108.797 173.431 107.621 171.945C106.445 170.458 104.163 167.049 102.551 164.369C98.4378 157.535 98.2422 157.271 94.2257 153.148C90.4235 149.246 88.77 147.045 87.0484 143.598C86.1559 141.811 85.9713 141.097 85.8538 138.982C85.7775 137.605 85.8695 135.014 86.0586 133.223C86.2476 131.433 86.5251 127.377 86.6754 124.209C86.9896 117.582 87.4026 115.738 88.9259 114.159C91.6072 111.382 96.3207 109.531 101.772 109.116C106.893 108.726 112.315 107.779 113.896 106.999C115.738 106.089 116.617 104.316 116.801 101.142C116.919 99.1219 116.82 98.4298 116.11 96.2972C115.332 93.9614 115.307 93.7319 115.698 92.5499C115.927 91.8574 116.629 90.7763 117.259 90.1477L118.405 89.0046L117.515 87.2821L116.625 85.5597L117.442 85.3804C119.528 84.9233 119.947 83.4652 119.023 79.8685C118.48 77.7521 118.695 76.9625 119.815 76.9625C120.726 76.9625 124.496 74.8999 125.276 73.9744C126.77 72.2021 125.954 69.7296 122.803 66.4855C120.602 64.2197 117.368 59.5095 115.981 56.5483C115.144 54.7626 115.077 54.3259 114.65 47.8761C113.809 35.1646 112.746 29.733 109.893 23.5684C107.539 18.4835 102.92 12.9839 98.6531 10.1848C93.3119 6.68116 84.2364 3.127 76.6248 1.55811C69.6354 0.117667 61.693 -0.386399 56.9509 0.309312Z" fill="url(#paint0_linear_232_7360)"/>
<path fill-rule="evenodd" clip-rule="evenodd" d="M63.3243 34.5379C63.6462 36.009 63.2467 39.1761 62.0088 44.9606C61.2209 48.6427 61.027 50.3245 61.1359 52.5309C61.2696 55.2358 62.1194 57.6275 63.7608 59.9175C64.5268 60.9863 66.2327 62.7565 67.104 63.387C67.2914 63.5226 67.4119 63.614 67.4859 63.757V79.2091V82.8688L65.9106 81.8318L64.3354 80.7947L64.2221 79.4977C63.8549 75.2901 62.1001 71.766 59.1942 69.4C57.2114 67.7856 55.8883 67.0891 49.1116 64.092C46.4131 62.8987 44.5646 61.8276 43.3496 60.7536L42.5599 60.0553L42.6765 61.1833C43.4291 68.4622 45.7854 74.9189 49.1069 78.8047C52.0358 82.2311 56.632 83.9966 61.2717 83.4774L62.806 83.3057L64.944 84.7364C66.1199 85.5234 67.173 86.2213 67.284 86.2874C67.4405 86.3805 67.4859 86.0097 67.4859 84.6382V126.057L66.961 125.941C66.0532 125.741 63.0937 125.83 61.8311 126.096C60.2219 126.434 58.4836 127.309 57.6772 128.187L57.0321 128.89L54.7058 128.899C51.4406 128.912 49.2539 129.542 47.6904 130.92C46.6879 131.803 46.2126 133.167 46.6327 133.954C46.769 134.21 46.6147 134.253 44.9766 134.419C40.9253 134.828 38.289 136.357 38.0549 138.434L38 138.921L71 138.961L104 139.002V138.489C104 137.174 102.426 135.722 100.245 135.028C99.0136 134.635 96.9027 134.3 95.6628 134.3C95.0697 134.3 94.9681 134.243 94.7913 133.815C94.5185 133.154 93.4686 132.235 92.4528 131.768C90.8328 131.024 89.2352 130.722 86.9143 130.723C84.8356 130.724 84.7736 130.714 84.7736 130.378C84.7736 129.799 84.0405 128.734 83.2505 128.164C80.6257 126.273 75.6436 125.812 72.1898 127.141C71.3984 127.445 71.2777 127.454 70.8568 127.235L70.3941 126.995V87.2861C70.3941 88.2109 70.4408 88.9676 70.498 88.9676C70.555 88.9676 71.5782 88.3306 72.7716 87.552L74.9413 86.1362L77.7166 86.121C80.0611 86.108 80.689 86.0498 81.7608 85.7464C88.3148 83.8916 92.6112 77.5741 94.4563 67.0792C94.87 64.7255 95.0873 62.8637 94.9481 62.8637C94.8891 62.8637 94.7123 63.0062 94.5553 63.1803C93.5466 64.2986 90.7391 65.8176 85.3153 68.179C81.8629 69.6822 80.3827 70.5037 78.6521 71.8768C76.5307 73.5603 75.081 75.6437 74.1748 78.3115C73.7518 79.5566 73.3057 81.9742 73.3004 83.0496C73.2973 83.6865 73.271 83.7154 71.8456 84.6514L70.3941 85.6044V79.6784V66.418L70.4567 66.4383L70.5689 63.8499L72.1723 61.5846C73.5268 59.6708 73.845 59.1265 74.2224 58.0784C76.5301 51.6699 73.8951 44.4987 66.4366 36.8883C64.7638 35.1816 63.3766 33.9209 63.2955 34.0342C63.2612 34.0821 63.2741 34.3088 63.3243 34.5379Z" fill="url(#paint1_linear_232_7360)"/>
<defs>
<linearGradient id="paint0_linear_232_7360" x1="95" y1="-21" x2="44.5" y2="168" gradientUnits="userSpaceOnUse">
<stop offset="0.173354" stop-color="#8CD0FD"/>
<stop offset="1" stop-color="#FAFDFF" stop-opacity="0"/>
</linearGradient>
<linearGradient id="paint1_linear_232_7360" x1="124" y1="13.9998" x2="56" y2="147" gradientUnits="userSpaceOnUse">
<stop offset="0.40936" stop-color="#64C2FF"/>
<stop offset="1" stop-color="#F1FAFF"/>
</linearGradient>
</defs>
</svg>
