<svg width="408" height="547" viewBox="0 0 408 547" fill="none" xmlns="http://www.w3.org/2000/svg">
<g clip-path="url(#clip0_106_18)">
<path d="M183.429 50.5046C174.973 52.8091 169.05 54.0523 161.135 58.9544C155.875 62.2127 152.407 63.8898 148.836 68.9405C144.836 74.5966 144.84 79.0542 143.454 85.8401C141.77 94.0911 142.188 98.9319 141.917 107.349C141.695 114.245 140.682 118.228 141.917 125.016C143.243 132.306 145.313 136.164 148.836 142.684C153.114 150.603 154.219 158.016 162.673 161.12C165.253 162.067 169.591 162.416 169.591 162.416L174.973 163.424C177.374 154.425 182.636 149.57 181.122 140.38C180.033 133.761 173.435 125.016 173.435 125.016C173.435 125.016 169.599 122.06 169.591 118.871C169.586 116.452 171.129 113.494 171.129 113.494C171.129 113.494 176.705 105.061 178.048 98.8988C180.044 89.7368 174.109 84.4227 174.973 75.0858C175.907 64.978 180.126 60.1042 183.429 50.5046Z" fill="url(#paint0_linear_106_18)"/>
<path d="M174.973 163.424C182.588 165.135 187.344 165.135 194.96 163.424C204.661 161.246 209.703 157.599 217.253 151.134C222.421 146.708 224.281 143.175 228.784 138.075C228.336 125.169 228 117.936 227.247 105.044C226.721 96.0399 228.982 90.4051 225.709 81.9993C223.505 76.3383 221.588 73.1991 217.253 68.9405C210.838 62.638 204.288 63.4498 196.497 58.9544C191.233 55.9168 188.81 53.5773 183.429 50.5046C180.126 60.1042 175.907 64.978 174.973 75.0858C174.109 84.4227 180.044 89.7368 178.048 98.8988C176.705 105.061 171.129 113.494 171.129 113.494C171.129 113.494 169.586 116.452 169.591 118.871C169.599 122.06 173.435 125.016 173.435 125.016C173.435 125.016 180.033 133.761 181.122 140.38C182.636 149.57 177.374 154.425 174.973 163.424Z" fill="url(#paint1_linear_106_18)"/>
<path d="M161.135 58.9544C169.05 54.0523 174.973 52.8091 183.429 50.5046C188.81 53.5773 191.233 55.9168 196.497 58.9544C204.288 63.4498 210.838 62.638 217.253 68.9405C221.588 73.1991 223.505 76.3383 225.709 81.9993C228.982 90.4051 226.721 96.0399 227.247 105.044C228 117.936 228.336 125.169 228.784 138.075C230.285 147.075 229.911 152.409 232.628 161.12C234.669 167.663 239.546 177.251 239.546 177.251L234.165 194.151C234.165 194.151 224.562 213.45 228.784 224.877C236.801 246.576 274.139 236.4 287.977 221.805C290.306 217.305 293.941 210.282 293.941 210.282C293.941 210.282 309.389 191.68 311.039 177.251C313.661 154.319 291.47 146.63 283.364 125.016C272.951 97.2506 283.01 76.5123 268.758 50.5046C257.633 30.2034 251.38 11.808 228.784 6.71939C215.815 3.79879 194.96 10.5602 194.96 10.5602C194.96 10.5602 166.064 1.25568 148.836 6.71939C126.564 13.7825 119.11 29.9141 108.093 50.5046C97.3126 70.6519 94.0898 84.503 94.2554 107.349C94.4637 136.092 115.951 148.54 117.317 177.251C117.56 182.345 117.56 185.216 117.317 190.31C122.871 188.36 131.539 185.317 131.539 185.317L145.761 180.324L168.054 174.179L169.591 162.416C169.591 162.416 165.253 162.067 162.673 161.12C154.219 158.016 153.114 150.603 148.836 142.684C145.313 136.164 143.243 132.306 141.917 125.016C140.682 118.228 141.695 114.245 141.917 107.349C142.188 98.9319 141.77 94.0911 143.454 85.8401C144.84 79.0542 144.836 74.5966 148.836 68.9405C152.407 63.8898 155.875 62.2127 161.135 58.9544Z" fill="url(#paint2_linear_106_18)"/>
<path d="M194.96 163.424C187.344 165.135 182.588 165.135 174.973 163.424L169.591 162.416L168.054 174.179C168.054 174.179 165.982 183.019 168.054 188.006C170.589 194.107 175.105 196.022 181.122 198.76C188.273 202.014 193.252 201.064 201.11 201.064C208.967 201.064 213.48 200.686 221.097 198.76C226.343 197.433 234.165 194.151 234.165 194.151L239.546 177.251C239.546 177.251 234.669 167.663 232.628 161.12C229.911 152.409 230.285 147.075 228.784 138.075C224.281 143.175 222.421 146.708 217.253 151.134C209.703 157.599 204.661 161.246 194.96 163.424Z" fill="url(#paint3_linear_106_18)"/>
<path d="M183.429 388.496C196.058 393.437 218.022 391.568 218.022 391.568L218.954 399.25C218.954 399.25 227.567 395.37 233.396 393.873C240.718 391.993 245.313 393.524 252.615 391.568C258.215 390.069 266.452 386.191 266.452 386.191C266.452 386.191 269.561 385.201 271.064 386.191C273.681 387.915 268.758 393.873 268.758 393.873L250.309 406.164C250.309 406.164 254.682 409.978 257.996 411.541C267.804 416.165 285.67 409.236 285.67 409.236C285.67 409.236 299.938 403.929 305.658 409.236C308.609 411.975 309.753 414.463 310.27 418.454C311.476 427.769 293.941 436.122 293.941 436.122C293.941 436.122 309.574 445.74 321.801 443.804C323.928 443.467 327.182 443.804 330.257 443.804C340.322 442.455 346.504 440.582 355.625 436.122C370.719 428.741 376.853 419.023 384.069 403.859C391.507 388.225 390.785 377.384 390.987 360.074C391.284 334.66 386.425 320.268 377.919 296.316C371.228 277.476 367.905 266.009 355.625 250.227C348.329 240.849 344.758 236.481 334.101 228.718C320.843 219.061 293.941 210.282 293.941 210.282L287.977 221.805L296.433 277.112C303.01 283.86 306.293 288.177 311.039 296.316C316.736 306.087 319.978 312.042 321.801 323.202C323.155 331.492 321.801 347.783 321.801 347.783C321.801 347.783 309.137 347.319 301.045 347.783C287.396 348.567 280.038 351.633 266.452 353.16C254.485 354.506 247.742 355.22 235.703 355.465C219.17 355.801 193.422 353.16 193.422 353.16L191.359 355.465C191.359 355.465 183.86 362.351 180.354 367.755C176.698 373.391 173.435 383.503 173.435 383.503C173.435 383.503 179.366 386.906 183.429 388.496Z" fill="url(#paint4_linear_106_18)"/>
<path d="M117.317 190.31L86.568 209.514C86.568 209.514 64.5886 226.534 53.5124 240.241C42.9356 253.33 38.3499 261.873 31.2191 277.112C24.2222 292.066 21.2081 300.998 17.3819 317.057C14.0777 330.924 11.9555 338.906 12.0007 353.16C12.0449 367.119 12.4565 375.434 17.3819 388.496C21.9935 400.726 25.7965 407.695 35.0628 416.918C43.2037 425.021 49.2087 428.283 59.6623 433.049C67.6949 436.712 72.5432 438.162 81.1869 439.963C85.9408 440.953 93.4866 441.79 93.4866 441.79L132.692 447.613L138.073 448.413L204.953 443.035L214.947 439.963L215.972 436.122C215.972 436.122 220.636 424.666 221.097 416.918C221.509 409.98 218.954 399.25 218.954 399.25L218.022 391.568C218.022 391.568 196.058 393.437 183.429 388.496C179.366 386.906 173.435 383.503 173.435 383.503L154.217 373.901L95.5312 343.942L83.4931 337.797C83.4931 337.797 81.302 309.417 86.568 292.476C89.0952 284.345 95.3124 272.503 95.3124 272.503L113.474 231.023L131.539 185.317L117.317 190.31Z" fill="url(#paint5_linear_106_18)"/>
<path d="M287.977 221.805C274.139 236.4 236.801 246.576 228.784 224.877C224.562 213.45 234.165 194.151 234.165 194.151C234.165 194.151 226.343 197.433 221.097 198.76C213.48 200.686 208.967 201.064 201.11 201.064C193.252 201.064 188.273 202.014 181.122 198.76C175.105 196.022 170.589 194.107 168.054 188.006C165.982 183.019 168.054 174.179 168.054 174.179L145.761 180.324L131.539 185.317L113.474 231.023L95.3124 272.503L109.63 257.908C109.63 257.908 121.433 244.566 131.539 240.241C141.159 236.123 147.616 235.74 158.06 236.4C168.309 237.047 174.104 239.016 183.429 243.313L183.614 243.399C192.73 247.6 198.422 250.223 204.953 257.908C210.429 264.352 214.947 277.112 214.947 277.112C214.947 277.112 233.865 266.644 247.234 264.822C259.462 263.155 267.127 262.984 278.752 267.126C286.223 269.788 290.297 272.09 296.433 277.112L287.977 221.805Z" fill="url(#paint6_linear_106_18)"/>
<path d="M154.217 373.901L173.435 383.503C173.435 383.503 176.698 373.391 180.354 367.755C183.86 362.351 191.359 355.465 191.359 355.465C191.359 355.465 182.876 346.356 176.51 341.638C169.063 336.118 162.521 336.45 155.754 330.116C152.332 326.912 148.067 320.898 148.067 320.898C148.067 320.898 142.888 314.829 140.379 317.057C138.36 318.85 140.379 323.97 140.379 323.97L148.067 337.797L154.217 343.942C154.217 343.942 145.681 344.99 140.379 343.942C133.136 342.511 130.329 338.22 123.467 335.493C116.761 332.827 105.786 330.116 105.786 330.116C105.786 330.116 97.814 329.739 95.3124 333.188C92.8456 336.59 95.5312 343.942 95.5312 343.942L154.217 373.901Z" fill="url(#paint7_linear_106_18)"/>
<path d="M221.097 416.918C220.636 424.666 215.972 436.122 215.972 436.122L247.234 444.572C260.443 443.972 268.679 447.68 281.058 443.035C286.404 441.03 293.941 436.122 293.941 436.122C293.941 436.122 311.476 427.769 310.27 418.454C309.753 414.463 308.609 411.975 305.658 409.236C299.938 403.929 285.67 409.236 285.67 409.236C285.67 409.236 267.804 416.165 257.996 411.541C254.682 409.978 250.309 406.164 250.309 406.164L268.758 393.873C268.758 393.873 273.681 387.915 271.064 386.191C269.561 385.201 266.452 386.191 266.452 386.191C266.452 386.191 258.215 390.069 252.615 391.568C245.313 393.524 240.718 391.993 233.396 393.873C227.567 395.37 218.954 399.25 218.954 399.25C218.954 399.25 221.509 409.98 221.097 416.918Z" fill="url(#paint8_linear_106_18)"/>
<path d="M86.568 292.476C81.302 309.417 83.4931 337.797 83.4931 337.797L95.5312 343.942C95.5312 343.942 92.8456 336.59 95.3124 333.188C97.814 329.739 105.786 330.116 105.786 330.116C105.786 330.116 116.761 332.827 123.467 335.493C130.329 338.22 133.136 342.511 140.379 343.942C145.681 344.99 154.217 343.942 154.217 343.942L148.067 337.797L140.379 323.97C140.379 323.97 138.36 318.85 140.379 317.057C142.888 314.829 148.067 320.898 148.067 320.898C148.067 320.898 152.332 326.912 155.754 330.116C162.521 336.45 169.063 336.118 176.51 341.638C182.876 346.356 191.359 355.465 191.359 355.465L193.422 353.16C193.422 353.16 219.17 355.801 235.703 355.465C247.742 355.22 254.485 354.506 266.452 353.16C280.038 351.633 287.396 348.567 301.045 347.783C309.137 347.319 321.801 347.783 321.801 347.783C321.801 347.783 323.155 331.492 321.801 323.202C319.978 312.042 316.736 306.087 311.039 296.316C306.293 288.177 303.01 283.86 296.433 277.112C290.297 272.09 286.223 269.788 278.752 267.126C267.127 262.984 259.462 263.155 247.234 264.822C233.865 266.644 214.947 277.112 214.947 277.112C214.947 277.112 210.429 264.352 204.953 257.908C198.422 250.223 192.73 247.6 183.614 243.399L183.429 243.313C174.104 239.016 168.309 237.047 158.06 236.4C147.616 235.74 141.159 236.123 131.539 240.241C121.433 244.566 109.63 257.908 109.63 257.908L95.3124 272.503C95.3124 272.503 89.0952 284.345 86.568 292.476Z" fill="#3AB3FE"/>
<path d="M204.953 443.035L138.073 448.413L132.692 447.613L158.06 480.675L198.803 467.617L231.859 454.558L247.234 444.572L215.972 436.122L214.947 439.963L204.953 443.035Z" fill="#3AB3FE"/>
<path d="M321.801 443.804C309.574 445.74 293.941 436.122 293.941 436.122C293.941 436.122 286.404 441.03 281.058 443.035C268.679 447.68 260.443 443.972 247.234 444.572L231.859 454.558L198.803 467.617L158.06 480.675L132.692 447.613L93.4866 441.79V486.052L98.0991 487.429C98.0991 487.429 130.768 499.88 152.679 503.72C185.206 509.421 204.395 507.14 237.24 503.72C259.603 501.392 272.292 499.802 293.941 493.734C307.171 490.026 327.182 482.212 327.182 482.212L330.257 480.675V443.804C327.182 443.804 323.928 443.467 321.801 443.804Z" fill="url(#paint9_linear_106_18)"/>
<path d="M237.24 503.72C204.395 507.14 185.206 509.421 152.679 503.72C130.768 499.88 98.0991 487.429 98.0991 487.429L76.5745 549.042C76.5745 549.042 155.85 578.959 208.797 579C268.941 579.047 357.932 540.592 357.932 540.592L327.182 482.212C327.182 482.212 307.171 490.026 293.941 493.734C272.292 499.802 259.603 501.392 237.24 503.72Z" fill="url(#paint10_linear_106_18)"/>
</g>
<defs>
<linearGradient id="paint0_linear_106_18" x1="172.666" y1="56.6499" x2="165.757" y2="171.107" gradientUnits="userSpaceOnUse">
<stop stop-color="white"/>
<stop offset="1" stop-color="#B9E2FE"/>
</linearGradient>
<linearGradient id="paint1_linear_106_18" x1="172.671" y1="55.0805" x2="165.722" y2="169.879" gradientUnits="userSpaceOnUse">
<stop stop-color="#D8F0FF"/>
<stop offset="1" stop-color="#A0D9FE"/>
</linearGradient>
<linearGradient id="paint2_linear_106_18" x1="131.158" y1="173.411" x2="283.371" y2="188.798" gradientUnits="userSpaceOnUse">
<stop stop-color="#8CD0FD"/>
<stop offset="1" stop-color="#F5FBFF"/>
</linearGradient>
<linearGradient id="paint3_linear_106_18" x1="234.172" y1="177.251" x2="165.753" y2="171.096" gradientUnits="userSpaceOnUse">
<stop stop-color="#8CD0FD"/>
<stop offset="1" stop-color="#EEF8FF"/>
</linearGradient>
<linearGradient id="paint4_linear_106_18" x1="294.126" y1="317.057" x2="361.708" y2="412.357" gradientUnits="userSpaceOnUse">
<stop stop-color="#AEDEFE"/>
<stop offset="1" stop-color="#EDF8FF"/>
</linearGradient>
<linearGradient id="paint5_linear_106_18" x1="30.4496" y1="317.825" x2="201.05" y2="411.648" gradientUnits="userSpaceOnUse">
<stop stop-color="#AADCFE"/>
<stop offset="1" stop-color="#F4FAFF"/>
</linearGradient>
<linearGradient id="paint6_linear_106_18" x1="152.679" y1="217.964" x2="279.488" y2="274.879" gradientUnits="userSpaceOnUse">
<stop stop-color="#8CD0FD"/>
<stop offset="1" stop-color="#F7FCFF"/>
</linearGradient>
<linearGradient id="paint7_linear_106_18" x1="178.047" y1="364.683" x2="105.026" y2="342.376" gradientUnits="userSpaceOnUse">
<stop stop-color="#EEF8FF"/>
<stop offset="1" stop-color="#8CD0FD"/>
</linearGradient>
<linearGradient id="paint8_linear_106_18" x1="201.109" y1="396.946" x2="267.977" y2="421.559" gradientUnits="userSpaceOnUse">
<stop stop-color="#8CD0FD"/>
<stop offset="1" stop-color="#EBF7FF"/>
</linearGradient>
<linearGradient id="paint9_linear_106_18" x1="220.327" y1="440.731" x2="226.468" y2="526.766" gradientUnits="userSpaceOnUse">
<stop stop-color="#8DD1FD"/>
<stop offset="1" stop-color="#F7FCFF"/>
</linearGradient>
<linearGradient id="paint10_linear_106_18" x1="175.741" y1="544.433" x2="310.268" y2="532.893" gradientUnits="userSpaceOnUse">
<stop stop-color="#8CD0FD"/>
<stop offset="1" stop-color="#EDF8FF"/>
</linearGradient>
<clipPath id="clip0_106_18">
<rect width="408" height="547" fill="white"/>
</clipPath>
</defs>
</svg>
