<svg width="84" height="84" viewBox="0 0 84 84" fill="none" xmlns="http://www.w3.org/2000/svg">
<rect x="38.375" width="54.2715" height="54.2715" transform="rotate(45 38.375 0)" fill="#3AB3FE"/>
<path d="M6 84C6 81.315 6.20816 78.8985 6.62448 76.7504C7.0408 74.6024 7.7545 72.6036 8.76556 70.7539C9.8361 68.9042 11.2635 67.1738 13.0477 65.5628C14.8914 63.8921 17.2109 62.2811 20.0062 60.7298C22.4447 59.4171 24.5858 58.2834 26.4295 57.3287C28.2732 56.3144 29.8195 55.3896 31.0685 54.5542C32.3769 53.7189 33.3582 52.8835 34.0124 52.0482C34.6667 51.1532 34.9938 50.1388 34.9938 49.0052C34.9938 47.8118 34.6667 46.7378 34.0124 45.7831C33.3582 44.7688 32.4364 43.9633 31.2469 43.3666C30.0574 42.7699 28.5705 42.4716 26.7863 42.4716C25.3589 42.4716 24.0207 42.6506 22.7718 43.0086C21.5823 43.3666 20.4523 43.8738 19.3817 44.5301C18.3707 45.1865 17.4191 45.9323 16.527 46.7676C15.6349 47.5433 14.8319 48.3787 14.1183 49.2737L6.53527 40.5026C7.36791 39.6672 8.46819 38.7722 9.8361 37.8176C11.2635 36.8032 12.9288 35.8784 14.8319 35.043C16.7946 34.148 18.9357 33.432 21.2552 32.895C23.6342 32.2983 26.1618 32 28.8382 32C32.8824 32 36.3319 32.6563 39.1867 33.969C42.0415 35.222 44.2123 36.9822 45.6992 39.2496C47.2455 41.5169 48.0187 44.1721 48.0187 47.2151C48.0187 49.3035 47.6321 51.1532 46.8589 52.7642C46.0858 54.3752 45.1044 55.8072 43.9149 57.0602C42.7254 58.2536 41.417 59.3276 39.9896 60.2823C38.6217 61.2369 37.2835 62.0723 35.9751 62.7883C34.1314 63.743 32.4661 64.638 30.9792 65.4733C29.4924 66.249 28.184 67.0545 27.0539 67.8898C25.9239 68.6655 24.9129 69.471 24.0207 70.3064C23.1881 71.1417 22.4447 72.0964 21.7905 73.1704H49V84H6Z" fill="url(#paint0_linear_421_4765)"/>
<defs>
<linearGradient id="paint0_linear_421_4765" x1="6" y1="83.9089" x2="33.0924" y2="40.3186" gradientUnits="userSpaceOnUse">
<stop offset="0.352014" stop-color="#C5E7FE"/>
<stop offset="1" stop-color="#C5E7FE" stop-opacity="0.1"/>
</linearGradient>
</defs>
</svg>
