<svg width="84" height="84" viewBox="0 0 84 84" fill="none" xmlns="http://www.w3.org/2000/svg">
<circle cx="34" cy="34" r="34" fill="#3AB3FE"/>
<path d="M72 69.4974V82H30.0657V69.4974H44.7324V38.1891C44.1127 39.0158 43.1487 39.8768 41.8404 40.7723C40.5321 41.5989 39.0516 42.3911 37.3991 43.1489C35.7465 43.9066 34.0939 44.5266 32.4413 45.0088C30.7887 45.491 29.3083 45.732 28 45.732V32.8161C29.2394 32.8161 30.7199 32.4372 32.4413 31.6795C34.2316 30.8529 35.9875 29.8885 37.7089 28.7863C39.4992 27.6842 41.0141 26.6165 42.2535 25.5832C43.5618 24.481 44.3881 23.62 44.7324 23H58.8826V69.4974H72Z" fill="url(#paint0_linear_421_4764)"/>
<defs>
<linearGradient id="paint0_linear_421_4764" x1="28" y1="81.8967" x2="60.0361" y2="35.4112" gradientUnits="userSpaceOnUse">
<stop offset="0.352014" stop-color="#C5E7FE"/>
<stop offset="1" stop-color="#C5E7FE" stop-opacity="0.2"/>
</linearGradient>
</defs>
</svg>
