<svg width="84" height="84" viewBox="0 0 84 84" fill="none" xmlns="http://www.w3.org/2000/svg">
<rect width="54" height="54" fill="#39B8FF"/>
<path d="M42.1341 40.686C44.5244 41.0798 46.6016 41.9797 48.3659 43.3859C50.1301 44.7358 51.4959 46.4795 52.4634 48.6169C53.4878 50.7543 54 53.1166 54 55.704C54 59.1913 53.0894 62.2287 51.2683 64.816C49.4472 67.4034 46.8577 69.4002 43.5 70.8064C40.1992 72.2688 36.3008 73 31.8049 73C27.4797 73 23.6382 72.2969 20.2805 70.8907C16.9797 69.5408 14.2195 67.544 12 64.9004L18.4878 56.8852C19.9675 58.6851 21.7317 60.0913 23.7805 61.1037C25.8862 62.1724 28.4472 62.7068 31.4634 62.7068C34.935 62.7068 37.5813 62.0037 39.4024 60.5975C41.2236 59.2476 42.1341 57.1946 42.1341 54.4384C42.1341 51.5136 41.0813 49.2637 38.9756 47.6888C36.8699 46.1139 33.6829 45.3264 29.4146 45.3264H27.0244V36.8894H29.6707C33.1423 36.8894 35.8455 36.1019 37.7805 34.527C39.7724 32.9521 40.7683 30.9834 40.7683 28.621C40.7683 27.1024 40.3984 25.8368 39.6585 24.8243C38.9187 23.8119 37.8943 23.0526 36.5854 22.5463C35.3333 22.0401 33.8537 21.787 32.1463 21.787C29.5854 21.787 27.252 22.3776 25.1463 23.5588C23.0406 24.74 21.3333 26.3993 20.0244 28.5367L12.8537 20.6058C14.0488 18.8621 15.6707 17.3716 17.7195 16.1342C19.8252 14.8405 22.2154 13.828 24.8902 13.0968C27.6219 12.3656 30.4675 12 33.4268 12C37.2967 12 40.6829 12.6187 43.5854 13.8562C46.5447 15.0936 48.8496 16.8373 50.5 19.0871C52.1504 21.337 52.9756 23.9525 52.9756 26.9336C52.9756 29.1272 52.5203 31.2084 51.6098 33.177C50.6992 35.1457 49.4187 36.805 47.7683 38.1549C46.1748 39.4486 44.2967 40.2923 42.1341 40.686Z" fill="url(#paint0_linear_421_4766)"/>
<defs>
<linearGradient id="paint0_linear_421_4766" x1="12" y1="72.8932" x2="45.9806" y2="27.3704" gradientUnits="userSpaceOnUse">
<stop offset="0.352014" stop-color="#C5E7FE"/>
<stop offset="1" stop-color="#C5E7FE" stop-opacity="0.2"/>
</linearGradient>
</defs>
</svg>
