<svg width="47" height="47" viewBox="0 0 47 47" fill="none" xmlns="http://www.w3.org/2000/svg">
<path d="M27.9688 34.1674H18.4631C17.5177 34.1674 16.611 33.7918 15.9425 33.1233C15.274 32.4548 14.8984 31.5481 14.8984 30.6027C14.8984 29.6573 15.274 28.7506 15.9425 28.0821C16.611 27.4136 17.5177 27.0381 18.4631 27.0381H27.9688C28.9143 27.0381 29.821 27.4136 30.4895 28.0821C31.158 28.7506 31.5335 29.6573 31.5335 30.6027C31.5335 31.5481 31.158 32.4548 30.4895 33.1233C29.821 33.7918 28.9143 34.1674 27.9688 34.1674Z" fill="#6DCDFC"/>
<path d="M23.5135 23.4972C25.8595 23.4972 27.7614 21.5954 27.7614 19.2493C27.7614 16.9033 25.8595 15.0015 23.5135 15.0015C21.1675 15.0015 19.2656 16.9033 19.2656 19.2493C19.2656 21.5954 21.1675 23.4972 23.5135 23.4972Z" fill="url(#paint0_linear_232_8471)"/>
<defs>
<linearGradient id="paint0_linear_232_8471" x1="19.2597" y1="19.2493" x2="27.7614" y2="19.2493" gradientUnits="userSpaceOnUse">
<stop offset="0.26" stop-color="white"/>
<stop offset="1" stop-color="#8CD0FD"/>
</linearGradient>
</defs>
</svg>
