<svg width="454" height="551" viewBox="0 0 454 551" fill="none" xmlns="http://www.w3.org/2000/svg">
<path d="M148.534 186.15C149.975 186.144 151.355 185.552 152.376 184.501L175.385 160.701C176.345 159.635 176.868 158.226 176.843 156.769C176.818 155.313 176.248 153.923 175.252 152.893C174.256 151.863 172.913 151.273 171.504 151.247C170.096 151.222 168.733 151.762 167.703 152.755L144.694 176.555C143.935 177.341 143.418 178.342 143.208 179.432C142.999 180.522 143.107 181.652 143.518 182.679C143.929 183.705 144.624 184.583 145.517 185.201C146.41 185.818 147.46 186.149 148.534 186.15Z" fill="#DFF2FD"/>
<path d="M141.075 241.995C141.802 241.998 142.523 241.856 143.195 241.577C143.868 241.298 144.478 240.887 144.989 240.369C146.017 239.325 146.594 237.919 146.594 236.453C146.594 234.987 146.017 233.581 144.989 232.537L119.842 207.415C118.792 206.437 117.403 205.904 115.968 205.929C114.533 205.954 113.164 206.536 112.15 207.551C111.135 208.567 110.553 209.936 110.528 211.372C110.503 212.808 111.035 214.197 112.014 215.247L137.124 240.369C137.641 240.89 138.256 241.302 138.935 241.581C139.613 241.86 140.341 242.001 141.075 241.995Z" fill="#DFF2FD"/>
<path d="M6.64029 217.563H62.0128C63.4639 217.563 64.8557 216.95 65.8818 215.859C66.9079 214.768 67.4844 213.288 67.4844 211.745C67.4844 210.203 66.9079 208.723 65.8818 207.632C64.8557 206.541 63.4639 205.928 62.0128 205.928H6.64029C5.18913 205.928 3.79737 206.541 2.77125 207.632C1.74512 208.723 1.16868 210.203 1.16868 211.745C1.16868 213.288 1.74512 214.768 2.77125 215.859C3.79737 216.95 5.18913 217.563 6.64029 217.563Z" fill="#DFF2FD"/>
<path d="M89.9477 244.322C91.0276 244.321 92.0828 244 92.9804 243.4C93.8779 242.801 94.5773 241.949 94.9904 240.952C95.4035 239.955 95.512 238.859 95.3016 237.801C95.0912 236.743 94.5717 235.771 93.8086 235.008L66.2006 207.393C65.165 206.429 63.7951 205.904 62.3797 205.929C60.9643 205.954 59.614 206.527 58.613 207.527C57.6121 208.527 57.0388 209.876 57.0138 211.289C56.9888 212.703 57.5142 214.072 58.4792 215.106L86.0868 242.721C87.1126 243.741 88.5001 244.316 89.9477 244.322Z" fill="#DFF2FD"/>
<path d="M50.8201 245.485H196.991C198.436 245.485 199.821 244.872 200.842 243.781C201.864 242.69 202.438 241.211 202.438 239.668C202.438 238.125 201.864 236.645 200.842 235.554C199.821 234.463 198.436 233.851 196.991 233.851H50.8201C49.3757 233.851 47.9904 234.463 46.9691 235.554C45.9478 236.645 45.374 238.125 45.374 239.668C45.374 241.211 45.9478 242.69 46.9691 243.781C47.9904 244.872 49.3757 245.485 50.8201 245.485Z" fill="#DFF2FD"/>
<path d="M57.4324 160.554C58.1409 160.563 58.844 160.426 59.4983 160.149C60.1527 159.872 60.7447 159.462 61.2382 158.944C61.7418 158.437 62.1415 157.833 62.4144 157.167C62.6873 156.502 62.8281 155.787 62.8281 155.066C62.8281 154.344 62.6873 153.63 62.4144 152.964C62.1415 152.299 61.7418 151.695 61.2382 151.188L10.2225 99.2013C9.20163 98.232 7.85175 97.7043 6.45663 97.7294C5.06151 97.7545 3.73003 98.3303 2.74338 99.3358C1.75673 100.341 1.19163 101.698 1.16701 103.119C1.1424 104.541 1.66023 105.917 2.61147 106.957L53.6272 158.944C54.1231 159.459 54.7154 159.866 55.3692 160.143C56.023 160.419 56.7246 160.559 57.4324 160.554Z" fill="#DFF2FD"/>
<path d="M5.44511 161.718H115.558C117.001 161.718 118.385 161.166 119.406 160.184C120.427 159.202 121 157.871 121 156.482C121 155.094 120.427 153.762 119.406 152.78C118.385 151.798 117.001 151.247 115.558 151.247H5.44511C4.00175 151.247 2.61749 151.798 1.59689 152.78C0.576294 153.762 0.00295258 155.094 0.00295258 156.482C0.00295258 157.871 0.576294 159.202 1.59689 160.184C2.61749 161.166 4.00175 161.718 5.44511 161.718Z" fill="#DFF2FD"/>
<path d="M144.587 190.803C145.675 190.802 146.738 190.479 147.642 189.875C148.546 189.27 149.251 188.411 149.667 187.406C150.083 186.402 150.192 185.296 149.981 184.23C149.769 183.163 149.245 182.183 148.477 181.414L119.932 152.841C118.896 151.819 117.498 151.247 116.043 151.247C114.587 151.247 113.191 151.819 112.154 152.841C111.639 153.349 111.23 153.954 110.952 154.622C110.673 155.289 110.529 156.005 110.529 156.729C110.529 157.452 110.673 158.168 110.952 158.835C111.23 159.503 111.639 160.108 112.154 160.617L140.698 189.19C141.736 190.212 143.131 190.79 144.587 190.803Z" fill="#DFF2FD"/>
<path d="M5.4929 189.64H145.761C147.217 189.64 148.613 189.088 149.642 188.106C150.672 187.125 151.25 185.793 151.25 184.404C151.25 183.016 150.672 181.684 149.642 180.702C148.613 179.721 147.217 179.169 145.761 179.169H5.4929C4.03708 179.169 2.64084 179.721 1.6114 180.702C0.58197 181.684 0.00367737 183.016 0.00367737 184.404C0.00367737 185.793 0.58197 187.125 1.6114 188.106C2.64084 189.088 4.03708 189.64 5.4929 189.64Z" fill="#DFF2FD"/>
<path d="M171.507 217.562C172.207 217.572 172.902 217.434 173.55 217.156C174.197 216.879 174.783 216.468 175.271 215.949C175.769 215.44 176.165 214.835 176.435 214.168C176.705 213.501 176.844 212.785 176.844 212.061C176.844 211.338 176.705 210.622 176.435 209.955C176.165 209.288 175.769 208.683 175.271 208.174L149.736 181.809C148.726 180.837 147.39 180.308 146.01 180.333C144.63 180.359 143.314 180.936 142.338 181.944C141.362 182.951 140.802 184.311 140.778 185.736C140.754 187.161 141.266 188.54 142.207 189.583L167.742 215.949C168.232 216.464 168.819 216.873 169.466 217.15C170.112 217.427 170.806 217.567 171.507 217.562Z" fill="#DFF2FD"/>
<path d="M223.752 269.917C224.466 269.923 225.174 269.784 225.834 269.51C226.493 269.237 227.091 268.833 227.591 268.323C228.099 267.821 228.503 267.223 228.778 266.564C229.054 265.905 229.195 265.198 229.195 264.483C229.195 263.769 229.054 263.062 228.778 262.402C228.503 261.743 228.099 261.145 227.591 260.643L175.507 208.55C174.477 207.59 173.114 207.068 171.707 207.093C170.299 207.117 168.957 207.688 167.961 208.683C166.966 209.679 166.396 211.022 166.371 212.43C166.346 213.838 166.868 215.2 167.828 216.23L219.913 268.323C220.413 268.833 221.011 269.237 221.67 269.51C222.33 269.784 223.038 269.923 223.752 269.917Z" fill="#DFF2FD"/>
<path d="M224.119 269.917H250.558C251.989 269.917 253.361 269.366 254.373 268.384C255.385 267.402 255.953 266.07 255.953 264.682C255.953 263.293 255.385 261.962 254.373 260.98C253.361 259.998 251.989 259.446 250.558 259.446H224.119C222.688 259.446 221.315 259.998 220.304 260.98C219.292 261.962 218.723 263.293 218.723 264.682C218.723 266.07 219.292 267.402 220.304 268.384C221.315 269.366 222.688 269.917 224.119 269.917Z" fill="#DFF2FD"/>
<path d="M118.347 105.873H167.873C169.328 105.873 170.724 105.321 171.752 104.339C172.781 103.358 173.359 102.026 173.359 100.637C173.359 99.2488 172.781 97.9171 171.752 96.9353C170.724 95.9534 169.328 95.4019 167.873 95.4019H118.347C116.892 95.4019 115.497 95.9534 114.468 96.9353C113.439 97.9171 112.861 99.2488 112.861 100.637C112.861 102.026 113.439 103.358 114.468 104.339C115.497 105.321 116.892 105.873 118.347 105.873Z" fill="#DFF2FD"/>
<path d="M88.763 79.1136C90.2121 79.1083 91.6006 78.5317 92.6275 77.5089C93.139 77.0035 93.5453 76.4015 93.8225 75.7379C94.0997 75.0744 94.2422 74.3623 94.2422 73.6431C94.2422 72.9239 94.0997 72.2119 93.8225 71.5483C93.5453 70.8847 93.139 70.2827 92.6275 69.7773L65.319 42.4614C64.8183 41.924 64.2149 41.4929 63.5441 41.1939C62.8732 40.8949 62.1487 40.734 61.4144 40.7211C60.6801 40.7081 59.9506 40.8433 59.2696 41.1184C58.5887 41.3935 57.97 41.8031 57.4506 42.3225C56.9313 42.842 56.5222 43.4607 56.2472 44.1419C55.9721 44.8231 55.8368 45.5527 55.8497 46.2873C55.8627 47.0218 56.0235 47.7461 56.3224 48.4172C56.6213 49.0882 57.0522 49.6922 57.5895 50.193L84.898 77.5089C85.9249 78.5317 87.3138 79.1083 88.763 79.1136Z" fill="#DFF2FD"/>
<path d="M91.4051 79.1135H144.632C146.079 79.1135 147.466 78.5618 148.489 77.58C149.511 76.5982 150.086 75.2666 150.086 73.878C150.086 72.4895 149.511 71.1578 148.489 70.176C147.466 69.1941 146.079 68.6426 144.632 68.6426H91.5507C90.1043 68.6426 88.7171 69.1941 87.6944 70.176C86.6716 71.1578 86.0971 72.4895 86.0971 73.878C86.0971 75.2666 86.6716 76.5982 87.6944 77.58C88.7171 78.5618 90.1043 79.1135 91.5507 79.1135H91.4051Z" fill="#DFF2FD"/>
<path d="M93.4173 134.958C94.5 134.957 95.5585 134.636 96.4585 134.034C97.3585 133.432 98.0598 132.577 98.474 131.576C98.8882 130.576 98.9966 129.476 98.7856 128.414C98.5746 127.352 98.0537 126.377 97.2886 125.611L44.2614 72.5561C43.2296 71.5393 41.8393 70.9692 40.3905 70.9692C38.9417 70.9692 37.551 71.5393 36.5192 72.5561C36.0068 73.0622 35.6003 73.6648 35.3226 74.3292C35.045 74.9936 34.9018 75.7065 34.9018 76.4266C34.9018 77.1466 35.045 77.8595 35.3226 78.5239C35.6003 79.1883 36.0068 79.791 36.5192 80.297L89.5098 133.352C90.5518 134.378 91.9546 134.955 93.4173 134.958Z" fill="#DFF2FD"/>
<path d="M93.864 134.959H199.324C200.767 134.959 202.151 134.346 203.172 133.255C204.192 132.164 204.766 130.684 204.766 129.141C204.766 127.599 204.192 126.119 203.172 125.028C202.151 123.937 200.767 123.324 199.324 123.324H93.864C92.4208 123.324 91.0371 123.937 90.0166 125.028C88.996 126.119 88.4223 127.599 88.4223 129.141C88.4223 130.684 88.996 132.164 90.0166 133.255C91.0371 134.346 92.4208 134.959 93.864 134.959Z" fill="#DFF2FD"/>
<path d="M144.27 79.1138C145.812 79.1138 147.292 78.5449 148.382 77.5323C149.473 76.5198 150.086 75.1465 150.086 73.7145V19.3608C150.086 17.9288 149.473 16.5554 148.382 15.5428C147.292 14.5303 145.812 13.9614 144.27 13.9614C142.727 13.9614 141.248 14.5303 140.157 15.5428C139.066 16.5554 138.454 17.9288 138.454 19.3608V73.5705C138.433 74.2915 138.568 75.0091 138.851 75.6809C139.134 76.3527 139.559 76.9651 140.101 77.4818C140.643 77.9985 141.292 78.4092 142.008 78.6895C142.724 78.9698 143.493 79.1141 144.27 79.1138Z" fill="#DFF2FD"/>
<path d="M172.191 52.3543C173.733 52.3543 175.213 51.7798 176.304 50.757C177.395 49.7343 178.008 48.3471 178.008 46.9007V19.4145C178.008 17.9682 177.395 16.581 176.304 15.5582C175.213 14.5355 173.733 13.9609 172.191 13.9609C170.648 13.9609 169.168 14.5355 168.077 15.5582C166.986 16.581 166.373 17.9682 166.373 19.4145V46.9007C166.373 48.3471 166.986 49.7343 168.077 50.757C169.168 51.7798 170.648 52.3543 172.191 52.3543Z" fill="#DFF2FD"/>
<path d="M227.257 107.036C228.334 107.025 229.384 106.698 230.276 106.094C231.168 105.491 231.863 104.639 232.273 103.643C232.684 102.648 232.792 101.554 232.585 100.497C232.378 99.4409 231.865 98.4688 231.109 97.7021L176.613 43.2228C175.565 42.3149 174.211 41.8377 172.825 41.8873C171.439 41.9369 170.123 42.5095 169.142 43.49C168.161 44.4705 167.588 45.7861 167.539 47.1719C167.489 48.5576 167.967 49.9108 168.875 50.9589L223.37 105.438C224.407 106.459 225.802 107.033 227.257 107.036Z" fill="#DFF2FD"/>
<path d="M283.304 141.939C284.692 141.939 286.024 141.362 287.006 140.336C287.988 139.31 288.539 137.918 288.539 136.466V74.1152C288.539 72.6638 287.988 71.2717 287.006 70.2454C286.024 69.2191 284.692 68.6426 283.304 68.6426C281.915 68.6426 280.583 69.2191 279.602 70.2454C278.62 71.2717 278.068 72.6638 278.068 74.1152V136.466C278.068 137.918 278.62 139.31 279.602 140.336C280.583 141.362 281.915 141.939 283.304 141.939Z" fill="#DFF2FD"/>
<path d="M283.494 162.878C284.515 162.833 285.502 162.46 286.334 161.807C287.166 161.153 287.807 160.246 288.179 159.196C288.55 158.147 288.637 157.001 288.427 155.898C288.217 154.795 287.721 153.784 286.998 152.988C286.765 152.714 286.507 152.468 286.227 152.254C285.943 152.036 285.637 151.855 285.316 151.713C284.361 151.254 283.3 151.13 282.278 151.358C281.257 151.586 280.324 152.155 279.605 152.988C278.621 154.074 278.068 155.547 278.068 157.083C278.068 158.619 278.621 160.092 279.605 161.178C280.113 161.74 280.721 162.181 281.39 162.473C282.059 162.766 282.775 162.903 283.494 162.878Z" fill="#DFF2FD"/>
<path d="M283.187 136.122C283.893 136.125 284.592 135.987 285.244 135.717C285.896 135.446 286.487 135.048 286.983 134.546C287.98 133.534 288.539 132.169 288.539 130.748C288.539 129.327 287.98 127.963 286.983 126.951L260.342 100.334C259.324 99.3852 257.977 98.8684 256.585 98.8929C255.194 98.9175 253.866 99.4815 252.882 100.466C251.898 101.451 251.335 102.779 251.31 104.171C251.285 105.563 251.802 106.91 252.751 107.929L279.356 134.546C279.857 135.051 280.454 135.45 281.112 135.721C281.77 135.992 282.476 136.128 283.187 136.122Z" fill="#DFF2FD"/>
<path d="M254.21 79.1134C255.598 79.1134 256.93 78.5538 257.912 77.5576C258.894 76.5613 259.445 75.2101 259.445 73.8013V53.0129C259.445 51.604 258.894 50.2528 257.912 49.2566C256.93 48.2603 255.598 47.7007 254.21 47.7007C252.821 47.7007 251.49 48.2603 250.508 49.2566C249.526 50.2528 248.974 51.604 248.974 53.0129V73.8013C248.974 75.2101 249.526 76.5613 250.508 77.5576C251.49 78.5538 252.821 79.1134 254.21 79.1134Z" fill="#DFF2FD"/>
<path d="M283.304 52.3547C284.692 52.3547 286.024 51.7672 287.006 50.7214C287.988 49.6755 288.539 48.2571 288.539 46.7781V18.3745C288.539 16.8955 287.988 15.4771 287.006 14.4313C286.024 13.3855 284.692 12.7979 283.304 12.7979C281.915 12.7979 280.583 13.3855 279.602 14.4313C278.62 15.4771 278.068 16.8955 278.068 18.3745V46.7781C278.068 48.2571 278.62 49.6755 279.602 50.7214C280.583 51.7672 281.915 52.3547 283.304 52.3547Z" fill="#DFF2FD"/>
<path d="M231.151 103.546C232.589 103.54 233.968 102.957 234.987 101.923L285.647 50.2981C286.181 49.7918 286.608 49.1812 286.905 48.5027C287.202 47.8242 287.361 47.0917 287.374 46.349C287.387 45.6063 287.253 44.8687 286.98 44.1799C286.707 43.4912 286.3 42.8655 285.785 42.3402C285.269 41.815 284.656 41.4009 283.98 41.1227C283.304 40.8445 282.58 40.708 281.851 40.7211C281.122 40.7342 280.403 40.8967 279.738 41.199C279.072 41.5013 278.473 41.9372 277.976 42.4807L227.316 94.1057C226.808 94.6168 226.405 95.2254 226.13 95.8964C225.854 96.5673 225.713 97.2873 225.713 98.0145C225.713 98.7417 225.854 99.4616 226.13 100.133C226.405 100.804 226.808 101.412 227.316 101.923C228.335 102.957 229.713 103.54 231.151 103.546Z" fill="#DFF2FD"/>
<path d="M228.616 62.8255C230.005 62.8255 231.336 62.2502 232.318 61.2262C233.3 60.2022 233.852 58.8133 233.852 57.3652V8.95054C233.852 7.50237 233.3 6.11349 232.318 5.08949C231.336 4.06548 230.005 3.49023 228.616 3.49023C227.228 3.49023 225.896 4.06548 224.914 5.08949C223.932 6.11349 223.381 7.50237 223.381 8.95054V57.4379C223.408 58.8705 223.971 60.2353 224.949 61.2417C225.926 62.248 227.242 62.8163 228.616 62.8255Z" fill="#DFF2FD"/>
<path d="M199.298 134.959C200.754 134.955 202.149 134.376 203.186 133.345C204.198 132.308 204.766 130.912 204.766 129.456C204.766 128.001 204.198 126.604 203.186 125.568L93.0509 14.4223C92.5474 13.9077 91.9476 13.4992 91.2865 13.2203C90.6253 12.9415 89.9156 12.7979 89.1991 12.7979C88.4825 12.7979 87.7733 12.9415 87.1121 13.2203C86.451 13.4992 85.8512 13.9077 85.3476 14.4223C84.3358 15.4586 83.7686 16.8555 83.7686 18.3106C83.7686 19.7658 84.3358 21.1625 85.3476 22.1989L195.446 133.345C196.474 134.367 197.856 134.946 199.298 134.959Z" fill="#DFF2FD"/>
<path d="M199.53 191.967C200.919 191.967 202.25 191.388 203.232 190.358C204.214 189.327 204.766 187.93 204.766 186.473V128.819C204.766 127.361 204.214 125.964 203.232 124.933C202.25 123.903 200.919 123.324 199.53 123.324C198.142 123.324 196.81 123.903 195.828 124.933C194.846 125.964 194.295 127.361 194.295 128.819V186.582C194.322 188.021 194.886 189.39 195.865 190.397C196.844 191.403 198.16 191.967 199.53 191.967Z" fill="#DFF2FD"/>
<path d="M224.931 217.562C226.375 217.549 227.758 216.975 228.787 215.961C229.799 214.933 230.367 213.547 230.367 212.104C230.367 210.66 229.799 209.275 228.787 208.247L203.726 183.175C203.227 182.657 202.631 182.242 201.971 181.954C201.312 181.666 200.602 181.511 199.883 181.497C199.163 181.484 198.448 181.612 197.779 181.875C197.109 182.138 196.497 182.53 195.979 183.03C195.461 183.529 195.046 184.126 194.758 184.785C194.47 185.445 194.315 186.155 194.302 186.875C194.288 187.595 194.417 188.31 194.68 188.98C194.942 189.65 195.334 190.262 195.833 190.78L220.894 215.852C221.41 216.402 222.037 216.839 222.732 217.133C223.427 217.428 224.176 217.574 224.931 217.562Z" fill="#DFF2FD"/>
<path d="M226.526 217.563H256.3C257.752 217.563 259.144 217.011 260.17 216.029C261.197 215.047 261.773 213.716 261.773 212.327C261.773 210.939 261.197 209.607 260.17 208.625C259.144 207.643 257.752 207.092 256.3 207.092H226.526C225.075 207.092 223.683 207.643 222.656 208.625C221.63 209.607 221.053 210.939 221.053 212.327C221.053 213.716 221.63 215.047 222.656 216.029C223.683 217.011 225.075 217.563 226.526 217.563Z" fill="#DFF2FD"/>
<path d="M228.616 164.045C230.005 164.045 231.336 163.467 232.318 162.439C233.3 161.41 233.852 160.016 233.852 158.562V47.3668C233.852 45.9126 233.3 44.5179 232.318 43.4897C231.336 42.4614 230.005 41.8838 228.616 41.8838C227.228 41.8838 225.896 42.4614 224.914 43.4897C223.932 44.5179 223.381 45.9126 223.381 47.3668V158.562C223.39 160.013 223.944 161.402 224.924 162.428C225.904 163.454 227.23 164.035 228.616 164.045Z" fill="#DFF2FD"/>
<path d="M254.055 189.639C254.766 189.643 255.47 189.504 256.126 189.232C256.783 188.959 257.379 188.558 257.878 188.052C258.882 187.033 259.445 185.659 259.445 184.228C259.445 182.797 258.882 181.423 257.878 180.404L233.786 156.305C232.767 155.3 231.393 154.737 229.962 154.737C228.532 154.737 227.159 155.3 226.14 156.305C225.634 156.805 225.232 157.4 224.957 158.057C224.683 158.713 224.542 159.417 224.542 160.129C224.542 160.84 224.683 161.545 224.957 162.201C225.232 162.857 225.634 163.453 226.14 163.953L250.232 188.052C250.727 188.563 251.322 188.967 251.979 189.24C252.637 189.513 253.343 189.649 254.055 189.639Z" fill="#DFF2FD"/>
<path d="M283.304 218.726C284.692 218.726 286.024 218.154 287.006 217.135C287.988 216.117 288.539 214.736 288.539 213.295V131.081C288.539 129.641 287.988 128.26 287.006 127.241C286.024 126.223 284.692 125.651 283.304 125.651C281.915 125.651 280.583 126.223 279.602 127.241C278.62 128.26 278.068 129.641 278.068 131.081V213.295C278.068 214.736 278.62 216.117 279.602 217.135C280.583 218.154 281.915 218.726 283.304 218.726Z" fill="#DFF2FD"/>
<path d="M310.234 79.113C310.949 79.1226 311.658 78.9862 312.319 78.7121C312.979 78.4379 313.577 78.032 314.075 77.5189L342.771 48.8595C343.795 47.8409 344.372 46.4575 344.375 45.0137C344.378 43.5698 343.808 42.1836 342.789 41.1603C341.771 40.1369 340.387 39.5601 338.944 39.5567C337.5 39.5533 336.113 40.1235 335.09 41.1421L306.393 69.8377C305.384 70.8613 304.818 72.2409 304.818 73.6782C304.818 75.1155 305.384 76.4952 306.393 77.5189C306.894 78.0286 307.492 78.4323 308.151 78.7062C308.811 78.9801 309.519 79.1184 310.234 79.113Z" fill="#DFF2FD"/>
<path d="M310.061 193.13C311.45 193.13 312.782 192.553 313.763 191.527C314.745 190.5 315.297 189.108 315.297 187.656V74.117C315.297 72.6651 314.745 71.2726 313.763 70.246C312.782 69.2193 311.45 68.6426 310.061 68.6426C308.673 68.6426 307.342 69.2193 306.36 70.246C305.378 71.2726 304.826 72.6651 304.826 74.117V187.656C304.826 189.108 305.378 190.5 306.36 191.527C307.342 192.553 308.673 193.13 310.061 193.13Z" fill="#DFF2FD"/>
<path d="M335.989 108.199C337.459 108.187 338.866 107.619 339.913 106.617L369.521 77.8557C370.562 76.8402 371.144 75.4648 371.141 74.032C371.137 72.5993 370.548 71.2266 369.503 70.2158C368.457 69.2051 367.041 68.6392 365.566 68.6426C364.091 68.646 362.679 69.2183 361.638 70.2338L332.029 98.9956C330.999 100.011 330.42 101.38 330.42 102.807C330.42 104.233 330.999 105.602 332.029 106.617C333.085 107.628 334.507 108.196 335.989 108.199Z" fill="#DFF2FD"/>
<path d="M336.238 164.044C337.78 164.044 339.26 163.464 340.351 162.432C341.442 161.4 342.055 159.999 342.055 158.539V103.233C342.055 101.773 341.442 100.373 340.351 99.3408C339.26 98.3085 337.78 97.7285 336.238 97.7285C334.695 97.7285 333.215 98.3085 332.124 99.3408C331.033 100.373 330.42 101.773 330.42 103.233V158.539C330.42 159.999 331.033 161.4 332.124 162.432C333.215 163.464 334.695 164.044 336.238 164.044Z" fill="#DFF2FD"/>
<path d="M366.178 189.603C366.905 189.605 367.624 189.462 368.295 189.184C368.966 188.906 369.574 188.498 370.086 187.983L425.382 132.76C426.409 131.719 426.984 130.318 426.984 128.857C426.984 127.397 426.409 125.995 425.382 124.955C424.871 124.438 424.263 124.028 423.592 123.748C422.921 123.468 422.202 123.324 421.475 123.324C420.748 123.324 420.028 123.468 419.357 123.748C418.687 124.028 418.078 124.438 417.567 124.955L362.271 180.178C361.504 180.956 360.983 181.941 360.773 183.012C360.562 184.083 360.673 185.192 361.089 186.201C361.506 187.21 362.211 188.074 363.116 188.685C364.021 189.297 365.086 189.629 366.178 189.64V189.603Z" fill="#DFF2FD"/>
<path d="M312.563 189.64H361.071C362.506 189.64 363.883 189.088 364.899 188.106C365.914 187.125 366.484 185.793 366.484 184.404C366.484 183.016 365.914 181.684 364.899 180.702C363.883 179.721 362.506 179.169 361.071 179.169H312.563C311.127 179.169 309.75 179.721 308.735 180.702C307.72 181.684 307.149 183.016 307.149 184.404C307.149 185.793 307.72 187.125 308.735 188.106C309.75 189.088 311.127 189.64 312.563 189.64Z" fill="#DFF2FD"/>
<path d="M283.531 218.726C284.974 218.713 286.355 218.14 287.382 217.128L397.6 106.891C398.563 105.858 399.087 104.492 399.062 103.081C399.037 101.669 398.465 100.323 397.467 99.3243C396.468 98.3261 395.121 97.7543 393.71 97.7294C392.298 97.7045 390.932 98.2284 389.899 99.1907L279.645 209.427C278.633 210.454 278.065 211.837 278.065 213.278C278.065 214.718 278.633 216.101 279.645 217.128C280.681 218.149 282.076 218.722 283.531 218.726Z" fill="#DFF2FD"/>
<path d="M260.116 218.726H283.223C284.633 218.726 285.985 218.174 286.982 217.192C287.979 216.211 288.539 214.879 288.539 213.49C288.539 212.102 287.979 210.77 286.982 209.788C285.985 208.806 284.633 208.255 283.223 208.255H260.116C258.706 208.255 257.353 208.806 256.357 209.788C255.36 210.77 254.799 212.102 254.799 213.49C254.799 214.879 255.36 216.211 256.357 217.192C257.353 218.174 258.706 218.726 260.116 218.726Z" fill="#DFF2FD"/>
<path d="M254.21 245.485C255.598 245.485 256.93 244.908 257.912 243.881C258.894 242.855 259.445 241.462 259.445 240.01V184.644C259.445 183.192 258.894 181.799 257.912 180.772C256.93 179.746 255.598 179.169 254.21 179.169C252.821 179.169 251.49 179.746 250.508 180.772C249.526 181.799 248.974 183.192 248.974 184.644V240.01C248.974 241.462 249.526 242.855 250.508 243.881C251.49 244.908 252.821 245.485 254.21 245.485Z" fill="#DFF2FD"/>
<path d="M254.21 273.407C255.598 273.407 256.93 272.821 257.912 271.777C258.894 270.733 259.445 269.317 259.445 267.841V239.417C259.445 237.941 258.894 236.525 257.912 235.481C256.93 234.437 255.598 233.851 254.21 233.851C252.821 233.851 251.49 234.437 250.508 235.481C249.526 236.525 248.974 237.941 248.974 239.417V267.841C248.974 269.317 249.526 270.733 250.508 271.777C251.49 272.821 252.821 273.407 254.21 273.407Z" fill="#DFF2FD"/>
<path d="M420.782 191.967H448.309C449.75 191.967 451.132 191.415 452.15 190.434C453.169 189.452 453.742 188.12 453.742 186.732C453.742 185.343 453.169 184.011 452.15 183.029C451.132 182.048 449.75 181.496 448.309 181.496H420.782C419.341 181.496 417.959 182.048 416.94 183.029C415.921 184.011 415.349 185.343 415.349 186.732C415.349 188.12 415.921 189.452 416.94 190.434C417.959 191.415 419.341 191.967 420.782 191.967Z" fill="#DFF2FD"/>
<path d="M394.047 218.726C395.471 218.72 396.836 218.143 397.845 217.119L449.846 164.095C450.345 163.584 450.74 162.978 451.009 162.312C451.278 161.646 451.416 160.932 451.414 160.211C451.412 159.49 451.271 158.777 450.999 158.112C450.727 157.447 450.329 156.843 449.828 156.335C449.327 155.826 448.732 155.424 448.078 155.15C447.424 154.875 446.724 154.735 446.017 154.737C445.309 154.739 444.609 154.882 443.956 155.159C443.304 155.437 442.711 155.842 442.212 156.353L390.176 209.377C389.673 209.883 389.274 210.486 389.002 211.15C388.729 211.815 388.589 212.528 388.589 213.248C388.589 213.968 388.729 214.681 389.002 215.345C389.274 216.01 389.673 216.613 390.176 217.119C390.684 217.635 391.288 218.042 391.953 218.318C392.617 218.594 393.329 218.733 394.047 218.726Z" fill="#DFF2FD"/>
<path d="M390.917 245.485C392.46 245.485 393.94 244.894 395.031 243.843C396.122 242.792 396.734 241.366 396.734 239.879V215.025C396.734 213.538 396.122 212.112 395.031 211.06C393.94 210.009 392.46 209.418 390.917 209.418C389.374 209.418 387.895 210.009 386.804 211.06C385.713 212.112 385.1 213.538 385.1 215.025V239.879C385.1 241.366 385.713 242.792 386.804 243.843C387.895 244.894 389.374 245.485 390.917 245.485Z" fill="#DFF2FD"/>
<path d="M424.252 243.158C425.703 243.154 427.094 242.583 428.127 241.565L452.284 217.386C453.244 216.357 453.766 214.995 453.741 213.589C453.717 212.182 453.146 210.84 452.151 209.845C451.156 208.85 449.813 208.281 448.406 208.256C446.998 208.231 445.636 208.753 444.606 209.712L420.413 233.892C419.405 234.914 418.839 236.292 418.839 237.728C418.839 239.164 419.405 240.543 420.413 241.565C421.437 242.574 422.814 243.145 424.252 243.158Z" fill="#DFF2FD"/>
<path d="M310.172 245.485H421.49C422.947 245.485 424.345 244.872 425.375 243.781C426.406 242.69 426.984 241.211 426.984 239.668C426.984 238.125 426.406 236.645 425.375 235.554C424.345 234.463 422.947 233.851 421.49 233.851H310.318C308.861 233.851 307.464 234.463 306.433 235.554C305.403 236.645 304.824 238.125 304.824 239.668C304.824 241.211 305.403 242.69 306.433 243.781C307.464 244.872 308.861 245.485 310.318 245.485H310.172Z" fill="#DFF2FD"/>
<path d="M282.418 273.408C283.878 273.402 285.278 272.821 286.312 271.791L342.896 215.198C343.869 214.153 344.399 212.771 344.374 211.343C344.349 209.915 343.771 208.553 342.761 207.543C341.751 206.533 340.389 205.954 338.961 205.929C337.533 205.904 336.151 206.434 335.106 207.408L278.523 264C278.008 264.509 277.599 265.116 277.319 265.784C277.04 266.453 276.896 267.171 276.896 267.895C276.896 268.62 277.04 269.337 277.319 270.006C277.599 270.675 278.008 271.281 278.523 271.791C279.558 272.821 280.958 273.402 282.418 273.408Z" fill="#DFF2FD"/>
<path d="M259.2 273.407H282.975C284.451 273.407 285.866 272.794 286.909 271.704C287.952 270.613 288.539 269.133 288.539 267.59C288.539 266.047 287.952 264.568 286.909 263.477C285.866 262.386 284.451 261.773 282.975 261.773H259.2C257.724 261.773 256.309 262.386 255.266 263.477C254.222 264.568 253.636 266.047 253.636 267.59C253.636 269.133 254.222 270.613 255.266 271.704C256.309 272.794 257.724 273.407 259.2 273.407Z" fill="#DFF2FD"/>
<path d="M254.21 303.657C255.598 303.657 256.93 303.066 257.912 302.014C258.894 300.962 259.445 299.535 259.445 298.047V267.382C259.445 265.895 258.894 264.468 257.912 263.416C256.93 262.364 255.598 261.773 254.21 261.773C252.821 261.773 251.49 262.364 250.508 263.416C249.526 264.468 248.974 265.895 248.974 267.382V298.047C248.974 299.535 249.526 300.962 250.508 302.014C251.49 303.066 252.821 303.657 254.21 303.657Z" fill="#DFF2FD"/>
<path d="M309.223 301.329C310.576 301.355 311.89 300.873 312.9 299.981L345.996 271.386C346.541 270.907 346.987 270.327 347.306 269.678C347.625 269.03 347.812 268.325 347.857 267.604C347.901 266.884 347.802 266.162 347.565 265.479C347.327 264.797 346.957 264.167 346.474 263.627C345.991 263.086 345.406 262.645 344.751 262.329C344.096 262.013 343.384 261.827 342.656 261.783C341.929 261.739 341.2 261.838 340.511 262.073C339.822 262.308 339.187 262.675 338.641 263.153L305.545 291.748C304.696 292.483 304.095 293.457 303.821 294.54C303.548 295.623 303.616 296.763 304.017 297.807C304.418 298.85 305.131 299.747 306.062 300.377C306.993 301.007 308.096 301.339 309.223 301.329Z" fill="#DFF2FD"/>
<path d="M341.713 273.407H448.265C449.718 273.407 451.11 272.794 452.138 271.704C453.165 270.613 453.742 269.133 453.742 267.59C453.742 266.047 453.165 264.568 452.138 263.477C451.11 262.386 449.718 261.773 448.265 261.773H341.713C340.26 261.773 338.867 262.386 337.84 263.477C336.812 264.568 336.235 266.047 336.235 267.59C336.235 269.133 336.812 270.613 337.84 271.704C338.867 272.794 340.26 273.407 341.713 273.407Z" fill="#DFF2FD"/>
<path d="M336.619 329.252C337.697 329.241 338.748 328.913 339.641 328.31C340.533 327.706 341.229 326.853 341.64 325.857C342.051 324.861 342.159 323.767 341.952 322.71C341.745 321.652 341.231 320.68 340.474 319.912L312.981 292.438C311.954 291.426 310.569 290.859 309.126 290.859C307.684 290.859 306.299 291.426 305.272 292.438C304.762 292.942 304.356 293.542 304.08 294.203C303.804 294.864 303.661 295.574 303.661 296.29C303.661 297.007 303.804 297.717 304.08 298.378C304.356 299.039 304.762 299.639 305.272 300.143L332.764 327.653C333.793 328.666 335.175 329.239 336.619 329.252Z" fill="#DFF2FD"/>
<path d="M254.46 301.33H365.661C367.114 301.33 368.508 300.717 369.536 299.626C370.563 298.535 371.141 297.055 371.141 295.512C371.141 293.97 370.563 292.49 369.536 291.399C368.508 290.308 367.114 289.695 365.661 289.695H254.46C253.007 289.695 251.613 290.308 250.585 291.399C249.557 292.49 248.98 293.97 248.98 295.512C248.98 297.055 249.557 298.535 250.585 299.626C251.613 300.717 253.007 301.33 254.46 301.33Z" fill="#DFF2FD"/>
<path d="M254.21 550.305C255.598 550.305 256.93 549.728 257.912 548.7C258.894 547.672 259.445 546.278 259.445 544.824V297.504C259.445 296.05 258.894 294.656 257.912 293.628C256.93 292.6 255.598 292.022 254.21 292.022C252.821 292.022 251.49 292.6 250.508 293.628C249.526 294.656 248.974 296.05 248.974 297.504V544.824C248.974 546.278 249.526 547.672 250.508 548.7C251.49 549.728 252.821 550.305 254.21 550.305Z" fill="url(#paint0_linear_232_8276)"/>
<path d="M392.075 126.814C379.224 126.814 368.806 116.397 368.806 103.546C368.806 90.6946 379.224 80.2769 392.075 80.2769C404.926 80.2769 415.344 90.6946 415.344 103.546C415.344 116.397 404.926 126.814 392.075 126.814Z" fill="#5BBFFE"/>
<path d="M399.062 295.739L364.16 274.571V315.291L399.062 295.739Z" fill="#5BBFFE"/>
<path d="M228.478 52.2089L202.383 26.1045L228.478 9.77201e-05L254.573 26.1045L228.478 52.2089Z" fill="#5BBFFE"/>
<path d="M24.4333 60.4985L35.1299 98.915L74.4609 109.363L63.8012 70.9464L24.4333 60.4985Z" fill="#5BBFFE"/>
<path d="M187.311 173.352H155.898V141.939H187.311V173.352Z" fill="#5BBFFE"/>
<defs>
<linearGradient id="paint0_linear_232_8276" x1="254.21" y1="292.022" x2="254.21" y2="550.305" gradientUnits="userSpaceOnUse">
<stop stop-color="#DFF2FD"/>
<stop offset="1" stop-color="#DFF2FD" stop-opacity="0"/>
</linearGradient>
</defs>
</svg>
