<svg width="110" height="110" viewBox="0 0 110 110" fill="none" xmlns="http://www.w3.org/2000/svg">
<path d="M2 84C2 80.0241 2.30498 76.4458 2.91494 73.2651C3.5249 70.0843 4.57054 67.1245 6.05187 64.3855C7.62033 61.6466 9.71162 59.0843 12.3257 56.6988C15.027 54.2249 18.4253 51.8394 22.5207 49.5422C26.0934 47.5984 29.2303 45.9197 31.9315 44.506C34.6328 43.004 36.8983 41.6345 38.7282 40.3976C40.6452 39.1606 42.083 37.9237 43.0415 36.6867C44 35.3614 44.4792 33.8594 44.4792 32.1807C44.4792 30.4137 44 28.8233 43.0415 27.4096C42.083 25.9076 40.7324 24.7149 38.9896 23.8313C37.2469 22.9478 35.0685 22.506 32.4544 22.506C30.3631 22.506 28.4025 22.7711 26.5726 23.3012C24.8299 23.8313 23.1743 24.5823 21.6058 25.5542C20.1245 26.5261 18.7303 27.6305 17.4232 28.8675C16.1162 30.0161 14.9398 31.253 13.8942 32.5783L2.78423 19.5904C4.00415 18.3534 5.61618 17.0281 7.62033 15.6145C9.71162 14.1124 12.1515 12.743 14.9398 11.506C17.8154 10.1807 20.9523 9.12048 24.3506 8.32529C27.8361 7.44176 31.5394 7 35.4606 7C41.3859 7 46.4398 7.97188 50.6224 9.91566C54.805 11.7711 57.9855 14.3775 60.1639 17.7349C62.4295 21.0924 63.5622 25.0241 63.5622 29.5301C63.5622 32.6225 62.9958 35.3614 61.8631 37.747C60.7303 40.1325 59.2925 42.253 57.5498 44.1084C55.807 45.8755 53.89 47.4659 51.7988 48.8795C49.7946 50.2932 47.834 51.5301 45.917 52.5904C43.2158 54.004 40.7759 55.3293 38.5975 56.5663C36.4191 57.7149 34.5021 58.9076 32.8465 60.1446C31.1909 61.2932 29.7095 62.4859 28.4025 63.7229C27.1826 64.9598 26.0934 66.3735 25.1349 67.9639H65V84H2Z" fill="black"/>
<circle cx="67" cy="70" r="32" fill="#FFD600"/>
<path d="M67.4992 48.854L74.7186 59.4166L86.9964 63.0195L79.1807 73.1499L79.548 85.9385L67.4992 81.6369L55.4503 85.9385L55.8176 73.1499L48.002 63.0195L60.2797 59.4166L67.4992 48.854Z" fill="#FFAC0C"/>
</svg>
