<svg width="110" height="110" viewBox="0 0 110 110" fill="none" xmlns="http://www.w3.org/2000/svg">
<path d="M63 74.1068V90H9.62911V74.1068H28.2958V34.3082C27.507 35.359 26.2801 36.4536 24.615 37.5919C22.9499 38.6427 21.0657 39.6497 18.9624 40.613C16.8592 41.5762 14.7559 42.3643 12.6526 42.9772C10.5493 43.5902 8.6651 43.8967 7 43.8967V27.4781C8.57746 27.4781 10.4617 26.9965 12.6526 26.0333C14.9311 24.9825 17.1659 23.7566 19.3568 22.3555C21.6354 20.9545 23.5634 19.5972 25.1408 18.2837C26.8059 16.8827 27.8576 15.7881 28.2958 15H46.3052V74.1068H63Z" fill="black"/>
</svg>
