<svg width="110" height="110" viewBox="0 0 110 110" fill="none" xmlns="http://www.w3.org/2000/svg">
<g clip-path="url(#clip0_717_4814)">
<path d="M46.6362 46.675C50.3354 47.2881 53.5501 48.6897 56.2805 50.8797C59.0108 52.982 61.1247 55.6976 62.6219 59.0263C64.2073 62.355 65 66.0341 65 70.0636C65 75.4947 63.5908 80.225 60.7724 84.2545C57.9539 88.284 53.9465 91.3937 48.75 93.5837C43.6416 95.8612 37.6084 97 30.6504 97C23.9566 97 18.0115 95.905 12.815 93.7151C7.70664 91.6127 3.43496 88.503 0 84.3859L10.0406 71.9032C12.3306 74.7063 15.061 76.8963 18.2317 78.473C21.4905 80.1374 25.4539 80.9696 30.1219 80.9696C35.4946 80.9696 39.5901 79.8746 42.4085 77.6846C45.227 75.5823 46.6362 72.385 46.6362 68.0927C46.6362 63.5376 45.0068 60.0337 41.748 57.5809C38.4892 55.1282 33.5569 53.9018 26.9512 53.9018H23.252V40.7621H27.3476C32.7202 40.7621 36.9038 39.5357 39.8984 37.083C42.981 34.6302 44.5224 31.5643 44.5224 27.8852C44.5224 25.5201 43.9499 23.5491 42.8049 21.9723C41.6599 20.3956 40.0745 19.213 38.0488 18.4246C36.1111 17.6362 33.8211 17.242 31.1789 17.242C27.2154 17.242 23.6043 18.1618 20.3455 20.0014C17.0867 21.8409 14.4444 24.4251 12.4187 27.7538L1.32114 15.4025C3.17073 12.687 5.68089 10.3656 8.85163 8.43845C12.1104 6.4237 15.8096 4.84693 19.9492 3.70816C24.1768 2.56938 28.5806 2 33.1606 2C39.1497 2 44.3902 2.96357 48.8821 4.89073C53.4621 6.81789 57.0291 9.53342 59.5833 13.0373C62.1375 16.5413 63.4146 20.6146 63.4146 25.2573C63.4146 28.6736 62.71 31.9147 61.3008 34.9806C59.8916 38.0466 57.9099 40.6307 55.3557 42.7331C52.8896 44.7478 49.9831 46.0618 46.6362 46.675Z" fill="black"/>
<path d="M105.054 94.7164L89.7114 68.9123L86.2411 83.097L74.3832 80.1959L88.9375 104.676C89.5677 105.756 90.4032 106.698 91.396 107.445C92.3887 108.193 93.5191 108.733 94.7218 109.033C95.9244 109.333 97.1758 109.388 98.4035 109.195C99.6311 109.002 100.811 108.563 101.874 107.906C102.938 107.249 103.865 106.385 104.601 105.365C105.338 104.345 105.869 103.188 106.164 101.962C106.46 100.736 106.514 99.464 106.323 98.2205C106.133 96.977 105.701 95.7861 105.054 94.7164Z" fill="#39B8FF"/>
<path d="M67.6096 89.9002C61.8967 88.5025 56.7337 85.4125 52.7737 81.0209C48.8137 76.6293 46.2345 71.1334 45.3622 65.2282C44.4898 59.3229 45.3634 53.2736 47.8728 47.8451C50.3821 42.4166 54.4145 37.8528 59.4597 34.7308C64.5049 31.6088 70.3365 30.0688 76.2171 30.3056C82.0976 30.5424 87.7632 32.5454 92.497 36.0612C97.2308 39.5769 100.82 44.4476 102.812 50.0574C104.803 55.6671 105.107 61.7639 103.685 67.5767C101.778 75.3715 96.9057 82.1025 90.1402 86.2889C83.3748 90.4754 75.2704 91.7744 67.6096 89.9002ZM77.4719 49.5891C75.3671 49.0741 73.1542 49.2058 71.1131 49.9674C69.0719 50.7291 67.2943 52.0865 66.0048 53.868C64.7152 55.6495 63.9719 57.7751 63.8686 59.976C63.7654 62.1769 64.3067 64.3542 65.4245 66.2326C66.5423 68.111 68.1862 69.6062 70.1483 70.5291C72.1104 71.4519 74.3026 71.761 76.4476 71.4172C78.5927 71.0734 80.5944 70.0922 82.1994 68.5976C83.8044 67.103 84.9406 65.1622 85.4646 63.0206C86.1672 60.1489 85.7197 57.1204 84.2208 54.6015C82.7219 52.0826 80.2943 50.2796 77.4719 49.5891Z" fill="#39B8FF"/>
</g>
<defs>
<clipPath id="clip0_717_4814">
<rect width="110" height="110" fill="white"/>
</clipPath>
</defs>
</svg>
