<svg width="46" height="58" viewBox="0 0 46 58" fill="none" xmlns="http://www.w3.org/2000/svg">
<g clip-path="url(#clip0_162_18156)">
<path d="M11.9553 52.534C11.9306 53.3502 11.7452 54.1532 11.4097 54.896C11.1005 55.5553 10.6592 56.1424 10.1138 56.6202C9.57692 57.0886 8.95805 57.4511 8.28919 57.6891C7.61536 57.9235 6.90347 58.0259 6.19173 57.9909C5.23032 57.9405 4.2974 57.6439 3.48054 57.1288C2.67149 56.628 2.01387 55.9124 1.57927 55.0598C1.11073 54.1098 0.904474 53.0495 0.982387 51.9909C0.998094 50.9314 1.30837 49.8977 1.87765 49.0081C2.38315 48.2233 3.10284 47.6035 3.94951 47.2236L4.64006 49.965C4.24982 50.1587 3.91957 50.4569 3.68515 50.8271C3.45357 51.2095 3.32435 51.6462 3.31006 52.0943C3.27799 52.6013 3.39033 53.1069 3.63395 53.5512C3.8803 54 4.24291 54.3725 4.68273 54.6288C5.18671 54.9044 5.74702 55.0578 6.31964 55.0771C6.88709 55.1147 7.45507 55.0111 7.97373 54.7753C8.44006 54.5586 8.84259 54.2229 9.14179 53.8012C9.44005 53.3936 9.60672 52.9029 9.61918 52.396C9.64009 52.0751 9.59955 51.7532 9.49981 51.4478C9.40854 51.154 9.27031 50.8773 9.09058 50.6288C8.92517 50.4004 8.70908 50.2143 8.45967 50.0857L9.40604 47.4133C9.93837 47.7008 10.4081 48.0937 10.7872 48.5685C11.1936 49.0816 11.5029 49.6661 11.6996 50.2926C11.9186 51.0178 12.0052 51.7773 11.9553 52.534V52.534Z" fill="#3AB3FE"/>
<path d="M13.0111 44.4396L5.14161 42.0344L4.15268 45.3189L1.86768 44.6206L4.63008 35.3706L6.92361 36.0689L5.93457 39.3792L13.804 41.7844L13.0111 44.4396Z" fill="#3AB3FE"/>
<path d="M12.0311 36.8617C11.4666 36.5306 11.0283 36.0176 10.7863 35.4048C10.536 34.7579 10.471 34.0529 10.5987 33.3704C10.7327 32.5572 11.0223 31.7783 11.4513 31.0772C11.6865 30.6808 11.9516 30.3032 12.2443 29.9479C12.5047 29.6198 12.8088 29.3297 13.148 29.0859L12.662 28.7928C12.4266 28.6267 12.1581 28.5145 11.8754 28.4639C11.5927 28.4133 11.3026 28.4255 11.025 28.4997C10.4236 28.7352 9.92889 29.1863 9.63527 29.7669C9.33597 30.2615 9.1307 30.8082 9.02997 31.379C8.92389 32.0138 8.88957 32.6587 8.92766 33.3014L6.93261 33.1203C6.90201 32.3028 6.98225 31.4848 7.17126 30.6893C7.36289 29.9111 7.67056 29.167 8.0836 28.4824C8.6857 27.3278 9.68724 26.4378 10.8971 25.9824C11.4733 25.8218 12.0774 25.7911 12.6667 25.8924C13.256 25.9937 13.8161 26.2245 14.3075 26.5686L17.1893 28.2928C17.362 28.4201 17.5726 28.484 17.7861 28.4738C17.9707 28.4331 18.1325 28.3219 18.2379 28.1635L20.1393 29.3273C20.0541 29.56 19.9688 29.7669 19.8835 29.9566C19.8181 30.1129 19.7441 30.2655 19.6618 30.4135C19.4516 30.8038 19.1142 31.1084 18.7069 31.2755C18.3705 31.3965 18.0032 31.3965 17.6668 31.2755L17.1638 31.0428C17.4347 31.7531 17.5341 32.5185 17.4536 33.2755C17.3827 34.0163 17.1497 34.7319 16.7715 35.3704C16.4405 35.9538 15.9719 36.4454 15.4074 36.8014C14.8975 37.1315 14.3075 37.3135 13.7022 37.3272C13.113 37.3338 12.5339 37.1725 12.0311 36.8617V36.8617ZM15.936 31.3617C15.8819 31.166 15.8106 30.9756 15.7228 30.7928C15.6506 30.6514 15.5452 30.53 15.4159 30.4393L14.5121 29.8876C14.2029 30.1102 13.9172 30.3644 13.6595 30.6462C13.4107 30.9089 13.1906 31.1979 13.0031 31.5083C12.6644 32.0181 12.4832 32.6183 12.4829 33.2324C12.4766 33.4756 12.5341 33.7161 12.6494 33.9295C12.7647 34.143 12.9337 34.3219 13.1394 34.4479C13.3717 34.5865 13.6371 34.6581 13.9068 34.6548C14.2098 34.6464 14.5048 34.554 14.7594 34.3876C15.0534 34.1911 15.2985 33.9285 15.4755 33.6204C15.6875 33.2624 15.832 32.8678 15.9018 32.4566C15.9801 32.0969 15.9917 31.7257 15.936 31.3617V31.3617Z" fill="#3AB3FE"/>
<path d="M25.646 24.3193C25.0921 24.863 24.4026 25.2444 23.651 25.4228C22.9507 25.5859 22.2197 25.5531 21.5365 25.3279L25.7994 29.9314L23.7873 31.8193L13.5732 20.7159L15.3296 19.0693L16.5829 20.4314C16.4564 19.7123 16.5032 18.9731 16.7194 18.2762C16.9561 17.5527 17.3764 16.9046 17.9385 16.3969C18.4253 15.9261 19.007 15.5674 19.6437 15.3452C20.2792 15.1402 20.9491 15.0669 21.6133 15.1297C23.0231 15.2761 24.3293 15.9456 25.2794 17.009C25.9466 17.713 26.4455 18.5624 26.7374 19.4917C27.0043 20.3272 27.0513 21.2185 26.8737 22.0779C26.7087 22.9374 26.279 23.722 25.646 24.3193ZM23.3866 23.2245C23.6834 22.9577 23.9092 22.6198 24.0431 22.2417C24.177 21.8784 24.235 21.4909 24.2136 21.1038C24.194 20.705 24.1016 20.3133 23.9408 19.9486C23.7728 19.5746 23.5452 19.231 23.2673 18.9314C22.9863 18.6195 22.6511 18.3623 22.2783 18.1728C21.9268 17.9947 21.5436 17.8892 21.1513 17.8626C20.7589 17.8359 20.3653 17.8886 19.9933 18.0176C19.611 18.1549 19.2601 18.369 18.9617 18.6469C18.7701 18.8347 18.6063 19.0496 18.4757 19.2848C18.3393 19.5384 18.2334 19.8076 18.1602 20.0866C18.0912 20.3684 18.0597 20.6583 18.0664 20.9486C18.0791 21.2198 18.1428 21.486 18.254 21.7331L19.9592 23.5866C20.3427 23.7608 20.7516 23.8714 21.1699 23.9142C21.5796 23.9595 21.9941 23.9214 22.3891 23.8021C22.7606 23.6886 23.1018 23.491 23.3866 23.2245V23.2245Z" fill="#3AB3FE"/>
<path d="M32.0668 19.4399L28.2302 12.0864L25.2205 13.6898L24.1035 11.5433L32.5613 7.03467L33.6783 9.18124L30.6515 10.7933L34.4882 18.1467L32.0668 19.4399Z" fill="#3AB3FE"/>
<path d="M42.2633 9.62067L40.5581 0.51722L43.2523 0L44.9575 9.11205L42.2633 9.62067ZM43.2694 15.0517L42.7067 11.9828L45.4009 11.4741L45.9721 14.5431L43.2694 15.0517Z" fill="#3AB3FE"/>
</g>
<defs>
<clipPath id="clip0_162_18156">
<rect width="45" height="58" fill="white" transform="translate(0.963867)"/>
</clipPath>
</defs>
</svg>
