<svg width="73" height="39" viewBox="0 0 73 39" fill="none" xmlns="http://www.w3.org/2000/svg">
<path d="M22.908 24.3449L44.9771 2.29013C46.5363 0.900898 48.5277 0.0924898 50.6146 0.0016628C51.8177 -0.0212576 53.0136 0.192975 54.1339 0.632098C55.2541 1.07122 56.2768 1.72663 57.1436 2.56089C58.2777 4.23928 58.8211 6.24694 58.6882 8.26784C58.5553 10.2887 57.7536 12.2081 56.4094 13.7237L34.349 35.7784C33.5974 36.52 32.7063 37.1056 31.7272 37.5015C30.7481 37.8974 29.7003 38.0958 28.6442 38.0853C27.588 38.0747 26.5444 37.8554 25.5734 37.44C24.6024 37.0246 23.7233 36.4213 22.9867 35.6649C22.2373 34.927 21.6408 34.0488 21.2312 33.0804C20.8217 32.112 20.6071 31.0725 20.5998 30.0212C20.5925 28.9699 20.7926 27.9274 21.1886 26.9535C21.5847 25.9795 22.1689 25.0931 22.908 24.3449Z" fill="url(#paint0_linear_243_535)"/>
<path d="M28.6767 38.1807C27.0829 38.1807 25.5248 37.7084 24.1996 36.8235C22.8744 35.9386 21.8415 34.6809 21.2316 33.2093C20.6217 31.7378 20.4621 30.1185 20.773 28.5564C21.0839 26.9942 21.8514 25.5592 22.9784 24.433C24.1055 23.3067 25.5413 22.5397 27.1045 22.229C28.6677 21.9182 30.288 22.0777 31.7605 22.6873C33.233 23.2968 34.4916 24.329 35.3771 25.6533C36.2626 26.9777 36.7352 28.5347 36.7352 30.1275C36.7352 31.1851 36.5267 32.2323 36.1218 33.2093C35.7168 34.1864 35.1232 35.0742 34.3749 35.822C33.6266 36.5698 32.7382 37.163 31.7605 37.5677C30.7828 37.9724 29.7349 38.1807 28.6767 38.1807ZM28.6767 25.8301C27.8262 25.8301 26.9948 26.0821 26.2876 26.5543C25.5805 27.0265 25.0293 27.6977 24.7038 28.4829C24.3783 29.2682 24.2932 30.1322 24.4591 30.9659C24.625 31.7995 25.0346 32.5652 25.636 33.1662C26.2374 33.7672 27.0036 34.1765 27.8378 34.3423C28.6719 34.5081 29.5365 34.423 30.3223 34.0978C31.108 33.7725 31.7797 33.2217 32.2522 32.515C32.7247 31.8083 32.9769 30.9774 32.9769 30.1275C32.9746 28.9885 32.5208 27.8967 31.7148 27.0913C30.9089 26.2859 29.8165 25.8324 28.6767 25.8301Z" fill="black"/>
<path d="M11.1176 38.0672H7.35928V27.6294C7.35928 27.1522 7.16959 26.6945 6.83193 26.3571C6.49427 26.0196 6.03632 25.8301 5.5588 25.8301C5.08128 25.8301 4.62331 26.0196 4.28566 26.3571C3.948 26.6945 3.7583 27.1522 3.7583 27.6294V38.0672H0V27.6294C0 26.1561 0.585657 24.7431 1.62813 23.7013C2.67061 22.6595 4.08451 22.0742 5.5588 22.0742C7.03308 22.0742 8.44698 22.6595 9.48946 23.7013C10.5319 24.7431 11.1176 26.1561 11.1176 27.6294V38.0672Z" fill="black"/>
<path d="M18.4857 38.0669H14.7274V27.6292C14.6956 27.1725 14.4916 26.7448 14.1566 26.4326C13.8217 26.1203 13.3806 25.9467 12.9225 25.9467C12.4645 25.9467 12.0234 26.1203 11.6885 26.4326C11.3535 26.7448 11.1495 27.1725 11.1177 27.6292V38.0669H7.35938V27.6292C7.41636 26.1928 8.0274 24.8342 9.06446 23.8381C10.1015 22.842 11.4841 22.2856 12.9225 22.2856C14.361 22.2856 15.7436 22.842 16.7806 23.8381C17.8177 24.8342 18.4287 26.1928 18.4857 27.6292V38.0669Z" fill="black"/>
<path d="M72.7366 0.0195312H60.8936V3.77539H64.9315V16.0125H68.6899V3.77539H72.7366V0.0195312Z" fill="black"/>
<path d="M51.0253 6.22056C49.5569 6.15068 48.5692 5.3471 48.5692 4.80555C48.5745 4.72433 48.5966 4.64509 48.6343 4.5729C48.6719 4.50071 48.7242 4.43715 48.7877 4.3863C49.0689 4.15704 49.3933 3.98637 49.7415 3.88436C50.0898 3.78235 50.4549 3.75107 50.8155 3.79235C51.4988 3.7127 52.1911 3.80253 52.8314 4.0539C53.4717 4.30527 54.0401 4.71043 54.4864 5.23355L57.1085 2.61318C56.2971 1.71994 55.291 1.02529 54.1679 0.583016C53.0448 0.140739 51.8349 -0.037294 50.6319 0.0626959C48.9806 0.0163498 47.3748 0.607567 46.1482 1.71353C45.7287 2.11071 45.3939 2.58863 45.1641 3.11852C44.9343 3.64841 44.8142 4.21931 44.8109 4.79682C44.8109 7.50453 47.433 9.74058 50.7893 9.924C52.2576 9.99388 53.2453 10.7975 53.2453 11.339C53.239 11.42 53.2164 11.4989 53.1789 11.5709C53.1413 11.643 53.0896 11.7067 53.0268 11.7583C52.7446 11.9858 52.4202 12.1555 52.0722 12.2574C51.7242 12.3593 51.3595 12.3915 50.999 12.3522C50.3159 12.4303 49.624 12.3398 48.984 12.0885C48.344 11.8372 47.7754 11.4329 47.3281 10.911L44.7061 13.5314C45.4657 14.3739 46.4009 15.0397 47.4459 15.4819C48.4909 15.9241 49.6202 16.1318 50.7543 16.0906H51.2088C52.8538 16.136 54.452 15.5409 55.6663 14.431C56.0993 14.0295 56.4446 13.543 56.6807 13.0019C56.9169 12.4608 57.0387 11.8769 57.0385 11.2866C56.9861 8.64002 54.364 6.40399 51.0253 6.22056Z" fill="black"/>
<defs>
<linearGradient id="paint0_linear_243_535" x1="27.6802" y1="31.1316" x2="52.0058" y2="6.52802" gradientUnits="userSpaceOnUse">
<stop stop-color="#B3E1FD"/>
<stop offset="1" stop-color="#3AB3FE"/>
</linearGradient>
</defs>
</svg>
