<svg width="187" height="23" viewBox="0 0 187 23" fill="none" xmlns="http://www.w3.org/2000/svg">
<path d="M39.6795 0H83.0653C84.5282 0.0129842 85.9743 0.32051 87.3208 0.90501C88.6674 1.48951 89.8879 2.3395 90.9128 3.4064C91.9376 4.47329 92.7467 5.73618 93.2936 7.12281C93.8405 8.50944 94.1145 9.99264 94.1001 11.4876C94.1145 12.9825 93.8405 14.4657 93.2936 15.8524C92.7467 17.239 91.9376 18.5018 90.9128 19.5687C89.8879 20.6356 88.6674 21.4857 87.3208 22.0702C85.9743 22.6547 84.5282 22.9622 83.0653 22.9752H39.6795C38.2176 22.9606 36.7728 22.6518 35.4276 22.0666C34.0825 21.4814 32.8634 20.6311 31.8398 19.5644C30.8162 18.4976 30.0083 17.2353 29.4622 15.8495C28.916 14.4637 28.6424 12.9815 28.6568 11.4876C28.6424 9.99367 28.916 8.51148 29.4622 7.12566C30.0083 5.73983 30.8162 4.47749 31.8398 3.41076C32.8634 2.34402 34.0825 1.49376 35.4276 0.908534C36.7728 0.323311 38.2176 0.0146061 39.6795 0Z" fill="url(#paint0_linear_704_3689)"/>
<path d="M39.8983 22.9128C37.6822 22.9128 35.5158 22.2413 33.6732 20.9831C31.8305 19.725 30.3944 17.9366 29.5463 15.8444C28.6982 13.7521 28.4763 11.4498 28.9087 9.22866C29.341 7.00751 30.4082 4.96729 31.9752 3.36594C33.5423 1.76458 35.5388 0.674044 37.7123 0.232231C39.8859 -0.209582 42.1388 0.0171565 44.1863 0.883804C46.2337 1.75045 47.9837 3.21807 49.2149 5.10107C50.4461 6.98406 51.1033 9.19785 51.1033 11.4625C51.1001 14.4983 49.9185 17.4088 47.8179 19.5555C45.7172 21.7021 42.8691 22.9095 39.8983 22.9128ZM39.8983 5.35238C38.7158 5.35238 37.5597 5.71073 36.5765 6.38212C35.5932 7.05351 34.8268 8.0078 34.3742 9.12428C33.9217 10.2408 33.8033 11.4693 34.034 12.6546C34.2647 13.8398 34.8342 14.9285 35.6704 15.783C36.5066 16.6376 37.572 17.2195 38.7318 17.4553C39.8917 17.691 41.0939 17.57 42.1865 17.1076C43.279 16.6451 44.2129 15.862 44.8699 14.8572C45.5269 13.8523 45.8776 12.671 45.8776 11.4625C45.8743 9.843 45.2434 8.29077 44.1227 7.14561C43.0021 6.00044 41.4831 5.35566 39.8983 5.35238Z" fill="black"/>
<path d="M15.4949 22.7517H10.2692V7.91102C10.2249 7.2617 9.94132 6.65371 9.47556 6.20974C9.00979 5.76576 8.39656 5.51886 7.75962 5.51886C7.12268 5.51886 6.50944 5.76576 6.04368 6.20974C5.57791 6.65371 5.29429 7.2617 5.25005 7.91102V22.7517H0V7.91102C0.0792293 5.86878 0.92885 3.93714 2.37084 2.52084C3.81283 1.10453 5.73526 0.313477 7.73531 0.313477C9.73536 0.313477 11.6578 1.10453 13.0998 2.52084C14.5418 3.93714 15.3914 5.86878 15.4706 7.91102L15.4949 22.7517Z" fill="black"/>
<path d="M25.728 22.7519H20.5023V7.9112C20.5023 7.2327 20.2385 6.58198 19.769 6.10221C19.2995 5.62243 18.6627 5.35289 17.9988 5.35289C17.3348 5.35289 16.698 5.62243 16.2285 6.10221C15.759 6.58198 15.4953 7.2327 15.4953 7.9112V22.7519H10.2695V7.9112C10.2695 5.81639 11.0839 3.80739 12.5334 2.32614C13.9829 0.844883 15.9488 0.0126953 17.9988 0.0126953C20.0487 0.0126953 22.0147 0.844883 23.4642 2.32614C24.9137 3.80739 25.728 5.81639 25.728 7.9112V22.7519Z" fill="black"/>
<path d="M112.78 0.0249023H96.3125V5.36508H101.939V22.7517H107.165V5.36508H112.78V0.0249023Z" fill="black"/>
<path d="M82.6394 8.842C80.5977 8.75507 79.2244 7.60011 79.2244 6.83013C79.2338 6.71513 79.2655 6.6032 79.3177 6.50085C79.3699 6.39851 79.4414 6.30779 79.5283 6.234C79.9206 5.91043 80.3717 5.66925 80.8556 5.52433C81.3394 5.37941 81.8465 5.33361 82.3477 5.38952C83.2987 5.27995 84.2614 5.41062 85.1513 5.77007C86.0413 6.12952 86.8313 6.70676 87.452 7.45108L91.0978 3.72538C89.9697 2.45535 88.5707 1.46765 87.0091 0.838813C85.4475 0.209973 83.7652 -0.0431589 82.0925 0.0990092C79.7947 0.0316283 77.559 0.867256 75.8459 2.43379C75.2498 3.01132 74.7744 3.70639 74.4486 4.47697C74.1227 5.24754 73.9531 6.07759 73.9501 6.91703C73.9501 10.7669 77.596 13.9586 82.2627 14.207C84.3165 14.294 85.6898 15.4489 85.6898 16.2189C85.6808 16.3322 85.6493 16.4425 85.597 16.5429C85.5448 16.6433 85.4729 16.7317 85.3859 16.8026C84.9959 17.1307 84.5454 17.3757 84.0611 17.5228C83.5769 17.67 83.0686 17.7165 82.5665 17.6595C81.6165 17.7717 80.6541 17.6434 79.764 17.2861C78.874 16.9287 78.0835 16.3533 77.4623 15.6103L73.8164 19.336C74.8732 20.5324 76.1741 21.4772 77.6271 22.1037C79.0802 22.7303 80.6502 23.0234 82.2262 22.9624H82.8581C85.1425 23.0225 87.3618 22.1821 89.0561 20.6152C89.6585 20.042 90.1388 19.348 90.467 18.5766C90.7953 17.8053 90.9645 16.9731 90.9641 16.132C90.8791 12.2821 87.2453 9.09038 82.6394 8.842Z" fill="black"/>
<path d="M127.107 8.58149V0.260742H133.682V8.56906H132.114V1.67653H128.663V8.56906L127.107 8.58149Z" fill="black"/>
<path d="M138.058 8.70566C137.609 8.71061 137.163 8.62628 136.745 8.4573C136.371 8.2962 136.032 8.05968 135.749 7.76184C135.473 7.46929 135.258 7.12291 135.117 6.74347C134.953 6.35137 134.874 5.92771 134.886 5.50157C134.882 4.95447 135.016 4.41548 135.275 3.93676C135.531 3.46164 135.909 3.06672 136.369 2.79424C136.879 2.49691 137.458 2.34667 138.046 2.35956C138.633 2.34349 139.214 2.49394 139.723 2.79424C140.168 3.0683 140.53 3.46397 140.768 3.93676L139.261 4.39626C139.143 4.17624 138.966 3.99529 138.751 3.87468C138.529 3.75888 138.283 3.69923 138.033 3.7008C137.755 3.69994 137.482 3.7773 137.244 3.92437C137 4.07825 136.803 4.29727 136.672 4.55771C136.532 4.85129 136.461 5.17471 136.466 5.50157C136.459 5.82616 136.534 6.14711 136.685 6.433C136.81 6.69607 137.003 6.91928 137.244 7.07877C137.438 7.20212 137.656 7.27951 137.883 7.3053C138.11 7.33109 138.34 7.3046 138.556 7.22779C138.72 7.16821 138.872 7.07997 139.006 6.967C139.123 6.86368 139.218 6.73689 139.285 6.59445L140.792 7.05395C140.648 7.36749 140.441 7.64669 140.185 7.87361C139.917 8.12513 139.603 8.31937 139.261 8.44487C138.879 8.6063 138.471 8.69468 138.058 8.70566Z" fill="black"/>
<path d="M141.727 8.58136V2.52088H143.258V6.47011L145.956 2.47119H147.353V8.5441H145.834V4.64452L143.173 8.5441L141.727 8.58136Z" fill="black"/>
<path d="M149.737 2.50879L150.952 4.4089L151.037 4.62003L151.159 4.4089L152.374 2.50879H153.991L151.912 5.53903L154.027 8.5817H152.411L151.122 6.69399L151.013 6.49528L150.928 6.69399L149.64 8.5817H148.023L150.15 5.56385L148.06 2.50879H149.737Z" fill="black"/>
<path d="M157.61 8.70555C157.157 8.71181 156.707 8.62745 156.285 8.4572C155.913 8.29902 155.577 8.062 155.301 7.76173C155.025 7.47369 154.81 7.13144 154.669 6.7558C154.515 6.36092 154.441 5.93864 154.45 5.5139C154.443 5.08928 154.517 4.66732 154.669 4.272C154.813 3.89787 155.028 3.55618 155.301 3.26606C155.577 2.9658 155.913 2.72874 156.285 2.57056C157.133 2.23429 158.074 2.23429 158.922 2.57056C159.291 2.73482 159.626 2.97108 159.907 3.26606C160.179 3.55618 160.394 3.89787 160.539 4.272C160.68 4.66987 160.75 5.09059 160.745 5.5139C160.752 5.93733 160.682 6.35835 160.539 6.7558C160.396 7.12836 160.186 7.46978 159.919 7.76173C159.636 8.05958 159.297 8.2961 158.922 8.4572C158.505 8.62617 158.059 8.71051 157.61 8.70555ZM156.03 5.56355C156.026 5.88627 156.097 6.2053 156.236 6.49497C156.37 6.75656 156.566 6.97892 156.808 7.14078C157.048 7.29259 157.327 7.3702 157.61 7.36432C157.89 7.36847 158.165 7.28624 158.4 7.12835C158.64 6.96886 158.833 6.74565 158.959 6.48258C159.109 6.19669 159.185 5.87574 159.177 5.55115C159.183 5.22674 159.108 4.90621 158.959 4.61973C158.83 4.35898 158.637 4.13656 158.4 3.97391C158.162 3.82503 157.888 3.74756 157.61 3.75038C157.325 3.74291 157.045 3.8253 156.808 3.98635C156.564 4.14507 156.366 4.36819 156.236 4.63212C156.097 4.92179 156.026 5.24083 156.03 5.56355Z" fill="black"/>
<path d="M161.342 8.5817V7.19074C161.512 7.18693 161.679 7.14001 161.828 7.05415C161.992 6.95175 162.127 6.80587 162.217 6.63191C162.346 6.36521 162.436 6.08072 162.484 5.78742C162.556 5.32283 162.601 4.85418 162.618 4.38407L162.691 2.50879H167.2V8.50719H165.656V3.87489H164.064V4.57035C164.045 5.22607 163.968 5.87868 163.833 6.52014C163.747 6.96513 163.573 7.38762 163.323 7.76204C163.115 8.05047 162.833 8.27409 162.508 8.40781C162.134 8.54064 161.738 8.59966 161.342 8.5817Z" fill="black"/>
<path d="M171.355 8.70582C170.902 8.71082 170.452 8.62651 170.03 8.45747C169.658 8.29929 169.322 8.06227 169.046 7.762C168.775 7.47073 168.56 7.12934 168.414 6.75607C168.271 6.35863 168.201 5.9376 168.207 5.51417C168.203 5.09086 168.273 4.67014 168.414 4.27227C168.563 3.9006 168.777 3.55975 169.046 3.26633C169.322 2.96607 169.658 2.72901 170.03 2.57083C170.452 2.40179 170.902 2.31748 171.355 2.32248C171.804 2.31752 172.25 2.40186 172.668 2.57083C173.04 2.72901 173.376 2.96607 173.652 3.26633C173.925 3.55645 174.139 3.89814 174.284 4.27227C174.425 4.67014 174.495 5.09086 174.491 5.51417C174.497 5.9376 174.427 6.35863 174.284 6.75607C174.142 7.12863 173.931 7.47005 173.664 7.762C173.381 8.05985 173.042 8.29637 172.668 8.45747C172.25 8.62644 171.804 8.71078 171.355 8.70582ZM169.787 5.56382C169.778 5.88715 169.849 6.20762 169.994 6.49524C170.119 6.75866 170.312 6.98204 170.553 7.14105C170.794 7.29286 171.072 7.37047 171.355 7.36459C171.636 7.36874 171.911 7.28652 172.145 7.12862C172.386 6.96634 172.582 6.74412 172.716 6.48285C172.857 6.19366 172.928 5.87429 172.923 5.55142C172.926 5.2287 172.855 4.90967 172.716 4.62C172.579 4.3611 172.383 4.13961 172.145 3.97419C171.907 3.8253 171.634 3.74783 171.355 3.75065C171.07 3.74318 170.79 3.82558 170.553 3.98662C170.31 4.14256 170.116 4.36674 169.994 4.63239C169.853 4.92114 169.786 5.24155 169.799 5.56382H169.787Z" fill="black"/>
<path d="M175.535 8.5817V2.50879H179.509V3.87489H177.079V8.5817H175.535Z" fill="black"/>
<path d="M180.398 8.58136V2.52088H181.93V6.47011L184.628 2.47119H186.025V8.5441H184.482V4.64452L181.832 8.5441L180.398 8.58136Z" fill="black"/>
<path d="M129.707 22.7516C129.258 22.7566 128.812 22.6722 128.394 22.5033C128.016 22.3498 127.676 22.1122 127.398 21.8078C127.128 21.518 126.917 21.176 126.778 20.8019C126.625 20.407 126.55 19.9847 126.559 19.56C126.552 18.7406 126.852 17.9496 127.398 17.3494C127.679 17.0527 128.019 16.82 128.394 16.6663C129.239 16.3332 130.175 16.3332 131.019 16.6663C131.393 16.8228 131.732 17.0552 132.016 17.3494C132.564 17.9473 132.861 18.741 132.842 19.56C132.856 19.9839 132.785 20.4062 132.636 20.8019C132.497 21.176 132.286 21.518 132.016 21.8078C131.743 22.112 131.407 22.3497 131.032 22.5033C130.609 22.6711 130.16 22.7554 129.707 22.7516ZM128.139 19.6096C128.134 19.9365 128.205 20.2599 128.346 20.5535C128.469 20.8143 128.662 21.0336 128.904 21.1854C129.145 21.3373 129.424 21.4154 129.707 21.4104C129.986 21.4146 130.26 21.337 130.497 21.1868C130.738 21.025 130.935 20.8026 131.068 20.541C131.209 20.2474 131.28 19.9241 131.275 19.5972C131.275 19.2748 131.205 18.9563 131.068 18.6658C130.938 18.4053 130.74 18.1863 130.497 18.0324C130.263 17.8731 129.988 17.7907 129.707 17.7964C129.423 17.7921 129.143 17.8742 128.905 18.0324C128.667 18.195 128.475 18.4174 128.346 18.6782C128.207 18.9678 128.136 19.2869 128.139 19.6096Z" fill="black"/>
<path d="M133.875 22.6151V16.5298H135.418V18.8894H137.849V16.5795H139.392V22.6151H137.849V20.1313H135.418V22.6151H133.875Z" fill="black"/>
<path d="M140.354 22.6151V21.2117C140.525 21.2125 140.693 21.1653 140.84 21.0751C141.007 20.9759 141.142 20.8292 141.229 20.6529C141.357 20.3862 141.447 20.1017 141.496 19.8084C141.569 19.3439 141.613 18.8752 141.63 18.405L141.702 16.5298H146.211V22.6151H144.619V17.9952H143.003V18.6782C142.993 19.334 142.92 19.9871 142.784 20.628C142.698 21.073 142.524 21.4955 142.274 21.8699C142.07 22.1618 141.787 22.3863 141.459 22.5158C141.099 22.6103 140.725 22.6438 140.354 22.6151Z" fill="black"/>
<path d="M147.195 20.839C147.19 20.4678 147.306 20.1052 147.524 19.8082C147.757 19.4933 148.073 19.2523 148.435 19.1128C148.861 18.9458 149.316 18.8656 149.772 18.8768C150.028 18.8728 150.285 18.8936 150.538 18.9389C150.772 18.9698 151 19.0324 151.218 19.1252V18.7899C151.225 18.6268 151.198 18.464 151.139 18.3121C151.081 18.1602 150.992 18.0226 150.878 17.9081C150.589 17.685 150.231 17.5749 149.869 17.5976C149.55 17.5988 149.233 17.6577 148.933 17.7715C148.605 17.9118 148.291 18.0866 147.998 18.2931L147.499 17.2623C147.872 17.0003 148.282 16.7992 148.715 16.6662C149.135 16.5309 149.574 16.4639 150.015 16.4675C150.739 16.4181 151.455 16.6486 152.02 17.1133C152.265 17.3468 152.456 17.6326 152.58 17.9504C152.704 18.2681 152.758 18.6099 152.737 18.9513V20.8887C152.726 21.0111 152.756 21.134 152.822 21.2364C152.901 21.3067 152.998 21.3501 153.102 21.3606V22.6025H152.725H152.446C152.197 22.6186 151.952 22.5437 151.753 22.3914C151.601 22.2616 151.497 22.0815 151.461 21.8822V21.5593C151.207 21.9026 150.873 22.1757 150.489 22.3541C150.11 22.5429 149.695 22.6406 149.274 22.6398C148.903 22.6413 148.538 22.5564 148.204 22.3914C147.901 22.236 147.645 22 147.463 21.7083C147.301 21.4472 147.209 21.1476 147.195 20.839ZM150.926 21.1495C151.004 21.0653 151.073 20.9739 151.133 20.8763C151.179 20.801 151.208 20.7161 151.218 20.6279V20.0194C151.026 19.9411 150.826 19.8828 150.623 19.8455C150.423 19.7984 150.22 19.7734 150.015 19.771C149.669 19.7557 149.326 19.8465 149.031 20.0318C148.913 20.1011 148.815 20.2006 148.747 20.3204C148.679 20.4402 148.643 20.5762 148.642 20.7148C148.645 20.8697 148.692 21.0204 148.775 21.1495C148.864 21.2908 148.99 21.4029 149.14 21.4724C149.317 21.5649 149.513 21.6118 149.711 21.609C149.944 21.6058 150.175 21.5595 150.392 21.4724C150.588 21.3987 150.769 21.2893 150.926 21.1495Z" fill="black"/>
<path d="M154.184 22.6149V16.542H155.715V20.5285L158.413 16.5296H159.81V22.6149H158.267V18.7153L155.618 22.6149H154.184ZM157.003 15.8962C156.501 15.931 156.004 15.7664 155.618 15.4367C155.445 15.2834 155.31 15.0917 155.221 14.8764C155.133 14.6611 155.094 14.4279 155.107 14.1948H156.055C156.054 14.4166 156.137 14.6303 156.286 14.791C156.488 14.9568 156.745 15.0369 157.003 15.0145C157.127 15.0256 157.252 15.0116 157.371 14.9732C157.49 14.9349 157.6 14.8729 157.696 14.791C157.842 14.6261 157.932 14.4167 157.951 14.1948H158.899C158.912 14.4267 158.874 14.6587 158.788 14.8736C158.702 15.0886 158.569 15.281 158.401 15.4367C158.011 15.7728 157.512 15.9458 157.003 15.921V15.8962Z" fill="black"/>
<path d="M161.209 22.6151V16.5298H162.74V18.8894H165.171V16.5795H166.702V22.6151H165.171V20.1313H162.74V22.6151H161.209Z" fill="black"/>
<defs>
<linearGradient id="paint0_linear_704_3689" x1="86.1278" y1="11.4876" x2="36.143" y2="11.4876" gradientUnits="userSpaceOnUse">
<stop stop-color="#6BFFE0"/>
<stop offset="1" stop-color="#38B7FF"/>
</linearGradient>
</defs>
</svg>
