<svg width="107" height="41" viewBox="0 0 107 41" fill="none" xmlns="http://www.w3.org/2000/svg">
<path d="M0.253906 9.74777V0H2.13305V7.08371L6.85279 0H8.60084V9.74777H6.71294V2.76012L2.04566 9.74777H0.253906Z" fill="black"/>
<path d="M10.541 9.74752V2.62012H12.3765V5.32782H15.287V2.62012H17.1312V9.74752H15.287V6.8651H12.3765V9.74752H10.541Z" fill="black"/>
<path d="M22.1566 9.9047C21.6153 9.9144 21.0776 9.81643 20.5746 9.61647C20.1215 9.4352 19.713 9.15806 19.3772 8.80413C18.708 8.09639 18.3384 7.15749 18.3458 6.18377C18.3404 5.54 18.4999 4.90557 18.8091 4.34079C19.1163 3.78447 19.5696 3.32243 20.1201 3.0044C20.7362 2.66043 21.4336 2.48846 22.1391 2.50653C22.8405 2.48581 23.5337 2.66127 24.1406 3.01313C24.6793 3.32265 25.1142 3.78462 25.3905 4.34079L23.5987 4.89106C23.4497 4.63594 23.2355 4.42494 22.9782 4.27964C22.7101 4.13482 22.4088 4.06257 22.1041 4.07002C21.7649 4.06745 21.4317 4.16027 21.1427 4.33788C20.8537 4.5155 20.6205 4.77075 20.4697 5.07449C20.3022 5.41993 20.2183 5.79993 20.225 6.18377C20.2187 6.56296 20.3057 6.93789 20.4785 7.27559C20.6355 7.584 20.8705 7.84597 21.1602 8.03549C21.4412 8.21682 21.7697 8.31106 22.1041 8.30628C22.3184 8.30779 22.5313 8.27231 22.7334 8.20145C22.924 8.12934 23.1012 8.02605 23.2578 7.89576C23.4075 7.78006 23.5274 7.63034 23.6075 7.45903L25.408 8.00928C25.2326 8.37467 24.986 8.70135 24.6825 8.97009C24.3564 9.25762 23.9802 9.48267 23.5725 9.63393C23.12 9.80618 22.6408 9.89783 22.1566 9.9047Z" fill="black"/>
<path d="M28.2753 9.74752V4.22727H25.9941V2.62012H32.4095V4.22727H30.1108V9.74752H28.2753Z" fill="black"/>
<path d="M33.3867 9.74735V2.63741H35.2659V7.2842L38.491 2.59375H40.1691V9.72115H38.325V5.15297L35.1435 9.72115L33.3867 9.74735Z" fill="black"/>
<path d="M43.4746 9.74752V4.22727H41.1934V2.62012H47.6087V4.22727H45.31V9.74752H43.4746Z" fill="black"/>
<path d="M49.7056 12.6648C49.5088 12.6657 49.3124 12.6452 49.12 12.6037C48.8923 12.5451 48.6677 12.4752 48.447 12.394L48.7966 10.9354C49.025 11.0493 49.2756 11.112 49.5308 11.1188C49.7577 11.1225 49.977 11.0379 50.1426 10.883C50.3457 10.6858 50.4934 10.4388 50.5709 10.1667L50.7894 9.59897L47.8789 2.61133H49.793L51.7246 7.79966L53.429 2.61133H55.177L52.2403 10.6384C52.0997 11.0362 51.8896 11.4058 51.6197 11.7302C51.3765 12.0153 51.0795 12.2497 50.7457 12.4202C50.4216 12.5782 50.0662 12.6617 49.7056 12.6648V12.6648Z" fill="black"/>
<path d="M57.8515 9.74752V4.22727H55.5703V2.62012H61.9857V4.22727H59.7394V9.74752H57.8515Z" fill="black"/>
<path d="M0 23.8801V16.7178H6.42409V23.8801H4.57989V18.3599H1.80924V23.8801H0Z" fill="black"/>
<path d="M11.4843 23.9847C10.9426 23.9898 10.4052 23.8889 9.90233 23.6878C9.45183 23.5064 9.04622 23.2292 8.71366 22.8755C8.37753 22.5281 8.11339 22.1178 7.9364 21.6681C7.75941 21.2184 7.67306 20.7382 7.68231 20.2551C7.6738 19.6121 7.83028 18.9775 8.13681 18.4121C8.44654 17.8576 8.89924 17.3961 9.44785 17.0757C10.064 16.7317 10.7613 16.5598 11.4668 16.5779C12.171 16.5569 12.8671 16.7323 13.4771 17.0844C14.0116 17.3991 14.4452 17.8597 14.727 18.4121L12.9265 18.9624C12.7799 18.7054 12.5651 18.4938 12.3059 18.351C12.0378 18.2061 11.7365 18.1339 11.4319 18.1413C11.0926 18.1388 10.7594 18.2316 10.4704 18.4092C10.1814 18.5868 9.94823 18.842 9.79745 19.1458C9.62665 19.4901 9.54264 19.8709 9.55273 20.2551C9.54232 20.6347 9.62958 21.0106 9.80619 21.3469C9.96008 21.6547 10.1922 21.9168 10.4792 22.1068C10.764 22.287 11.0948 22.381 11.4319 22.3776C11.6433 22.379 11.8533 22.3435 12.0524 22.2728C12.2457 22.2007 12.4258 22.0974 12.5856 21.9671C12.7352 21.8535 12.8526 21.703 12.9265 21.5303L14.727 22.0806C14.5548 22.4479 14.3077 22.7752 14.0015 23.0414C13.6768 23.3308 13.3001 23.556 12.8915 23.7052C12.4425 23.8802 11.9661 23.9748 11.4843 23.9847V23.9847Z" fill="black"/>
<path d="M15.8809 23.8803V16.7704H17.7163V21.4434L20.9502 16.7529H22.6196V23.8803H20.7841V19.3121L17.5939 23.8803H15.8809Z" fill="black"/>
<path d="M25.4774 16.7178L26.9894 18.9538L27.103 19.1897L27.2341 18.9538L28.7375 16.7178H30.6691L28.1693 20.2727L30.7127 23.8452H28.7724L27.2254 21.6266L27.103 21.3995L26.9894 21.6266L25.4511 23.8801H23.5195L26.0542 20.3863L23.5545 16.7964L25.4774 16.7178Z" fill="black"/>
<path d="M34.9164 23.9848C34.3747 23.9908 33.8371 23.8899 33.3344 23.6878C32.8861 23.5064 32.4811 23.2326 32.1458 22.8842C31.8226 22.5391 31.5676 22.1361 31.3941 21.6964C31.2254 21.2498 31.1395 20.7762 31.1406 20.2988C31.1394 19.8186 31.2253 19.3422 31.3941 18.8926C31.5657 18.4545 31.821 18.054 32.1458 17.7134C32.4783 17.3597 32.8839 17.0825 33.3344 16.9011C33.8377 16.702 34.3753 16.6041 34.9164 16.6128C35.4547 16.6041 35.9895 16.7021 36.4897 16.9011C36.939 17.0847 37.3442 17.3615 37.6783 17.7134C38.0027 18.0526 38.2553 18.4537 38.4212 18.8926C38.5942 19.341 38.6802 19.8183 38.6747 20.2988C38.6801 20.7766 38.5941 21.2509 38.4212 21.6964C38.2564 22.1384 38.0037 22.5425 37.6783 22.8842C37.3445 23.2344 36.9391 23.5085 36.4897 23.6878C35.9901 23.8899 35.4553 23.9908 34.9164 23.9848V23.9848ZM33.0285 20.2988C33.0222 20.6808 33.1092 21.0586 33.282 21.3994C33.4358 21.7049 33.668 21.9642 33.955 22.1506C34.2432 22.3293 34.5773 22.4203 34.9164 22.4126C35.2511 22.4184 35.5798 22.3241 35.8604 22.1418C36.152 21.9546 36.3875 21.692 36.5421 21.3819C36.7148 21.0442 36.8019 20.6693 36.7956 20.2901C36.7998 19.9111 36.7128 19.5367 36.5421 19.1983C36.39 18.8889 36.1537 18.6285 35.8604 18.4471C35.5798 18.2648 35.2511 18.1705 34.9164 18.1763C34.5764 18.1712 34.2423 18.2653 33.955 18.4471C33.6677 18.6369 33.4355 18.899 33.282 19.207C33.1093 19.5447 33.0222 19.9196 33.0285 20.2988V20.2988Z" fill="black"/>
<path d="M39.3926 23.8803V22.247C39.6002 22.2414 39.8037 22.1876 39.9869 22.0898C40.1786 21.9617 40.3349 21.7875 40.4414 21.5831C40.5967 21.2724 40.7028 20.9394 40.7561 20.5961C40.846 20.053 40.8986 19.5043 40.9134 18.954L41.0095 16.7529H46.411V23.7843H44.5668V18.3601H42.6352V19.1724C42.6138 19.9394 42.5201 20.7027 42.3555 21.4521C42.252 21.9665 42.0438 22.4541 41.7437 22.8846C41.5018 23.2218 41.1681 23.4826 40.7823 23.6358C40.3386 23.8042 39.8671 23.8872 39.3926 23.8803V23.8803Z" fill="black"/>
<path d="M51.4108 23.9851C50.8692 23.9902 50.3318 23.8893 49.8289 23.6881C49.3806 23.5066 48.9755 23.2328 48.6402 22.8845C47.9828 22.1712 47.6232 21.2338 47.635 20.2641C47.6324 19.783 47.7214 19.3058 47.8973 18.8579C48.0657 18.4202 48.318 18.0196 48.6402 17.6787C48.9727 17.325 49.3784 17.0478 49.8289 16.8664C50.3324 16.6682 50.8698 16.5703 51.4108 16.5782C51.9492 16.5694 52.4839 16.6674 52.9841 16.8664C53.4334 17.05 53.8386 17.3268 54.1728 17.6787C54.4971 18.0179 54.7498 18.419 54.9157 18.8579C55.0886 19.3063 55.1746 19.7836 55.1691 20.2641C55.1746 20.7419 55.0886 21.2162 54.9157 21.6617C54.7544 22.1107 54.4996 22.5204 54.1682 22.8637C53.8367 23.207 53.4361 23.476 52.9928 23.6531C52.4924 23.8663 51.9548 23.9791 51.4108 23.9851V23.9851ZM49.5317 20.2991C49.5227 20.6803 49.6067 21.0581 49.7764 21.3996C49.9302 21.7052 50.1624 21.9644 50.4494 22.1508C50.7377 22.3295 51.0717 22.4206 51.4108 22.4129C51.7455 22.4187 52.0742 22.3244 52.3548 22.1421C52.6464 21.9548 52.882 21.6923 53.0365 21.3822C53.2131 21.0459 53.3004 20.67 53.29 20.2904C53.2985 19.9109 53.2113 19.5355 53.0365 19.1985C52.8844 18.8891 52.6481 18.6287 52.3548 18.4474C52.0742 18.2651 51.7455 18.1708 51.4108 18.1766C51.0708 18.1715 50.7367 18.2656 50.4494 18.4474C50.1621 18.6371 49.93 18.8992 49.7764 19.2073C49.6067 19.5457 49.5227 19.9206 49.5317 20.2991V20.2991Z" fill="black"/>
<path d="M56.4102 23.8801V16.7178H61.1736V18.325H58.2456V23.8801H56.4102Z" fill="black"/>
<path d="M62.2305 23.8803V16.7704H64.1096V21.4434L67.3348 16.7529H69.0129V23.8803H67.1687V19.3121L63.9523 23.8803H62.2305Z" fill="black"/>
<path d="M70.6484 23.8803V16.7704H72.4926V21.4434L75.7178 16.7529H77.3959V23.8803H75.5517V19.3121L72.3703 23.8803H70.6484Z" fill="black"/>
<path d="M0 37.943V30.868H1.84419V35.541L5.06934 30.8506H6.74747V37.978H4.90328V33.4098L1.72183 37.978L0 37.943Z" fill="black"/>
<path d="M11.7207 37.9428V30.8154H18.171V37.9428H16.3355V32.4226H13.5562V37.9428H11.7207Z" fill="black"/>
<path d="M23.1966 38.0824C22.6573 38.0928 22.1217 37.9917 21.6233 37.7855C21.1648 37.609 20.7502 37.3347 20.4084 36.9819C19.7392 36.2741 19.3697 35.3352 19.3771 34.3615C19.3716 33.7177 19.5311 33.0833 19.8403 32.5185C20.15 31.964 20.6027 31.5026 21.1514 31.1821C21.7675 30.8381 22.4648 30.6662 23.1703 30.6843C23.8717 30.6635 24.5649 30.839 25.1719 31.1909C25.7067 31.5052 26.1404 31.9659 26.4217 32.5185L24.6212 33.0688C24.4756 32.814 24.2643 32.6029 24.0094 32.4574C23.7413 32.3126 23.44 32.2403 23.1354 32.2477C22.7961 32.2452 22.463 32.338 22.1739 32.5156C21.8849 32.6932 21.6517 32.9485 21.501 33.2522C21.337 33.5975 21.2519 33.9749 21.2519 34.3571C21.2519 34.7393 21.337 35.1168 21.501 35.4621C21.6582 35.768 21.8933 36.0271 22.1827 36.2132C22.4625 36.3981 22.7912 36.4954 23.1266 36.4927C23.3413 36.4906 23.5541 36.4522 23.7559 36.3792C23.9473 36.3086 24.1247 36.2052 24.2803 36.0735C24.4299 35.9599 24.5474 35.8094 24.6212 35.6367L26.4217 36.187C26.2519 36.5534 26.0079 36.8806 25.705 37.1478C25.3789 37.4354 25.0027 37.6604 24.595 37.8117C24.1491 37.9857 23.6753 38.0774 23.1966 38.0824V38.0824Z" fill="black"/>
<path d="M27.5938 37.943V30.868H29.4379V35.541L32.6631 30.8506H34.3412V37.978H32.497V33.4098L29.3156 37.978L27.5938 37.943Z" fill="black"/>
<path d="M37.1992 30.8154L38.7025 33.0515L38.8161 33.296L38.956 33.0515L40.4505 30.8154H42.3909L39.8912 34.3617L42.4258 37.9341H40.5117L38.956 35.7155L38.8336 35.4884L38.72 35.7155L37.1817 37.9341H35.2676L37.811 34.3966L35.2676 30.8154H37.1992Z" fill="black"/>
<path d="M46.6294 38.0825C46.0873 38.092 45.549 37.991 45.0474 37.7855C44.5998 37.6027 44.1951 37.329 43.8587 36.9819C43.2087 36.2816 42.8494 35.3604 42.8536 34.4052C42.851 33.9212 42.94 33.4412 43.1158 32.9902C43.2842 32.5525 43.5365 32.152 43.8587 31.811C44.1952 31.4619 44.5998 31.1855 45.0474 30.9987C45.5509 30.8005 46.0883 30.7026 46.6294 30.7105C47.1677 30.7017 47.7024 30.7997 48.2026 30.9987C48.6502 31.1855 49.0548 31.4619 49.3913 31.811C49.7188 32.1495 49.9744 32.5506 50.1429 32.9902C50.4812 33.8972 50.4812 34.8957 50.1429 35.8027C49.9703 36.2383 49.7185 36.6381 49.4 36.9819C49.0637 37.329 48.6589 37.6027 48.2114 37.7855C47.7097 37.991 47.1714 38.092 46.6294 38.0825V38.0825ZM44.7502 34.3615C44.7401 34.7429 44.8242 35.1209 44.9949 35.4621C45.1491 35.7674 45.3812 36.0266 45.6679 36.2133C45.9566 36.3919 46.2898 36.4857 46.6294 36.484C46.9648 36.4867 47.2935 36.3894 47.5733 36.2045C47.8627 36.0184 48.0978 35.7593 48.255 35.4534C48.4219 35.112 48.5086 34.7371 48.5086 34.3572C48.5086 33.9773 48.4219 33.6024 48.255 33.261C48.103 32.9515 47.8667 32.6912 47.5733 32.5098C47.2897 32.3256 46.9588 32.2276 46.6206 32.2276C46.2824 32.2276 45.9515 32.3256 45.6679 32.5098C45.3812 32.6965 45.1491 32.9557 44.9949 33.261C44.8238 33.6021 44.7398 33.9801 44.7502 34.3615V34.3615Z" fill="black"/>
<path d="M53.2899 37.9428V32.4226H51V30.8154H57.4153V32.4226H55.1254V37.9428H53.2899Z" fill="black"/>
<path d="M61.7935 38.0828C61.2571 38.0925 60.7244 37.9914 60.2289 37.7858C59.7857 37.6091 59.3833 37.3436 59.0466 37.0056C58.7099 36.6676 58.446 36.2643 58.2711 35.8206C58.0884 35.3805 57.9962 34.9082 58.0002 34.4317C57.9937 33.7823 58.1531 33.142 58.4634 32.5713C58.7705 32.0074 59.2271 31.539 59.7832 31.2174C60.3968 30.8663 61.0954 30.691 61.8022 30.7108C62.5092 30.6887 63.2085 30.8642 63.8212 31.2174C64.3632 31.5416 64.8072 32.0064 65.106 32.5626C65.4016 33.1161 65.5548 33.7344 65.5517 34.3619C65.5517 34.4754 65.5517 34.589 65.5517 34.7025C65.5517 34.8161 65.5517 34.9034 65.5517 34.982H59.9842C60.0145 35.3152 60.1255 35.6359 60.3076 35.9166C60.4788 36.1786 60.7173 36.3897 60.9981 36.5281C61.2694 36.6641 61.5685 36.7359 61.8721 36.7377C62.2332 36.7358 62.588 36.6426 62.9035 36.4669C63.2042 36.3177 63.4426 36.0671 63.5765 35.7594L65.1497 36.1961C64.973 36.5704 64.7199 36.9036 64.4068 37.1744C64.0622 37.4723 63.665 37.7034 63.2356 37.8557C62.7726 38.0182 62.284 38.0951 61.7935 38.0828V38.0828ZM59.9143 33.8116H63.6726C63.6456 33.4804 63.5408 33.1602 63.3667 32.877C63.2027 32.6186 62.9736 32.4077 62.7024 32.2656C62.4173 32.114 62.0989 32.036 61.776 32.0385C61.4704 32.0414 61.1702 32.1194 60.9019 32.2656C60.6325 32.4069 60.4061 32.6181 60.2464 32.877C60.0593 33.1559 59.9451 33.4772 59.9143 33.8116V33.8116Z" fill="black"/>
<path d="M70.9974 38.0822C70.4803 38.0908 69.9703 37.9611 69.5203 37.7066C69.1011 37.467 68.7563 37.1164 68.5239 36.6934V40.8685H66.6797V30.8151H68.2879V32.0553C68.5515 31.6456 68.9116 31.3067 69.3367 31.0684C69.7753 30.8266 70.2693 30.7032 70.7701 30.7102C71.2336 30.7065 71.6925 30.8018 72.1161 30.9898C72.5192 31.1841 72.8812 31.4539 73.1824 31.7846C73.4831 32.1302 73.7199 32.5265 73.8816 32.955C74.0591 33.4055 74.1481 33.8859 74.1439 34.37C74.1518 35.0191 74.0113 35.6614 73.7331 36.2479C73.4848 36.7818 73.1024 37.2422 72.623 37.5843C72.1473 37.9175 71.5783 38.0918 70.9974 38.0822ZM70.3768 36.5187C70.6445 36.5225 70.9088 36.4595 71.1459 36.3353C71.3749 36.2214 71.5774 36.0607 71.7403 35.8636C71.9118 35.6605 72.0424 35.4262 72.1249 35.1736C72.2129 34.9149 72.2572 34.6433 72.256 34.37C72.2594 34.0901 72.212 33.812 72.1161 33.549C72.0207 33.3026 71.8782 33.0771 71.6966 32.8851C71.513 32.6966 71.2969 32.5427 71.0586 32.431C70.8071 32.3244 70.5363 32.2708 70.2632 32.2737C70.0847 32.2729 69.9074 32.3024 69.7388 32.3611C69.5575 32.4211 69.3843 32.5032 69.2231 32.6056C69.0641 32.7144 68.9175 32.8404 68.7861 32.9812C68.6673 33.1189 68.578 33.2794 68.5239 33.4529V35.1212C68.6281 35.3822 68.7791 35.622 68.9696 35.8287C69.1493 36.0426 69.3728 36.2153 69.6251 36.3353C69.8579 36.4544 70.1153 36.5172 70.3768 36.5187V36.5187Z" fill="black"/>
<path d="M74.8949 35.8466C74.8859 35.4093 75.0245 34.9816 75.2883 34.6325C75.5702 34.2659 75.9484 33.9847 76.3808 33.8202C76.8931 33.6218 77.4397 33.5268 77.989 33.5407C78.296 33.5399 78.6026 33.5603 78.9067 33.6018C79.1834 33.6426 79.4537 33.7189 79.7108 33.8289V33.4883C79.7238 33.2962 79.6945 33.1036 79.6251 32.9241C79.5556 32.7445 79.4476 32.5823 79.3088 32.4489C78.9687 32.183 78.5421 32.0523 78.1114 32.082C77.7257 32.0807 77.3432 32.1518 76.9839 32.2917C76.5875 32.4516 76.2095 32.6536 75.8564 32.8943L75.262 31.689C75.7151 31.3862 76.2097 31.1509 76.7304 30.9902C77.2396 30.8313 77.7702 30.7517 78.3036 30.7544C79.1686 30.7023 80.022 30.9731 80.6985 31.5143C80.9945 31.7871 81.2264 32.122 81.3776 32.4951C81.5287 32.8681 81.5953 33.2699 81.5725 33.6717V35.9339C81.5603 36.0787 81.5973 36.2233 81.6774 36.3445C81.7664 36.4327 81.8844 36.4855 82.0095 36.493V37.9866L81.5638 38.0565H81.2316C80.9341 38.0804 80.6383 37.9933 80.4013 37.8119C80.2177 37.6581 80.094 37.4448 80.0517 37.2092L80.008 36.8336C79.6986 37.2349 79.2968 37.5555 78.8368 37.7682C78.3924 37.983 77.9058 38.0964 77.4121 38.1001C76.9658 38.1095 76.5242 38.0074 76.1273 37.8032C75.7669 37.6258 75.4639 37.3502 75.2533 37.0083C75.0207 36.6654 74.8959 36.2609 74.8949 35.8466V35.8466ZM79.3699 36.196C79.4648 36.1022 79.5471 35.9965 79.6147 35.8815C79.6743 35.7937 79.7077 35.6907 79.7108 35.5846V34.8771C79.4815 34.7865 79.2446 34.7164 79.0029 34.6675C78.7611 34.6195 78.5152 34.596 78.2687 34.5976C77.8576 34.5796 77.4503 34.6829 77.0975 34.8945C76.9539 34.9708 76.8345 35.0857 76.7527 35.2261C76.6709 35.3665 76.6298 35.5269 76.6342 35.6894C76.6329 35.8705 76.6879 36.0475 76.7916 36.196C76.8952 36.3673 77.0473 36.504 77.2286 36.589C77.4439 36.692 77.6804 36.7429 77.9191 36.7375C78.1947 36.7369 78.4676 36.6835 78.7232 36.5803C78.962 36.496 79.1818 36.3654 79.3699 36.196V36.196Z" fill="black"/>
<path d="M83.2695 37.9428V30.8154H89.7286V37.9428H87.8844V32.4226H85.0875V37.9428H83.2695Z" fill="black"/>
<path d="M91.4062 37.943V30.868H93.2417V35.541L96.4756 30.8506H98.145V37.978H96.3095V33.4098L93.1193 37.978L91.4062 37.943Z" fill="black"/>
<path d="M99.8223 37.943V30.868H101.693V35.541L104.918 30.8506H106.596V37.978H104.752V33.4098L101.562 37.978L99.8223 37.943Z" fill="black"/>
</svg>
