<svg width="323" height="242" viewBox="0 0 323 242" fill="none" xmlns="http://www.w3.org/2000/svg">
<g clip-path="url(#clip0_232_8570)">
<path opacity="0.2" d="M21.1397 317.31C15.0022 317.336 9.08152 315.046 4.56459 310.899C2.17367 308.726 0.235651 306.104 -1.13844 303.182C-2.51253 300.261 -3.29573 297.097 -3.44318 293.873C-3.59063 290.649 -3.09938 287.428 -1.99768 284.394C-0.895968 281.359 0.794613 278.572 2.97725 276.191L173.157 89.9756C177.563 85.1629 183.704 82.2942 190.229 82.0006C196.754 81.7069 203.128 84.0123 207.95 88.4097C212.772 92.807 215.646 98.9361 215.94 105.449C216.235 111.961 213.925 118.324 209.519 123.136L39.302 309.278C37.0054 311.809 34.2024 313.832 31.074 315.216C27.9456 316.599 24.5614 317.313 21.1397 317.31Z" fill="url(#paint0_linear_232_8570)"/>
<path d="M174.456 87.6175L240.239 21.9595C244.885 17.8244 250.818 15.4167 257.036 15.1432C264.28 15.0194 271.281 17.7459 276.527 22.7333C279.864 27.7318 281.459 33.688 281.066 39.6818C280.672 45.6755 278.312 51.373 274.349 55.8939L208.566 121.662C206.326 123.854 203.676 125.585 200.767 126.754C197.857 127.924 194.745 128.51 191.608 128.479C188.472 128.448 185.372 127.801 182.486 126.575C179.6 125.348 176.984 123.566 174.788 121.331C172.549 119.139 170.763 116.528 169.534 113.648C168.305 110.767 167.657 107.673 167.626 104.543C167.595 101.412 168.183 98.3061 169.355 95.4021C170.526 92.498 172.26 89.8528 174.456 87.6175Z" fill="url(#paint1_linear_232_8570)"/>
<path d="M174.456 87.6175L240.239 21.9595C244.885 17.8244 250.818 15.4167 257.036 15.1432C264.28 15.0194 271.281 17.7459 276.527 22.7333C279.864 27.7318 281.459 33.688 281.066 39.6818C280.672 45.6755 278.312 51.373 274.349 55.8939L208.566 121.662C206.326 123.854 203.676 125.585 200.767 126.754C197.857 127.924 194.745 128.51 191.608 128.479C188.472 128.448 185.372 127.801 182.486 126.575C179.6 125.348 176.984 123.566 174.788 121.331C172.549 119.139 170.763 116.528 169.534 113.648C168.305 110.767 167.657 107.673 167.626 104.543C167.595 101.412 168.183 98.3061 169.355 95.4021C170.526 92.498 172.26 89.8528 174.456 87.6175Z" fill="url(#paint2_linear_232_8570)"/>
<path d="M191.657 128.81C186.904 128.81 182.257 127.403 178.305 124.768C174.353 122.132 171.273 118.386 169.454 114.003C167.635 109.62 167.16 104.797 168.087 100.145C169.014 95.4918 171.303 91.2178 174.664 87.8633C178.025 84.5087 182.307 82.2243 186.969 81.2988C191.63 80.3733 196.462 80.8483 200.854 82.6638C205.245 84.4792 208.998 87.5536 211.639 91.4981C214.279 95.4426 215.689 100.08 215.689 104.824C215.679 111.183 213.144 117.278 208.639 121.774C204.135 126.27 198.028 128.8 191.657 128.81ZM191.657 91.9651C189.123 91.9651 186.647 92.715 184.54 94.1198C182.434 95.5247 180.792 97.5215 179.822 99.8577C178.853 102.194 178.599 104.765 179.093 107.245C179.588 109.725 180.808 112.003 182.599 113.791C184.391 115.579 186.673 116.797 189.158 117.29C191.643 117.783 194.218 117.53 196.559 116.562C198.9 115.595 200.9 113.956 202.308 111.854C203.715 109.751 204.467 107.279 204.467 104.75C204.447 101.372 203.089 98.1392 200.689 95.7575C198.289 93.3757 195.041 92.0388 191.657 92.0388V91.9651Z" fill="black"/>
<path d="M322.963 15.1802H287.672V26.3811H299.706V62.784H310.929V26.3811H322.963V15.1802Z" fill="black"/>
<path d="M258.291 33.6764C253.898 33.6764 250.907 31.0236 250.907 29.4761C250.93 29.2338 251 28.9984 251.114 28.7834C251.228 28.5684 251.384 28.378 251.572 28.2234C253.267 26.8679 255.429 26.2326 257.589 26.4547C259.648 26.2039 261.738 26.4664 263.67 27.2187C265.603 27.971 267.319 29.1896 268.664 30.7656L276.601 22.8439C274.18 20.189 271.179 18.1266 267.831 16.8166C264.483 15.5067 260.877 14.9845 257.294 15.2907C252.363 15.1484 247.565 16.9028 243.894 20.1911C242.609 21.3964 241.585 22.8522 240.887 24.4683C240.188 26.0845 239.829 27.8265 239.833 29.5866C239.833 37.6557 247.696 44.3246 257.626 44.8405C262.019 44.8405 265.009 47.5301 265.009 49.0776C264.986 49.3145 264.915 49.5443 264.801 49.7532C264.687 49.9622 264.532 50.1459 264.345 50.2935C263.513 50.98 262.552 51.4935 261.519 51.8036C260.486 52.1136 259.4 52.2141 258.328 52.099C256.268 52.3498 254.179 52.0873 252.246 51.335C250.314 50.5827 248.598 49.3641 247.253 47.7881L239.242 55.6729C241.5 58.1862 244.284 60.1724 247.398 61.4906C250.511 62.8087 253.877 63.4264 257.257 63.2998H258.623C263.517 63.4174 268.271 61.6644 271.912 58.3994C273.197 57.1941 274.221 55.7383 274.919 54.1222C275.618 52.5061 275.977 50.7641 275.973 49.004C276.158 40.8612 268.221 34.1922 258.291 33.6764Z" fill="black"/>
<path opacity="0.2" d="M-2.92331 235.256C-7.69803 235.263 -12.3715 233.883 -16.3732 231.283C-20.3749 228.683 -23.5315 224.977 -25.4576 220.616C-27.3837 216.256 -27.9961 211.429 -27.2197 206.727C-26.4433 202.025 -24.3118 197.65 -21.0856 194.137L149.131 7.99561C153.537 3.18294 159.678 0.31425 166.203 0.0205835C172.728 -0.273083 179.102 2.03232 183.924 6.42968C188.746 10.827 191.62 16.9561 191.914 23.4686C192.209 29.9811 189.899 36.3435 185.493 41.1562L15.276 227.298C12.9642 229.815 10.1516 231.823 7.01776 233.194C3.88396 234.564 0.49806 235.266 -2.92331 235.256Z" fill="url(#paint3_linear_232_8570)"/>
<path opacity="0.2" d="M181.746 252.283C177.081 252.277 172.514 250.948 168.576 248.452C164.639 245.955 161.493 242.393 159.504 238.181C157.516 233.969 156.768 229.28 157.346 224.66C157.925 220.04 159.806 215.679 162.771 212.085L239.371 119.383C243.589 114.576 249.517 111.598 255.898 111.081C262.279 110.563 268.611 112.547 273.552 116.61C278.492 120.674 281.653 126.499 282.363 132.849C283.074 139.199 281.278 145.576 277.357 150.627L200.721 243.33C198.421 246.133 195.525 248.391 192.244 249.939C188.962 251.488 185.376 252.288 181.746 252.283Z" fill="url(#paint4_linear_232_8570)"/>
<path d="M139.306 128.479H128.231V97.3449C128.293 96.6036 128.2 95.8575 127.958 95.1538C127.716 94.4502 127.33 93.8043 126.825 93.257C126.321 92.7096 125.708 92.2728 125.025 91.9739C124.343 91.6751 123.605 91.5207 122.86 91.5207C122.115 91.5207 121.377 91.6751 120.695 91.9739C120.012 92.2728 119.399 92.7096 118.894 93.257C118.39 93.8043 118.004 94.4502 117.762 95.1538C117.52 95.8575 117.427 96.6036 117.489 97.3449V128.405H106.414V97.3449C106.414 92.9476 108.164 88.7303 111.28 85.6209C114.395 82.5115 118.62 80.7646 123.026 80.7646C127.432 80.7646 131.657 82.5115 134.772 85.6209C137.888 88.7303 139.638 92.9476 139.638 97.3449L139.306 128.479Z" fill="black"/>
<path d="M161.274 128.479H150.2V97.3449C150.261 96.6036 150.168 95.8575 149.926 95.1538C149.684 94.4502 149.299 93.8043 148.794 93.257C148.289 92.7096 147.676 92.2728 146.994 91.9739C146.311 91.6751 145.574 91.5207 144.829 91.5207C144.083 91.5207 143.346 91.6751 142.664 91.9739C141.981 92.2728 141.368 92.7096 140.863 93.257C140.358 93.8043 139.973 94.4502 139.731 95.1538C139.489 95.8575 139.396 96.6036 139.457 97.3449V128.405H128.383V97.3449C128.383 92.9476 130.133 88.7303 133.248 85.6209C136.364 82.5115 140.589 80.7646 144.995 80.7646C149.4 80.7646 153.626 82.5115 156.741 85.6209C159.856 88.7303 161.607 92.9476 161.607 97.3449L161.274 128.479Z" fill="black"/>
</g>
<defs>
<linearGradient id="paint0_linear_232_8570" x1="46.4267" y1="264.142" x2="214.452" y2="82.3977" gradientUnits="userSpaceOnUse">
<stop stop-color="#DFF2FD" stop-opacity="0"/>
<stop offset="0.65" stop-color="#DFF2FD"/>
</linearGradient>
<linearGradient id="paint1_linear_232_8570" x1="167.627" y1="71.8109" x2="281.179" y2="71.8109" gradientUnits="userSpaceOnUse">
<stop stop-color="#B3E1FD"/>
<stop offset="1" stop-color="#3AB3FE"/>
</linearGradient>
<linearGradient id="paint2_linear_232_8570" x1="183.565" y1="113.41" x2="259.225" y2="24.2146" gradientUnits="userSpaceOnUse">
<stop stop-color="#DFF2FD" stop-opacity="0"/>
<stop offset="1" stop-color="#DFF2FD"/>
</linearGradient>
<linearGradient id="paint3_linear_232_8570" x1="3.27847" y1="203.975" x2="161.758" y2="29.9123" gradientUnits="userSpaceOnUse">
<stop stop-color="#DFF2FD" stop-opacity="0"/>
<stop offset="1" stop-color="#DFF2FD"/>
</linearGradient>
<linearGradient id="paint4_linear_232_8570" x1="157.16" y1="181.356" x2="282.968" y2="181.356" gradientUnits="userSpaceOnUse">
<stop stop-color="#E4F4FD" stop-opacity="0"/>
<stop offset="1" stop-color="#DFF2FD"/>
</linearGradient>
<clipPath id="clip0_232_8570">
<rect width="323" height="242" fill="white"/>
</clipPath>
</defs>
</svg>
