<svg width="164" height="280" viewBox="0 0 164 280" fill="none" xmlns="http://www.w3.org/2000/svg">
<path d="M91.6406 88.8222L80.234 77.4204" stroke="#DFF2FD" stroke-width="2" stroke-miterlimit="9" stroke-linecap="round"/>
<path d="M107.832 104.312L95.6127 116.531" stroke="#DFF2FD" stroke-width="2" stroke-miterlimit="9" stroke-linecap="round"/>
<path d="M161.57 104.264H134.321" stroke="#DFF2FD" stroke-width="2" stroke-miterlimit="9" stroke-linecap="round"/>
<path d="M134.322 104.264L120.702 117.888" stroke="#DFF2FD" stroke-width="2" stroke-miterlimit="9" stroke-linecap="round"/>
<path d="M67.8041 117.999H140.102" stroke="#DFF2FD" stroke-width="2" stroke-miterlimit="9" stroke-linecap="round"/>
<path d="M161.979 50.9551L136.464 76.4693" stroke="#DFF2FD" stroke-width="2" stroke-miterlimit="9" stroke-linecap="round"/>
<path d="M162.326 77.0669H107.832" stroke="#DFF2FD" stroke-width="2" stroke-miterlimit="9" stroke-linecap="round"/>
<path d="M107.832 77.0669L93.8535 91.0407" stroke="#DFF2FD" stroke-width="2" stroke-miterlimit="9" stroke-linecap="round"/>
<path d="M161.979 90.9497H93.1613" stroke="#DFF2FD" stroke-width="2" stroke-miterlimit="9" stroke-linecap="round"/>
<path d="M80.2477 104.575L93.1602 91.6572" stroke="#DFF2FD" stroke-width="2" stroke-miterlimit="9" stroke-linecap="round"/>
<path d="M80.248 104.575L54.4279 130.39" stroke="#DFF2FD" stroke-width="2" stroke-miterlimit="9" stroke-linecap="round"/>
<path d="M41.2 130.333H54.3945" stroke="#DFF2FD" stroke-width="2" stroke-miterlimit="9" stroke-linecap="round"/>
<path d="M82.3858 49.5972H106.695" stroke="#DFF2FD" stroke-width="2" stroke-miterlimit="9" stroke-linecap="round"/>
<path d="M134.857 22.7969L121.405 36.2496" stroke="#DFF2FD" stroke-width="2" stroke-miterlimit="9" stroke-linecap="round"/>
<path d="M93.8739 36.4219H120.096" stroke="#DFF2FD" stroke-width="2" stroke-miterlimit="9" stroke-linecap="round"/>
<path d="M144.893 37.5454L118.814 63.6238" stroke="#DFF2FD" stroke-width="2" stroke-miterlimit="9" stroke-linecap="round"/>
<path d="M66.6147 63.6235H118.814" stroke="#DFF2FD" stroke-width="2" stroke-miterlimit="9" stroke-linecap="round"/>
<path d="M93.873 9.31543V36.4216" stroke="#DFF2FD" stroke-width="2" stroke-miterlimit="9" stroke-linecap="round"/>
<path d="M80.0859 9.22021V22.7972" stroke="#DFF2FD" stroke-width="2" stroke-miterlimit="9" stroke-linecap="round"/>
<path d="M79.9902 23.165L52.9844 50.1708" stroke="#DFF2FD" stroke-width="2" stroke-miterlimit="9" stroke-linecap="round"/>
<path d="M25.1562 36.4648V67.1517" stroke="#DFF2FD" stroke-width="2" stroke-miterlimit="9" stroke-linecap="round"/>
<path d="M25.1564 64.4794L38.5039 51.1318" stroke="#DFF2FD" stroke-width="2" stroke-miterlimit="9" stroke-linecap="round"/>
<path d="M39.541 36.4648V25.9331" stroke="#DFF2FD" stroke-width="2" stroke-miterlimit="9" stroke-linecap="round"/>
<path d="M25.1562 9.22021V22.9454" stroke="#DFF2FD" stroke-width="2" stroke-miterlimit="9" stroke-linecap="round"/>
<path d="M25.7638 22.9453L50.9434 48.1297" stroke="#DFF2FD" stroke-width="2" stroke-miterlimit="9" stroke-linecap="round"/>
<path d="M52.3242 4.3916V28.3043" stroke="#DFF2FD" stroke-width="2" stroke-miterlimit="9" stroke-linecap="round"/>
<path d="M121.021 9.22021L66.6131 63.6238" stroke="#DFF2FD" stroke-width="2" stroke-miterlimit="9" stroke-linecap="round"/>
<path d="M66.6992 63.7051V91.9634" stroke="#DFF2FD" stroke-width="2" stroke-miterlimit="9" stroke-linecap="round"/>
<path d="M66.6992 91.9634L54.3269 104.331" stroke="#DFF2FD" stroke-width="2" stroke-miterlimit="9" stroke-linecap="round"/>
<path d="M38.356 104.575H53.0039" stroke="#DFF2FD" stroke-width="2" stroke-miterlimit="9" stroke-linecap="round"/>
<path d="M52.3242 23.5859V78.2047" stroke="#DFF2FD" stroke-width="2" stroke-miterlimit="9" stroke-linecap="round"/>
<path d="M39.4985 90.9063L51.4883 78.9165" stroke="#DFF2FD" stroke-width="2" stroke-miterlimit="9" stroke-linecap="round"/>
<path d="M25.1562 105.249V64.4795" stroke="#DFF2FD" stroke-width="2" stroke-miterlimit="9" stroke-linecap="round"/>
<path d="M-2.0926 22.3428L12.125 36.5556" stroke="#DFF2FD" stroke-width="2" stroke-miterlimit="9" stroke-linecap="round"/>
<path d="M12.2188 92.317V36.4648" stroke="#DFF2FD" stroke-width="2" stroke-miterlimit="9" stroke-linecap="round"/>
<path d="M-15.1007 36.4648L-0.667969 50.8976" stroke="#DFF2FD" stroke-width="2" stroke-miterlimit="9" stroke-linecap="round"/>
<path d="M-0.726562 78.0039V50.9551" stroke="#DFF2FD" stroke-width="2" stroke-miterlimit="9" stroke-linecap="round"/>
<path d="M10.8574 90.9497H-13.2896" stroke="#DFF2FD" stroke-width="2" stroke-miterlimit="9" stroke-linecap="round"/>
<path d="M25.1562 105.249L-29.3382 50.7544" stroke="#DFF2FD" stroke-width="2" stroke-miterlimit="9" stroke-linecap="round"/>
<path d="M25.1551 105.249H36.8438" stroke="#DFF2FD" stroke-width="2" stroke-miterlimit="9" stroke-linecap="round"/>
<path d="M39.541 118.195V90.9497" stroke="#DFF2FD" stroke-width="2" stroke-miterlimit="9" stroke-linecap="round"/>
<path d="M39.541 131.944V118.195" stroke="#DFF2FD" stroke-width="2" stroke-miterlimit="9" stroke-linecap="round"/>
<path d="M-42.5804 118.089H11.9141" stroke="#DFF2FD" stroke-width="2" stroke-miterlimit="9" stroke-linecap="round"/>
<path d="M-1.91094 104.264L25.7402 131.915" stroke="#DFF2FD" stroke-width="2" stroke-miterlimit="9" stroke-linecap="round"/>
<path d="M25.7068 131.944H37.209" stroke="#DFF2FD" stroke-width="2" stroke-miterlimit="9" stroke-linecap="round"/>
<path d="M39.541 146.678V131.944" stroke="#DFF2FD" stroke-width="2" stroke-miterlimit="9" stroke-linecap="round"/>
<path d="M12.5918 146.013L-3.60977 131.915" stroke="#DFF2FD" stroke-width="2" stroke-miterlimit="9" stroke-linecap="round"/>
<path d="M-0.989982 159.595L12.5918 146.013" stroke="#DFF2FD" stroke-width="2" stroke-miterlimit="9" stroke-linecap="round"/>
<path d="M-15.1016 145.564H39.541" stroke="#DFF2FD" stroke-width="2" stroke-miterlimit="9" stroke-linecap="round"/>
<path d="M39.541 278.714V146.678" stroke="#DFF2FD" stroke-width="2" stroke-miterlimit="9" stroke-linecap="round"/>
<path d="M39.4564 12.8659L52.3223 0L65.1881 12.8659L52.3223 25.7317L39.4564 12.8659Z" fill="#DFF2FD"/>
<path d="M152.742 29.6953L147.522 48.9135L128.304 54.1339L133.529 34.9158L152.742 29.6953Z" fill="#DFF2FD"/>
<path d="M75.4868 72.6733H91V88.1865H75.4868V72.6733Z" fill="#DFF2FD"/>
</svg>
