<svg width="24" height="24" viewBox="0 0 24 24" fill="none" xmlns="http://www.w3.org/2000/svg">
<path d="M18.5469 10.5988C18.5469 5.41498 15.8122 3.65234 13.2551 3.25903C13.2551 3.23197 13.2612 3.20492 13.2612 3.17371C13.2612 2.52026 12.6918 2 12 2C11.3082 2 10.7612 2.52026 10.7612 3.17371C10.7612 3.20492 10.7612 3.23197 10.7673 3.25903C8.20408 3.65651 5.45306 5.42539 5.45306 10.6093C5.45306 16.6526 3.97959 17.3019 2 19H22C20.0306 17.2956 18.5469 16.6422 18.5469 10.5988Z" fill="white"/>
<path d="M12 22C13.5557 22 14.8317 21.0738 15 20H9C9.16149 21.0738 10.4443 22 12 22Z" fill="white"/>
<circle cx="19" cy="7" r="4" fill="#FF4949"/>
</svg>
