<svg width="110" height="110" viewBox="0 0 110 110" fill="none" xmlns="http://www.w3.org/2000/svg">
<path fill-rule="evenodd" clip-rule="evenodd" d="M21.2153 29.07C24.5079 29.07 27.5328 30.1773 29.9126 32.0275L29.9126 6.99967L102.667 6.99967L102.667 32.029C100.287 30.1785 97.2616 29.071 93.9687 29.071C86.302 29.071 80.0869 35.0746 80.0869 42.4803C80.0869 49.8861 86.302 55.8896 93.9687 55.8896C97.2616 55.8896 100.287 54.7821 102.667 52.9317L102.667 80.333L29.9126 80.333L29.9126 52.9312C27.5328 54.7813 24.5079 55.8887 21.2153 55.8887C13.5486 55.8887 7.33349 49.8851 7.33349 42.4793C7.33349 35.0736 13.5486 29.07 21.2153 29.07Z" fill="#39B8FF"/>
</svg>
