<svg width="366" height="461" viewBox="0 0 366 461" fill="none" xmlns="http://www.w3.org/2000/svg">
<g clip-path="url(#clip0_121_72)">
<path d="M328.855 0H175.125C154.61 0 137.979 16.6191 137.979 37.1198V423.88C137.979 444.381 154.61 461 175.125 461H328.855C349.37 461 366 444.381 366 423.88V37.1198C366 16.6191 349.37 0 328.855 0Z" fill="url(#paint0_linear_121_72)"/>
<path d="M328.914 9.93738H175.065C160.125 9.93738 148.013 22.0411 148.013 36.9717V424.028C148.013 438.959 160.125 451.062 175.065 451.062H328.914C343.855 451.062 355.967 438.959 355.967 424.028V36.9717C355.967 22.0411 343.855 9.93738 328.914 9.93738Z" fill="url(#paint1_linear_121_72)"/>
<path d="M328.914 9.93738H175.065C167.893 9.94521 161.017 12.796 155.945 17.8642C150.873 22.9324 148.021 29.8042 148.013 36.9717V54.7347H355.967V36.9717C355.959 29.8042 353.106 22.9324 348.035 17.8642C342.963 12.796 336.087 9.94521 328.914 9.93738Z" fill="url(#paint2_linear_121_72)"/>
<path d="M328.914 451.053H175.065C167.893 451.045 161.017 448.194 155.945 443.126C150.873 438.058 148.021 431.186 148.013 424.018V406.255H355.967V424.018C355.959 431.186 353.106 438.058 348.035 443.126C342.963 448.194 336.087 451.045 328.914 451.053Z" fill="url(#paint3_linear_121_72)"/>
<path opacity="0.5" d="M303.594 37.3912H200.4C199.059 37.3912 197.773 36.8589 196.825 35.9113C195.876 34.9638 195.344 33.6787 195.344 32.3386C195.344 30.9986 195.876 29.7134 196.825 28.7659C197.773 27.8184 199.059 27.286 200.4 27.286H303.594C304.935 27.286 306.221 27.8184 307.169 28.7659C308.118 29.7134 308.65 30.9986 308.65 32.3386C308.65 33.6787 308.118 34.9638 307.169 35.9113C306.221 36.8589 304.935 37.3912 303.594 37.3912Z" fill="white"/>
<path d="M311.578 92.5503H13.7757C6.19214 92.5503 0.0444336 98.6938 0.0444336 106.272V278.13C0.0444336 285.708 6.19214 291.852 13.7757 291.852H311.578C319.162 291.852 325.31 285.708 325.31 278.13V106.272C325.31 98.6938 319.162 92.5503 311.578 92.5503Z" fill="url(#paint4_linear_121_72)"/>
<path d="M325.32 186.053H0.0739746V234.063H325.32V186.053Z" fill="url(#paint5_linear_121_72)"/>
<g opacity="0.2">
<path d="M72.5672 141.162H36.5824C32.792 141.162 29.7192 144.232 29.7192 148.02V168.152C29.7192 171.94 32.792 175.01 36.5824 175.01H72.5672C76.3576 175.01 79.4304 171.94 79.4304 168.152V148.02C79.4304 144.232 76.3576 141.162 72.5672 141.162Z" fill="#3AB3FE"/>
<path d="M153.528 202.814H27.5959C26.647 202.814 25.8777 203.583 25.8777 204.531V215.658C25.8777 216.606 26.647 217.375 27.5959 217.375H153.528C154.477 217.375 155.246 216.606 155.246 215.658V204.531C155.246 203.583 154.477 202.814 153.528 202.814Z" fill="#3AB3FE"/>
<path d="M230.277 202.76H175.243C174.294 202.76 173.525 203.529 173.525 204.477V215.604C173.525 216.552 174.294 217.321 175.243 217.321H230.277C231.226 217.321 231.995 216.552 231.995 215.604V204.477C231.995 203.529 231.226 202.76 230.277 202.76Z" fill="#3AB3FE"/>
<path d="M307.021 202.721H251.987C251.038 202.721 250.269 203.489 250.269 204.438V215.564C250.269 216.513 251.038 217.281 251.987 217.281H307.021C307.97 217.281 308.739 216.513 308.739 215.564V204.438C308.739 203.489 307.97 202.721 307.021 202.721Z" fill="#3AB3FE"/>
<path d="M126.218 112.297H29.7043V127.173H126.218V112.297Z" fill="#3AB3FE"/>
<path d="M291.932 112.218H178.892V119.659H291.932V112.218Z" fill="#3AB3FE"/>
<path d="M291.942 127.632H217.923V135.073H291.942V127.632Z" fill="#3AB3FE"/>
<path opacity="0.5" d="M136.819 259.029H24.4409V268.769H136.819V259.029Z" fill="#3AB3FE"/>
<path opacity="0.35" d="M264.944 247.831L251.286 261.494C249.947 262.834 249.948 265.005 251.289 266.344L264.961 279.992C266.302 281.331 268.475 281.33 269.814 279.99L283.472 266.327C284.812 264.987 284.811 262.816 283.47 261.477L269.797 247.828C268.457 246.49 266.284 246.491 264.944 247.831Z" fill="#3AB3FE"/>
<path opacity="0.25" d="M286.789 247.822L273.131 261.485C271.791 262.825 271.792 264.997 273.133 266.335L286.806 279.984C288.147 281.322 290.319 281.321 291.659 279.981L305.317 266.318C306.656 264.978 306.655 262.807 305.314 261.469L291.642 247.82C290.301 246.481 288.128 246.483 286.789 247.822Z" fill="#3AB3FE"/>
</g>
<rect opacity="0.5" x="170" y="337" width="162" height="39" rx="19.5" fill="white"/>
</g>
<defs>
<linearGradient id="paint0_linear_121_72" x1="151.148" y1="266.919" x2="365.561" y2="189.379" gradientUnits="userSpaceOnUse">
<stop stop-color="#F5FBFF"/>
<stop offset="0.99" stop-color="#8CD0FD"/>
</linearGradient>
<linearGradient id="paint1_linear_121_72" x1="148.013" y1="230.5" x2="355.962" y2="230.5" gradientUnits="userSpaceOnUse">
<stop stop-color="#F5FBFF"/>
<stop offset="0.99" stop-color="#8CD0FD"/>
</linearGradient>
<linearGradient id="paint2_linear_121_72" x1="159.384" y1="66.6952" x2="356.79" y2="1.36052" gradientUnits="userSpaceOnUse">
<stop stop-color="#F5FBFF"/>
<stop offset="0.99" stop-color="#8CD0FD"/>
</linearGradient>
<linearGradient id="paint3_linear_121_72" x1="162.376" y1="462.288" x2="353.596" y2="380.632" gradientUnits="userSpaceOnUse">
<stop stop-color="#F5FBFF"/>
<stop offset="0.99" stop-color="#8CD0FD"/>
</linearGradient>
<linearGradient id="paint4_linear_121_72" x1="-4.25015e-06" y1="192.196" x2="325.349" y2="192.196" gradientUnits="userSpaceOnUse">
<stop stop-color="white"/>
<stop offset="0.99" stop-color="#8CD0FD"/>
</linearGradient>
<linearGradient id="paint5_linear_121_72" x1="0.0640995" y1="210.058" x2="325.329" y2="210.058" gradientUnits="userSpaceOnUse">
<stop stop-color="white"/>
<stop offset="0.99" stop-color="#8CD0FD"/>
</linearGradient>
<clipPath id="clip0_121_72">
<rect width="366" height="461" fill="white"/>
</clipPath>
</defs>
</svg>
