<svg width="100" height="100" viewBox="0 0 100 100" fill="none" xmlns="http://www.w3.org/2000/svg">
<rect x="50.375" y="1" width="54.2715" height="54.2715" transform="rotate(45 50.375 1)" fill="#39B8FF"/>
<path fill-rule="evenodd" clip-rule="evenodd" d="M49.1793 21.0919C40.339 22.2101 33.5789 28.6881 31.8787 37.6705C31.6762 38.7402 31.6427 39.8651 31.6455 45.511C31.6488 52.1432 31.7043 53.1572 32.212 55.8495C33.2273 61.2338 35.7294 66.6459 38.9077 70.3328C39.6114 71.149 39.8576 71.5256 39.7364 71.6008C39.6416 71.6595 37.5636 72.4107 35.1188 73.2701C32.6739 74.1294 30.3035 74.9853 29.8512 75.1721C27.5873 76.1069 26.0597 77.7757 25.3091 80.1344C25.012 81.0681 25 81.3073 25 86.2871V91.4686L25.3267 91.7339C25.7708 92.0948 26.2594 92.0674 26.6668 91.6587L27.0065 91.3181V86.6861C27.0065 82.3131 27.1318 80.4814 27.4308 80.4814C27.566 80.4814 32.6539 84.8352 33.0006 85.2476C33.6725 86.0466 33.781 86.5451 33.7842 88.8493C33.7865 90.4973 33.8374 91.1393 33.9897 91.4343C34.3183 92.0717 34.9053 92.1795 35.4983 91.7117L35.8629 91.4242V89.0309C35.8629 85.0386 35.7007 84.7441 31.5238 81.1555C29.9146 79.7729 28.5796 78.5946 28.5572 78.5372C28.5056 78.4044 29.4191 77.681 30.0427 77.3607C30.4214 77.1664 34.967 75.4856 35.114 75.4856C35.1348 75.4856 35.3704 75.9383 35.6376 76.4917C37.5139 80.3769 41.015 83.6094 45.0548 85.1867C47.274 86.0532 48.9795 86.37 51.4308 86.3708C55.113 86.3722 58.4134 85.4015 61.2395 83.4859C61.7635 83.1309 62.2453 82.8405 62.3105 82.8405C62.4585 82.8405 63.4099 84.7255 63.9381 86.0658C64.4395 87.3379 64.7362 88.6795 64.8596 90.2331C64.945 91.3082 64.9969 91.4824 65.3042 91.7249C65.8828 92.1812 66.4744 92.0334 66.8425 91.3405C67.0572 90.9362 66.8324 88.5902 66.4316 87.0515C65.862 84.8653 65.3931 83.8695 63.0108 79.7875C60.095 74.7912 59.4501 72.9786 59.2635 69.2537C59.1637 67.2634 59.1345 67.0977 58.8415 66.8599C58.4287 66.5247 57.7965 66.5347 57.4504 66.8818C57.2037 67.1292 57.1736 67.344 57.174 68.8593C57.1747 71.419 57.5867 73.353 58.7687 76.3439L59.0256 76.9939L58.6877 77.2813C56.6388 79.0244 53.3756 80.091 50.8081 79.8569C47.7607 79.5791 45.8109 78.6693 43.6777 76.5301C42.3078 75.1564 41.2108 73.5234 41.487 73.2693C41.5523 73.2092 41.8395 73.0851 42.1252 72.9935C42.8548 72.7597 44.2041 71.8272 44.6375 71.2572C44.8382 70.9934 45.1716 70.4475 45.3782 70.044C45.7395 69.3387 45.7559 69.2122 45.8034 66.7777C45.8305 65.3847 45.8701 64.2451 45.8914 64.2451C45.9126 64.2451 46.2025 64.3424 46.5354 64.4615C48.3754 65.1186 50.8084 65.3968 52.9639 65.1965C56.3822 64.8789 59.5936 63.4096 62.1112 61.0115C64.4018 58.8295 66.0109 55.924 66.6223 52.8659L66.8027 51.9639L67.6964 51.8784C68.1879 51.8314 68.7614 51.7237 68.9706 51.639L69.3512 51.4851V71.4546V91.4242L69.7158 91.7117C70.3088 92.1795 70.8958 92.0717 71.2244 91.4343C71.3866 91.1198 71.4269 90.3372 71.4269 87.5015V83.9612L73.4409 82.2213C74.5486 81.2643 75.5053 80.4814 75.5667 80.4814C75.8682 80.4814 75.9935 82.3015 75.9935 86.6861V91.3181L76.3332 91.6587C76.7406 92.0674 77.2292 92.0948 77.6733 91.7339L78 91.4686V86.2871C78 81.3073 77.988 81.0681 77.6909 80.1344C76.7987 77.331 75.1348 75.8028 71.6749 74.609C71.454 74.5328 71.4352 73.3528 71.3877 56.5847C71.3425 40.6593 71.3113 38.5171 71.1107 37.5317C70.1449 32.7904 67.9359 28.8638 64.577 25.9179C61.9099 23.5789 58.8777 22.078 55.3784 21.3648C53.7201 21.0268 50.7334 20.8954 49.1793 21.0919ZM54.8903 23.3755C61.2419 24.6924 66.2833 29.097 68.3227 35.1112C69.0232 37.1773 69.2257 38.5443 69.3131 41.7989C69.395 44.8492 69.393 44.8591 68.7575 44.5181C68.5861 44.4261 67.3666 44.3144 65.8952 44.256C63.0712 44.1437 61.279 43.8377 59.2535 43.1215C52.335 40.6755 46.3719 35.1004 42.6065 27.5575C41.9561 26.2547 41.8231 25.8842 41.9715 25.7886C43.5189 24.7912 46.5821 23.614 48.3864 23.3233C48.9192 23.2374 49.5108 23.1406 49.701 23.1079C50.4365 22.9817 53.8368 23.1571 54.8903 23.3755ZM43.1264 32.6053C48.8474 41.16 57.4374 46.3294 65.9517 46.3412C68.1979 46.3443 68.7851 46.5626 69.1541 47.5315C69.3624 48.0784 69.3667 48.2058 69.192 48.6659C69.0813 48.9577 68.7921 49.3214 68.5302 49.4985C67.9501 49.8904 67.0318 49.9309 66.9042 49.5701C66.7355 49.0931 66.4023 48.8415 65.9394 48.8415C65.4326 48.8415 64.9237 49.2406 64.9219 49.6395C64.9184 50.3874 64.6022 52.5177 64.365 53.3917C63.0669 58.1757 59.0802 61.903 54.1602 62.9326C52.7687 63.2238 50.2313 63.2238 48.8398 62.9326C45.3451 62.2013 42.3502 60.1694 40.3748 57.1899C39.1107 55.2827 38.4713 53.4417 38.2045 50.9402C38.0236 49.2449 37.9525 49.0607 37.4053 48.8694C36.898 48.6921 36.417 48.9119 36.1667 49.4353C36.011 49.761 35.9031 49.8129 35.3816 49.8129C34.2598 49.8129 33.4425 48.7093 33.7878 47.6605C34.0528 46.8549 34.6644 46.5019 36.0359 46.3624C37.4232 46.2214 38.2382 45.8718 39.0294 45.0783C39.9423 44.1629 40.1915 43.4765 40.3131 41.5411C40.442 39.4906 40.7672 38.6292 41.8086 37.5793C42.3281 37.0557 42.5052 36.7734 42.5052 36.4695C42.5052 36.0239 41.9734 35.3807 41.6052 35.3807C41.2192 35.3807 40.6397 35.7572 40.0729 36.3761C38.8354 37.7276 38.379 38.9366 38.2571 41.1864C38.1295 43.5395 37.6962 44.0467 35.5607 44.3422C34.8516 44.4401 34.122 44.5657 33.9391 44.6211L33.6066 44.7218L33.6891 41.8205C33.7355 40.1876 33.8648 38.4073 33.9851 37.748C34.6287 34.2187 36.3651 30.8805 38.8575 28.3811L40.0556 27.1796L41.011 29.0252C41.5364 30.0401 42.4883 31.6513 43.1264 32.6053ZM44.0371 41.5549C43.0149 41.8926 42.0556 42.2922 41.9053 42.4428C41.3304 43.0194 41.761 44.1233 42.5608 44.1233C43.0769 44.1233 46.5779 42.8859 46.7604 42.639C47.0115 42.2994 46.973 41.5645 46.6913 41.3164C46.23 40.9102 45.8985 40.94 44.0371 41.5549ZM44.4453 45.5516C43.911 45.821 43.7282 46.3023 43.8028 47.243C43.8773 48.1827 44.1863 48.564 44.8731 48.564C45.5767 48.564 45.8264 48.1517 45.8264 46.9896C45.8264 46.1927 45.7735 45.9239 45.5842 45.7571C45.2139 45.431 44.8237 45.3606 44.4453 45.5516ZM57.8655 45.472C57.2989 45.6773 57.1736 45.9519 57.1736 46.9896C57.1736 47.8239 57.2239 48.0593 57.4504 48.2865C57.7998 48.6368 58.4299 48.6427 58.8526 48.2994C59.1389 48.0669 59.1785 47.9161 59.1793 47.0547C59.18 46.2554 59.1291 46.0252 58.9034 45.8073C58.5846 45.4994 58.1647 45.3638 57.8655 45.472ZM35.2344 51.8791L36.1974 51.9639L36.3777 52.8659C36.7657 54.8069 37.5339 56.6455 38.7103 58.4487C39.5145 59.6815 41.7162 61.8963 42.8859 62.6493L43.7483 63.2044L43.7494 65.8588C43.7504 67.9685 43.7055 68.6234 43.5308 69.0505C43.3008 69.6124 42.4189 70.6286 42.1611 70.6286C41.9446 70.6286 40.7243 69.3354 39.8202 68.1481C36.5122 63.8031 34.369 58.2282 33.8431 52.6004C33.7521 51.626 33.7608 51.5777 34.0093 51.683C34.1535 51.7442 34.7048 51.8325 35.2344 51.8791ZM47.4392 53.536C47.3133 53.6756 47.2102 54.0162 47.2102 54.2929C47.2102 54.7285 47.2967 54.8621 47.8541 55.289C49.695 56.6986 53.305 56.6986 55.1459 55.289C55.7129 54.8549 55.7898 54.7331 55.7898 54.2687C55.7898 53.2106 55.0208 53.0091 53.7466 53.7332C52.9905 54.1629 52.8842 54.1842 51.5 54.1842C50.1158 54.1842 50.0095 54.1629 49.2534 53.7332C48.3597 53.2253 47.7767 53.162 47.4392 53.536ZM39.6847 74.6877C41.6352 78.5608 45.5246 81.2916 49.9273 81.8795C52.9778 82.2868 56.4448 81.4153 59.0559 79.5849C59.5502 79.2384 59.9983 78.9556 60.0517 78.9565C60.1487 78.9582 61.0803 80.5485 61.1593 80.8476C61.2189 81.0732 59.4919 82.1887 57.979 82.9014C50.4588 86.4446 41.3432 83.2124 37.5382 75.6535C37.2222 75.0257 37.1501 74.7687 37.2779 74.7242C37.3749 74.6903 37.8591 74.5087 38.3538 74.3205C38.8485 74.1324 39.2678 73.9741 39.2855 73.9688C39.3032 73.9634 39.4828 74.287 39.6847 74.6877ZM73.0317 77.4044C73.3288 77.5588 73.7898 77.8757 74.0561 78.1087L74.5405 78.5322L74.2403 78.7782C74.0752 78.9135 73.3746 79.5127 72.6835 80.1096L71.4269 81.1951V78.971V76.7469L71.9592 76.9352C72.2521 77.0389 72.7347 77.2499 73.0317 77.4044Z" fill="black"/>
</svg>
