<svg width="100" height="100" viewBox="0 0 100 100" fill="none" xmlns="http://www.w3.org/2000/svg">
<path d="M75.5463 57.3504L42.8182 0.0371101L10.8182 55.4627L75.5463 57.3504Z" fill="#39B8FF"/>
<path fill-rule="evenodd" clip-rule="evenodd" d="M33.6048 24.1052C36.0159 24.3192 39.5098 24.9449 42.541 25.7055C46.783 26.7699 49.2956 28.0818 51.5174 30.392C53.8306 32.7973 55.2952 35.5051 56.2277 39.1003C56.7963 41.2921 57.0749 42.1346 57.5348 43.054C58.371 44.7249 58.5227 45.9767 58.011 46.9843C57.8477 47.3059 57.3304 47.9461 56.8613 48.4069C56.2503 49.0071 56.0272 49.305 56.0747 49.4574C56.1112 49.5743 56.246 49.9651 56.3743 50.3257C56.5026 50.6863 56.6692 51.2496 56.7444 51.5774C57.0028 52.7045 57.5429 53.582 58.9191 55.1116C61.9865 58.5206 62.4534 59.5056 61.658 60.8897C61.2898 61.5306 60.7193 61.9719 59.2808 62.7287C58.0124 63.3959 57.9518 63.7214 58.7969 65.3317C59.5977 66.8577 59.547 67.3983 58.5308 68.1718C58.2083 68.4172 57.9694 68.6833 58.0001 68.7631C58.5211 70.1183 58.3129 70.7065 57.0292 71.505C56.0758 72.098 55.9653 72.2879 56.087 73.1239C56.1278 73.4032 56.1935 74.1549 56.2331 74.7945C56.2973 75.8303 56.2716 76.0648 55.9977 76.9403C55.6339 78.1038 55.1667 78.7831 54.3938 79.2726C53.7133 79.7035 53.0766 79.8889 52.2759 79.8893C51.4112 79.8898 47.563 78.8468 44.3389 77.7381L42.9716 77.2679L42.5198 77.5804C41.5461 78.2538 40.3224 80.1355 39.5306 82.1766C38.9658 83.6325 38.5948 84.1536 37.7842 84.6292L37.2256 84.9569L26.3046 84.9892C16.7673 85.0173 15.314 84.9982 14.834 84.8392C13.5973 84.4292 12.7678 83.2802 12.7704 81.981C12.7716 81.4218 12.8717 81.0222 13.2199 80.1884C14.4648 77.207 15.1111 74.5943 15.4318 71.2475C15.739 68.0424 15.0766 64.6301 13.6151 61.8893C13.0344 60.8003 12.5553 60.0841 10.5841 57.3592C7.66456 53.3235 6.7287 50.043 7.06518 45.0241C7.55825 37.6695 9.70005 33.3761 14.7697 29.5797C19.2532 26.2222 23.0637 24.6159 27.7548 24.1059C29.0506 23.965 32.0222 23.9646 33.6048 24.1052ZM27.9513 26.1317C23.5301 26.5798 20.0635 28.0783 15.6515 31.4484C13.5086 33.0853 11.8538 35.0607 10.8811 37.1428C9.68834 39.6963 9.0683 43.0032 9.06865 46.8089C9.06901 50.927 9.80659 52.8875 12.9836 57.2147C14.3862 59.1252 14.9813 60.0541 15.638 61.358C17.1078 64.276 17.7688 67.8844 17.4679 71.3455C17.1887 74.5566 16.5127 77.4361 15.3598 80.3255C14.7473 81.8607 14.7053 82.2807 15.1227 82.6972L15.4158 82.9899H26.0453H36.6747L36.9643 82.7216C37.1235 82.5741 37.3746 82.1047 37.5223 81.6785C37.9572 80.4238 38.8901 78.7173 39.7805 77.5478L40.6109 76.457L38.6248 75.7782C34.209 74.2691 32.3655 72.8454 31.8885 70.5759C31.6576 69.4776 32.0087 68.8036 32.8115 68.8036C33.3694 68.8036 33.8204 69.2393 33.824 69.7817C33.8307 70.7908 34.8301 71.9261 36.4053 72.714C37.2533 73.1384 43.1897 75.2613 46.3633 76.2754C48.4367 76.9378 51.911 77.8637 52.3234 77.8637C53.5704 77.8637 54.3465 76.5792 54.1954 74.7657C53.9629 71.978 53.9669 71.8965 54.3645 71.216C54.687 70.6642 55.0921 70.2842 55.876 69.7984C56.0904 69.6654 56.0888 69.6439 55.8294 69.1788C55.441 68.4821 55.4805 68.1386 56.0086 67.6222C56.2549 67.3813 56.6156 67.0717 56.8099 66.9341L57.1634 66.684L56.7219 65.745C56.1912 64.6163 56.076 63.9188 56.2801 63.0697C56.4776 62.248 57.1863 61.5367 58.5095 60.8319C59.0474 60.5454 59.6047 60.1866 59.7479 60.0344L60.0085 59.7577L59.7279 59.3036C59.399 58.7713 58.5714 57.7796 57.0252 56.0648C55.7667 54.6692 55.0041 53.2855 54.678 51.8061C54.5757 51.3416 54.3841 50.7247 54.2525 50.4351C53.7338 49.2942 54.0899 48.2075 55.3937 46.9527C56.0698 46.3018 56.2773 46.0254 56.2773 45.7755C56.2773 45.4423 56.0293 44.7363 55.2795 42.9345C55.0475 42.3772 54.6444 41.0897 54.3836 40.0734C53.8509 37.997 53.5285 37.0809 52.8736 35.7818C51.3228 32.7061 48.9381 30.2951 46.2266 29.0619C43.7802 27.9492 38.2784 26.6483 34.3589 26.2559C33.6363 26.1835 32.8837 26.1058 32.6867 26.0832C31.8521 25.9876 29.0956 26.0158 27.9513 26.1317ZM28.5658 28.1377C29.6875 28.505 30.6445 29.3709 31.1497 30.4759C31.8447 31.9955 31.464 33.8508 30.2189 35.0132L29.6334 35.5598L29.8162 36.7888C30.0115 38.1011 30.037 39.2689 29.8923 40.2821C29.8299 40.7203 29.8435 40.9079 29.938 40.9079C30.0123 40.9079 30.7953 40.7235 31.6784 40.4982C32.5615 40.2729 33.7569 39.9968 34.3351 39.8846C35.3584 39.6862 35.4007 39.6645 35.9228 39.0724C36.4072 38.5231 37.2707 37.0222 37.1536 36.9332C37.1276 36.9134 36.8582 36.7555 36.5552 36.5824C35.8549 36.1825 35.3024 35.5543 34.9118 34.7144C34.6639 34.1808 34.6039 33.8688 34.6011 33.097C34.5982 32.2529 34.6439 32.0474 34.991 31.3436C36.2445 28.8026 39.5174 28.2529 41.5163 30.2478C43.1152 31.8436 43.1069 34.3888 41.4977 35.9948C40.9863 36.5053 39.9341 37.0897 39.5225 37.0919C39.4048 37.0927 39.2505 37.2387 39.1751 37.421C39.1005 37.6013 38.9127 38.0386 38.7579 38.3928C38.6031 38.7471 38.5011 39.0614 38.5313 39.0916C38.5615 39.1218 39.5701 39.0314 40.7726 38.8909C44.1086 38.5009 43.7991 38.5864 43.966 38.0094C44.1431 37.3966 44.8101 36.3919 45.2602 36.0598C46.1854 35.3771 46.6054 35.2453 47.8563 35.2453C49.1073 35.2453 49.5273 35.3771 50.4525 36.0598C51.3723 36.7385 52.0732 38.4541 51.9225 39.6577C51.751 41.0275 50.7475 42.3956 49.4899 42.9744C48.6949 43.3402 47.0178 43.3402 46.2228 42.9744C45.4734 42.6295 44.6146 41.8191 44.2615 41.1237C43.9748 40.5592 43.9691 40.5555 43.4659 40.6132C41.1566 40.8784 38.758 41.1926 37.4212 41.405L35.825 41.6586L36.6125 42.386C37.0456 42.786 37.6354 43.403 37.9231 43.7571L38.446 44.4007L39.6276 44.4128C40.6627 44.4233 40.8925 44.4656 41.4829 44.7549C42.2691 45.1403 43.0521 45.939 43.4175 46.7284C43.7942 47.5422 43.7884 49.3226 43.4064 50.0963C42.9924 50.9348 42.3941 51.5542 41.5646 52.003C40.8632 52.3826 40.7319 52.4119 39.734 52.4119C38.8256 52.4119 38.5564 52.3639 37.9965 52.1018C37.0822 51.6738 36.5556 51.1778 36.0903 50.3066C35.3721 48.9617 35.4699 47.3411 36.346 46.0701C36.5502 45.7741 36.6637 45.4922 36.6135 45.4072C36.1281 44.5869 34.4275 43.0679 33.4198 42.5548C32.9649 42.3231 32.8687 42.3149 32.2097 42.4507C31.1489 42.6693 28.7743 43.471 27.8037 43.9383C26.8585 44.3932 26.0147 45.0584 25.7728 45.5393C25.1608 46.7552 25.6018 48.2904 27.9012 52.9484C28.4676 54.0958 29.1028 55.5442 29.3127 56.1671C29.6562 57.187 29.6945 57.4418 29.6974 58.7302C29.7003 60.0494 29.6753 60.2117 29.3761 60.8164C29.1687 61.2354 28.6872 61.829 28.0415 62.4613C27.2455 63.2406 26.9181 63.6706 26.4981 64.4879C25.0255 67.3538 24.373 71.1243 24.3296 77.0187L24.3048 80.4056L23.9799 80.6844C23.5464 81.0566 23.1564 81.0359 22.6849 80.6154L22.2948 80.2675L22.3006 76.9496C22.3076 72.8733 22.5587 70.299 23.2054 67.6711C23.9833 64.5103 24.9291 62.6431 26.5826 61.0035C27.1391 60.4517 27.5171 59.9653 27.6116 59.6793C27.825 59.0344 27.6925 57.7114 27.3079 56.644C26.8705 55.4303 24.5232 50.541 24.2889 50.3555C24.1853 50.2736 23.9593 50.2065 23.7867 50.2065C23.2788 50.2065 22.2634 50.5513 21.9314 50.8364L21.6237 51.1006L21.9593 51.8159C22.246 52.4269 22.2944 52.6787 22.2914 53.5444C22.2885 54.3843 22.2339 54.674 21.9724 55.2368C20.9607 57.4145 18.3349 58.2944 16.2415 57.1574C13.3184 55.5695 13.4228 51.2948 16.4199 49.8602C17.3931 49.3943 18.1878 49.3007 19.1282 49.5412C20.0627 49.7801 19.9752 49.7908 20.5003 49.3743C21.1294 48.8752 22.0476 48.4659 22.9204 48.2952C23.6418 48.1541 23.6628 48.1396 23.5846 47.8368C23.4517 47.3224 23.4899 46.0124 23.6548 45.4257C23.8028 44.8994 23.7935 44.8461 23.4261 44.1144C22.9623 43.191 22.1692 42.0644 21.5998 41.5201L21.1802 41.1189L20.7819 41.4171C19.8155 42.1406 19.3873 42.2789 18.1142 42.2789C17.0516 42.2789 16.8456 42.2425 16.2479 41.9496C15.4494 41.5581 14.5518 40.6417 14.2027 39.8609C13.8224 39.0107 13.7782 37.583 14.1053 36.7173C14.6301 35.3291 15.656 34.4128 17.0986 34.0439C19.0521 33.5444 21.0797 34.5558 21.9746 36.4762C22.2368 37.0388 22.2921 37.3336 22.3027 38.2257L22.3156 39.2986L23.055 40.0734C23.7827 40.836 24.7059 42.1024 24.9935 42.7325C25.0741 42.9091 25.1773 43.0537 25.2227 43.0537C25.2681 43.0537 25.7798 42.768 26.3598 42.4188C27.3683 41.8117 27.424 41.7559 27.633 41.1422C27.9337 40.2592 28.0262 38.7869 27.8595 37.5374C27.7828 36.9621 27.6923 36.4195 27.6584 36.3314C27.6212 36.2346 27.3275 36.1469 26.9151 36.1096C25.5478 35.9859 24.3916 35.176 23.7631 33.9017C23.4114 33.1888 23.3698 32.9969 23.3698 32.0862C23.3698 31.1756 23.4114 30.9836 23.7631 30.2707C24.4717 28.834 25.5982 28.1237 27.2502 28.0719C27.8095 28.0543 28.4015 28.0839 28.5658 28.1377ZM26.5729 30.2912C25.0638 30.975 25.0556 33.1646 26.5591 33.9453C26.7366 34.0375 27.1288 34.1128 27.431 34.1128C29.592 34.1128 30.2409 31.1761 28.2766 30.2856C27.6573 30.005 27.2016 30.0064 26.5729 30.2912ZM37.7714 31.307C36.6265 31.898 36.2825 33.4144 37.0674 34.4103C37.3755 34.8013 38.1591 35.1805 38.659 35.1805C39.1954 35.1805 39.9611 34.7864 40.2725 34.3499C40.5613 33.9451 40.7157 33.0399 40.5847 32.5191C40.4803 32.104 39.9324 31.4878 39.5011 31.3002C39.0143 31.0886 38.1882 31.0919 37.7714 31.307ZM17.7894 36.2639C16.8665 36.5197 16.2628 37.2963 16.2628 38.2276C16.2628 38.8198 16.3861 39.1382 16.7854 39.5781C17.7298 40.6184 19.5148 40.3506 20.0919 39.0821C20.3768 38.4557 20.3788 37.9986 20.0993 37.3912C19.8304 36.8068 19.5236 36.524 18.9284 36.3122C18.3682 36.1127 18.3392 36.1115 17.7894 36.2639ZM47.0444 37.3734C45.6874 37.9393 45.3838 39.724 46.4767 40.7096C47.4627 41.5985 48.9806 41.3484 49.6133 40.1927C49.9241 39.6252 49.861 38.5965 49.4831 38.0667C48.9489 37.3181 47.8954 37.0185 47.0444 37.3734ZM38.4992 46.7356C37.781 47.2459 37.462 48.2794 37.7704 49.096C37.9516 49.5756 38.5738 50.1797 39.0475 50.3356C40.2926 50.7458 41.7049 49.7106 41.7049 48.3878C41.7049 47.7673 41.237 46.969 40.6896 46.6555C40.0631 46.2967 39.0655 46.3332 38.4992 46.7356ZM17.7894 51.5231C16.8665 51.7789 16.2628 52.5554 16.2628 53.4867C16.2628 54.079 16.3861 54.3974 16.7854 54.8373C17.7298 55.8775 19.5148 55.6098 20.0919 54.3412C20.3768 53.7149 20.3788 53.2577 20.0993 52.6503C19.8304 52.066 19.5236 51.7832 18.9284 51.5714C18.3682 51.3719 18.3392 51.3707 17.7894 51.5231Z" fill="black"/>
</svg>
