<svg width="100" height="100" viewBox="0 0 100 100" fill="none" xmlns="http://www.w3.org/2000/svg">
<g clip-path="url(#clip0_626_4805)">
<rect x="10" y="-1" width="54" height="54" fill="#39B8FF"/>
<path fill-rule="evenodd" clip-rule="evenodd" d="M28.9923 25.1364C28.176 25.358 27.6931 25.7511 27.3232 26.4952L27 27.1456L27.0012 47.5162L27.0025 67.8868L27.3042 68.5367C27.6495 69.2801 28.2516 69.7459 29.1249 69.9453C29.4958 70.03 36.3669 70.0747 49.2888 70.0768L68.8904 70.0798L68.8025 70.3572C68.7543 70.5097 68.4412 71.1954 68.1067 71.8811C67.4568 73.2134 67.3817 73.6164 67.6987 74.07C68.0342 74.5502 68.4093 74.6138 69.6673 74.403C70.2964 74.2976 70.9347 74.1838 71.086 74.1499C71.3218 74.0971 71.4606 74.2555 72.0602 75.2629C72.8831 76.6457 73.2083 76.9843 73.7269 76.9991C74.4312 77.0191 74.6314 76.7443 75.9329 73.9705C76.6188 72.5087 77.2149 71.291 77.2575 71.2646C77.3002 71.2381 77.8865 72.3847 78.5603 73.8124C79.2343 75.2401 79.9106 76.5409 80.0635 76.7028C80.2574 76.9083 80.4806 76.9973 80.8022 76.9973C81.3437 76.9973 81.6193 76.7782 82.0794 75.9826C82.2628 75.6653 82.5947 75.1182 82.8169 74.7668L83.2208 74.1278L84.6771 74.36C86.3434 74.6257 86.7065 74.5444 86.9974 73.8406C87.1795 73.3997 87.1605 73.3388 86.2045 71.3017L85.6312 70.0798L86.9708 70.0768C89.2679 70.0716 90.1598 69.6994 90.6975 68.5219L91 67.8594L90.9676 47.3741L90.9353 26.8887L90.5591 26.2788C90.292 25.8456 90.0033 25.5762 89.5626 25.3489L88.9421 25.0287L59.2522 25.0051C36.0204 24.9867 29.4384 25.0153 28.9923 25.1364ZM88.581 26.979C88.7731 27.0522 88.9727 27.179 89.0246 27.2609C89.1479 27.4554 89.1479 67.5904 89.0246 67.7849C88.8289 68.0936 88.1791 68.2001 86.4923 68.2001H84.7531L84.4881 67.6794C84.2326 67.1774 84.2315 67.1543 84.4544 67.035C84.5815 66.9669 84.9495 66.6408 85.2721 66.3103C85.9262 65.6404 86.2479 64.8103 86.2479 63.7931C86.2479 63.3569 86.3598 62.9772 86.6542 62.4141C87.2265 61.3194 87.2264 60.3363 86.6538 59.1539C86.3849 58.5987 86.2479 58.1306 86.2479 57.7669C86.2479 56.4305 85.6194 55.3425 84.391 54.5522C84.0632 54.3414 83.6743 53.951 83.5229 53.6811C83.183 53.0748 82.3643 52.3208 81.7801 52.076C81.5378 51.9747 80.9394 51.8586 80.4501 51.8184C79.8091 51.7655 79.3618 51.6411 78.8486 51.3728C77.8477 50.8496 76.8237 50.8503 75.7223 51.3754C75.1954 51.6267 74.6491 51.7758 74.067 51.8273C72.8901 51.9316 71.9873 52.3831 71.4624 53.1301C70.9455 53.8657 70.295 54.5165 69.6536 54.9394C68.8822 55.4483 68.4965 56.2101 68.3822 57.4517C68.3109 58.2253 68.1948 58.6629 67.9239 59.1773C67.6168 59.7607 67.5611 60.0109 67.5611 60.8064C67.5611 61.6236 67.6141 61.8478 67.9673 62.5244C68.2794 63.1223 68.3735 63.459 68.3735 63.9782C68.3735 65.1608 68.8955 66.1876 69.803 66.7903L70.3261 67.1377L70.0951 67.6689L69.864 68.2001H49.8151C35.9647 68.2001 29.6582 68.1589 29.4168 68.0669C29.2247 67.9937 29.0251 67.8669 28.9732 67.7849C28.8491 67.5894 28.8501 27.4549 28.9742 27.2593C29.0266 27.1766 29.2085 27.0533 29.3784 26.9852C29.8252 26.8065 88.1122 26.8003 88.581 26.979ZM36.3834 30.0759C36.1427 30.3173 36.0081 30.6146 35.9437 31.0471C35.8194 31.8817 35.6131 32.3468 35.1143 32.9162C34.5157 33.5998 33.8675 33.9679 32.9064 34.1699C32.2886 34.2997 31.9898 34.4343 31.7823 34.676L31.4998 35.0053V47.5396V60.0738L31.8501 60.425C32.0762 60.6516 32.3973 60.8081 32.7563 60.8663C34.4725 61.1452 35.5732 62.1998 35.9303 63.9076C36.0598 64.5271 36.1941 64.8266 36.4352 65.0346L36.7637 65.3178H50.9268C65.066 65.3178 65.0905 65.3173 65.4193 65.058C65.8499 64.7186 65.8594 64.1643 65.4418 63.7457L65.135 63.4381H51.4523H37.7695L37.6816 63.0308C37.5618 62.4749 37.0488 61.4795 36.5817 60.8969C36.0672 60.2549 34.8758 59.4717 34.0463 59.23L33.3748 59.0342V47.5338V36.0336L33.906 35.8743C35.7348 35.326 37.3155 33.7102 37.6815 32.0151L37.7695 31.6078H58.8694H79.9694L80.1811 32.2657C80.7592 34.0616 82.2676 35.504 83.9667 35.8862L84.623 36.0337V44.1424C84.623 52.156 84.626 52.255 84.8821 52.5813C85.07 52.8208 85.2563 52.9115 85.5604 52.9115C85.8646 52.9115 86.0509 52.8208 86.2388 52.5813C86.4953 52.2546 86.4979 52.162 86.4979 43.6282V35.0053L86.2155 34.6763C85.9998 34.4246 85.7227 34.307 85.0397 34.1765C84.5484 34.0825 83.9301 33.894 83.6659 33.7576C82.6828 33.2498 81.9899 32.2031 81.8066 30.9489C81.7417 30.505 81.6248 30.2729 81.3492 30.0403L80.979 29.728H58.8546H36.7304L36.3834 30.0759ZM40.2039 36.3789C39.7734 36.7184 39.7549 37.3412 40.1638 37.7265L40.4532 37.9989H59.0164H77.5796L77.8515 37.7089C78.2359 37.2985 78.2104 36.7074 77.7938 36.3789L77.4645 36.1192H58.9989H40.5333L40.2039 36.3789ZM40.1463 41.5471C39.7961 41.9209 39.7919 42.5217 40.1374 42.8355C40.3752 43.0515 40.6509 43.0778 43.0316 43.1127C45.8626 43.1542 46.2399 43.0936 46.4831 42.5585C46.6911 42.101 46.6587 41.9068 46.3174 41.5648L46.0107 41.2571H43.2144C40.453 41.2571 40.4147 41.2608 40.1463 41.5471ZM49.396 41.5471C49.0606 41.9051 49.0477 42.3877 49.3632 42.7783L49.6021 43.0742H63.5996C77.1889 43.0742 77.6046 43.0672 77.8601 42.8355C78.2199 42.509 78.2073 41.8813 77.834 41.5296L77.5446 41.2571H63.6062H49.6678L49.396 41.5471ZM40.1463 46.6851C39.7618 47.0955 39.7873 47.6866 40.2039 48.015L40.5333 48.2748H58.9989H77.4645L77.7938 48.015C78.2243 47.6756 78.2428 47.0527 77.834 46.6675L77.5446 46.3951H58.9814H40.4182L40.1463 46.6851ZM78.5788 53.3357C79.0092 53.555 79.4228 53.6637 79.8288 53.6642C80.85 53.6653 81.3393 53.8669 81.7452 54.4538C82.4352 55.4513 82.6524 55.6796 83.318 56.1065C84.1304 56.6275 84.373 57.062 84.373 57.9961C84.373 58.5402 84.4757 58.9354 84.8105 59.6786C85.0511 60.2128 85.248 60.7204 85.248 60.8064C85.248 60.8925 85.0511 61.4001 84.8105 61.9343C84.4757 62.6775 84.373 63.0727 84.373 63.6168C84.373 64.5117 84.1337 64.9797 83.4633 65.3967C82.7128 65.8632 82.4031 66.1682 81.9284 66.9076C81.6991 67.2651 81.41 67.6099 81.286 67.6738C81.162 67.7377 80.6407 67.8235 80.1275 67.8646C79.4299 67.9205 79.0114 68.0356 78.4696 68.3204C77.5578 68.7995 77.0627 68.8009 76.1261 68.3269C75.5988 68.06 75.1242 67.9298 74.4736 67.8735C73.3652 67.7777 73.1111 67.6298 72.5535 66.7558C72.274 66.3177 71.8548 65.8962 71.3716 65.5672C70.9598 65.2869 70.5447 64.9327 70.4493 64.7803C70.354 64.628 70.249 64.092 70.216 63.5893C70.1699 62.8857 70.0661 62.5034 69.7647 61.9271C69.2755 60.9913 69.2746 60.6232 69.7596 59.6958C70.0552 59.1302 70.166 58.7204 70.2324 57.9452C70.3297 56.809 70.4971 56.5401 71.4578 55.9755C71.7834 55.7843 72.1943 55.3656 72.5015 54.9121C72.7801 54.5007 73.1418 54.0763 73.3051 53.9689C73.4685 53.8617 74.0427 53.7293 74.5815 53.6747C75.1908 53.613 75.7733 53.4667 76.1233 53.2873C77.197 52.737 77.4122 52.7412 78.5788 53.3357ZM52.2777 53.1207C52.1904 53.156 52.0369 53.3439 51.9366 53.5382C51.702 53.993 51.8837 54.573 52.3237 54.774C52.544 54.8746 54.5092 54.9166 58.9989 54.9166C63.4886 54.9166 65.4538 54.8746 65.674 54.774C66.1123 54.5738 66.2957 53.993 66.0631 53.542C65.964 53.3498 65.7919 53.1575 65.6805 53.1147C65.4398 53.0221 52.5079 53.0278 52.2777 53.1207ZM76.3153 55.0574C73.2661 55.497 71.052 58.5234 71.4933 61.6482C72.0598 65.6579 76.5231 67.8343 80.0974 65.8437C81.8689 64.8569 82.998 62.8854 82.998 60.7786C82.998 57.2168 79.876 54.544 76.3153 55.0574ZM78.9617 57.3124C81.312 58.438 81.8717 61.6258 80.0493 63.5058C78.4187 65.1879 75.7967 65.1243 74.2562 63.3653C73.5899 62.6044 73.3304 61.8872 73.3304 60.8064C73.3304 58.8959 74.5436 57.3634 76.3716 56.9648C77.2892 56.7647 78.024 56.8634 78.9617 57.3124ZM72.0053 69.0229C72.3082 69.3887 72.882 69.5909 73.9708 69.7148C74.5678 69.7828 75.1841 69.9224 75.3402 70.025C75.6723 70.2431 75.7212 70.0915 74.5041 72.6204C74.0803 73.5007 73.6841 74.1903 73.6236 74.1527C73.5632 74.1153 73.3447 73.7886 73.1381 73.4267C72.9316 73.0648 72.6205 72.6347 72.4468 72.471C72.1558 72.1969 72.0625 72.1799 71.2627 72.2545C70.7851 72.2989 70.3054 72.3696 70.1965 72.4115C70.0876 72.4533 69.9985 72.4338 69.9985 72.3679C69.9985 72.1464 71.6267 68.8267 71.7353 68.8267C71.7944 68.8267 71.9159 68.915 72.0053 69.0229ZM83.7893 70.601C84.2487 71.577 84.6103 72.3864 84.5926 72.3997C84.575 72.413 84.1249 72.3666 83.5924 72.2966C82.3373 72.1318 82.1493 72.2244 81.4937 73.3309C81.2055 73.8173 80.9439 74.2153 80.9124 74.2153C80.8374 74.2153 78.9982 70.3867 78.9982 70.2305C78.9982 70.0302 79.636 69.8296 80.6272 69.7182C81.5021 69.6198 82.5032 69.2479 82.6844 68.9538C82.7275 68.8838 82.8058 68.8267 82.8583 68.8267C82.9108 68.8267 83.3296 69.6252 83.7893 70.601Z" fill="black"/>
</g>
<defs>
<clipPath id="clip0_626_4805">
<rect width="100" height="100" fill="white"/>
</clipPath>
</defs>
</svg>
