<svg width="108" height="62" viewBox="0 0 108 62" fill="none" xmlns="http://www.w3.org/2000/svg">
<path d="M77 61.9503V59.9779C77.2594 59.9669 77.4918 59.9006 77.6971 59.779C77.9025 59.6575 78.0808 59.453 78.2322 59.1657C78.3943 58.8674 78.5186 58.453 78.6051 57.9227C78.7023 57.3923 78.7672 56.7127 78.7996 55.884L78.9131 53.1492H85.2847V61.8343H83.1122V55.0884H80.8262L80.7938 56.0994C80.7505 57.2376 80.6425 58.1823 80.4695 58.9337C80.2966 59.6851 80.0534 60.2818 79.7399 60.7238C79.4373 61.1547 79.059 61.4641 78.6051 61.6519C78.1511 61.8398 77.6161 61.9392 77 61.9503Z" fill="#3AB3FE"/>
<path d="M91.2952 62C90.6142 62 89.9982 61.884 89.4469 61.6519C88.8957 61.4088 88.4255 61.0829 88.0364 60.674C87.6473 60.2541 87.3447 59.779 87.1285 59.2486C86.9232 58.7072 86.8205 58.1381 86.8205 57.5414C86.8205 56.7127 86.9988 55.9558 87.3555 55.2707C87.723 54.5856 88.2418 54.0387 88.9119 53.6298C89.5928 53.2099 90.3927 53 91.3114 53C92.2409 53 93.0353 53.2099 93.6947 53.6298C94.354 54.0387 94.8566 54.5856 95.2024 55.2707C95.5591 55.9448 95.7375 56.674 95.7375 57.4586C95.7375 57.5912 95.7321 57.7293 95.7213 57.8729C95.7104 58.0055 95.6996 58.116 95.6888 58.2044H89.1227C89.1659 58.6464 89.2902 59.0331 89.4956 59.3646C89.7117 59.6961 89.982 59.9503 90.3062 60.1271C90.6413 60.2928 90.998 60.3757 91.3762 60.3757C91.8086 60.3757 92.2139 60.2707 92.5922 60.0608C92.9813 59.8398 93.2461 59.5525 93.3866 59.1989L95.2511 59.7293C95.0457 60.1713 94.7485 60.5635 94.3594 60.9061C93.9811 61.2486 93.5325 61.5193 93.0137 61.7182C92.4949 61.9061 91.9221 62 91.2952 62ZM89.074 56.7956H93.5163C93.4731 56.3536 93.3488 55.9724 93.1434 55.6519C92.9489 55.3204 92.6895 55.0663 92.3652 54.8895C92.041 54.7017 91.6789 54.6077 91.279 54.6077C90.8899 54.6077 90.5332 54.7017 90.2089 54.8895C89.8955 55.0663 89.6361 55.3204 89.4307 55.6519C89.2362 55.9724 89.1173 56.3536 89.074 56.7956Z" fill="#3AB3FE"/>
<path d="M99.12 61.8343V55.0884H96.4287V53.1492H104V55.0884H101.292V61.8343H99.12Z" fill="#3AB3FE"/>
<path d="M20.1119 19.6068H31.8151V27.9874H20.1119V39.2761H11.7032V27.9874H0V19.6068H11.7032V8.13041H20.1119V19.6068Z" fill="#3AB3FE"/>
<path d="M70.0644 46.3746H36.7747V38.2442L47.9758 26.9554C50.2977 24.5371 52.0965 22.5984 53.3725 21.1391C54.6694 19.6798 55.5793 18.4393 56.1022 17.4178C56.6251 16.3963 56.8866 15.3331 56.8866 14.2282C56.8866 12.8731 56.4473 11.8933 55.5688 11.2888C54.6903 10.6842 53.6549 10.3819 52.4626 10.3819C51.0193 10.3819 49.5551 10.7988 48.07 11.6327C46.6058 12.4458 44.9429 13.6549 43.0812 15.2601L36.2727 7.31737C37.6532 6.08738 39.1174 4.91994 40.6653 3.81504C42.2132 2.68929 44.0434 1.77201 46.1561 1.06321C48.2687 0.354403 50.8415 0 53.8745 0C56.9912 0 59.6895 0.542027 61.9694 1.62608C64.2703 2.71014 66.0483 4.20071 67.3033 6.0978C68.5584 7.97405 69.1859 10.1109 69.1859 12.5083C69.1859 15.1559 68.6943 17.5221 67.7112 19.6068C66.749 21.6707 65.2953 23.745 63.35 25.8297C61.4047 27.8935 58.9783 30.2389 56.0708 32.8656L52.7136 35.8676V36.1803H70.0644V46.3746Z" fill="#3AB3FE"/>
<path d="M108 23.5782C108 27.2473 107.707 30.5307 107.121 33.4285C106.536 36.3054 105.595 38.7549 104.298 40.7771C103.022 42.7993 101.327 44.342 99.2148 45.4052C97.1021 46.4684 94.5084 47 91.4336 47C87.6057 47 84.4682 46.0723 82.0208 44.2169C79.5735 42.3406 77.7642 39.6618 76.5928 36.1803C75.4424 32.678 74.8672 28.4773 74.8672 23.5782C74.8672 18.6374 75.3901 14.4158 76.436 10.9135C77.5027 7.39033 79.2493 4.69062 81.6757 2.81437C84.1021 0.938124 87.3547 0 91.4336 0C95.2614 0 98.3885 0.938124 100.815 2.81437C103.262 4.66977 105.072 7.35906 106.243 10.8822C107.414 14.3846 108 18.6165 108 23.5782ZM87.1978 23.5782C87.1978 26.5593 87.3024 29.061 87.5116 31.0832C87.7417 33.1053 88.16 34.6272 88.7666 35.6487C89.3942 36.6494 90.2831 37.1497 91.4336 37.1497C92.584 37.1497 93.4625 36.6494 94.0691 35.6487C94.6757 34.6272 95.0941 33.1158 95.3242 31.1144C95.5543 29.0923 95.6693 26.5802 95.6693 23.5782C95.6693 20.5553 95.5543 18.0328 95.3242 16.0106C95.0941 13.9885 94.6757 12.4666 94.0691 11.4451C93.4625 10.4028 92.584 9.88157 91.4336 9.88157C90.2831 9.88157 89.3942 10.4028 88.7666 11.4451C88.16 12.4666 87.7417 13.9885 87.5116 16.0106C87.3024 18.0328 87.1978 20.5553 87.1978 23.5782Z" fill="#3AB3FE"/>
</svg>
