<svg width="110" height="89" viewBox="0 0 110 89" fill="none" xmlns="http://www.w3.org/2000/svg">
<mask id="path-1-outside-1_224_8363" maskUnits="userSpaceOnUse" x="26" y="7" width="75" height="75" fill="black">
<rect fill="white" x="26" y="7" width="75" height="75"/>
<path fill-rule="evenodd" clip-rule="evenodd" d="M60.3341 8.10503C53.8135 8.57262 46.4783 11.4302 41.1749 15.5689C33.3334 21.6884 28.5142 30.129 27.1406 40.1489C26.9761 41.3488 26.9483 46.5413 27.0979 48.1145C28.2786 60.5302 35.8309 71.4812 47.1003 77.1182C53.2379 80.1882 59.1704 81.3599 66.2763 80.9055C77.6457 80.1786 88.6762 73.4599 94.6113 63.6467C98.6492 56.9706 100.383 49.9286 99.9296 42.0473C99.3778 32.4565 94.7096 23.1513 87.2536 16.78C79.7919 10.4037 70.4156 7.3821 60.3341 8.10503ZM56.9507 13.5165C56.7925 13.7109 56.1479 14.4898 55.5182 15.2473C52.7565 18.5693 50.5557 21.7974 48.7537 25.1692C48.4303 25.7744 48.0949 26.3588 48.0084 26.4679L47.851 26.6662L47.5612 26.4363C46.7416 25.786 43.1453 21.9768 42.7257 21.3145C42.2753 20.6035 42.3251 20.4862 43.4638 19.5769C47.1678 16.6192 51.9297 14.3366 56.736 13.2149C57.228 13.1001 57.2567 13.1403 56.9507 13.5165ZM71.2309 13.5C75.6843 14.648 79.8772 16.7134 83.3782 19.4838C84.5641 20.4221 84.6137 20.5336 84.1484 21.2131C83.3965 22.3114 81.4039 24.5557 80.3546 25.4861C79.6164 26.1407 79.0119 26.6373 78.9531 26.6373C78.9285 26.6373 78.7372 26.2968 78.5281 25.8806C76.6117 22.0658 73.7874 17.9365 70.4916 14.1309C69.8794 13.4239 69.7112 13.162 69.8709 13.1634C69.9016 13.1636 70.5136 13.3152 71.2309 13.5ZM66.7255 16.8207C69.8271 20.3716 72.4538 24.1622 74.3432 27.8139C74.731 28.5634 75.0349 29.1899 75.0186 29.2062C74.8975 29.3273 72.7994 30.1593 71.6408 30.5458C69.8478 31.1439 66.9707 31.7694 65.9956 31.7731L65.7907 31.7739L65.7923 23.7526C65.7939 16.1406 65.8006 15.7393 65.9227 15.8901C65.9936 15.9776 66.3548 16.3963 66.7255 16.8207ZM61.1605 25.215L61.1702 31.7953L60.6583 31.7478C58.4526 31.543 55.3796 30.7212 52.916 29.6771C51.7848 29.1977 51.8043 29.3269 52.6225 27.7319C54.5084 24.0555 57.0195 20.4748 60.4994 16.4993L61.0584 15.8608L61.1046 17.2476C61.1299 18.0104 61.1551 21.5957 61.1605 25.215ZM88.5571 24.6831C91.9197 29.0245 94.0037 33.6415 94.967 38.8834C95.1421 39.8363 95.3743 41.6217 95.376 42.0287L95.3768 42.1962H89.2397H83.1026L83.0532 41.3208C82.9236 39.0316 82.05 34.8143 81.1482 32.1255L80.7802 31.0284L81.39 30.565C83.3595 29.0679 85.6078 26.7903 87.7339 24.1381C87.9389 23.8825 87.9352 23.8801 88.5571 24.6831ZM39.8633 25.0553C41.3514 26.8857 42.9216 28.456 44.9611 30.1537C45.33 30.4608 45.7282 30.8147 45.846 30.9402L46.0601 31.1685L45.6462 32.5321C44.7074 35.6238 44.2586 37.778 43.9597 40.6246C43.8771 41.4117 43.79 42.0874 43.7661 42.126C43.7395 42.169 41.3723 42.1962 37.6534 42.1962H31.584L31.5853 42.0287C31.6075 39.1472 33.1082 33.7063 34.8223 30.2921C36.0305 27.8855 38.5819 24.1062 38.9981 24.1062C39.0496 24.1062 39.4389 24.5333 39.8633 25.0553ZM51.4084 34.0077C53.9403 35.0895 56.5215 35.7846 59.4198 36.1653C60.0751 36.2514 60.7159 36.3378 60.844 36.3573C61.1629 36.4058 61.1684 36.4598 61.1693 39.572L61.1702 42.1962H54.7528H48.3354L48.3795 41.9542C48.4037 41.8211 48.4579 41.394 48.4998 41.0051C48.8206 38.0323 49.9005 33.5606 50.2977 33.5606C50.3331 33.5606 50.8329 33.7618 51.4084 34.0077ZM76.8986 33.8871C77.4426 35.1155 78.4584 40.1475 78.4594 41.6192L78.4598 42.1962H72.1252H65.7907V39.2928C65.7907 37.696 65.8076 36.3895 65.8285 36.3895C65.9799 36.3895 68.221 36.0515 69.256 35.8726C71.1721 35.5414 74.0256 34.6678 75.8142 33.8652C76.6692 33.4814 76.7195 33.4824 76.8986 33.8871ZM43.9121 47.6441C44.0383 49.6372 44.7766 53.1909 45.7059 56.2778C46.2153 57.9702 46.2151 57.9636 45.7623 58.2575C44.5939 59.0159 41.3822 62.1162 39.9397 63.8781C39.4788 64.4411 39.0554 64.9017 38.9989 64.9017C38.4453 64.9017 35.3779 60.1036 34.1723 57.3517C32.7991 54.2174 31.584 49.3331 31.584 46.9476C31.584 46.8171 31.8282 46.8117 37.7217 46.8117H43.8593L43.9121 47.6441ZM61.1549 49.6717C61.1428 51.2447 61.1087 52.5558 61.0791 52.5854C61.0495 52.6149 60.5632 52.698 59.9985 52.77C56.7669 53.1822 54.2136 53.844 51.4979 54.9735C50.1382 55.539 50.2534 55.529 50.1132 55.0936C49.3491 52.7198 48.6136 49.2453 48.5217 47.5748L48.4796 46.8117H54.8282H61.1768L61.1549 49.6717ZM78.4598 47.2302C78.4598 48.7078 77.0704 54.9069 76.6378 55.3592C76.5608 55.4398 76.3727 55.3852 75.5813 55.0523C72.925 53.9352 70.0157 53.152 67.2439 52.8078C66.711 52.7416 66.1661 52.6704 66.0329 52.6496L65.7907 52.6116V49.7117V46.8117H72.1252H78.4598V47.2302ZM95.376 46.9792C95.3744 47.316 95.1543 49.2143 95.0393 49.8834C94.3944 53.6344 92.7868 57.9063 90.8442 61.0306C89.8416 62.643 88.0942 65.0506 87.9264 65.0506C87.8875 65.0506 87.5242 64.6402 87.1189 64.1386C85.6612 62.3346 83.5556 60.2031 81.9877 58.9441C81.0861 58.2202 80.8446 57.9708 80.8446 57.7636C80.8446 57.6621 81.0266 56.9737 81.2492 56.234C82.187 53.1168 82.6383 50.9353 83.0061 47.7423C83.0532 47.3328 83.1049 46.956 83.121 46.9048C83.144 46.8313 84.438 46.8117 89.2635 46.8117H95.3768L95.376 46.9792ZM61.1702 65.3251V73.4162L60.9382 73.1975C59.8532 72.1751 56.6892 67.9553 54.9495 65.2105C53.8801 63.5234 52.0782 60.1711 52.0782 59.869C52.0782 59.5786 54.8753 58.4668 56.8206 57.9839C58.3189 57.6119 60.1977 57.2646 60.8162 57.2451L61.1702 57.2339V65.3251ZM67.7655 57.499C69.1322 57.7343 70.3991 58.0475 71.7017 58.4719C72.8848 58.8576 74.8044 59.6687 74.8568 59.8052C75.0341 60.2669 71.9446 65.4188 69.3481 68.9914C68.1055 70.7011 67.3199 71.6801 65.8529 73.3474C65.8187 73.3863 65.7907 69.7724 65.7907 65.3164V57.2147L66.2564 57.2671C66.5126 57.2959 67.1917 57.4002 67.7655 57.499ZM48.2529 62.7243C48.3828 62.9187 48.6471 63.3961 48.8401 63.785C50.3621 66.8523 53.1938 71.071 56.1019 74.6037C56.6016 75.2107 56.9905 75.7272 56.9661 75.7517C56.8716 75.8461 55.2511 75.4392 53.7923 74.9548C49.9737 73.6869 47.2367 72.2577 43.9812 69.8316C42.2423 68.5357 42.2071 68.4734 42.758 67.6631C43.5341 66.5214 47.5914 62.3701 47.9305 62.3707C47.9779 62.3708 48.123 62.5299 48.2529 62.7243ZM79.1763 62.5352C80.7141 63.7124 82.2246 65.2895 84.0052 67.5772L84.6681 68.4289L84.3027 68.7527C82.0732 70.7284 78.2521 73.055 75.4043 74.1708C73.7111 74.8341 71.1016 75.6291 70.2447 75.7427L69.8767 75.7914L70.6642 74.8476C73.4854 71.4665 76.2726 67.3269 78.1264 63.7649C78.5256 62.9981 78.8767 62.3706 78.9067 62.3706C78.9368 62.3706 79.0581 62.4447 79.1763 62.5352Z"/>
</mask>
<path fill-rule="evenodd" clip-rule="evenodd" d="M60.3341 8.10503C53.8135 8.57262 46.4783 11.4302 41.1749 15.5689C33.3334 21.6884 28.5142 30.129 27.1406 40.1489C26.9761 41.3488 26.9483 46.5413 27.0979 48.1145C28.2786 60.5302 35.8309 71.4812 47.1003 77.1182C53.2379 80.1882 59.1704 81.3599 66.2763 80.9055C77.6457 80.1786 88.6762 73.4599 94.6113 63.6467C98.6492 56.9706 100.383 49.9286 99.9296 42.0473C99.3778 32.4565 94.7096 23.1513 87.2536 16.78C79.7919 10.4037 70.4156 7.3821 60.3341 8.10503ZM56.9507 13.5165C56.7925 13.7109 56.1479 14.4898 55.5182 15.2473C52.7565 18.5693 50.5557 21.7974 48.7537 25.1692C48.4303 25.7744 48.0949 26.3588 48.0084 26.4679L47.851 26.6662L47.5612 26.4363C46.7416 25.786 43.1453 21.9768 42.7257 21.3145C42.2753 20.6035 42.3251 20.4862 43.4638 19.5769C47.1678 16.6192 51.9297 14.3366 56.736 13.2149C57.228 13.1001 57.2567 13.1403 56.9507 13.5165ZM71.2309 13.5C75.6843 14.648 79.8772 16.7134 83.3782 19.4838C84.5641 20.4221 84.6137 20.5336 84.1484 21.2131C83.3965 22.3114 81.4039 24.5557 80.3546 25.4861C79.6164 26.1407 79.0119 26.6373 78.9531 26.6373C78.9285 26.6373 78.7372 26.2968 78.5281 25.8806C76.6117 22.0658 73.7874 17.9365 70.4916 14.1309C69.8794 13.4239 69.7112 13.162 69.8709 13.1634C69.9016 13.1636 70.5136 13.3152 71.2309 13.5ZM66.7255 16.8207C69.8271 20.3716 72.4538 24.1622 74.3432 27.8139C74.731 28.5634 75.0349 29.1899 75.0186 29.2062C74.8975 29.3273 72.7994 30.1593 71.6408 30.5458C69.8478 31.1439 66.9707 31.7694 65.9956 31.7731L65.7907 31.7739L65.7923 23.7526C65.7939 16.1406 65.8006 15.7393 65.9227 15.8901C65.9936 15.9776 66.3548 16.3963 66.7255 16.8207ZM61.1605 25.215L61.1702 31.7953L60.6583 31.7478C58.4526 31.543 55.3796 30.7212 52.916 29.6771C51.7848 29.1977 51.8043 29.3269 52.6225 27.7319C54.5084 24.0555 57.0195 20.4748 60.4994 16.4993L61.0584 15.8608L61.1046 17.2476C61.1299 18.0104 61.1551 21.5957 61.1605 25.215ZM88.5571 24.6831C91.9197 29.0245 94.0037 33.6415 94.967 38.8834C95.1421 39.8363 95.3743 41.6217 95.376 42.0287L95.3768 42.1962H89.2397H83.1026L83.0532 41.3208C82.9236 39.0316 82.05 34.8143 81.1482 32.1255L80.7802 31.0284L81.39 30.565C83.3595 29.0679 85.6078 26.7903 87.7339 24.1381C87.9389 23.8825 87.9352 23.8801 88.5571 24.6831ZM39.8633 25.0553C41.3514 26.8857 42.9216 28.456 44.9611 30.1537C45.33 30.4608 45.7282 30.8147 45.846 30.9402L46.0601 31.1685L45.6462 32.5321C44.7074 35.6238 44.2586 37.778 43.9597 40.6246C43.8771 41.4117 43.79 42.0874 43.7661 42.126C43.7395 42.169 41.3723 42.1962 37.6534 42.1962H31.584L31.5853 42.0287C31.6075 39.1472 33.1082 33.7063 34.8223 30.2921C36.0305 27.8855 38.5819 24.1062 38.9981 24.1062C39.0496 24.1062 39.4389 24.5333 39.8633 25.0553ZM51.4084 34.0077C53.9403 35.0895 56.5215 35.7846 59.4198 36.1653C60.0751 36.2514 60.7159 36.3378 60.844 36.3573C61.1629 36.4058 61.1684 36.4598 61.1693 39.572L61.1702 42.1962H54.7528H48.3354L48.3795 41.9542C48.4037 41.8211 48.4579 41.394 48.4998 41.0051C48.8206 38.0323 49.9005 33.5606 50.2977 33.5606C50.3331 33.5606 50.8329 33.7618 51.4084 34.0077ZM76.8986 33.8871C77.4426 35.1155 78.4584 40.1475 78.4594 41.6192L78.4598 42.1962H72.1252H65.7907V39.2928C65.7907 37.696 65.8076 36.3895 65.8285 36.3895C65.9799 36.3895 68.221 36.0515 69.256 35.8726C71.1721 35.5414 74.0256 34.6678 75.8142 33.8652C76.6692 33.4814 76.7195 33.4824 76.8986 33.8871ZM43.9121 47.6441C44.0383 49.6372 44.7766 53.1909 45.7059 56.2778C46.2153 57.9702 46.2151 57.9636 45.7623 58.2575C44.5939 59.0159 41.3822 62.1162 39.9397 63.8781C39.4788 64.4411 39.0554 64.9017 38.9989 64.9017C38.4453 64.9017 35.3779 60.1036 34.1723 57.3517C32.7991 54.2174 31.584 49.3331 31.584 46.9476C31.584 46.8171 31.8282 46.8117 37.7217 46.8117H43.8593L43.9121 47.6441ZM61.1549 49.6717C61.1428 51.2447 61.1087 52.5558 61.0791 52.5854C61.0495 52.6149 60.5632 52.698 59.9985 52.77C56.7669 53.1822 54.2136 53.844 51.4979 54.9735C50.1382 55.539 50.2534 55.529 50.1132 55.0936C49.3491 52.7198 48.6136 49.2453 48.5217 47.5748L48.4796 46.8117H54.8282H61.1768L61.1549 49.6717ZM78.4598 47.2302C78.4598 48.7078 77.0704 54.9069 76.6378 55.3592C76.5608 55.4398 76.3727 55.3852 75.5813 55.0523C72.925 53.9352 70.0157 53.152 67.2439 52.8078C66.711 52.7416 66.1661 52.6704 66.0329 52.6496L65.7907 52.6116V49.7117V46.8117H72.1252H78.4598V47.2302ZM95.376 46.9792C95.3744 47.316 95.1543 49.2143 95.0393 49.8834C94.3944 53.6344 92.7868 57.9063 90.8442 61.0306C89.8416 62.643 88.0942 65.0506 87.9264 65.0506C87.8875 65.0506 87.5242 64.6402 87.1189 64.1386C85.6612 62.3346 83.5556 60.2031 81.9877 58.9441C81.0861 58.2202 80.8446 57.9708 80.8446 57.7636C80.8446 57.6621 81.0266 56.9737 81.2492 56.234C82.187 53.1168 82.6383 50.9353 83.0061 47.7423C83.0532 47.3328 83.1049 46.956 83.121 46.9048C83.144 46.8313 84.438 46.8117 89.2635 46.8117H95.3768L95.376 46.9792ZM61.1702 65.3251V73.4162L60.9382 73.1975C59.8532 72.1751 56.6892 67.9553 54.9495 65.2105C53.8801 63.5234 52.0782 60.1711 52.0782 59.869C52.0782 59.5786 54.8753 58.4668 56.8206 57.9839C58.3189 57.6119 60.1977 57.2646 60.8162 57.2451L61.1702 57.2339V65.3251ZM67.7655 57.499C69.1322 57.7343 70.3991 58.0475 71.7017 58.4719C72.8848 58.8576 74.8044 59.6687 74.8568 59.8052C75.0341 60.2669 71.9446 65.4188 69.3481 68.9914C68.1055 70.7011 67.3199 71.6801 65.8529 73.3474C65.8187 73.3863 65.7907 69.7724 65.7907 65.3164V57.2147L66.2564 57.2671C66.5126 57.2959 67.1917 57.4002 67.7655 57.499ZM48.2529 62.7243C48.3828 62.9187 48.6471 63.3961 48.8401 63.785C50.3621 66.8523 53.1938 71.071 56.1019 74.6037C56.6016 75.2107 56.9905 75.7272 56.9661 75.7517C56.8716 75.8461 55.2511 75.4392 53.7923 74.9548C49.9737 73.6869 47.2367 72.2577 43.9812 69.8316C42.2423 68.5357 42.2071 68.4734 42.758 67.6631C43.5341 66.5214 47.5914 62.3701 47.9305 62.3707C47.9779 62.3708 48.123 62.5299 48.2529 62.7243ZM79.1763 62.5352C80.7141 63.7124 82.2246 65.2895 84.0052 67.5772L84.6681 68.4289L84.3027 68.7527C82.0732 70.7284 78.2521 73.055 75.4043 74.1708C73.7111 74.8341 71.1016 75.6291 70.2447 75.7427L69.8767 75.7914L70.6642 74.8476C73.4854 71.4665 76.2726 67.3269 78.1264 63.7649C78.5256 62.9981 78.8767 62.3706 78.9067 62.3706C78.9368 62.3706 79.0581 62.4447 79.1763 62.5352Z" fill="#3AB3FE"/>
<path fill-rule="evenodd" clip-rule="evenodd" d="M60.3341 8.10503C53.8135 8.57262 46.4783 11.4302 41.1749 15.5689C33.3334 21.6884 28.5142 30.129 27.1406 40.1489C26.9761 41.3488 26.9483 46.5413 27.0979 48.1145C28.2786 60.5302 35.8309 71.4812 47.1003 77.1182C53.2379 80.1882 59.1704 81.3599 66.2763 80.9055C77.6457 80.1786 88.6762 73.4599 94.6113 63.6467C98.6492 56.9706 100.383 49.9286 99.9296 42.0473C99.3778 32.4565 94.7096 23.1513 87.2536 16.78C79.7919 10.4037 70.4156 7.3821 60.3341 8.10503ZM56.9507 13.5165C56.7925 13.7109 56.1479 14.4898 55.5182 15.2473C52.7565 18.5693 50.5557 21.7974 48.7537 25.1692C48.4303 25.7744 48.0949 26.3588 48.0084 26.4679L47.851 26.6662L47.5612 26.4363C46.7416 25.786 43.1453 21.9768 42.7257 21.3145C42.2753 20.6035 42.3251 20.4862 43.4638 19.5769C47.1678 16.6192 51.9297 14.3366 56.736 13.2149C57.228 13.1001 57.2567 13.1403 56.9507 13.5165ZM71.2309 13.5C75.6843 14.648 79.8772 16.7134 83.3782 19.4838C84.5641 20.4221 84.6137 20.5336 84.1484 21.2131C83.3965 22.3114 81.4039 24.5557 80.3546 25.4861C79.6164 26.1407 79.0119 26.6373 78.9531 26.6373C78.9285 26.6373 78.7372 26.2968 78.5281 25.8806C76.6117 22.0658 73.7874 17.9365 70.4916 14.1309C69.8794 13.4239 69.7112 13.162 69.8709 13.1634C69.9016 13.1636 70.5136 13.3152 71.2309 13.5ZM66.7255 16.8207C69.8271 20.3716 72.4538 24.1622 74.3432 27.8139C74.731 28.5634 75.0349 29.1899 75.0186 29.2062C74.8975 29.3273 72.7994 30.1593 71.6408 30.5458C69.8478 31.1439 66.9707 31.7694 65.9956 31.7731L65.7907 31.7739L65.7923 23.7526C65.7939 16.1406 65.8006 15.7393 65.9227 15.8901C65.9936 15.9776 66.3548 16.3963 66.7255 16.8207ZM61.1605 25.215L61.1702 31.7953L60.6583 31.7478C58.4526 31.543 55.3796 30.7212 52.916 29.6771C51.7848 29.1977 51.8043 29.3269 52.6225 27.7319C54.5084 24.0555 57.0195 20.4748 60.4994 16.4993L61.0584 15.8608L61.1046 17.2476C61.1299 18.0104 61.1551 21.5957 61.1605 25.215ZM88.5571 24.6831C91.9197 29.0245 94.0037 33.6415 94.967 38.8834C95.1421 39.8363 95.3743 41.6217 95.376 42.0287L95.3768 42.1962H89.2397H83.1026L83.0532 41.3208C82.9236 39.0316 82.05 34.8143 81.1482 32.1255L80.7802 31.0284L81.39 30.565C83.3595 29.0679 85.6078 26.7903 87.7339 24.1381C87.9389 23.8825 87.9352 23.8801 88.5571 24.6831ZM39.8633 25.0553C41.3514 26.8857 42.9216 28.456 44.9611 30.1537C45.33 30.4608 45.7282 30.8147 45.846 30.9402L46.0601 31.1685L45.6462 32.5321C44.7074 35.6238 44.2586 37.778 43.9597 40.6246C43.8771 41.4117 43.79 42.0874 43.7661 42.126C43.7395 42.169 41.3723 42.1962 37.6534 42.1962H31.584L31.5853 42.0287C31.6075 39.1472 33.1082 33.7063 34.8223 30.2921C36.0305 27.8855 38.5819 24.1062 38.9981 24.1062C39.0496 24.1062 39.4389 24.5333 39.8633 25.0553ZM51.4084 34.0077C53.9403 35.0895 56.5215 35.7846 59.4198 36.1653C60.0751 36.2514 60.7159 36.3378 60.844 36.3573C61.1629 36.4058 61.1684 36.4598 61.1693 39.572L61.1702 42.1962H54.7528H48.3354L48.3795 41.9542C48.4037 41.8211 48.4579 41.394 48.4998 41.0051C48.8206 38.0323 49.9005 33.5606 50.2977 33.5606C50.3331 33.5606 50.8329 33.7618 51.4084 34.0077ZM76.8986 33.8871C77.4426 35.1155 78.4584 40.1475 78.4594 41.6192L78.4598 42.1962H72.1252H65.7907V39.2928C65.7907 37.696 65.8076 36.3895 65.8285 36.3895C65.9799 36.3895 68.221 36.0515 69.256 35.8726C71.1721 35.5414 74.0256 34.6678 75.8142 33.8652C76.6692 33.4814 76.7195 33.4824 76.8986 33.8871ZM43.9121 47.6441C44.0383 49.6372 44.7766 53.1909 45.7059 56.2778C46.2153 57.9702 46.2151 57.9636 45.7623 58.2575C44.5939 59.0159 41.3822 62.1162 39.9397 63.8781C39.4788 64.4411 39.0554 64.9017 38.9989 64.9017C38.4453 64.9017 35.3779 60.1036 34.1723 57.3517C32.7991 54.2174 31.584 49.3331 31.584 46.9476C31.584 46.8171 31.8282 46.8117 37.7217 46.8117H43.8593L43.9121 47.6441ZM61.1549 49.6717C61.1428 51.2447 61.1087 52.5558 61.0791 52.5854C61.0495 52.6149 60.5632 52.698 59.9985 52.77C56.7669 53.1822 54.2136 53.844 51.4979 54.9735C50.1382 55.539 50.2534 55.529 50.1132 55.0936C49.3491 52.7198 48.6136 49.2453 48.5217 47.5748L48.4796 46.8117H54.8282H61.1768L61.1549 49.6717ZM78.4598 47.2302C78.4598 48.7078 77.0704 54.9069 76.6378 55.3592C76.5608 55.4398 76.3727 55.3852 75.5813 55.0523C72.925 53.9352 70.0157 53.152 67.2439 52.8078C66.711 52.7416 66.1661 52.6704 66.0329 52.6496L65.7907 52.6116V49.7117V46.8117H72.1252H78.4598V47.2302ZM95.376 46.9792C95.3744 47.316 95.1543 49.2143 95.0393 49.8834C94.3944 53.6344 92.7868 57.9063 90.8442 61.0306C89.8416 62.643 88.0942 65.0506 87.9264 65.0506C87.8875 65.0506 87.5242 64.6402 87.1189 64.1386C85.6612 62.3346 83.5556 60.2031 81.9877 58.9441C81.0861 58.2202 80.8446 57.9708 80.8446 57.7636C80.8446 57.6621 81.0266 56.9737 81.2492 56.234C82.187 53.1168 82.6383 50.9353 83.0061 47.7423C83.0532 47.3328 83.1049 46.956 83.121 46.9048C83.144 46.8313 84.438 46.8117 89.2635 46.8117H95.3768L95.376 46.9792ZM61.1702 65.3251V73.4162L60.9382 73.1975C59.8532 72.1751 56.6892 67.9553 54.9495 65.2105C53.8801 63.5234 52.0782 60.1711 52.0782 59.869C52.0782 59.5786 54.8753 58.4668 56.8206 57.9839C58.3189 57.6119 60.1977 57.2646 60.8162 57.2451L61.1702 57.2339V65.3251ZM67.7655 57.499C69.1322 57.7343 70.3991 58.0475 71.7017 58.4719C72.8848 58.8576 74.8044 59.6687 74.8568 59.8052C75.0341 60.2669 71.9446 65.4188 69.3481 68.9914C68.1055 70.7011 67.3199 71.6801 65.8529 73.3474C65.8187 73.3863 65.7907 69.7724 65.7907 65.3164V57.2147L66.2564 57.2671C66.5126 57.2959 67.1917 57.4002 67.7655 57.499ZM48.2529 62.7243C48.3828 62.9187 48.6471 63.3961 48.8401 63.785C50.3621 66.8523 53.1938 71.071 56.1019 74.6037C56.6016 75.2107 56.9905 75.7272 56.9661 75.7517C56.8716 75.8461 55.2511 75.4392 53.7923 74.9548C49.9737 73.6869 47.2367 72.2577 43.9812 69.8316C42.2423 68.5357 42.2071 68.4734 42.758 67.6631C43.5341 66.5214 47.5914 62.3701 47.9305 62.3707C47.9779 62.3708 48.123 62.5299 48.2529 62.7243ZM79.1763 62.5352C80.7141 63.7124 82.2246 65.2895 84.0052 67.5772L84.6681 68.4289L84.3027 68.7527C82.0732 70.7284 78.2521 73.055 75.4043 74.1708C73.7111 74.8341 71.1016 75.6291 70.2447 75.7427L69.8767 75.7914L70.6642 74.8476C73.4854 71.4665 76.2726 67.3269 78.1264 63.7649C78.5256 62.9981 78.8767 62.3706 78.9067 62.3706C78.9368 62.3706 79.0581 62.4447 79.1763 62.5352Z" stroke="#3AB3FE" stroke-width="2" mask="url(#path-1-outside-1_224_8363)"/>
</svg>
