<svg width="56" height="54" viewBox="0 0 56 54" fill="none" xmlns="http://www.w3.org/2000/svg">
<path d="M7.22687 12.4362C6.90739 12.7731 6.50382 13.014 6.05992 13.1326C5.65014 13.2477 5.21758 13.2477 4.8078 13.1326L7.38491 15.8373L6.22397 17L0 10.4901L1.02115 9.47664L1.78092 10.2725C1.69841 9.84101 1.71714 9.39565 1.8356 8.97301C1.96104 8.53598 2.19813 8.14107 2.52243 7.82897C2.81419 7.53438 3.16457 7.30747 3.54966 7.16368C3.92422 7.03097 4.32132 6.97807 4.71661 7.00824C5.12056 7.03585 5.51615 7.13913 5.88363 7.31291C6.27099 7.50128 6.62281 7.75806 6.92296 8.07147C7.32955 8.48656 7.63914 8.99031 7.8286 9.54505C8.00351 10.0472 8.0455 10.5878 7.9502 11.1119C7.84981 11.6196 7.59691 12.0826 7.22687 12.4362V12.4362ZM5.86538 11.8145C6.04251 11.6438 6.17428 11.4298 6.2483 11.1927C6.32037 10.9706 6.34727 10.7357 6.32732 10.5026C6.30897 10.2649 6.24708 10.0329 6.14495 9.81862C6.04223 9.58913 5.90256 9.37894 5.73168 9.19686C5.5582 9.0117 5.35195 8.86188 5.12387 8.75539C4.91079 8.65427 4.68021 8.59726 4.4455 8.58766C4.21079 8.57805 3.97659 8.61604 3.7563 8.69944C3.52839 8.78645 3.32119 8.92211 3.14849 9.09738C3.03262 9.20932 2.93787 9.3421 2.86892 9.48909C2.70806 9.7961 2.63233 10.1423 2.65004 10.4901C2.6617 10.654 2.70296 10.8142 2.77165 10.9627L3.8049 12.0445C4.03572 12.1416 4.27962 12.2024 4.52823 12.2249C4.77301 12.2439 5.01898 12.2122 5.25149 12.1316C5.479 12.0806 5.6902 11.9715 5.86538 11.8145Z" fill="#3AB3FE"/>
<path d="M13.1499 9.57149C12.7224 9.78575 12.2497 9.92358 11.7597 9.97685C11.3169 10.0271 10.8668 9.99535 10.4391 9.88374C9.5961 9.66702 8.88552 9.17103 8.46137 8.50327C8.16317 8.05295 8.00429 7.54347 8.00011 7.02422C7.99519 6.51404 8.15023 6.01228 8.44872 5.57256C8.78919 5.08862 9.27374 4.69311 9.85146 4.42765C10.4111 4.13954 11.052 3.99163 11.7029 4.00037C12.2841 4.01551 12.8496 4.16697 13.3394 4.43861C13.8247 4.71568 14.2239 5.09192 14.502 5.53421C14.5526 5.6109 14.5969 5.69307 14.6411 5.77524C14.6797 5.84088 14.7134 5.90857 14.7421 5.97793L10.2748 8.14174C10.4463 8.37063 10.6808 8.5589 10.9572 8.68954C11.2126 8.80388 11.4979 8.85862 11.785 8.84839C12.0714 8.83337 12.3501 8.76219 12.6002 8.64022C12.8899 8.49839 13.135 8.29714 13.3142 8.05409C13.485 7.83141 13.5609 7.5641 13.529 7.29812L14.9949 6.99136C15.018 7.32093 14.9621 7.65107 14.8306 7.96096C14.6872 8.29555 14.4729 8.60396 14.1987 8.8703C13.8969 9.15333 13.5424 9.39035 13.1499 9.57149V9.57149ZM9.71879 7.33099L12.7392 5.86836C12.5747 5.6403 12.3464 5.4519 12.0757 5.32056C11.8284 5.2023 11.5491 5.14366 11.2668 5.15075C10.9712 5.15403 10.6816 5.22387 10.4265 5.35343C10.1691 5.47116 9.95136 5.64483 9.79461 5.85741C9.64522 6.06358 9.55827 6.2991 9.54185 6.54216C9.52356 6.81557 9.58439 7.08862 9.71879 7.33647V7.33099Z" fill="#3AB3FE"/>
<path d="M15.5253 8L14 2.34115L15.5021 1.95635L16.0821 4.09539L16.5866 3.96523L17.6073 1.41875L19.2427 1L17.8915 4.27082L21 6.6249L19.2602 7.06629L16.8882 5.26112L16.4068 5.38561L17.0158 7.64915L15.5253 8Z" fill="#3AB3FE"/>
<path d="M23.3106 7L23.1638 1.67175L21.0447 1.73835L21 0.179842L26.9554 0L27 1.55851L24.8681 1.61847L25.0213 6.94673L23.3106 7Z" fill="#3AB3FE"/>
<path d="M29.8021 6.91812C29.3109 6.83342 28.8435 6.66521 28.4266 6.42306C28.0544 6.20312 27.7397 5.91686 27.5032 5.58309C27.2744 5.25967 27.1187 4.90088 27.0447 4.5262C26.905 3.75232 27.0954 2.96057 27.5797 2.30114C27.8203 1.98345 28.127 1.70797 28.4839 1.48899C28.8563 1.26802 29.2769 1.11653 29.7193 1.04398C30.7135 0.906855 31.7308 1.09289 32.5786 1.56687C32.9484 1.78928 33.2625 2.07506 33.5019 2.40684C33.7352 2.73038 33.8911 3.09176 33.9604 3.46928C34.0239 3.85587 34.011 4.24912 33.9222 4.63189C33.8288 5.01037 33.6607 5.37176 33.4255 5.69991C33.1872 6.01743 32.8826 6.29293 32.5276 6.51205C32.1568 6.73445 31.7354 6.88434 31.2922 6.9515C30.7978 7.02594 30.2915 7.0146 29.8021 6.91812V6.91812ZM28.7959 3.68623C28.7158 3.9863 28.7158 4.29843 28.7959 4.5985C28.8807 4.86552 29.043 5.10889 29.2671 5.30496C29.4946 5.49515 29.7797 5.62446 30.0886 5.67765C30.3925 5.73604 30.7093 5.71476 30.9993 5.61647C31.2964 5.51352 31.5591 5.34713 31.7634 5.13252C31.9848 4.89151 32.1356 4.60703 32.2029 4.30368C32.2894 4.00428 32.2894 3.69081 32.2029 3.39142C32.1221 3.12294 31.9591 2.87874 31.7316 2.68497C31.5097 2.49406 31.2285 2.36443 30.9229 2.31226C30.6155 2.25184 30.2945 2.27118 29.9995 2.36789C29.7016 2.46945 29.4401 2.63841 29.2417 2.85741C29.0179 3.09774 28.8648 3.3823 28.7959 3.68623V3.68623Z" fill="#3AB3FE"/>
<path d="M36.5795 8.90295C36.1642 8.71816 35.8113 8.4344 35.5577 8.08157C35.321 7.7452 35.189 7.35619 35.1761 6.9564L33.4649 10L32 9.31364L36.1178 2L37.3981 2.60197L36.8934 3.5021C37.2701 3.30666 37.6918 3.1949 38.1244 3.17581C38.5749 3.16344 39.0209 3.26051 39.417 3.4571C39.7893 3.62475 40.1155 3.86706 40.3711 4.16597C40.6166 4.45422 40.7947 4.78548 40.8943 5.13923C40.9947 5.5068 41.0239 5.88763 40.9805 6.26441C40.9285 6.65742 40.7992 7.0386 40.5988 7.38958C40.3411 7.86328 39.9685 8.27697 39.5094 8.59914C39.0921 8.89619 38.5982 9.08995 38.0752 9.16173C37.5593 9.22012 37.0363 9.12964 36.5795 8.90295V8.90295ZM36.7272 7.53023C36.9392 7.63455 37.1757 7.69052 37.4166 7.69339C37.647 7.69369 37.8752 7.6516 38.0875 7.56962C38.3169 7.48827 38.5262 7.36585 38.7031 7.20955C38.8808 7.05527 39.0285 6.87457 39.1401 6.6751C39.2544 6.47125 39.3274 6.25014 39.3555 6.0225C39.3836 5.80747 39.3648 5.58947 39.3001 5.38114C39.2314 5.17639 39.1207 4.98547 38.9738 4.81855C38.8209 4.6448 38.6275 4.5045 38.4076 4.40788C38.2657 4.33872 38.1114 4.29301 37.9521 4.27286C37.7825 4.25309 37.6108 4.25309 37.4412 4.27286C37.2701 4.28896 37.1023 4.32682 36.9427 4.38537C36.7917 4.44174 36.6538 4.52383 36.5364 4.62728L35.8532 5.84247C35.8336 6.07279 35.8544 6.30449 35.9147 6.52883C35.973 6.75051 36.0798 6.95911 36.2286 7.14204C36.3623 7.30276 36.5323 7.43518 36.7272 7.53023Z" fill="#3AB3FE"/>
<path d="M42.96 14.8153C42.6214 14.4457 42.3591 14.0134 42.1879 13.543C42.036 13.1215 41.9751 12.6727 42.0092 12.2262C42.0443 11.783 42.1656 11.3508 42.3665 10.9539C42.7806 10.1573 43.4729 9.53956 44.3128 9.21724C44.7203 9.0642 45.1536 8.99075 45.589 9.00093C46.0324 9.01941 46.4671 9.12992 46.8652 9.32537C47.3147 9.54848 47.7158 9.85757 48.0457 10.235C48.3853 10.6038 48.6479 11.0363 48.8179 11.5073C48.9636 11.9212 49.0228 12.3604 48.9921 12.798C48.9614 13.2356 48.8413 13.6623 48.6392 14.0519C48.4305 14.4465 48.1516 14.8001 47.816 15.0952C47.4888 15.3932 47.1076 15.6263 46.6929 15.7822C46.2862 15.9383 45.8523 16.0118 45.4167 15.9985C44.9733 15.9854 44.5379 15.8769 44.1405 15.6804C43.6957 15.4688 43.2952 15.1753 42.96 14.8153ZM44.3511 11.2402C44.0721 11.4684 43.853 11.761 43.713 12.0926C43.5947 12.3849 43.5594 12.704 43.6109 13.015C43.6645 13.3259 43.8062 13.6151 44.0193 13.8483C44.2257 14.082 44.4964 14.2501 44.7977 14.3318C45.1076 14.4104 45.4323 14.4104 45.7421 14.3318C46.0824 14.2368 46.3962 14.0652 46.6595 13.8303C46.9228 13.5954 47.1285 13.3034 47.2608 12.9768C47.3756 12.6792 47.4108 12.357 47.363 12.0417C47.3112 11.7352 47.1716 11.4502 46.9609 11.2211C46.7542 10.9834 46.4808 10.8128 46.1761 10.7312C45.8689 10.6486 45.5452 10.6486 45.238 10.7312C44.9098 10.8284 44.61 11.003 44.3638 11.2402H44.3511Z" fill="#3AB3FE"/>
<path d="M47 19.6525L53.1984 18L53.7061 19.3335L48.9115 20.6148L49.5383 22.2777L54.3391 20.9965L54.853 22.3405L50.0647 23.6374L50.6914 25.2952L55.4923 24.0087L56 25.3475L49.8078 27L47 19.6525Z" fill="#3AB3FE"/>
<path d="M49 28.0307L55.9932 28V29.6459H53.3632V30.1986L56 31.9304V33.7236L52.6281 31.4514L49.0135 34V32.1208L51.7852 30.1801V29.652H49.0068L49 28.0307Z" fill="#3AB3FE"/>
<path d="M48.1213 36.697C48.2435 36.207 48.4619 35.7455 48.7643 35.3387C49.0294 34.9766 49.369 34.6738 49.7609 34.4501C50.1416 34.2293 50.5637 34.0868 51.0017 34.0312C51.9096 33.9116 52.8295 34.1386 53.5735 34.6659C53.9435 34.9143 54.2578 35.2352 54.4967 35.6086C54.7356 35.9821 54.8941 36.4001 54.9623 36.8366C55.0327 37.3302 55.0043 37.8327 54.8787 38.3155C54.7578 38.804 54.5392 39.2636 54.2357 39.6674C53.9685 40.0294 53.6295 40.3339 53.2392 40.5624C52.8568 40.7785 52.4352 40.9187 51.9983 40.9749C51.0913 41.0797 50.1768 40.854 49.4265 40.3402C49.0554 40.0946 48.7401 39.7752 48.501 39.4025C48.2619 39.0299 48.1041 38.6121 48.0377 38.1759C47.9673 37.6823 47.9957 37.1798 48.1213 36.697V36.697ZM51.8825 35.8021C51.536 35.7199 51.1747 35.7199 50.8282 35.8021C50.5177 35.8775 50.232 36.0305 49.9987 36.2463C49.7735 36.4668 49.6172 36.7467 49.5486 37.0524C49.4711 37.3543 49.4845 37.672 49.5873 37.9664C49.6989 38.265 49.8845 38.5313 50.1273 38.7408C50.3976 38.9716 50.7229 39.1309 51.0725 39.2041C51.4164 39.2898 51.7765 39.2898 52.1204 39.2041C52.4344 39.1328 52.7231 38.9793 52.9563 38.7598C53.183 38.5411 53.3421 38.2633 53.4149 37.9587C53.4878 37.6542 53.4714 37.3355 53.3678 37.0397C53.2572 36.7304 53.0613 36.4578 52.802 36.2527C52.5364 36.0322 52.2211 35.8776 51.8825 35.8021V35.8021Z" fill="#3AB3FE"/>
<path d="M47.989 40L49.3077 40.6494C49.2216 40.8041 49.1784 40.9759 49.1821 41.1494C49.1922 41.3414 49.2619 41.5268 49.383 41.6839C49.5552 41.9215 49.7671 42.1329 50.011 42.3103C50.4101 42.5927 50.8297 42.85 51.2669 43.0805L53 44.023L50.6515 48L45 45.2069L45.8037 43.8506L50.1993 46.0057L51.0408 44.5805L50.4129 44.2356C49.8036 43.9175 49.2294 43.546 48.6985 43.1264C48.3321 42.8449 48.0311 42.499 47.8132 42.1092C47.6475 41.795 47.5821 41.4444 47.6248 41.0977C47.6727 40.7147 47.7961 40.3427 47.989 40V40Z" fill="#3AB3FE"/>
<path d="M43.0519 48.1548C43.3884 47.7905 43.7946 47.4971 44.2464 47.2921C44.646 47.1103 45.0782 47.011 45.5172 47.0002C45.952 46.9952 46.3836 47.0749 46.7879 47.235C47.1985 47.3961 47.574 47.6353 47.8934 47.9391C48.3321 48.3502 48.6599 48.8652 48.8465 49.4363C49.0267 50.0012 49.0487 50.6045 48.9101 51.1809C48.7545 51.8168 48.4244 52.3968 47.957 52.8558C47.5242 53.3463 46.9597 53.7029 46.3304 53.8835C45.767 54.0388 45.172 54.0388 44.6086 53.8835C44.0487 53.7264 43.536 53.4345 43.1155 53.0334L42.8995 52.8113L42.7343 52.6147L46.2796 48.8907C46.0366 48.6955 45.7481 48.5646 45.4409 48.5101C45.1581 48.4565 44.8661 48.4806 44.5959 48.5799C44.3247 48.6776 44.0807 48.8385 43.8843 49.0493C43.6526 49.2914 43.4865 49.5883 43.4014 49.9121C43.3113 50.209 43.3293 50.5281 43.4522 50.813L42.1815 51.587C42.0444 51.2291 41.9839 50.8467 42.0037 50.4641C42.0267 50.0526 42.1236 49.6487 42.2895 49.2714C42.4774 48.8581 42.7353 48.4804 43.0519 48.1548V48.1548ZM47.1119 49.614L44.7166 52.1516C44.9554 52.3432 45.2363 52.4759 45.5362 52.5386C45.8154 52.595 46.1046 52.5775 46.375 52.4878C46.6521 52.3922 46.9022 52.2317 47.1045 52.0198C47.3068 51.8079 47.4553 51.5507 47.5377 51.2698C47.6076 50.995 47.6076 50.7071 47.5377 50.4323C47.4651 50.1231 47.3191 49.8359 47.1119 49.5949V49.614Z" fill="#3AB3FE"/>
</svg>
