<svg width="110" height="89" viewBox="0 0 110 89" fill="none" xmlns="http://www.w3.org/2000/svg">
<path d="M68.959 77.9416V75.8411C69.2414 75.8293 69.4944 75.7587 69.718 75.6292C69.9416 75.4998 70.1358 75.2821 70.3005 74.9761C70.477 74.6584 70.6124 74.2171 70.7065 73.6522C70.8124 73.0874 70.883 72.3637 70.9183 71.4811L71.0419 68.5685H77.979V77.8181H75.6137V70.6338H73.1248L73.0895 71.7105C73.0424 72.9226 72.9247 73.9288 72.7365 74.729C72.5482 75.5292 72.2834 76.1647 71.9421 76.6354C71.6126 77.0943 71.2008 77.4238 70.7065 77.6239C70.2123 77.8239 69.6298 77.9299 68.959 77.9416Z" fill="#3AB3FE"/>
<path d="M84.523 77.9946C83.7816 77.9946 83.1109 77.871 82.5107 77.6239C81.9105 77.365 81.3986 77.0178 80.975 76.5824C80.5514 76.1353 80.2219 75.6292 79.9865 75.0644C79.7629 74.4878 79.6511 73.8817 79.6511 73.2463C79.6511 72.3637 79.8453 71.5576 80.2336 70.828C80.6337 70.0984 81.1986 69.5158 81.9282 69.0804C82.6696 68.6333 83.5404 68.4097 84.5407 68.4097C85.5527 68.4097 86.4176 68.6333 87.1355 69.0804C87.8533 69.5158 88.4005 70.0984 88.7771 70.828C89.1654 71.5458 89.3596 72.3225 89.3596 73.158C89.3596 73.2992 89.3537 73.4463 89.3419 73.5993C89.3302 73.7405 89.3184 73.8582 89.3066 73.9523H82.1577C82.2047 74.423 82.3401 74.8349 82.5637 75.1879C82.799 75.541 83.0932 75.8116 83.4463 75.9999C83.8111 76.1764 84.1994 76.2647 84.6113 76.2647C85.082 76.2647 85.5233 76.1529 85.9352 75.9293C86.3588 75.694 86.6471 75.388 86.8001 75.0114L88.83 75.5763C88.6065 76.047 88.2828 76.4648 87.8592 76.8296C87.4473 77.1944 86.959 77.4827 86.3941 77.6945C85.8292 77.8945 85.2055 77.9946 84.523 77.9946ZM82.1047 72.4519H86.9413C86.8942 71.9812 86.7589 71.5752 86.5353 71.2339C86.3235 70.8809 86.0411 70.6103 85.688 70.422C85.335 70.2219 84.9408 70.1219 84.5054 70.1219C84.0817 70.1219 83.6934 70.2219 83.3403 70.422C82.9991 70.6103 82.7166 70.8809 82.4931 71.2339C82.2812 71.5752 82.1518 71.9812 82.1047 72.4519Z" fill="#3AB3FE"/>
<path d="M93.0423 77.8181V70.6338H90.1121V68.5685H98.3555V70.6338H95.4077V77.8181H93.0423Z" fill="#3AB3FE"/>
<path d="M24.8772 30.521H35.28V38.01H24.8772V48.0978H17.4028V38.01H7V30.521H17.4028V20.2655H24.8772V30.521Z" fill="#3AB3FE"/>
<path d="M69.2795 54.4411H39.6886V47.1756L49.6452 37.0878C51.709 34.9268 53.308 33.1943 54.4422 31.8902C55.595 30.5862 56.4038 29.4777 56.8686 28.5649C57.3334 27.652 57.5658 26.7019 57.5658 25.7146C57.5658 24.5037 57.1754 23.6281 56.3945 23.0878C55.6136 22.5476 54.6932 22.2774 53.6334 22.2774C52.3505 22.2774 51.049 22.65 49.7289 23.3952C48.4274 24.1218 46.9492 25.2023 45.2944 26.6367L39.2424 19.5389C40.4695 18.4398 41.771 17.3965 43.1469 16.4092C44.5228 15.4032 46.1497 14.5835 48.0276 13.9501C49.9055 13.3167 52.1924 13 54.8884 13C57.6588 13 60.0573 13.4844 62.084 14.4531C64.1292 15.4218 65.7096 16.7538 66.8252 18.4491C67.9408 20.1257 68.4986 22.0353 68.4986 24.1776C68.4986 26.5436 68.0616 28.658 67.1878 30.521C66.3325 32.3653 65.0403 34.2189 63.3111 36.0818C61.5819 37.9261 59.4252 40.022 56.8407 42.3693L53.8565 45.0519V45.3313H69.2795V54.4411Z" fill="#3AB3FE"/>
<path d="M103 34.0699C103 37.3486 102.74 40.2828 102.219 42.8723C101.698 45.4431 100.862 47.6321 99.709 49.4391C98.5749 51.2462 97.0688 52.6248 95.1909 53.5749C93.313 54.525 91.0075 55 88.2743 55C84.8718 55 82.0828 54.171 79.9074 52.513C77.732 50.8363 76.1237 48.4425 75.0825 45.3313C74.0599 42.2016 73.5486 38.4478 73.5486 34.0699C73.5486 29.6547 74.0134 25.8822 74.9431 22.7525C75.8913 19.6041 77.4438 17.1916 79.6006 15.515C81.7574 13.8383 84.6486 13 88.2743 13C91.6768 13 94.4565 13.8383 96.6133 15.515C98.7887 17.173 100.397 19.5762 101.438 22.7246C102.479 25.8543 103 29.6361 103 34.0699ZM84.5092 34.0699C84.5092 36.7339 84.6022 38.9694 84.7881 40.7764C84.9926 42.5835 85.3645 43.9434 85.9037 44.8563C86.4615 45.7505 87.2517 46.1976 88.2743 46.1976C89.2969 46.1976 90.0778 45.7505 90.617 44.8563C91.1562 43.9434 91.5281 42.5928 91.7326 40.8044C91.9371 38.9973 92.0394 36.7525 92.0394 34.0699C92.0394 31.3686 91.9371 29.1144 91.7326 27.3074C91.5281 25.5003 91.1562 24.1404 90.617 23.2275C90.0778 22.2961 89.2969 21.8303 88.2743 21.8303C87.2517 21.8303 86.4615 22.2961 85.9037 23.2275C85.3645 24.1404 84.9926 25.5003 84.7881 27.3074C84.6022 29.1144 84.5092 31.3686 84.5092 34.0699Z" fill="#3AB3FE"/>
</svg>
