<svg width="95" height="97" viewBox="0 0 95 97" fill="none" xmlns="http://www.w3.org/2000/svg">
<ellipse cx="47.5" cy="48.9411" rx="47.5" ry="48.0588" fill="#004E96"/>
<path d="M24.3243 25.1849C23.8913 25.6181 23.3443 25.9279 22.7426 26.0805C22.1872 26.2285 21.601 26.2285 21.0456 26.0805L24.5385 29.5587L22.965 31.054L14.5293 22.6822L15.9133 21.3788L16.9431 22.4023C16.8313 21.8474 16.8566 21.2747 17.0172 20.7312C17.1872 20.1691 17.5085 19.6613 17.9481 19.2599C18.3435 18.8811 18.8184 18.5893 19.3404 18.4043C19.848 18.2337 20.3862 18.1656 20.922 18.2044C21.4695 18.24 22.0056 18.3728 22.5037 18.5963C23.0287 18.8385 23.5056 19.1687 23.9124 19.5718C24.4634 20.1056 24.883 20.7534 25.1398 21.4668C25.3769 22.1126 25.4338 22.8078 25.3046 23.4818C25.1686 24.1347 24.8258 24.7302 24.3243 25.1849ZM22.479 24.3853C22.719 24.1658 22.8976 23.8907 22.998 23.5857C23.0957 23.3001 23.1321 22.998 23.1051 22.6982C23.0802 22.3926 22.9963 22.0942 22.8579 21.8186C22.7187 21.5235 22.5294 21.2532 22.2978 21.019C22.0626 20.7809 21.7831 20.5883 21.474 20.4513C21.1852 20.3213 20.8726 20.2479 20.5545 20.2356C20.2364 20.2232 19.919 20.2721 19.6204 20.3793C19.3115 20.4912 19.0307 20.6657 18.7966 20.8911C18.6396 21.0351 18.5112 21.2058 18.4177 21.3948C18.1997 21.7897 18.097 22.2348 18.121 22.6822C18.1368 22.8929 18.1928 23.0989 18.2859 23.2899L19.6863 24.6812C19.9991 24.806 20.3297 24.8842 20.6667 24.9131C20.9984 24.9375 21.3318 24.8968 21.6469 24.7931C21.9553 24.7275 22.2415 24.5872 22.479 24.3853Z" fill="#3AB3FE"/>
<path d="M30.6707 20.8732C30.141 21.1411 29.5552 21.3134 28.948 21.38C28.3993 21.4428 27.8415 21.4032 27.3116 21.2636C26.2669 20.9926 25.3864 20.3725 24.8608 19.5376C24.4913 18.9746 24.2944 18.3376 24.2892 17.6884C24.2831 17.0505 24.4752 16.4232 24.8451 15.8734C25.267 15.2683 25.8675 14.7738 26.5834 14.4419C27.2769 14.0817 28.0711 13.8968 28.8776 13.9077C29.5978 13.9266 30.2986 14.116 30.9056 14.4556C31.5069 14.802 32.0016 15.2724 32.3463 15.8254C32.4089 15.9213 32.4638 16.0241 32.5186 16.1268C32.5665 16.2089 32.6082 16.2935 32.6438 16.3802L27.108 19.0856C27.3205 19.3718 27.6111 19.6072 27.9536 19.7705C28.27 19.9135 28.6236 19.9819 28.9794 19.9691C29.3343 19.9503 29.6797 19.8613 29.9895 19.7088C30.3485 19.5315 30.6523 19.2799 30.8743 18.976C31.0859 18.6976 31.18 18.3634 31.1405 18.0308L32.957 17.6473C32.9857 18.0593 32.9164 18.4721 32.7534 18.8596C32.5757 19.2779 32.3101 19.6635 31.9704 19.9965C31.5964 20.3504 31.1571 20.6467 30.6707 20.8732ZM26.419 18.0719L30.1617 16.2432C29.9579 15.9581 29.6751 15.7225 29.3396 15.5583C29.0332 15.4105 28.6871 15.3371 28.3373 15.346C27.9709 15.3501 27.6121 15.4374 27.2959 15.5994C26.977 15.7466 26.7071 15.9637 26.5129 16.2295C26.3278 16.4873 26.22 16.7818 26.1997 17.0857C26.177 17.4275 26.2524 17.7689 26.419 18.0788V18.0719Z" fill="#3AB3FE"/>
<path d="M34.851 18.194L32.9609 11.2632L34.8223 10.7919L35.541 13.4118L36.1662 13.2523L37.4311 10.1335L39.4577 9.62061L37.7832 13.6266L41.6352 16.5098L39.4792 17.0504L36.5399 14.8395L35.9434 14.992L36.698 17.7643L34.851 18.194Z" fill="#3AB3FE"/>
<path d="M44.5597 17.1222L44.374 10.5963L41.6933 10.6779L41.6367 8.76909L49.1702 8.54883L49.2267 10.4577L46.5299 10.5311L46.7237 17.057L44.5597 17.1222Z" fill="#3AB3FE"/>
<path d="M52.6989 17.02C52.0902 16.9141 51.511 16.7038 50.9944 16.401C50.5331 16.126 50.1432 15.7681 49.8502 15.3508C49.5666 14.9464 49.3736 14.4978 49.2819 14.0294C49.1088 13.0618 49.3448 12.0719 49.9449 11.2474C50.2431 10.8502 50.6231 10.5058 51.0653 10.232C51.5268 9.9557 52.048 9.7663 52.5963 9.6756C53.8283 9.50415 55.0889 9.73675 56.1394 10.3294C56.5977 10.6074 56.9869 10.9647 57.2836 11.3796C57.5727 11.7841 57.7659 12.2359 57.8518 12.7079C57.9304 13.1913 57.9144 13.6829 57.8045 14.1615C57.6887 14.6347 57.4804 15.0866 57.1889 15.4968C56.8936 15.8938 56.5161 16.2383 56.0763 16.5123C55.6167 16.7903 55.0946 16.9777 54.5454 17.0617C53.9327 17.1548 53.3053 17.1406 52.6989 17.02ZM51.452 12.9792C51.3527 13.3543 51.3527 13.7446 51.452 14.1198C51.557 14.4536 51.7582 14.7579 52.036 15.0031C52.3178 15.2408 52.6711 15.4025 53.054 15.469C53.4304 15.542 53.823 15.5154 54.1824 15.3925C54.5505 15.2638 54.8761 15.0558 55.1293 14.7875C55.4036 14.4861 55.5906 14.1304 55.6739 13.7512C55.7811 13.3768 55.7811 12.9849 55.6739 12.6106C55.5738 12.2749 55.3718 11.9696 55.0899 11.7273C54.815 11.4886 54.4665 11.3265 54.0877 11.2613C53.7068 11.1858 53.309 11.2099 52.9435 11.3309C52.5744 11.4578 52.2503 11.6691 52.0045 11.9429C51.7271 12.2434 51.5373 12.5992 51.452 12.9792Z" fill="#3AB3FE"/>
<path d="M61.8013 21.0108C61.251 20.7633 60.7833 20.3832 60.4473 19.9105C60.1335 19.4599 59.9587 18.9388 59.9415 18.4032L57.6738 22.4804L55.7324 21.561L61.1895 11.7637L62.8862 12.5701L62.2173 13.7759C62.7165 13.5141 63.2754 13.3643 63.8487 13.3388C64.4458 13.3222 65.0368 13.4522 65.5617 13.7156C66.0551 13.9402 66.4874 14.2648 66.8261 14.6652C67.1514 15.0513 67.3874 15.4951 67.5194 15.969C67.6526 16.4614 67.6913 16.9715 67.6337 17.4763C67.5647 18.0027 67.3934 18.5134 67.1279 18.9835C66.7863 19.6181 66.2925 20.1723 65.6841 20.6039C65.1312 21.0018 64.4766 21.2613 63.7835 21.3575C63.0998 21.4357 62.4067 21.3145 61.8013 21.0108ZM61.997 19.1719C62.2781 19.3117 62.5915 19.3867 62.9106 19.3905C63.2161 19.3909 63.5185 19.3345 63.7998 19.2247C64.1038 19.1157 64.3811 18.9517 64.6156 18.7424C64.851 18.5357 65.0468 18.2936 65.1947 18.0264C65.3462 17.7533 65.4429 17.4571 65.4802 17.1522C65.5174 16.8641 65.4925 16.5721 65.4068 16.293C65.3157 16.0188 65.169 15.763 64.9744 15.5394C64.7718 15.3066 64.5154 15.1187 64.224 14.9893C64.0359 14.8966 63.8315 14.8354 63.6203 14.8084C63.3955 14.7819 63.1681 14.7819 62.9433 14.8084C62.7165 14.8299 62.4942 14.8807 62.2826 14.9591C62.0826 15.0346 61.8998 15.1446 61.7442 15.2832L60.8388 16.911C60.8129 17.2196 60.8404 17.5299 60.9203 17.8305C60.9975 18.1274 61.1391 18.4069 61.3364 18.6519C61.5135 18.8672 61.7388 19.0446 61.997 19.1719Z" fill="#3AB3FE"/>
<path d="M69.9318 27.4598C69.5123 27.0072 69.1872 26.4777 68.975 25.9015C68.7868 25.3853 68.7113 24.8357 68.7536 24.2887C68.7971 23.7459 68.9474 23.2166 69.1964 22.7305C69.7094 21.7549 70.5674 20.9982 71.6081 20.6035C72.1132 20.416 72.6501 20.3261 73.1896 20.3385C73.7391 20.3612 74.2777 20.4965 74.7711 20.7359C75.3281 21.0092 75.8252 21.3877 76.2339 21.8501C76.6548 22.3016 76.9801 22.8314 77.1908 23.4083C77.3713 23.9152 77.4448 24.4532 77.4067 24.9891C77.3686 25.525 77.2198 26.0476 76.9693 26.5248C76.7108 27.0082 76.3651 27.4412 75.9493 27.8026C75.5438 28.1676 75.0715 28.4532 74.5576 28.644C74.0536 28.8352 73.5159 28.9252 72.9761 28.9089C72.4266 28.893 71.8871 28.7601 71.3946 28.5194C70.8435 28.2603 70.3472 27.9008 69.9318 27.4598ZM71.6556 23.0811C71.3099 23.3606 71.0384 23.719 70.8649 24.1251C70.7183 24.4831 70.6745 24.874 70.7383 25.2549C70.8048 25.6357 70.9804 25.9898 71.2444 26.2755C71.5002 26.5617 71.8356 26.7676 72.2091 26.8676C72.5931 26.9639 72.9954 26.9639 73.3794 26.8676C73.801 26.7513 74.1899 26.5411 74.5161 26.2534C74.8424 25.9657 75.0973 25.6081 75.2613 25.2081C75.4036 24.8436 75.4472 24.4489 75.3879 24.0628C75.3238 23.6874 75.1508 23.3383 74.8897 23.0577C74.6335 22.7667 74.2948 22.5577 73.9171 22.4578C73.5365 22.3565 73.1353 22.3565 72.7547 22.4578C72.348 22.5768 71.9764 22.7906 71.6714 23.0811H71.6556Z" fill="#3AB3FE"/>
<path d="M75.25 34.29L83.4644 32.1255L84.1372 33.8722L77.7832 35.5504L78.6138 37.7286L84.9761 36.0504L85.6571 37.8108L79.3115 39.5095L80.142 41.6809L86.5043 39.9959L87.1771 41.7494L78.971 43.9139L75.25 34.29Z" fill="#3AB3FE"/>
<path d="M78.502 45.0242L87.1679 44.9858V47.0436H83.9087V47.7347L87.1762 49.9V52.142L82.9979 49.3011L78.5187 52.4876V50.138L81.9533 47.7116V47.0513H78.5103L78.502 45.0242Z" fill="#3AB3FE"/>
<path d="M77.5683 55.791C77.7197 55.1909 77.9904 54.6257 78.365 54.1274C78.6936 53.6839 79.1144 53.313 79.6 53.0391C80.0718 52.7686 80.5948 52.5941 81.1376 52.526C82.2626 52.3795 83.4026 52.6575 84.3245 53.3034C84.783 53.6076 85.1725 54.0006 85.4686 54.458C85.7646 54.9154 85.961 55.4274 86.0455 55.962C86.1328 56.5666 86.0976 57.182 85.9419 57.7733C85.7922 58.3716 85.5213 58.9345 85.1452 59.4291C84.814 59.8725 84.3939 60.2454 83.9103 60.5252C83.4365 60.79 82.914 60.9616 82.3726 61.0305C81.2487 61.1588 80.1155 60.8824 79.1857 60.2531C78.7258 59.9522 78.3351 59.5611 78.0388 59.1047C77.7425 58.6482 77.547 58.1366 77.4647 57.6023C77.3774 56.9977 77.4126 56.3823 77.5683 55.791ZM82.2291 54.6949C81.7997 54.5942 81.352 54.5942 80.9226 54.6949C80.5378 54.7873 80.1839 54.9747 79.8948 55.2391C79.6156 55.5091 79.4219 55.8518 79.337 56.2263C79.2409 56.5961 79.2576 56.9851 79.3849 57.3458C79.5232 57.7115 79.7533 58.0376 80.0541 58.2942C80.3891 58.5768 80.7921 58.772 81.2253 58.8616C81.6516 58.9666 82.0977 58.9666 82.5239 58.8616C82.913 58.7743 83.2708 58.5863 83.5597 58.3175C83.8407 58.0496 84.0378 57.7093 84.1281 57.3363C84.2184 56.9633 84.1981 56.573 84.0696 56.2108C83.9326 55.8319 83.6898 55.4981 83.3685 55.2468C83.0393 54.9767 82.6486 54.7875 82.2291 54.6949Z" fill="#3AB3FE"/>
<path d="M76.7281 59.9893L78.3366 60.8592C78.2316 61.0665 78.179 61.2965 78.1834 61.529C78.1957 61.7863 78.2808 62.0346 78.4285 62.245C78.6386 62.5633 78.8971 62.8465 79.1945 63.0842C79.6814 63.4625 80.1932 63.8072 80.7265 64.1158L82.8406 65.3784L79.9758 70.706L73.082 66.9644L74.0624 65.1475L79.4243 68.0345L80.4507 66.1252L79.6848 65.6633C78.9416 65.2371 78.2412 64.7395 77.5936 64.1774C77.1466 63.8003 76.7794 63.3369 76.5136 62.8147C76.3115 62.3939 76.2318 61.9241 76.2838 61.4597C76.3422 60.9466 76.4928 60.4484 76.7281 59.9893Z" fill="#3AB3FE"/>
<path d="M70.0457 71.0487C70.4627 70.6025 70.966 70.2432 71.5259 69.992C72.0211 69.7694 72.5567 69.6478 73.1006 69.6346C73.6394 69.6284 74.1743 69.726 74.6753 69.922C75.1841 70.1194 75.6494 70.4123 76.0452 70.7845C76.5889 71.288 76.9951 71.9187 77.2262 72.6182C77.4495 73.31 77.4768 74.049 77.305 74.755C77.1122 75.5338 76.7032 76.2441 76.124 76.8062C75.5876 77.407 74.8882 77.8438 74.1084 78.065C73.4102 78.2553 72.6729 78.2553 71.9748 78.065C71.2809 77.8726 70.6456 77.5151 70.1245 77.0238L69.8568 76.7519L69.6521 76.511L74.0454 71.95C73.7442 71.7109 73.3867 71.5505 73.0061 71.4838C72.6557 71.4181 72.2938 71.4477 71.959 71.5693C71.6229 71.6889 71.3205 71.886 71.0772 72.1443C70.7901 72.4407 70.5842 72.8043 70.4788 73.201C70.3671 73.5645 70.3894 73.9554 70.5418 74.3043L68.9671 75.2523C68.7972 74.814 68.7222 74.3456 68.7467 73.877C68.7753 73.3731 68.8953 72.8783 69.101 72.4162C69.3337 71.9101 69.6533 71.4474 70.0457 71.0487ZM75.0768 72.8358L72.1085 75.9438C72.4045 76.1785 72.7526 76.341 73.1242 76.4177C73.4702 76.4868 73.8286 76.4654 74.1636 76.3556C74.507 76.2385 74.8169 76.042 75.0676 75.7824C75.3182 75.5229 75.5023 75.2079 75.6043 74.8638C75.691 74.5272 75.691 74.1746 75.6043 73.8381C75.5144 73.4594 75.3335 73.1076 75.0768 72.8125V72.8358Z" fill="#3AB3FE"/>
<path d="M44.5333 42.6741L56.5603 50.5953C56.6955 50.6842 56.8064 50.8048 56.8831 50.9463C56.9599 51.0878 57 51.2459 57 51.4064C57 51.5669 56.9599 51.725 56.8831 51.8665C56.8064 52.008 56.6955 52.1286 56.5603 52.2175L44.5308 60.1387C44.3825 60.2359 44.2103 60.2916 44.0325 60.2999C43.8548 60.3082 43.6781 60.2688 43.5211 60.1859C43.3642 60.103 43.2329 59.9796 43.1411 59.829C43.0494 59.6783 43.0006 59.5059 43 59.3301V43.4828C43.0003 43.3065 43.049 43.1337 43.1409 42.9827C43.2328 42.8316 43.3644 42.708 43.5217 42.625C43.6791 42.542 43.8562 42.5028 44.0344 42.5114C44.2125 42.5201 44.3849 42.5763 44.5333 42.6741Z" fill="white"/>
</svg>
