<svg width="110" height="89" viewBox="0 0 110 89" fill="none" xmlns="http://www.w3.org/2000/svg">
<path d="M31.5 21.4211V20.9211V17.0834C31.5 16.0238 31.5156 15.0421 31.5408 14.3131C31.5535 13.9495 31.5686 13.6439 31.586 13.4212C31.5945 13.3111 31.6043 13.213 31.6157 13.1353C31.6213 13.0976 31.6289 13.0537 31.6398 13.0111C31.6452 12.9902 31.654 12.9594 31.6678 12.9254C31.6774 12.9019 31.7083 12.8272 31.7767 12.7556L31.5 21.4211ZM31.5 21.4211H32M31.5 21.4211H32M32 21.4211H34.2162M32 21.4211H34.2162M48.8273 51.317L48.8273 51.3169C45.3137 49.7628 42.0701 46.4231 40.6412 42.8851C40.1159 41.5845 39.8305 40.8524 39.6747 39.4005C39.5232 37.9896 39.4911 35.8764 39.4344 31.7964L39.4297 31.4633C39.3728 27.3618 39.3454 25.3845 39.1614 24.2635C39.0704 23.709 38.9476 23.4153 38.7923 23.1913C38.6311 22.9589 38.4183 22.7722 38.0541 22.4525L48.8273 51.317ZM48.8273 51.317C49.9617 51.8186 50.8711 52.1397 51.9656 52.3478C53.0504 52.5542 54.301 52.6464 56.1113 52.7096L59.0392 52.8119L59.0843 60.207L59.1292 67.5789M48.8273 51.317L59.1292 67.5789M59.1292 67.5789H55.6703H51.7082H51.2082V68.0789V72.0395V76V76.5H51.7082H63.4963H75.2844H75.7844V76V72.0395V68.0789V67.5789H75.2844H71.3223H67.8635L67.9083 60.207L67.9534 52.8124L70.8808 52.7132C73.7373 52.6164 75.9953 52.2431 77.9615 51.4357C79.9338 50.6259 81.5794 49.3931 83.2319 47.6267L82.8667 47.2851L83.2319 47.6266C85.0767 45.6545 86.1882 44.0762 86.8153 41.7267C87.432 39.4157 87.5725 36.3823 87.5725 31.5257C87.5725 27.7939 87.5838 25.905 87.7342 24.7719C87.8077 24.219 87.9109 23.8791 88.0464 23.6079C88.1843 23.3316 88.3693 23.0974 88.6601 22.7577L88.6601 22.7576C89.1594 22.1742 89.553 21.8673 90.0948 21.6842C90.6675 21.4906 91.4455 21.4211 92.7522 21.4211H95H95.5064L95.5 20.9147L95.4502 17.0002L95.4005 13.0858L95.3942 12.5902L94.8986 12.5921L92.1357 12.603L92.1377 13.103L92.1357 12.603C90.0487 12.6113 89.0381 12.6924 88.1275 12.9626L88.1275 12.9626C84.0562 14.1708 80.8642 17.3611 79.3983 21.6382L78.7842 23.43L78.7583 23.5056L78.7572 23.5856L78.6589 31.1382L78.5618 38.5819L78.0203 39.7251C77.1154 41.6356 75.5433 42.9732 73.5043 43.566C72.6573 43.8122 72.0849 43.8585 69.2567 43.8329L67.8643 43.8203V28.6579V13V12.5H67.3643H63.4963H59.6283H59.1283V13V28.6579V43.8221L58.7471 43.8269C54.4571 43.8812 53.461 43.7276 51.9342 42.9486L51.9341 42.9486C50.8582 42.3997 49.5982 41.0463 48.9723 39.7251L48.4309 38.5818L48.3304 31.046C48.2333 23.7628 48.2164 23.2914 47.7809 21.9627L47.7808 21.9626C46.3496 17.5975 43.0662 14.2356 38.9606 12.9855L38.9606 12.9855C38.6351 12.8864 38.0503 12.8024 37.3987 12.7332C36.7306 12.6622 35.9446 12.6023 35.1872 12.5611C34.4306 12.52 33.695 12.4972 33.1288 12.5015C32.8472 12.5036 32.5974 12.5124 32.4044 12.5307C32.3092 12.5398 32.2144 12.5523 32.1311 12.5712C32.0896 12.5807 32.0394 12.5943 31.9882 12.615C31.9459 12.6322 31.8568 12.672 31.7771 12.7552L59.1292 67.5789ZM34.2162 21.4211C35.4541 21.4211 36.146 21.4615 36.6578 21.5996M34.2162 21.4211L36.6578 21.5996M36.6578 21.5996C37.1369 21.7289 37.4827 21.9509 38.0028 22.4075L36.6578 21.5996Z" fill="#3AB3FE" stroke="#3AB3FE"/>
</svg>
